<svg width="192" height="48" viewBox="0 0 192 48" fill="none" xmlns="http://www.w3.org/2000/svg">
<path d="M39.0959 40.6948C35.5049 44.6339 30.6422 47.0554 25.2831 47.0554C14.2264 47.0554 5.25973 36.7445 5.25973 24.0287C5.25973 11.3075 13.4513 1.05346 24.5083 1.05346C28.1265 1.05346 31.4173 2.16989 33.7641 4.60886C35.5432 6.46954 34.2715 8.97148 35.3141 10.5344C36.9785 13.0477 40.1329 12.4696 41.1589 11.3989C42.8617 9.61262 42.0376 7.25381 40.6295 5.8111C36.531 1.61444 30.7352 0 24.6118 0C11.0609 0 0.844727 10.7003 0.844727 23.9715C0.844727 37.2423 11.836 48 25.3869 48C31.4503 48 37.0005 45.8473 41.2847 42.2748C41.8467 41.8054 42.2015 40.6088 41.5194 40.0478C40.5642 39.2464 39.4892 40.2597 39.0963 40.6948H39.0962H39.0959Z" fill="#E6E6DD"/>
<path d="M26.0961 39.6926C26.0961 39.4005 25.8668 39.2804 25.3812 39.2804C23.815 39.2174 21.7137 38.8052 20.726 37.1621C19.056 34.3911 20.5788 32.6392 20.0603 30.6468C19.5418 28.6488 17.2988 27.5208 15.2413 28.8949C12.8129 30.5152 14.592 35.1926 17.7682 37.5342C19.0126 38.4503 21.1626 39.4407 23.5968 39.9216C24.3335 40.0647 24.9611 40.1048 25.4905 40.0877C25.9436 40.093 26.0962 39.9559 26.0962 39.6926V39.6927L26.0961 39.6926Z" fill="#E6E6DD"/>
<path d="M37.1642 23.4731C34.1844 20.496 27.6355 18.6525 23.3241 17.2898C20.1751 16.2077 18.7888 14.2898 18.7999 11.9998C18.8162 8.45015 21.5887 7.53982 23.1114 7.1162C23.7335 6.9387 23.6461 6.601 23.5589 6.42915C23.4444 6.1888 23.2042 6.0685 22.7402 6.1888C20.9338 6.68116 19.5477 7.33383 18.134 8.4445C14.7068 11.1469 13.1569 19.8606 22.5164 22.8033C22.8766 22.9235 29.0818 25.1736 30.7737 25.7975C33.9226 26.9655 36.766 28.5857 37.077 32.6964C37.3117 35.828 34.9868 37.5113 33.3713 38.2785C33.0493 38.4446 33.0603 38.6563 33.1748 38.8166C33.2895 38.9884 33.5732 39.0743 34.0098 38.8624C35.0467 38.3472 36.3511 37.4827 37.7208 35.9997C40.7769 32.7076 40.9626 27.2632 37.1642 23.4731Z" fill="#E6E6DD"/>
<path d="M110.173 41.0785L111.003 43.3972L113.361 43.5117L111.522 45.0519L112.143 47.4336L110.173 46.0825L108.203 47.4336L108.826 45.0519L106.981 43.5117L109.338 43.3972L110.173 41.0785Z" fill="#E6E6DD"/>
<path d="M97.9497 41.0785L98.7847 43.3972L101.142 43.5117L99.2975 45.0519L99.9251 47.4336L97.9495 46.0825L95.9794 47.4336L96.6071 45.0519L94.7623 43.5117L97.1201 43.3972L97.9497 41.0785Z" fill="#E6E6DD"/>
<path d="M85.6101 41.0785L86.4451 43.3972L88.8026 43.5117L86.958 45.0519L87.5802 47.4336L85.6101 46.0825L83.6454 47.4336L84.2621 45.0519L82.423 43.5117L84.7807 43.3972L85.6101 41.0785Z" fill="#E6E6DD"/>
<path d="M161.441 41.0785L162.266 43.3972L164.618 43.5117L162.784 45.0519L163.406 47.4336L161.441 46.0825L159.466 47.4336L160.093 45.0519L158.249 43.5117L160.601 43.3972L161.441 41.0785Z" fill="#E6E6DD"/>
<path d="M149.064 41.0785L149.894 43.3972L152.246 43.5117L150.406 45.0519L151.029 47.4336L149.064 46.0825L147.094 47.4336L147.716 45.0519L145.876 43.5117L148.229 43.3972L149.064 41.0785Z" fill="#E6E6DD"/>
<path d="M136.762 41.0785L137.598 43.3972L139.955 43.5117L138.116 45.0519L138.733 47.4336L136.762 46.0825L134.798 47.4336L135.42 45.0519L133.581 43.5117L135.934 43.3972L136.762 41.0785Z" fill="#E6E6DD"/>
<path d="M123.272 39.0515L124.374 42.1202L127.495 42.2747L125.051 44.3245L125.881 47.4847L123.272 45.6813L120.658 47.4847L121.481 44.3245L119.048 42.2747L122.158 42.1202L123.272 39.0515Z" fill="#E6E6DD"/>
<path d="M131.954 28.586C131.687 29.0096 131.409 29.3588 131.114 29.6337C130.78 29.937 130.426 30.086 130.039 30.086C129.727 30.086 129.454 30.0116 129.258 29.8457C129.045 29.6911 128.882 29.399 128.756 28.9869C128.636 28.586 128.554 28.0135 128.527 27.2978C128.483 26.5821 128.472 25.6663 128.472 24.5554V22.7463C128.472 22.0421 128.477 21.3723 128.499 20.7253C128.515 20.0842 128.532 19.5059 128.548 19.0077C128.565 18.5038 128.592 18.1662 128.625 17.9829C128.701 16.9753 128.21 16.6662 127.79 16.8493C127.402 17.061 126.977 17.3874 126.507 17.811C126.033 18.2462 125.781 18.8072 125.749 19.4828C125.672 20.8111 125.465 22.168 125.122 23.5765C124.979 24.0115 124.755 24.6127 124.461 25.4085C124.166 26.1987 123.811 26.9715 123.391 27.7502C122.971 28.5174 122.518 29.1813 122.027 29.7426C121.536 30.298 121.061 30.5784 120.608 30.5784C119.877 30.5784 119.401 30.1318 119.189 29.2272C118.981 28.3341 118.872 26.737 118.872 24.441V22.6547C118.872 21.9734 118.884 21.3208 118.9 20.6681C118.917 20.0211 118.933 19.4601 118.955 18.9734C118.971 18.4868 118.993 18.1604 119.031 17.9772C119.101 17.1356 118.61 16.6605 118.195 16.8436C117.808 17.0554 117.372 17.3818 116.875 17.8054C116.39 18.2405 116.143 18.8015 116.143 19.4771V25.2939C116.143 26.6566 116.215 27.7901 116.346 28.7176C116.111 29.0898 115.871 29.4046 115.609 29.6566C115.281 29.96 114.916 30.109 114.512 30.109C114.201 30.109 113.95 30.0289 113.743 29.8686C113.54 29.714 113.382 29.4219 113.257 29.0155C113.142 28.5976 113.066 28.0422 113.033 27.3267C112.995 26.611 112.984 25.7007 112.984 24.59C112.984 24.2694 112.989 23.8228 113.011 23.2503C113.022 22.6778 113.049 22.0765 113.087 21.4582C113.12 20.8343 113.175 20.2159 113.234 19.6091C113.425 17.8228 112.252 17.5766 111.74 17.714C111.308 17.8286 110.555 18.0747 109.999 17.5709C109.436 17.0786 108.563 16.8267 107.368 16.8267C106.647 16.8267 105.894 16.9812 105.097 17.279C104.3 17.5823 103.558 18.092 102.903 18.8075C102.232 19.5175 101.686 20.4736 101.266 21.676C100.933 22.5977 100.737 23.7142 100.66 25.0081C100.437 25.5348 100.169 26.0902 99.8529 26.6683C99.4709 27.3496 99.0507 27.985 98.5704 28.5862C98.0901 29.1759 97.5716 29.6626 97.0095 30.0632C96.4419 30.4526 95.8524 30.6529 95.2412 30.6529C94.7282 30.6529 94.2425 30.5613 93.7841 30.3838C93.3148 30.2063 92.9163 29.9143 92.5781 29.5021C92.2397 29.0899 91.9669 28.5402 91.7594 27.8589C91.5575 27.1777 91.4484 26.3359 91.4484 25.3342C91.4484 23.8913 91.5629 22.6947 91.7868 21.7272C92.005 20.7597 92.2998 19.9754 92.6599 19.3857C93.0201 18.796 93.8442 17.7483 95.0447 17.7483C96.3763 17.7483 97.4898 18.235 97.4898 19.1968C97.4898 19.4144 96.9442 22.1109 98.9797 21.7846C99.9731 21.6301 100.022 20.3019 99.8038 19.6777C98.9034 17.1414 96.1254 16.7808 94.9356 16.7808C94.2863 16.7808 93.4457 16.9125 92.6926 17.1817C91.945 17.4507 91.2519 17.9087 90.6133 18.5556C89.9803 19.1968 89.4562 20.0786 89.0306 21.1951C88.6049 22.3 88.3868 23.7198 88.3868 25.4374C88.3868 26.7313 88.5558 27.8018 88.9053 28.6664C88.9543 28.7982 89.0088 28.9183 89.069 29.0386C88.8997 29.2792 88.7196 29.4853 88.5395 29.6626C88.212 29.966 87.8465 30.115 87.4371 30.115C87.1317 30.115 86.8805 30.0349 86.6731 29.8744C86.4712 29.7198 86.3129 29.4278 86.1874 29.0214C86.0673 28.6035 85.9963 28.0481 85.9637 27.3326C85.92 26.6169 85.909 25.7066 85.909 24.5959C85.909 24.2753 85.9145 23.8287 85.9308 23.2562C85.9527 22.6837 85.9745 22.0824 86.0127 21.4641C86.0454 20.8402 86.1 20.2218 86.1599 19.615C86.3455 17.8287 85.1775 17.5824 84.6645 17.7199C84.2279 17.8345 83.4802 18.0806 82.918 17.5768C82.3559 17.0844 81.4772 16.8326 80.2876 16.8326C79.5781 16.8326 78.8196 16.9871 78.0173 17.2849C77.2151 17.5882 76.4893 18.0979 75.8234 18.8134C75.1631 19.5234 74.6174 20.4795 74.1917 21.6819C73.7659 22.8785 73.5531 24.3898 73.5531 26.2048C73.5531 28.1741 73.9133 29.6628 74.6281 30.6762C75.3486 31.6895 76.1943 32.2047 77.1823 32.2047C78.0281 32.2047 78.7977 31.9014 79.4744 31.2886C80.1566 30.6875 80.7514 29.9662 81.259 29.1245C81.772 28.2829 82.1868 27.447 82.5142 26.6054C82.8416 25.7638 83.0818 25.0939 83.2508 24.5901C83.2508 26.9488 83.4255 28.8039 83.7911 30.1608C84.1458 31.5177 84.9427 32.1989 86.1597 32.1989C86.9073 32.1989 87.5731 31.9472 88.1516 31.4432C88.6702 30.9966 89.1285 30.4642 89.5214 29.8632C89.7397 30.1895 89.9745 30.4814 90.2364 30.7278C90.7821 31.2487 91.4152 31.6265 92.1301 31.8614C92.856 32.0904 93.5708 32.2107 94.2858 32.2107C95.2463 32.2107 96.1086 31.9588 96.8726 31.4549C97.6476 30.9568 98.3133 30.3558 98.8753 29.6573C99.4375 28.9531 99.9177 28.2145 100.311 27.4246C100.442 27.1727 100.551 26.9379 100.66 26.7088C100.72 28.4206 101.069 29.7488 101.719 30.6707C102.434 31.684 103.285 32.1992 104.273 32.1992C105.124 32.1992 105.888 31.8959 106.57 31.2831C107.247 30.682 107.848 29.9607 108.355 29.119C108.863 28.2774 109.283 27.4414 109.605 26.5998C109.922 25.7582 110.172 25.0884 110.342 24.5846C110.342 26.9433 110.516 28.7983 110.877 30.1552C111.231 31.5121 112.028 32.1934 113.245 32.1934C114.004 32.1934 114.659 31.9416 115.237 31.4376C115.755 30.9911 116.198 30.4759 116.596 29.8746C116.667 30.1495 116.748 30.4014 116.847 30.6189C117.295 31.6552 118.189 32.1703 119.522 32.1703C120.285 32.1703 121 31.8841 121.671 31.3116C122.337 30.7391 122.937 30.0519 123.477 29.2448C124.024 28.4376 124.482 27.596 124.875 26.7372C125.257 25.8784 125.557 25.1571 125.77 24.5787C125.77 27.0578 125.944 28.9413 126.315 30.2352C126.681 31.5291 127.494 32.1703 128.755 32.1703C129.519 32.1703 130.201 31.9186 130.796 31.4147C131.39 30.9108 131.904 30.3097 132.346 29.617C132.881 28.7467 132.341 27.8879 131.953 28.5865H131.953L131.954 28.586ZM82.788 22.878C82.5042 24.023 82.1276 25.1623 81.6637 26.3073C81.2052 27.4524 80.6759 28.4486 80.081 29.3016C79.4916 30.1604 78.8858 30.5955 78.2691 30.5955C77.8979 30.5955 77.5159 30.2576 77.1503 29.5993C76.7737 28.9409 76.5881 27.773 76.5881 26.0898C76.5881 23.1986 76.9538 21.0746 77.685 19.7177C78.4164 18.3551 79.3169 17.6796 80.3701 17.6796C81.2924 17.6796 81.9966 17.9772 82.4876 18.5669C82.9788 19.1565 83.2243 19.7348 83.2243 20.3074C83.2243 20.8798 83.0771 21.7328 82.7878 22.878L82.7879 22.8781L82.788 22.878ZM109.885 22.878C109.595 24.023 109.224 25.1623 108.76 26.3073C108.302 27.4524 107.773 28.4486 107.177 29.3016C106.583 30.1604 105.972 30.5955 105.36 30.5955C104.989 30.5955 104.618 30.2576 104.241 29.5993C103.865 28.9409 103.685 27.773 103.685 26.0898C103.685 23.1986 104.045 21.0746 104.776 19.7177C105.508 18.3551 106.403 17.6796 107.455 17.6796C108.378 17.6796 109.082 17.9772 109.579 18.5669C110.07 19.1565 110.316 19.7348 110.316 20.3074C110.321 20.8798 110.173 21.7328 109.885 22.878V22.8781L109.885 22.878Z" fill="#E6E6DD"/>
<path d="M144.485 21.0061C143.644 20.3706 142.673 19.8896 140.648 18.9449C139.082 18.2063 138.362 17.9831 137.718 17.5594C136.402 16.6433 135.791 15.63 135.791 14.2903C135.791 11.9832 137.521 10.5461 140.059 10.5461C141.887 10.5461 143.366 11.2789 143.366 12.3668L143.328 12.7161C143.241 13.1397 143.208 13.3858 143.197 13.4546C143.147 14.342 143.841 14.9604 144.511 14.9604C145.287 14.9604 145.926 14.2218 145.926 13.3115C145.926 11.382 143.235 9.59021 140.086 9.59021C136.495 9.59021 133.478 12.3154 133.478 15.7162C133.478 17.4395 134.148 18.825 135.671 19.8383C136.424 20.348 137.171 20.8289 139.071 21.6705C140.768 22.4377 141.462 22.8671 142.127 23.3193C143.633 24.3728 144.452 25.5178 144.452 27.1724C144.452 29.8403 142.531 31.4091 139.677 31.4091C138.133 31.4091 137.237 31.2772 136.632 30.2639C136.522 30.0864 136.463 29.8803 136.463 29.6973V29.6C136.495 29.4912 136.495 29.4282 136.495 29.3596C136.517 29.2851 136.517 29.2507 136.555 29.1477L136.588 29.0104L136.626 28.621C136.626 27.848 135.982 27.1152 135.305 27.1152C134.563 27.1152 133.892 27.8825 133.892 28.7584C133.892 30.7622 136.626 32.4111 139.895 32.4111C141.686 32.4111 143.076 31.8444 144.452 30.5504C145.865 29.2164 146.57 27.6019 146.57 25.747C146.575 23.8462 145.997 22.2376 144.485 21.0067V21.0064L144.485 21.0061Z" fill="#E6E6DD"/>
<path d="M191.409 16.8155C191.141 16.4377 190.813 16.2544 190.415 16.2544C189.689 16.2544 189.329 16.6495 189.329 17.4339C189.329 17.7545 189.389 18.0521 189.503 18.3269C189.618 18.5961 189.738 18.8651 189.869 19.1285C190.006 19.3976 190.126 19.6782 190.246 19.9586C190.36 20.2506 190.415 20.554 190.415 20.8747C190.415 21.3786 190.322 22.0139 190.142 22.7811C189.956 23.554 189.722 24.367 189.422 25.2258C189.132 26.0845 188.772 26.9491 188.363 27.8363C187.948 28.7123 187.533 29.4909 187.108 30.1722C187.004 30.1722 186.862 29.9316 186.688 29.468C186.502 29.0101 186.306 28.4031 186.087 27.6703C185.869 26.9318 185.65 26.1302 185.421 25.2485C185.187 24.3725 184.973 23.508 184.782 22.6606C184.581 21.8248 184.428 21.0519 184.303 20.3591C183.773 17.1987 184.128 15.7445 182 17.5423C181.519 17.9488 181.137 18.8248 181.568 20.8744C181.656 21.3268 181.727 21.6587 181.863 22.1568C181.7 22.7695 181.46 23.508 181.148 24.3896C180.832 25.2655 180.516 26.1187 180.204 26.9431C179.893 27.7675 179.615 28.4661 179.364 29.0385C179.119 29.6109 178.944 29.8972 178.845 29.8972C178.775 29.8972 178.654 29.6739 178.475 29.2217C178.316 28.8324 176.313 20.7084 176.281 20.5596C175.62 17.382 176.04 15.7674 173.912 17.5768C173.454 17.9661 173.098 18.7792 173.415 20.5997C173.426 20.6913 173.448 20.783 173.459 20.8689C173.475 20.9146 173.492 21.012 173.53 21.1494C173.579 21.3955 173.628 21.6303 173.688 21.888C173.922 22.9129 174.316 24.5615 174.78 26.2791C175.299 28.18 176.019 30.3898 176.182 30.8594C177.039 33.304 178.709 31.993 179.244 30.9681C179.506 30.4642 179.789 29.8804 180.079 29.2163C180.384 28.5578 180.669 27.8708 180.947 27.178C181.23 26.4795 181.487 25.7983 181.716 25.1398C181.951 24.4756 182.142 23.8917 182.311 23.3879C182.513 24.1379 182.715 24.9337 182.927 25.7525C183.146 26.5769 183.354 27.3497 183.545 28.0654C183.741 28.781 183.921 29.3993 184.069 29.9203C184.21 30.4413 184.319 30.7506 184.39 30.8594C184.62 31.4319 184.936 31.8327 185.329 32.073C185.727 32.3078 186.83 32.6571 187.758 30.968C188.233 30.092 188.735 29.1475 189.209 28.094C189.689 27.0349 190.121 25.9585 190.491 24.8364C190.873 23.7315 191.19 22.6379 191.435 21.5616C191.687 20.4852 191.802 19.5005 191.802 18.6017C191.802 17.7943 191.671 17.1932 191.409 16.8154L191.409 16.8155H191.409Z" fill="#E6E6DD"/>
<path d="M171.522 19.0943C171.09 18.4188 170.55 17.8635 169.906 17.4397C169.252 16.9989 168.487 16.7871 167.598 16.7871C166.784 16.7871 166.01 16.9358 165.262 17.2507C164.525 17.554 163.87 18.0293 163.302 18.6705C162.74 19.3174 162.282 20.1361 161.927 21.1151C161.578 22.1054 161.403 23.262 161.403 24.5902C161.403 25.8726 161.561 27.0062 161.873 27.9738C161.988 28.3116 162.124 28.6322 162.266 28.9356C162.08 29.2105 161.894 29.4624 161.687 29.6513C161.37 29.9661 161.016 30.1092 160.622 30.1092C160.328 30.1092 160.093 30.0289 159.935 29.8686C159.766 29.7083 159.64 29.3934 159.558 28.9298C159.477 28.466 159.423 27.8076 159.406 26.9603C159.384 26.1187 159.379 25.0023 159.379 23.6054C159.379 21.1321 159.373 19.6093 158.996 18.573C158.549 17.3478 157.659 16.7809 156.415 16.7809C155.618 16.7809 154.887 17.0672 154.211 17.6397C153.534 18.2122 152.933 18.9107 152.431 19.7351C151.918 20.5539 151.482 21.4069 151.116 22.2885C150.75 23.1588 150.488 23.8915 150.324 24.464C150.324 24.464 150.33 21.7158 150.33 17.9659C150.33 14.6738 150.308 13.7065 150.352 11.1356C150.368 9.80739 149.266 10.4085 148.606 11.0784C147.924 11.7654 147.721 11.9886 147.721 12.8989C147.721 13.815 147.759 29.2157 147.738 29.7367C147.721 30.2635 147.624 30.7902 147.591 30.9677C147.525 31.254 147.459 31.4829 147.4 31.6374C147.329 31.7978 147.296 31.9351 147.296 32.0439C147.296 32.2214 147.377 32.3072 147.542 32.3072C147.809 32.3072 148.109 32.2214 148.431 32.0439C148.802 31.832 149.195 31.5 149.648 31.0762C150.09 30.6468 150.314 30.0859 150.314 29.4045C150.314 28.6544 150.38 27.9045 150.51 27.1488C150.642 26.3987 150.805 25.6603 151.007 24.9446C151.143 24.4751 151.34 23.8797 151.623 23.1469C151.907 22.4141 152.23 21.6928 152.617 20.9657C152.993 20.2557 153.408 19.6316 153.85 19.1163C154.297 18.5954 154.745 18.3378 155.209 18.3378C155.542 18.3378 155.809 18.4294 156.028 18.6011C156.241 18.7844 156.437 19.0764 156.519 19.5172C156.656 20.1814 156.611 20.5134 156.633 21.2692C156.656 22.3283 156.595 22.9752 156.595 24.126C156.595 26.8857 156.738 28.9181 157.015 30.2233C157.3 31.5288 158.232 32.1985 159.417 32.1985C160.143 32.1985 160.782 31.9467 161.322 31.4428C161.84 30.9618 162.299 30.4007 162.696 29.7367C162.839 29.96 162.991 30.1719 163.155 30.355C163.701 30.979 164.328 31.4485 165.038 31.7519C165.742 32.0611 166.501 32.2156 167.32 32.2156C168.553 32.2156 169.705 31.8262 170.578 30.8645C172.52 28.7232 172.711 25.7575 172.755 25.0017C172.772 24.6468 172.777 24.2748 172.777 23.8681C172.777 23.0493 172.673 22.2135 172.461 21.3719C172.258 20.5419 171.942 19.7747 171.522 19.0934L171.522 19.0938L171.522 19.0943ZM170.189 29.9265C169.616 30.7109 168.722 30.9742 167.811 30.9742C166.964 30.9742 165.916 30.459 165.284 29.4399C164.651 28.415 164.328 26.7433 164.328 24.4132C164.328 22.1231 164.651 20.4456 165.284 19.3865C165.923 18.333 166.964 17.8006 167.811 17.8006C168.481 17.8006 169.049 17.9724 169.524 18.3045C170.01 18.6539 170.403 19.0889 170.725 19.6212C171.041 20.1593 171.286 20.7434 171.472 21.3731C171.642 22.0086 172.537 26.7261 170.189 29.9265Z" fill="#E6E6DD"/>
<path d="M66.0724 10.3795C67.6659 10.4196 68.6811 10.7975 69.4779 11.7535C70.0837 12.4863 69.6361 13.8146 70.1437 14.5359C70.9623 15.7153 72.2993 15.4806 72.7032 14.9081C73.489 14.0322 73.1069 12.9673 72.4848 12.2745C70.6839 10.2707 68.1245 9.4978 65.4228 9.4978C59.4469 9.4978 54.7426 14.6161 54.7918 20.9539C54.8518 28.7688 59.8725 32.6619 65.8431 32.6619C68.5172 32.6619 70.875 31.4022 72.774 29.702C73.0578 29.4443 73.2708 28.8317 72.8396 28.4481C72.2829 27.95 71.748 28.5168 71.5789 28.7286C69.9907 30.6066 68.1353 31.597 65.7722 31.597C60.8987 31.597 58.3063 27.1371 58.3063 21.057C58.3119 14.9883 61.6845 10.2594 66.0723 10.3794L66.0724 10.3795Z" fill="#E6E6DD"/>
</svg>
