<svg width="236" height="48" viewBox="0 0 236 48" fill="none" xmlns="http://www.w3.org/2000/svg">
<path d="M206.006 33.9238L205.637 33.3908H205.616H205.23V33.9238H204.787V32.0116H205.616C206.126 32.0116 206.446 32.2759 206.446 32.7047C206.446 32.9922 206.301 33.2027 206.053 33.309L206.481 33.9238H206.006ZM205.591 32.3718H205.23V33.0386H205.591C205.861 33.0386 205.998 32.9126 205.998 32.7047C205.998 32.4948 205.861 32.3718 205.591 32.3718ZM205.518 35.1679C204.343 35.1679 203.387 34.2125 203.387 33.0378C203.387 31.8633 204.343 30.9077 205.518 30.9077C206.692 30.9077 207.648 31.8633 207.648 33.0378C207.648 34.2125 206.692 35.1679 205.518 35.1679ZM205.518 31.3024C204.561 31.3024 203.782 32.0813 203.782 33.0378C203.782 33.9948 204.561 34.773 205.518 34.773C206.475 34.773 207.253 33.9948 207.253 33.0378C207.253 32.0813 206.475 31.3024 205.518 31.3024ZM147.513 10.0845C148.625 8.73825 149.373 6.86385 149.169 4.99976C147.566 5.0633 145.627 6.06731 144.478 7.41324C143.447 8.60382 142.545 10.511 142.789 12.3383C144.575 12.4771 146.4 11.4303 147.513 10.0845ZM148.038 13.677C147.821 13.7073 147.661 13.8915 147.661 14.1104V14.5219C147.661 15.007 147.268 15.4555 146.783 15.5224L143.087 16.043C142.602 16.1109 142.21 15.7737 142.21 15.2894V15.0003C142.21 14.7338 141.974 14.5282 141.711 14.5661L141.223 14.6348C140.254 14.7705 139.468 15.6657 139.468 16.6357V33.9586C139.468 34.9267 140.254 35.6018 141.223 35.4657L148.648 34.4221C149.617 34.2865 150.402 33.3905 150.402 32.4215V15.0976C150.402 14.1302 149.617 13.4548 148.648 13.5913L148.038 13.677ZM195.047 26.454V28.2891C194.415 29.9577 192.884 30.9125 190.841 30.9125C188.892 30.9125 187.681 30.0439 187.681 28.6449C187.681 27.1709 188.816 26.454 191.152 26.454H195.047ZM191.306 13.5123C187.841 13.5123 184.426 14.4718 182.17 16.0786L181.993 16.2046L184.402 20.8922L184.641 20.7033C186.103 19.5417 188.345 18.82 190.492 18.82C193.414 18.82 194.944 20.0324 195.041 22.4262H190.492C184.558 22.4262 181.29 24.7312 181.29 28.9162C181.29 32.8436 184.521 35.4828 189.33 35.4828C192.082 35.4828 194.173 34.671 195.434 33.1223V35.1734H201.593V23.0257C201.593 16.8015 198.036 13.5123 191.306 13.5123ZM172.106 24.4981C172.106 27.8013 170.073 30.0212 167.048 30.0212C164.022 30.0212 161.989 27.8013 161.989 24.4981C161.989 21.1938 164.022 18.9747 167.048 18.9747C170.073 18.9747 172.106 21.1938 172.106 24.4981ZM168.094 13.5123C165.618 13.5123 163.594 14.2387 162.067 15.6707V5.9176H155.521V35.1734H161.796V33.1693C163.318 34.7052 165.433 35.4828 168.094 35.4828C174.356 35.4828 178.73 30.9662 178.73 24.4981C178.73 18.0306 174.356 13.5123 168.094 13.5123ZM127.881 23.8391C127.881 26.7036 125.737 28.704 122.667 28.704C119.575 28.704 117.415 26.7036 117.415 23.8391C117.415 20.9748 119.575 18.9747 122.667 18.9747C125.737 18.9747 127.881 20.9748 127.881 23.8391ZM128.113 13.8231V16.0739C126.528 14.3955 124.246 13.5123 121.466 13.5123C115.281 13.5123 110.791 17.8556 110.791 23.8391C110.791 29.8223 115.281 34.1658 121.466 34.1658C124.053 34.1658 126.229 33.3952 127.803 31.9283V32.2097C127.803 35.9259 125.938 37.6561 121.931 37.6561C119.298 37.6561 116.469 36.7501 114.726 35.3475L114.493 35.16L111.842 39.9487L112.012 40.0802C114.398 41.9371 118.183 43.0007 122.397 43.0007C130.328 43.0007 134.35 39.11 134.35 31.4352V13.8231H128.113ZM109.068 14.5113L98.5363 37.814C96.8853 41.5867 94.8425 42.805 92.1306 42.805C90.2845 42.805 88.5545 42.1766 87.376 40.9585L88.3581 39.4652C89.4194 40.566 90.6375 41.0767 92.1701 41.0767C94.0564 41.0767 95.4314 40.2121 96.6895 37.4213L97.789 34.9464L88.5545 14.5113H90.6375L98.8506 32.8638L107.064 14.5113H109.068ZM84.2705 14.5113V35.0246H82.3847V30.6239C81.0485 33.4921 78.2581 35.1817 74.6431 35.1817C69.4166 35.1817 66.0764 32.2346 66.0764 26.4974V14.5113H68.0411V26.3391C68.0411 30.9767 70.5178 33.4131 74.8002 33.4131C79.4376 33.4131 82.3061 30.3091 82.3061 25.4369V14.5113H84.2705ZM58.2563 24.7682C58.2563 19.6207 54.6802 16.1228 49.9651 16.1228C45.2493 16.1228 41.7125 19.6207 41.7125 24.7682C41.7125 29.916 45.2493 33.4131 49.9651 33.4131C54.6802 33.4131 58.2563 29.916 58.2563 24.7682ZM60.2215 24.7682C60.2215 30.8985 55.8601 35.1817 50.0828 35.1817C46.3896 35.1817 43.2844 33.3355 41.673 30.1906V35.0246H39.7868V5.86623H41.7514V19.1883C43.403 16.1228 46.4672 14.3543 50.0828 14.3543C55.8601 14.3543 60.2215 18.5986 60.2215 24.7682ZM29.5307 14.5113H31.4951V35.0246H29.5307V14.5113ZM28.9015 7.94921C28.9015 7.08414 29.6093 6.33804 30.513 6.33804C31.4169 6.33804 32.1246 7.04465 32.1246 7.90972C32.1246 8.81366 31.4169 9.52058 30.513 9.52058C29.6093 9.52058 28.9015 8.81365 28.9015 7.94921Z" fill="#E6E6DD"/>
</svg>
