<svg width="140" height="48" viewBox="0 0 140 48" fill="none" xmlns="http://www.w3.org/2000/svg">
<path d="M7.51355 47.9294V44.0419H10.3912V44.6989H8.30058V45.5621H10.2445V46.2191H8.30058V47.2724H10.4671V47.9294H7.51355ZM11.1351 47.9294V44.0419H11.8969L13.4968 46.647V44.0419H14.2244V47.9294H13.4382L11.8628 45.3738V47.9294H11.1351ZM17.5427 46.4961L18.3027 46.7295C18.1861 47.1574 17.9915 47.4752 17.7202 47.6833C17.4486 47.8906 17.1048 47.9945 16.6877 47.9945C16.1708 47.9945 15.7465 47.8181 15.4136 47.4653C15.0813 47.1124 14.9148 46.63 14.9148 46.0173C14.9148 45.3704 15.0822 44.8671 15.4161 44.5089C15.75 44.1503 16.1898 43.9713 16.7347 43.9713C17.2108 43.9713 17.597 44.1123 17.8938 44.3938C18.0711 44.5604 18.2034 44.7992 18.292 45.1116L17.5155 45.2961C17.4696 45.0951 17.3736 44.936 17.2278 44.8193C17.0813 44.7023 16.9038 44.6445 16.6959 44.6445C16.407 44.6445 16.1729 44.7476 15.9936 44.9549C15.8134 45.161 15.724 45.4961 15.724 45.9594C15.724 46.4499 15.8126 46.7999 15.989 47.0081C16.1663 47.2171 16.3962 47.3214 16.6794 47.3214C16.8885 47.3214 17.0686 47.2551 17.2187 47.1223C17.3691 46.9892 17.4775 46.781 17.5427 46.4961ZM18.814 46.0092C18.814 45.6128 18.8738 45.2798 18.9924 45.0101C19.0802 44.8119 19.2014 44.6338 19.3543 44.4763C19.5072 44.3188 19.6746 44.2019 19.8564 44.1251C20.0991 44.0229 20.3786 43.9713 20.6953 43.9713C21.269 43.9713 21.727 44.1494 22.072 44.5052C22.4158 44.8617 22.5876 45.3568 22.5876 45.9912C22.5876 46.6199 22.4167 47.1124 22.0754 47.4669C21.7344 47.8226 21.2772 47.9999 20.7063 47.9999C20.128 47.9999 19.6675 47.8234 19.3262 47.4698C18.985 47.1169 18.814 46.63 18.814 46.0092ZM19.6231 45.983C19.6231 46.4236 19.7253 46.7574 19.9289 46.9855C20.1326 47.2125 20.3914 47.3268 20.7043 47.3268C21.0184 47.3268 21.2756 47.2135 21.4772 46.9883C21.6783 46.762 21.7786 46.4236 21.7786 45.9719C21.7786 45.5259 21.6809 45.1928 21.4846 44.9739C21.2892 44.7541 21.0295 44.6445 20.7043 44.6445C20.3806 44.6445 20.119 44.7558 19.9208 44.9775C19.7228 45.2002 19.6231 45.5349 19.6231 45.983ZM23.1894 47.9294V44.0419H24.3687L25.0655 46.6932L25.7542 44.0419H26.936V47.9294H26.2085L26.2056 44.8688L25.4393 47.9294H24.6828L23.9198 44.8688L23.917 47.9294H23.1894ZM27.7233 47.9294V44.0419H30.6009V44.6989H28.5104V45.5621H30.4542V46.2191H28.5104V47.2724H30.6769V47.9294H27.7233ZM31.3449 47.9294V44.0419H32.1067L33.7065 46.647V44.0419H34.4341V47.9294H33.648L32.0725 45.3738V47.9294H31.3449ZM35.2659 44.0419H36.6975C37.0203 44.0419 37.2664 44.0662 37.4358 44.116C37.663 44.1829 37.8583 44.3024 38.0203 44.4743C38.1831 44.6454 38.3063 44.8553 38.3914 45.1042C38.4754 45.3523 38.5182 45.659 38.5182 46.0226C38.5182 46.3432 38.4783 46.6181 38.3987 46.8498C38.3018 47.133 38.1633 47.3621 37.9832 47.5366C37.8475 47.6697 37.6638 47.7728 37.4329 47.847C37.2602 47.9022 37.0294 47.9294 36.74 47.9294H35.2659V44.0419ZM36.0529 44.6989V47.2724H36.6366C36.8549 47.2724 37.0124 47.2596 37.1089 47.2352C37.2367 47.2036 37.3418 47.1495 37.425 47.0732C37.5092 46.9974 37.5768 46.8725 37.6295 46.6986C37.6828 46.525 37.7091 46.2868 37.7091 45.9867C37.7091 45.6862 37.6828 45.4561 37.6295 45.2951C37.5768 45.1341 37.5026 45.0093 37.4077 44.9187C37.3126 44.8291 37.1922 44.7677 37.0459 44.736C36.9371 44.7113 36.7227 44.6989 36.4041 44.6989H36.0529ZM42.6887 47.9294H41.8408L41.5052 47.0444H39.9458L39.6229 47.9294H38.7903L40.2999 44.0419H41.1313L42.6887 47.9294ZM41.2499 46.3873L40.7096 44.9487L40.1849 46.3873H41.2499ZM42.9013 46.6697L43.6668 46.5938C43.713 46.8498 43.8053 47.0371 43.9456 47.1574C44.086 47.2777 44.2752 47.3375 44.5131 47.3375C44.7646 47.3375 44.9546 47.2843 45.0824 47.1775C45.2098 47.0707 45.274 46.9458 45.274 46.8028C45.274 46.7105 45.2469 46.6326 45.1936 46.5675C45.14 46.5032 45.0461 46.4471 44.9121 46.4001C44.8207 46.3675 44.6125 46.3114 44.2868 46.2299C43.868 46.1252 43.5737 45.9966 43.4046 45.8436C43.1665 45.6289 43.048 45.3675 43.048 45.0588C43.048 44.8609 43.1041 44.6743 43.2154 44.5015C43.3276 44.3288 43.4887 44.1973 43.6994 44.1069C43.9105 44.0163 44.1639 43.9713 44.4624 43.9713C44.9484 43.9713 45.3148 44.079 45.56 44.2953C45.8062 44.5114 45.9348 44.7992 45.9475 45.1602L45.1602 45.1874C45.1265 44.9866 45.0551 44.8427 44.9456 44.755C44.8362 44.6672 44.6714 44.6227 44.4525 44.6227C44.2262 44.6227 44.0489 44.6697 43.9212 44.764C43.8387 44.8247 43.7972 44.9051 43.7972 45.0064C43.7972 45.0988 43.8362 45.1775 43.914 45.2427C44.0127 45.3267 44.2525 45.4137 44.6335 45.5043C45.0143 45.5938 45.2958 45.6879 45.4777 45.7838C45.6607 45.8807 45.8034 46.0119 45.9067 46.1791C46.0098 46.3465 46.0613 46.553 46.0613 46.7983C46.0613 47.0209 45.9998 47.2299 45.8758 47.4245C45.7518 47.619 45.5773 47.7637 45.3511 47.858C45.1248 47.9529 44.8424 47.9999 44.5049 47.9999C44.0135 47.9999 43.6362 47.8869 43.3729 47.6597C43.1095 47.4335 42.9529 47.1033 42.9013 46.6697ZM48.2381 47.9294V44.0419H48.9999L50.5997 46.647V44.0419H51.3272V47.9294H50.5411L48.9656 45.3738V47.9294H48.2381ZM55.6608 47.9294H54.8129L54.4773 47.0444H52.918L52.5952 47.9294H51.7626L53.272 44.0419H54.1035L55.6608 47.9294ZM54.2222 46.3873L53.6819 44.9487L53.157 46.3873H54.2222ZM58.5665 46.4961L59.3267 46.7295C59.2099 47.1574 59.0154 47.4752 58.7441 47.6833C58.4725 47.8906 58.1287 47.9945 57.7115 47.9945C57.1947 47.9945 56.7705 47.8181 56.4374 47.4653C56.1052 47.1124 55.9386 46.63 55.9386 46.0173C55.9386 45.3704 56.106 44.8671 56.4399 44.5089C56.7739 44.1503 57.2137 43.9713 57.7585 43.9713C58.2346 43.9713 58.6209 44.1123 58.9177 44.3938C59.095 44.5604 59.2272 44.7992 59.3159 45.1116L58.5393 45.2961C58.4935 45.0951 58.3975 44.936 58.2516 44.8193C58.1052 44.7023 57.9276 44.6445 57.7197 44.6445C57.4308 44.6445 57.1967 44.7476 57.0174 44.9549C56.8372 45.161 56.7478 45.4961 56.7478 45.9594C56.7478 46.4499 56.8364 46.7999 57.0129 47.0081C57.1902 47.2171 57.4201 47.3214 57.7033 47.3214C57.9123 47.3214 58.0925 47.2551 58.2425 47.1223C58.3929 46.9892 58.5014 46.781 58.5665 46.4961ZM59.9737 47.9294V44.0419H60.7611V47.9294H59.9737ZM61.3465 46.0092C61.3465 45.6128 61.4063 45.2798 61.5249 45.0101C61.6127 44.8119 61.7339 44.6338 61.8868 44.4763C62.0397 44.3188 62.2071 44.2019 62.3889 44.1251C62.6316 44.0229 62.9111 43.9713 63.2278 43.9713C63.8015 43.9713 64.2595 44.1494 64.6045 44.5052C64.9482 44.8617 65.1201 45.3568 65.1201 45.9912C65.1201 46.6199 64.9492 47.1124 64.6078 47.4669C64.2669 47.8226 63.8097 47.9999 63.2388 47.9999C62.6605 47.9999 62.2 47.8234 61.8587 47.4698C61.5175 47.1169 61.3465 46.63 61.3465 46.0092ZM62.1555 45.983C62.1555 46.4236 62.2578 46.7574 62.4614 46.9855C62.6651 47.2125 62.9239 47.3268 63.2368 47.3268C63.5509 47.3268 63.8081 47.2135 64.0097 46.9883C64.2107 46.762 64.3111 46.4236 64.3111 45.9719C64.3111 45.5259 64.2134 45.1928 64.0171 44.9739C63.8217 44.7541 63.562 44.6445 63.2368 44.6445C62.9131 44.6445 62.6515 44.7558 62.4532 44.9775C62.2553 45.2002 62.1555 45.5349 62.1555 45.983ZM65.733 47.9294V44.0419H66.4948L68.0946 46.647V44.0419H68.8222V47.9294H68.036L66.4606 45.3738V47.9294H65.733ZM73.1558 47.9294H72.3079L71.9723 47.0444H70.413L70.0901 47.9294H69.2574L70.7669 44.0419H71.5985L73.1558 47.9294ZM71.7171 46.3873L71.1768 44.9487L70.652 46.3873H71.7171ZM73.5477 47.9294V44.0419H74.335V47.9294H73.5477ZM74.8771 46.6697L75.6426 46.5938C75.6888 46.8498 75.7811 47.0371 75.9213 47.1574C76.0617 47.2777 76.2509 47.3375 76.4889 47.3375C76.7403 47.3375 76.9304 47.2843 77.0581 47.1775C77.1855 47.0707 77.2498 46.9458 77.2498 46.8028C77.2498 46.7105 77.2226 46.6326 77.1694 46.5675C77.1158 46.5032 77.0218 46.4471 76.8879 46.4001C76.7964 46.3675 76.5882 46.3114 76.2625 46.2299C75.8437 46.1252 75.5494 45.9966 75.3804 45.8436C75.1422 45.6289 75.0238 45.3675 75.0238 45.0588C75.0238 44.8609 75.0799 44.6743 75.1912 44.5015C75.3034 44.3288 75.4644 44.1973 75.6752 44.1069C75.8862 44.0163 76.1397 43.9713 76.4381 43.9713C76.9242 43.9713 77.2906 44.079 77.5358 44.2953C77.782 44.5114 77.9105 44.7992 77.9233 45.1602L77.1359 45.1874C77.1023 44.9866 77.0309 44.8427 76.9213 44.755C76.8119 44.6672 76.6472 44.6227 76.4282 44.6227C76.202 44.6227 76.0247 44.6697 75.897 44.764C75.8145 44.8247 75.7729 44.9051 75.7729 45.0064C75.7729 45.0988 75.812 45.1775 75.8898 45.2427C75.9884 45.3267 76.2283 45.4137 76.6092 45.5043C76.9901 45.5938 77.2716 45.6879 77.4534 45.7838C77.6364 45.8807 77.7791 46.0119 77.8825 46.1791C77.9855 46.3465 78.0371 46.553 78.0371 46.7983C78.0371 47.0209 77.9756 47.2299 77.8516 47.4245C77.7275 47.619 77.5531 47.7637 77.3269 47.858C77.1005 47.9529 76.8182 47.9999 76.4807 47.9999C75.9893 47.9999 75.612 47.8869 75.3486 47.6597C75.0853 47.4335 74.9286 47.1033 74.8771 46.6697ZM80.2138 47.9294V44.0419H83.0915V44.6989H81.0008V45.5621H82.9448V46.2191H81.0008V47.2724H83.1673V47.9294H80.2138ZM85.3168 47.9294V44.0419H86.1042V47.9294H85.3168ZM86.8527 47.9294V44.0419H87.6145L89.2143 46.647V44.0419H89.9419V47.9294H89.1557L87.5803 45.3738V47.9294H86.8527ZM91.6476 47.9294V44.6989H90.4966V44.0419H93.5805V44.6989H92.4349V47.9294H91.6476ZM94.0903 47.9294V44.0419H96.9679V44.6989H94.8773V45.5621H96.8212V46.2191H94.8773V47.2724H97.0438V47.9294H94.0903ZM97.7119 47.9294V44.0419H99.365C99.7804 44.0419 100.083 44.077 100.271 44.1469C100.46 44.2166 100.61 44.3404 100.723 44.5188C100.837 44.6978 100.893 44.9014 100.893 45.1314C100.893 45.4237 100.808 45.6643 100.637 45.8544C100.466 46.0443 100.211 46.1638 99.871 46.2137C100.04 46.3122 100.179 46.4208 100.289 46.5394C100.399 46.6581 100.548 46.8688 100.734 47.171L101.208 47.9294H100.27L99.707 47.0806C99.5054 46.7793 99.3669 46.5893 99.2919 46.5105C99.2177 46.4327 99.139 46.3783 99.0556 46.3494C98.9713 46.3205 98.8393 46.306 98.6583 46.306H98.4989V47.9294H97.7119ZM98.4989 45.687H99.08C99.4564 45.687 99.6909 45.6706 99.785 45.6391C99.8781 45.6074 99.9524 45.5522 100.005 45.4743C100.058 45.3964 100.085 45.2987 100.085 45.182C100.085 45.0509 100.049 44.9459 99.9795 44.8642C99.9099 44.7839 99.8112 44.7331 99.6844 44.7125C99.6204 44.7034 99.4292 44.6989 99.1118 44.6989H98.4989V45.687ZM101.633 47.9294V44.0419H102.395L103.994 46.647V44.0419H104.722V47.9294H103.936L102.36 45.3738V47.9294H101.633ZM109.056 47.9294H108.208L107.872 47.0444H106.313L105.99 47.9294H105.157L106.667 44.0419H107.498L109.056 47.9294ZM107.617 46.3873L107.077 44.9487L106.552 46.3873H107.617ZM111.961 46.4961L112.721 46.7295C112.605 47.1574 112.41 47.4752 112.139 47.6833C111.867 47.8906 111.524 47.9945 111.106 47.9945C110.589 47.9945 110.165 47.8181 109.832 47.4653C109.5 47.1124 109.334 46.63 109.334 46.0173C109.334 45.3704 109.501 44.8671 109.835 44.5089C110.169 44.1503 110.608 43.9713 111.153 43.9713C111.629 43.9713 112.016 44.1123 112.312 44.3938C112.49 44.5604 112.622 44.7992 112.711 45.1116L111.934 45.2961C111.888 45.0951 111.792 44.936 111.646 44.8193C111.5 44.7023 111.322 44.6445 111.115 44.6445C110.826 44.6445 110.591 44.7476 110.412 44.9549C110.232 45.161 110.143 45.4961 110.143 45.9594C110.143 46.4499 110.231 46.7999 110.408 47.0081C110.585 47.2171 110.815 47.3214 111.098 47.3214C111.307 47.3214 111.487 47.2551 111.637 47.1223C111.788 46.9892 111.896 46.781 111.961 46.4961ZM113.369 47.9294V44.0419H114.156V47.9294H113.369ZM114.741 46.0092C114.741 45.6128 114.801 45.2798 114.92 45.0101C115.007 44.8119 115.129 44.6338 115.282 44.4763C115.435 44.3188 115.602 44.2019 115.784 44.1251C116.026 44.0229 116.306 43.9713 116.623 43.9713C117.196 43.9713 117.654 44.1494 117.999 44.5052C118.343 44.8617 118.515 45.3568 118.515 45.9912C118.515 46.6199 118.344 47.1124 118.003 47.4669C117.662 47.8226 117.205 47.9999 116.634 47.9999C116.055 47.9999 115.595 47.8234 115.254 47.4698C114.912 47.1169 114.741 46.63 114.741 46.0092ZM115.55 45.983C115.55 46.4236 115.653 46.7574 115.856 46.9855C116.06 47.2125 116.319 47.3268 116.632 47.3268C116.946 47.3268 117.203 47.2135 117.404 46.9883C117.606 46.762 117.706 46.4236 117.706 45.9719C117.706 45.5259 117.608 45.1928 117.412 44.9739C117.216 44.7541 116.957 44.6445 116.632 44.6445C116.308 44.6445 116.046 44.7558 115.848 44.9775C115.65 45.2002 115.55 45.5349 115.55 45.983ZM119.128 47.9294V44.0419H119.89L121.489 46.647V44.0419H122.217V47.9294H121.431L119.855 45.3738V47.9294H119.128ZM126.551 47.9294H125.703L125.367 47.0444H123.808L123.485 47.9294H122.652L124.162 44.0419H124.993L126.551 47.9294ZM125.112 46.3873L124.572 44.9487L124.047 46.3873H125.112ZM126.943 47.9294V44.0419H127.73V47.9294H126.943ZM128.272 46.6697L129.037 46.5938C129.084 46.8498 129.176 47.0371 129.316 47.1574C129.457 47.2777 129.646 47.3375 129.884 47.3375C130.135 47.3375 130.325 47.2843 130.453 47.1775C130.58 47.0707 130.645 46.9458 130.645 46.8028C130.645 46.7105 130.617 46.6326 130.564 46.5675C130.511 46.5032 130.417 46.4471 130.283 46.4001C130.191 46.3675 129.983 46.3114 129.657 46.2299C129.238 46.1252 128.944 45.9966 128.775 45.8436C128.537 45.6289 128.419 45.3675 128.419 45.0588C128.419 44.8609 128.475 44.6743 128.586 44.5015C128.698 44.3288 128.859 44.1973 129.07 44.1069C129.281 44.0163 129.534 43.9713 129.833 43.9713C130.319 43.9713 130.685 44.079 130.931 44.2953C131.177 44.5114 131.305 44.7992 131.318 45.1602L130.531 45.1874C130.497 44.9866 130.426 44.8427 130.316 44.755C130.207 44.6672 130.042 44.6227 129.823 44.6227C129.597 44.6227 129.419 44.6697 129.292 44.764C129.209 44.8247 129.168 44.9051 129.168 45.0064C129.168 45.0988 129.207 45.1775 129.285 45.2427C129.383 45.3267 129.623 45.4137 130.004 45.5043C130.385 45.5938 130.666 45.6879 130.848 45.7838C131.031 45.8807 131.174 46.0119 131.277 46.1791C131.38 46.3465 131.432 46.553 131.432 46.7983C131.432 47.0209 131.37 47.2299 131.246 47.4245C131.122 47.619 130.948 47.7637 130.722 47.858C130.495 47.9529 130.213 47.9999 129.875 47.9999C129.384 47.9999 129.007 47.8869 128.743 47.6597C128.48 47.4335 128.323 47.1033 128.272 46.6697Z" fill="#E6E6DD"/>
<path d="M17.1914 17.4436L22.4026 17.4539L22.4166 10.4223L28.7431 17.5292L33.7663 17.5391L33.8004 0.27404L28.6205 0.263699L28.6044 8.45693L22.593 0.220234L17.2256 0.209583L17.1914 17.4436ZM54.3282 0.313366L60.261 0.325293L63.9418 11.9465L67.7005 0.308195L73.6328 0.31969L67.2271 17.5722L60.6038 17.559L54.3282 0.313366ZM78.6652 11.0651L80.4337 5.48146L82.0854 11.0717L78.6652 11.0651ZM83.6763 0.371169L77.147 0.358521L70.7096 17.5789L76.6419 17.5904L77.3369 15.5512L83.521 15.5635L84.0822 17.5738L90.0154 17.5857L83.6763 0.371169ZM45.1553 2.08863e-05C39.9164 -0.00999889 35.7312 3.58594 35.6997 8.92743C35.6687 14.3224 39.8808 17.8813 45.1199 17.8914C50.3571 17.9019 54.6141 14.3073 54.6247 8.96455C54.6353 3.62158 50.3921 0.0104626 45.1553 2.08863e-05ZM45.1626 13.3151C42.846 13.3105 40.9703 11.354 40.9752 8.94546C40.98 6.53607 42.8633 4.58749 45.1799 4.59182C47.4964 4.59656 49.3717 6.55221 49.3672 8.96192C49.3624 11.3706 47.4792 13.3195 45.1626 13.3151Z" fill="#E6E6DD"/>
<path d="M42.6502 20.8163L49.0539 20.8289L42.3013 29.5022L48.9832 38.0914L42.6163 38.079L39.128 33.545L35.5493 38.1022L29.2178 38.0896L35.8968 29.4897L29.9549 21.6995L27.683 24.5582C27.683 24.5582 27.032 25.3808 26.0506 25.3469L0.869629 25.2975L3.9014 21.4559C3.9014 21.4559 4.40819 20.8181 5.39087 20.7941L29.3 20.8408L29.2897 20.8274L35.5832 20.8398L39.108 25.4476L42.6502 20.8163Z" fill="#E6E6DD"/>
<path d="M60.3838 20.8924L50.2989 20.8724L50.265 38.0976L55.4547 38.1079L55.4652 32.6237L59.6985 32.632C59.6985 32.632 65.6962 32.829 65.7459 26.5345C65.7459 26.5345 65.6826 21.5279 60.3838 20.8924ZM59.0079 28.1853L55.5116 28.1973L55.5168 25.4365L59.2339 25.4237C60.3009 25.4938 60.4095 26.6343 60.4095 26.6343C60.4793 28.1433 59.0079 28.1853 59.0079 28.1853Z" fill="#E6E6DD"/>
<path d="M81.8602 23.5206L83.3051 21.6781C83.3051 21.6781 83.9361 21.0301 84.7915 21.0159L100.15 21.046L97.2157 24.7615C97.2157 24.7615 96.5701 25.5834 95.5877 25.5499L82.64 25.5247C82.6898 25.757 82.7234 25.9701 82.7463 26.1544H79.2307V21.3485C80.5135 21.8345 81.3346 22.6572 81.8602 23.5206Z" fill="#E6E6DD"/>
<path d="M112.412 26.6516L115.238 22.9997C115.238 22.9997 112.902 20.693 108.259 20.684C108.259 20.684 101.484 20.3128 100.881 26.1178C100.881 26.1178 100.388 30.0484 104.707 31.4208C104.707 31.4208 106.1 31.8964 106.734 31.9766C106.734 31.9766 109.346 32.4568 109.725 32.5837C109.725 32.5837 110.533 32.7758 110.484 33.2664C110.484 33.2664 110.515 33.8368 109.549 34.0091C109.549 34.0091 106.633 34.8581 103.219 32.0808L100.33 35.7324C100.33 35.7324 102.842 38.5874 108.447 38.5349C108.447 38.5349 114.937 38.801 115.687 33.609C115.687 33.609 116.198 31.1825 114.871 29.6597C114.871 29.6597 114.042 28.0013 110.021 27.1381C110.021 27.1381 107.531 26.669 107.172 26.5625C107.172 26.5625 106.049 26.3385 106.176 25.7528C106.176 25.7528 106.24 25.1518 107.175 25.0742C107.175 25.0742 110.041 24.8739 112.412 26.6516Z" fill="#E6E6DD"/>
<path d="M128.529 26.6827L131.355 23.0307C131.355 23.0307 129.018 20.724 124.375 20.715C124.375 20.715 117.601 20.3438 116.997 26.1489C116.997 26.1489 116.505 30.079 120.824 31.4515C120.824 31.4515 122.217 31.9271 122.85 32.0076C122.85 32.0076 125.462 32.4874 125.842 32.6148C125.842 32.6148 126.649 32.8068 126.6 33.2971C126.6 33.2971 126.63 33.8674 125.664 34.0397C125.664 34.0397 122.749 34.8892 119.335 32.1114L116.446 35.7634C116.446 35.7634 118.958 38.6184 124.563 38.5659C124.563 38.5659 131.054 38.832 131.803 33.64C131.803 33.64 132.314 31.2132 130.987 29.6908C130.987 29.6908 130.157 28.0323 126.138 27.1691C126.138 27.1691 123.647 26.7001 123.288 26.5932C123.288 26.5932 122.164 26.3695 122.292 25.7838C122.292 25.7838 122.357 25.1824 123.292 25.1053C123.292 25.1053 126.157 24.9049 128.529 26.6827Z" fill="#E6E6DD"/>
<path d="M9.37445 31.7057L12.4061 27.8641C12.4061 27.8641 13.0405 27.2166 13.8956 27.2019L29.2539 27.2321L26.3017 30.9473C26.3017 30.9473 25.6511 31.7694 24.6693 31.7356L9.37445 31.7057Z" fill="#E6E6DD"/>
<path d="M83.0539 31.8504L86.0852 28.0088C86.0852 28.0088 86.7197 27.3612 87.5747 27.3467L98.8761 27.3689L95.9238 31.0841C95.9238 31.0841 95.2729 31.9059 94.2907 31.8723L83.0539 31.8504Z" fill="#E6E6DD"/>
<path d="M84.3729 38.1795L87.4042 34.3379C87.4042 34.3379 88.0394 33.6895 88.8944 33.6753L100.195 33.6975L97.2428 37.4127C97.2428 37.4127 96.5918 38.2345 95.6108 38.2014L84.3729 38.1795Z" fill="#E6E6DD"/>
<path d="M10.7309 38.0103L13.7631 34.1683C13.7631 34.1683 14.3974 33.5207 15.2526 33.5065L30.6109 33.5366L27.6585 37.2519C27.6585 37.2519 27.0077 38.0736 26.0262 38.0402L10.7309 38.0103Z" fill="#E6E6DD"/>
<path d="M136.124 26.5039C134.724 26.5009 133.592 25.3509 133.595 23.9341C133.598 22.5173 134.735 21.3713 136.134 21.3738C137.533 21.3767 138.665 22.5272 138.662 23.944C138.659 25.3608 137.523 26.5067 136.124 26.5039ZM136.135 20.9863C134.5 20.9831 133.171 22.3024 133.168 23.9334C133.165 25.5644 134.488 26.8887 136.123 26.892C137.758 26.8954 139.086 25.5763 139.089 23.9449C139.093 22.3143 137.77 20.9897 136.135 20.9863Z" fill="#E6E6DD"/>
<path d="M136.231 23.7687L135.726 23.7676L135.727 22.9127L136.202 22.9137C136.629 22.9143 136.613 23.3419 136.613 23.3419C136.612 23.7696 136.231 23.7687 136.231 23.7687ZM136.722 24.1659C136.722 24.1659 137.356 24.0399 137.357 23.2801C137.357 23.2801 137.406 22.3301 136.218 22.344L134.983 22.3414L134.977 25.4925L135.722 25.4938L135.724 24.2904L136.041 24.291L136.735 25.4959L137.511 25.4975L136.722 24.1659Z" fill="#E6E6DD"/>
<path d="M77.4649 20.8925L67.3799 20.8724L67.3462 38.0976L72.5357 38.1078L72.5462 32.6237L74.4825 32.6276L76.9395 38.0767L82.8283 38.0882L79.7548 32.0824C79.7548 32.0824 79.8186 32.0535 79.9277 31.9932L79.877 31.8968C81.3516 31.1424 82.8027 29.6174 82.8271 26.5345C82.8271 26.5345 82.7637 21.5279 77.4649 20.8925ZM76.089 28.1854L72.5927 28.1973L72.5978 25.4365L76.315 25.4236C77.3819 25.4938 77.4906 26.6343 77.4906 26.6343C77.5605 28.1434 76.089 28.1854 76.089 28.1854Z" fill="#E6E6DD"/>
</svg>
