<svg width="103" height="48" viewBox="0 0 103 48" fill="none" xmlns="http://www.w3.org/2000/svg">
<path fill-rule="evenodd" clip-rule="evenodd" d="M40.4805 10.2851C40.3268 12.8511 40.697 13.6611 41.3358 15.772C44.6594 15.1269 42.3242 10.2146 45.8822 9.97435C47.4683 9.86743 48.5949 10.8716 48.688 12.3634C48.99 17.2009 53.1428 16.44 54.389 15.1325C55.628 13.8326 54.8473 12.5104 55.6481 11.2442C56.2832 10.2404 57.9324 9.70734 59.1959 10.4615C60.5221 11.2533 60.2749 12.7541 60.5891 14.3454C61.2329 15.0449 61.0568 15.3002 62.0339 15.8043C62.4037 15.4394 62.6523 14.5324 62.8003 13.8238L62.8514 13.9093C63.0446 13.0803 63.1468 12.2165 63.1468 11.3285C63.1468 5.50058 58.7468 0.701493 53.0883 0.0710634C53.0083 0.047028 52.9489 0.0238757 52.9127 0C52.8334 0.0118979 52.7563 0.0223569 52.6804 0.0323384C52.3969 0.0109381 52.1102 0 51.8209 0C50.1191 0 48.5051 0.376182 47.057 1.04869C45.939 1.55264 45.1336 2.14433 44.2522 2.85254C42.5594 4.21329 40.8217 6.99932 40.4805 10.2851ZM49.7458 22.4747L49.831 22.4827C50.4771 22.5972 51.1421 22.6572 51.8209 22.6572C55.4286 22.6572 58.6419 20.9699 60.7158 18.3411C60.7554 18.3145 60.7975 18.2883 60.843 18.2626L61.3869 17.4899C60.842 16.5292 60.3267 16.1147 60.2774 14.5448C60.2344 13.1711 59.4279 12.3477 58.0683 12.2086C56.9503 12.094 55.9327 12.7383 55.5115 13.541C54.8146 14.8685 55.5483 16.0067 54.3762 17.2639C52.7598 18.9982 48.8136 18.616 48.6622 15.0596C48.4835 10.8633 44.1471 11.7671 43.6357 13.9473C43.4487 14.7447 43.6366 15.2524 43.3318 16.0801C43.0195 16.9281 42.807 16.88 42.3568 17.4899C42.6787 18.4454 44.3065 19.8958 45.2574 20.5617C46.5654 21.4937 48.0797 22.1545 49.7189 22.4621L49.7458 22.4747ZM49.103 7.62727H48.659V6.03367C48.659 5.72664 48.6109 5.50458 48.5166 5.36779C48.4213 5.23005 48.2623 5.16146 48.0385 5.16146C47.8488 5.16146 47.687 5.24841 47.5547 5.42129C47.4215 5.59529 47.355 5.80259 47.355 6.04478V7.62727H46.9109V5.97994C46.9109 5.43447 46.7001 5.16146 46.2795 5.16146C46.084 5.16146 45.9241 5.24298 45.7975 5.40668C45.6708 5.5703 45.6079 5.78302 45.6079 6.04478V7.62727H45.1629V4.85251H45.6079V5.29185H45.6189C45.8151 4.95536 46.1026 4.78791 46.4801 4.78791C46.6695 4.78791 46.8351 4.84069 46.9758 4.94593C47.1173 5.0515 47.2133 5.1902 47.2661 5.36212C47.4715 4.97939 47.7785 4.78791 48.1874 4.78791C48.7978 4.78791 49.103 5.16425 49.103 5.91701V7.62727ZM51.1024 7.69212C50.6928 7.69212 50.3655 7.56244 50.1203 7.30348C49.8762 7.0446 49.7531 6.70052 49.7531 6.27235C49.7531 5.80618 49.8807 5.44277 50.1351 5.18006C50.3905 4.91831 50.7343 4.78791 51.1682 4.78791C51.5816 4.78791 51.9044 4.91455 52.1367 5.16992C52.3687 5.42432 52.4843 5.77759 52.4843 6.22875C52.4843 6.67177 52.3595 7.02599 52.1098 7.29246C51.8591 7.55868 51.5233 7.69212 51.1024 7.69212ZM51.1349 5.16146C50.8501 5.16146 50.6244 5.25879 50.458 5.45291C50.2915 5.64695 50.2083 5.91438 50.2083 6.2567C50.2083 6.58497 50.2924 6.84369 50.4607 7.03349C50.6289 7.22306 50.8537 7.31833 51.1349 7.31833C51.4224 7.31833 51.6436 7.22498 51.798 7.03916C51.9525 6.85311 52.0292 6.58857 52.0292 6.24544C52.0292 5.89881 51.9525 5.63138 51.798 5.44365C51.6436 5.25504 51.4224 5.16146 51.1349 5.16146ZM54.482 7.60036C54.3775 7.6577 54.2388 7.68645 54.0676 7.68645C53.5812 7.68645 53.3388 7.41551 53.3388 6.87339V5.23189H52.8616V4.85251H53.3388V4.17576L53.7828 4.03139V4.85251H54.482V5.23189H53.7828V6.79562C53.7828 6.98167 53.8144 7.11391 53.8781 7.19344C53.941 7.27305 54.0455 7.31274 54.1925 7.31274C54.3044 7.31274 54.4006 7.28232 54.482 7.22027V7.60036ZM57.2612 6.35108H55.3024C55.3097 6.65979 55.3929 6.89839 55.5521 7.0668C55.7111 7.23417 55.9294 7.31833 56.2078 7.31833C56.5204 7.31833 56.807 7.21556 57.0698 7.00946V7.42661C56.8255 7.60412 56.5029 7.69212 56.1023 7.69212C55.7103 7.69212 55.4024 7.56619 55.1785 7.31457C54.9536 7.06224 54.8418 6.70786 54.8418 6.25111C54.8418 5.81911 54.9649 5.46776 55.2088 5.19587C55.454 4.92397 55.7584 4.78791 56.1209 4.78791C56.4843 4.78791 56.7646 4.90537 56.9634 5.14021C57.1622 5.37434 57.2612 5.70069 57.2612 6.11784V6.35108ZM56.8062 5.97451C56.8042 5.71818 56.7423 5.51863 56.6211 5.37506C56.4991 5.23268 56.3298 5.16146 56.1124 5.16146C55.9034 5.16146 55.725 5.23644 55.5788 5.3864C55.4328 5.53612 55.3422 5.73208 55.308 5.97451H56.8062ZM58.3783 7.62727H57.9335V3.51978H58.3783V7.62727Z" fill="#E6E6DD"/>
<path fill-rule="evenodd" clip-rule="evenodd" d="M12.1681 26.9216C11.3412 28.6977 11.0079 28.8182 11.1354 31.3498C11.7551 33.8257 12.9664 35.4783 15.7307 35.7027C21.9941 36.2111 23.1365 28.0319 18.7582 25.7605C14.971 23.7956 12.4224 26.8554 12.1681 26.9216ZM61.5331 34.4199C61.4596 35.3453 61.2176 34.6892 61.2075 35.4587C63.83 35.541 71.666 36.3214 70.5556 31.979C70.2296 30.7032 69.0644 30.621 68.0553 30.0646C68.6617 29.5073 69.3255 29.5006 69.6813 28.7072C70.1643 27.6304 69.6013 27.0021 69.4089 26.3267C68.8494 26.0948 68.5689 25.7957 67.7216 25.6163C66.3629 25.3284 62.5738 25.4001 61.1413 25.4371C61.4449 26.7893 61.8925 25.4815 61.8854 29.7787C61.8838 30.7402 62.0842 33.8549 61.5331 34.4199ZM21.8963 35.4708L25.851 35.472C25.8328 34.9181 24.8807 34.3073 25.1691 31.7854C26.9486 31.7989 28.0927 31.7812 29.2848 30.9017C30.1815 30.2403 30.9971 28.9798 30.3666 27.2905C29.424 24.7655 24.6288 25.3927 21.8403 25.4378C22.1809 27.026 22.5738 25.2564 22.5642 30.4933C22.5625 31.4155 22.5667 32.3402 22.4926 33.2596C22.4062 34.3322 21.8975 35.0322 21.8963 35.4708ZM70.8357 35.4232L73.1571 35.4752C73.1555 34.7261 72.7581 35.1257 73.0049 34.0339C73.1228 33.5114 73.3139 33.0554 73.5419 32.5592L77.4417 32.506C78.5423 35.1962 77.8148 34.654 77.8298 35.4249L81.6672 35.4654C81.6506 34.8481 81.0914 34.9338 80.3648 33.3106C79.2125 30.7358 78.2354 27.5022 77.309 25.5078L74.4411 25.4222C74.6973 26.4448 75.2696 25.7427 74.4614 28.2051C74.0476 29.4661 72.9566 32.219 72.321 33.3476C71.4027 34.9784 70.8424 34.9058 70.8357 35.4232ZM29.1501 35.4367L31.5053 35.4129C31.4915 34.7594 31.051 35.0575 31.3713 33.8502C31.4888 33.4071 31.7409 32.8333 31.884 32.5121L35.7441 32.5064C36.8312 35.063 36.1612 34.7313 36.1365 35.4522L39.9722 35.4452C39.9563 34.9117 39.6071 34.8611 39.2673 34.3975C38.778 33.7308 37.7994 31.4279 37.6263 30.6383C37.292 30.1086 36.8379 28.7001 36.6045 28.0654C36.4282 27.586 36.2785 27.2012 36.1038 26.7081C36.0312 26.5032 35.9563 26.242 35.8839 26.0713C35.536 25.2505 35.6073 25.495 32.794 25.3795C32.7706 26.2693 33.7241 25.5228 32.7542 28.2289C32.2573 29.6148 30.7544 33.6576 29.8016 34.5576C29.4936 34.8485 28.9775 34.9929 29.1501 35.4367ZM91.9835 35.4189L94.378 35.4637C94.3669 35.2371 93.6427 34.3743 94.7565 32.5395L98.6044 32.5131C99.6658 35.0233 99.0194 34.682 98.9883 35.4163L102.847 35.4748C102.825 34.9231 102.51 34.8984 102.197 34.4857C101.162 33.1221 99.3017 27.3493 98.4823 25.4874L95.6095 25.4275C95.8247 26.2587 96.4819 25.724 95.6261 28.2159C95.103 29.7384 93.7594 33.3457 92.7496 34.4903C92.3833 34.9053 92.0085 34.9478 91.9835 35.4189ZM52.0064 35.4472C52.0454 34.7203 51.613 35.0587 51.9124 33.944C52.0181 33.551 52.2456 32.8765 52.4604 32.5483L56.2862 32.5283C57.3296 34.9038 56.7089 34.7986 56.6851 35.4205L60.5272 35.4668C60.5097 34.7102 60.0991 35.1846 59.9362 34.3966C59.4208 33.9762 58.8676 32.7069 58.8324 32.1265C58.2718 31.6644 56.69 26.5986 56.1681 25.4486L53.2888 25.4506C53.5022 26.2294 53.4526 25.5865 53.6577 26.1549C53.9782 27.0433 52.6319 30.0913 52.3139 30.9093C51.9699 31.794 51.5631 32.6898 51.1303 33.4481C50.9129 33.8287 50.6215 34.3077 50.3931 34.5733C50.0539 34.9679 49.7201 34.9316 49.7059 35.4428L52.0064 35.4472ZM14.2654 25.9761C13.1473 26.4902 12.8153 27.0676 12.9792 28.6422C13.2163 30.9195 15.6331 36.0229 18.2933 34.9149C21.5777 33.5469 17.3362 24.5647 14.2654 25.9761ZM89.8698 33.1874L85.034 25.4966L82.3063 25.4234C82.49 26.1981 82.9453 26.1898 83.1153 27.5464C83.2344 28.4981 83.2194 29.5318 83.2193 30.4933C83.219 31.4219 83.2361 32.3656 83.1261 33.2866C82.8856 35.3011 82.3851 34.6413 82.3624 35.4563L84.5388 35.4596C84.5486 34.4515 83.8057 35.6094 83.6882 32.0498L83.873 27.8419C83.8869 27.811 83.911 27.7616 83.9377 27.7265L88.6962 35.4719L90.6178 35.4787C91.9983 35.3493 90.7764 35.1379 90.5623 33.4388C90.3998 32.1491 90.3194 27.5904 90.8346 26.4303C91.1406 25.7415 91.3761 26.0597 91.2687 25.4199L89.1365 25.4189C89.0867 26.1014 89.8247 25.7302 89.9495 28.7779C90.0024 30.0705 90.0736 31.9376 89.8698 33.1874ZM41.897 26.1213C40.8332 27.2029 40.0525 27.8849 39.9116 30.2488C40.1025 38.5654 50.0723 35.5595 49.5805 32.8073C48.9299 32.8449 49.0751 33.0844 48.6198 33.5118C46.1335 35.8458 43.4158 33.8181 42.1274 30.2423C41.521 28.3864 41.4952 25.7824 43.7426 25.7403C46.1703 25.6948 46.0215 28.12 47.4626 28.7458C49.9177 28.9727 49.6144 26.4799 47.3888 25.5743C45.1904 24.6797 43.6109 25.2518 41.897 26.1213ZM1.61431 33.5039C2.60463 34.4487 3.49913 35.9633 6.45532 35.7019C7.39542 35.6187 8.2345 35.35 9.04228 34.8047C9.56291 34.4534 10.746 33.5953 10.4694 32.8947C9.90452 32.6647 9.60108 33.601 8.72511 34.0725C5.58262 35.764 3.44364 31.7844 3.3879 30.8493C2.72194 30.2793 2.48581 28.11 2.80394 27.135C3.1739 26.0015 4.48762 25.1756 5.918 26.0205C7.03257 26.6789 7.3927 28.1309 8.07096 28.5847C9.30691 29.4114 10.8513 27.8261 9.61857 26.4645C6.6702 23.2076 -1.64891 25.8266 1.61431 33.5039ZM64.4433 30.3103C64.4102 31.3768 64.3521 33.3369 64.7325 34.2232C65.7494 36.5912 69.3929 33.5914 67.7269 31.2278C67.1247 30.3733 65.623 30.2866 64.4433 30.3103ZM25.1082 31.2885C27.871 31.9199 28.7091 28.0012 27.5557 26.3942C26.7519 25.2742 25.5001 25.8746 25.2134 27.2426C24.9931 28.2937 25.0716 30.1724 25.1082 31.2885ZM64.434 29.8317C68.6739 29.8364 67.1904 26.7108 66.8936 26.3469C66.2525 25.5606 65.1007 25.7949 64.7297 26.6121C64.3735 27.3967 64.4212 28.9046 64.434 29.8317ZM73.8663 31.7695L77.0822 31.8025C76.9685 31.0604 75.8529 27.9675 75.4259 27.5791L73.8663 31.7695ZM95.1197 31.7985L98.2462 31.7959C98.1403 31.0833 97.0147 28.1686 96.7116 27.5416C96.3735 28.0819 95.2171 31.0936 95.1197 31.7985ZM52.7309 31.7629L55.9472 31.8009C55.8179 31.0307 55.1392 29.5401 54.8147 28.5733C54.6421 28.0586 54.6119 27.8765 54.2832 27.5813L52.7309 31.7629ZM32.2494 31.8052L35.3877 31.8061L33.9122 27.5751L33.5692 28.0397C33.4968 28.1682 33.4109 28.4149 33.3616 28.5504L32.2494 31.8052Z" fill="#E6E6DD"/>
<path fill-rule="evenodd" clip-rule="evenodd" d="M44.8893 39.879C44.6903 40.1615 44.6538 40.0609 44.5909 40.3924C44.4517 41.1267 44.668 40.9286 44.8176 41.0607L45.7159 40.5009L45.5067 44.0768C45.3995 45.2394 45.3978 44.4313 45.0802 45.0685C45.4233 46.006 45.1921 44.373 45.5659 46.6577C45.6727 47.3115 45.9168 47.869 46.5821 47.4978C46.3382 46.992 46.6165 47.4563 46.0657 47.0836L46.0139 45.4211C46.6334 45.6612 47.3082 46.1723 47.8803 46.508C48.5002 46.8715 49.0957 47.1623 49.815 47.4276C50.5146 47.6853 51.3096 47.9329 52.1709 47.9875C52.9472 48.0369 54.0742 47.9784 54.3616 47.2119L54.1251 46.8273C53.4067 46.7814 53.2797 48.0414 49.9128 46.9047C48.7076 46.498 47.1497 45.8264 46.4783 45.0685C47.1706 44.5609 50.4443 43.3978 50.5585 40.7647C50.6243 39.2475 49.7261 38.7017 48.1691 38.8693C44.5474 39.2596 46.4848 39.6866 44.8893 39.879ZM57.0376 41.2032C55.748 40.2558 54.6495 41.4539 54.3177 43.1096C54.1175 44.1074 54.3272 44.4634 53.7844 45.1115C52.3887 46.7783 51.2732 45.4484 51.6025 44.183C54.4124 44.3555 53.8036 42.0038 53.3911 41.6833C51.7399 40.9078 50.3592 43.3108 50.6703 44.9213C50.8643 45.9264 51.2275 46.4793 52.3159 46.4504C53.337 46.4234 53.8329 45.6521 54.2926 45.1641C54.4689 45.5168 54.3943 45.5193 54.8225 45.7269C55.3354 45.9755 55.6615 45.9142 56.0178 45.6359C56.2969 45.4177 57.1826 43.6218 56.7618 44.2105C57.486 44.7364 56.5754 45.2608 58.0335 45.3537C58.9152 45.2464 59.597 43.4662 59.41 42.6574L59.3196 42.4089C58.8726 42.9891 58.9336 44.563 58.0335 44.8334C57.2332 42.8737 58.4119 40.3267 58.3989 38.4016C57.9701 38.2974 57.8994 38.1762 57.3873 38.2784C56.9866 39.1256 57.1727 40.3279 57.0376 41.2032ZM46.1774 44.4986C47.2853 44.3049 48.3294 43.4466 48.8465 42.8829C50.3955 41.1944 50.5966 39.2155 47.837 39.7185C46.8825 39.8925 46.9605 39.8958 46.7701 40.8128C46.548 41.8828 46.1848 43.4131 46.1774 44.4986ZM51.626 43.7215C51.7679 43.488 52.658 41.8861 53.0155 42.3334C53.302 42.692 52.9058 43.3121 52.6585 43.5371C52.3855 43.7857 52.0308 43.8125 51.626 43.7215ZM56.6213 41.6162C56.3949 41.5103 55.9855 41.571 55.6125 42.0209C54.4702 43.3965 54.872 48.0633 56.6623 43.4987C56.828 43.0762 57.1462 41.8615 56.6213 41.6162Z" fill="#E6E6DD"/>
</svg>
