<svg width="17" height="16" viewBox="0 0 17 16" fill="none" xmlns="http://www.w3.org/2000/svg">
<g clip-path="url(#clip0_515_603)">
<path d="M8.37531 16.0002C8.25506 15.8837 8.11226 15.7826 8.01747 15.6482C7.0734 14.3016 6.12223 12.9596 5.20362 11.5959C4.4441 10.4681 3.78104 9.28308 3.32508 7.99411C3.04031 7.18908 2.8616 6.36442 2.87538 5.50428C2.91421 3.08793 4.56937 0.914595 6.8926 0.233575C9.96951 -0.668328 13.1345 1.1217 13.9479 4.22366C14.2577 5.40574 14.1387 6.5661 13.77 7.71269C13.3671 8.96533 12.7608 10.1215 12.0393 11.213C11.2013 12.4802 10.3194 13.7183 9.45676 14.9692C9.30018 15.1964 9.15279 15.4306 8.98368 15.6478C8.8818 15.7789 8.74609 15.8833 8.62542 15.9997H8.37531V16.0002ZM8.49598 14.6903C8.52354 14.659 8.53816 14.6448 8.54985 14.6281C9.41334 13.3838 10.2935 12.1504 11.1345 10.8906C11.8464 9.82422 12.4589 8.70018 12.8623 7.47468C13.1679 6.54522 13.3028 5.59906 13.0815 4.63035C12.4059 1.67328 9.29308 0.126683 6.5285 1.37139C4.66248 2.2115 3.54679 4.29339 3.86329 6.32058C3.99858 7.18866 4.29462 8.00038 4.67083 8.78703C5.29298 10.0877 6.09091 11.2819 6.91598 12.4589C7.43583 13.2001 7.96236 13.9366 8.4964 14.6903H8.49598Z" fill="black"/>
<path d="M8.51395 2.81068C10.0614 2.81569 11.3186 4.08504 11.3128 5.63706C11.3073 7.18449 10.0376 8.44173 8.48597 8.4363C6.93854 8.43087 5.68172 7.16153 5.68715 5.6095C5.69216 4.06249 6.96192 2.80567 8.51395 2.81068ZM8.50017 3.7485C7.46841 3.7485 6.62329 4.59445 6.62455 5.62704C6.6258 6.65129 7.46799 7.49598 8.4914 7.49891C9.52483 7.50183 10.3733 6.65922 10.3745 5.62788C10.3762 4.59486 9.53193 3.74891 8.49975 3.7485H8.50017Z" fill="black"/>
</g>
<defs>
<clipPath id="clip0_515_603">
<rect width="15.9929" height="16" fill="white" transform="translate(0.50354)"/>
</clipPath>
</defs>
</svg>
