<svg width="16" height="16" viewBox="0 0 16 16" fill="none" xmlns="http://www.w3.org/2000/svg">
<g clip-path="url(#clip0_515_596)">
<path d="M0 3.59386C0.0233741 3.50913 0.0434091 3.42356 0.0709571 3.34009C0.260037 2.76659 0.79305 2.37883 1.41079 2.3759C2.38959 2.37173 3.36838 2.37465 4.34717 2.37465C7.73642 2.37465 11.1261 2.37465 14.5153 2.37465C15.2278 2.37465 15.7779 2.77326 15.947 3.42023C15.9821 3.55421 15.9971 3.69738 15.9975 3.83637C16.0004 6.61204 16.0004 9.3873 15.9992 12.163C15.9992 13.0224 15.3931 13.6255 14.5316 13.6255C10.1894 13.6264 5.84729 13.6259 1.50513 13.6255C0.722511 13.6255 0.213289 13.2253 0.0233741 12.4635C0.0183654 12.4439 0.0079305 12.4255 0 12.4067C0 9.4687 0 6.53107 0 3.59303L0 3.59386ZM1.63911 3.3213C1.68377 3.36972 1.71299 3.40395 1.74471 3.43567C3.68935 5.38699 5.634 7.33789 7.57906 9.2888C7.84619 9.55677 8.15548 9.55468 8.4272 9.28254C10.3723 7.33205 12.3169 5.38073 14.2616 3.42941C14.292 3.39894 14.3183 3.36388 14.3546 3.32172H1.63911V3.3213ZM1.62701 12.6747H14.3726C13.019 11.3332 11.6883 10.0142 10.3501 8.68817C10.3201 8.71697 10.2784 8.75495 10.2387 8.7946C9.84885 9.1857 9.46067 9.57805 9.06916 9.96748C8.45517 10.5777 7.544 10.5773 6.93084 9.96748C6.6946 9.73249 6.46086 9.49499 6.22545 9.25875C6.03136 9.06424 5.83643 8.87015 5.65236 8.68608C4.31252 10.0138 2.98145 11.3324 1.62742 12.6743L1.62701 12.6747ZM0.944565 11.9551C2.26854 10.6441 3.61005 9.31593 4.94196 7.99738C3.60421 6.6709 2.26562 5.34316 0.944565 4.03296V11.9551ZM15.0538 4.02795C13.7256 5.34358 12.3854 6.6709 11.0409 8.0028C12.3841 9.33346 13.7239 10.6608 15.0538 11.9785V4.02795Z" fill="black"/>
</g>
<defs>
<clipPath id="clip0_515_596">
<rect width="16" height="11.2526" fill="white" transform="translate(0 2.37378)"/>
</clipPath>
</defs>
</svg>
