<svg width="129" height="48" viewBox="0 0 129 48" fill="none" xmlns="http://www.w3.org/2000/svg">
<path fill-rule="evenodd" clip-rule="evenodd" d="M100.852 26.1445C87.2282 34.8527 73.6393 37.4178 60.0504 39.7846C37.4861 42.6868 13.2687 43.5398 2.69199 35.8064C-1.36038 32.123 0.397523 27.0158 13.5828 21.7357C-0.666133 30.0062 4.01569 37.4219 33.202 38.4427C60.2091 38.988 84.4472 34.7704 100.852 26.1445Z" fill="#E6E6DD"/>
<path fill-rule="evenodd" clip-rule="evenodd" d="M93.9113 43.4625V47.2412C93.3231 47.4965 92.7677 47.686 92.2406 47.8124C91.7146 47.9366 91.2133 48.0001 90.7362 48.0001C90.1997 48.0001 89.6944 47.9348 89.2213 47.8019C88.7483 47.6713 88.3147 47.4748 87.9182 47.2154C87.2563 46.7794 86.7386 46.2258 86.3709 45.5527C86.002 44.8768 85.8167 44.1402 85.8167 43.3383C85.8167 42.7388 85.9397 42.157 86.1815 41.5922C86.4233 41.0298 86.7693 40.5356 87.2169 40.115C87.69 39.6596 88.2206 39.3213 88.8119 39.0989C89.4048 38.8789 90.0673 38.7677 90.7998 38.7677C91.2987 38.7677 91.7976 38.8266 92.297 38.9466C92.7977 39.0666 93.3101 39.2454 93.8331 39.4849V40.8733C93.2666 40.5662 92.7353 40.3391 92.2352 40.1909C91.7393 40.0449 91.2551 39.9709 90.7862 39.9709C89.7426 39.9709 88.8818 40.2956 88.1994 40.9451C87.517 41.5945 87.1775 42.4076 87.1775 43.386C87.1775 44.3538 87.5128 45.1604 88.1858 45.8092C88.8577 46.4588 89.7037 46.7841 90.7215 46.7841C91.0269 46.7841 91.334 46.7511 91.6404 46.6858C91.9458 46.6182 92.2635 46.5182 92.5906 46.3806V44.6527H90.9174V43.4625H93.9113ZM95.5463 47.8431V38.9118H98.1613C99.0644 38.9118 99.7615 39.1254 100.252 39.5502C100.742 39.9749 100.986 40.5791 100.986 41.3569C100.986 41.9452 100.851 42.4182 100.583 42.7759C100.313 43.133 99.8904 43.4013 99.3079 43.5801C99.458 43.6607 99.598 43.7678 99.7304 43.9026C99.8633 44.0355 100.033 44.2602 100.243 44.5762L102.412 47.8431H100.866L99.3344 45.5004C98.8737 44.7938 98.5037 44.3432 98.2207 44.1491C97.9396 43.9525 97.6018 43.8549 97.2118 43.8549H96.8276V47.8431H95.5463ZM96.8276 42.7824H97.8878C98.4819 42.7824 98.9267 42.6671 99.2227 42.4382C99.5174 42.207 99.6656 41.8564 99.6656 41.3834C99.6656 40.8968 99.5257 40.5462 99.2456 40.3262C98.9644 40.1061 98.5103 39.9973 97.8878 39.9973H96.8276V42.7824ZM103.824 43.386C103.824 43.8413 103.909 44.2779 104.079 44.6897C104.249 45.1015 104.495 45.4675 104.814 45.7881C105.125 46.1064 105.489 46.3523 105.91 46.5247C106.328 46.6965 106.766 46.7841 107.223 46.7841C107.689 46.7841 108.128 46.6988 108.54 46.5311C108.95 46.3634 109.319 46.1152 109.642 45.7881C109.959 45.4675 110.205 45.1015 110.378 44.6897C110.55 44.2779 110.637 43.8413 110.637 43.386C110.637 42.9306 110.552 42.5012 110.382 42.0934C110.212 41.6881 109.959 41.3158 109.628 40.9798C109.309 40.6509 108.943 40.4027 108.529 40.2303C108.117 40.0579 107.682 39.9709 107.223 39.9709C106.778 39.9709 106.349 40.0579 105.934 40.2326C105.519 40.4068 105.145 40.655 104.814 40.9798C104.495 41.2898 104.249 41.6534 104.079 42.0723C103.909 42.4882 103.824 42.9259 103.824 43.386ZM102.464 43.3383C102.464 42.743 102.587 42.1635 102.828 41.6034C103.07 41.041 103.417 40.5445 103.864 40.115C104.319 39.6767 104.833 39.3431 105.409 39.1125C105.982 38.883 106.587 38.7677 107.223 38.7677C107.867 38.7677 108.482 38.883 109.063 39.1165C109.643 39.3478 110.155 39.6808 110.598 40.115C111.063 40.5662 111.411 41.0692 111.646 41.621C111.88 42.1747 111.997 42.776 111.997 43.4231C111.997 44.0314 111.877 44.6156 111.636 45.1757C111.396 45.7357 111.053 46.2281 110.611 46.6535C110.147 47.0959 109.63 47.4313 109.057 47.6578C108.484 47.8866 107.871 48.0001 107.223 48.0001C106.587 48.0001 105.979 47.8825 105.398 47.6489C104.818 47.4136 104.306 47.0823 103.864 46.6535C103.403 46.2064 103.055 45.7011 102.819 45.1404C102.581 44.5785 102.464 43.9766 102.464 43.3383ZM113.368 38.9118H114.636V44.0379C114.636 44.6091 114.667 45.0144 114.728 45.2516C114.791 45.4892 114.894 45.6963 115.04 45.871C115.304 46.1823 115.615 46.4135 115.977 46.5682C116.338 46.7206 116.751 46.797 117.21 46.797C117.983 46.797 118.608 46.5965 119.081 46.1976C119.553 45.797 119.789 45.2692 119.789 44.6132V38.9118H121.057V44.6527C121.057 45.6463 120.701 46.4529 119.991 47.0713C119.281 47.6907 118.354 48.0001 117.21 48.0001C116.532 48.0001 115.923 47.8801 115.378 47.6406C114.833 47.3983 114.375 47.0477 114 46.5835C113.769 46.3064 113.608 45.9993 113.511 45.6593C113.415 45.3192 113.368 44.7962 113.368 44.0902V38.9118ZM124.195 42.8607H125.579C126.201 42.8607 126.65 42.75 126.928 42.5295C127.208 42.3076 127.347 41.954 127.347 41.464C127.347 40.9756 127.208 40.6203 126.928 40.3979C126.65 40.1732 126.201 40.0626 125.579 40.0626H124.195V42.8607ZM122.927 47.8431V38.9118H125.715C126.646 38.9118 127.373 39.136 127.896 39.5872C128.419 40.0385 128.681 40.6638 128.681 41.464C128.681 42.2594 128.419 42.8807 127.896 43.3272C127.373 43.7737 126.646 43.9985 125.715 43.9985H124.195V47.8431H122.927Z" fill="#E6E6DD"/>
<path fill-rule="evenodd" clip-rule="evenodd" d="M12.5586 20.6789L15.0601 7.59415H10.6836L7.80554 23.3657C10.1924 21.8437 11.0119 21.4967 12.5586 20.6789ZM13.6393 4.9756C15.0983 4.9756 16.295 3.96543 16.3327 2.35703C16.3327 0.972624 15.3595 0.000244141 14.0134 0.000244141C12.5916 0.000244141 11.3949 1.085 11.3949 2.65583C11.3572 4.00246 12.2921 4.9756 13.6393 4.9756Z" fill="#E6E6DD"/>
<path fill-rule="evenodd" clip-rule="evenodd" d="M61.7288 21.8734C60.5039 22.42 59.0101 22.7806 57.1981 22.7806C55.4773 22.7806 54.1682 22.1446 53.457 20.9104C53.0452 20.199 52.8958 18.9648 52.9705 18.3289C60.0032 18.4788 64.9033 16.9821 64.9033 12.3062C64.9033 9.27638 62.6218 7.18201 59.0313 7.18201C52.7464 7.18201 48.7069 13.167 48.7069 18.6653C48.7069 23.1171 51.1379 26.1846 56.188 26.1846C57.5058 26.1846 58.5766 26.047 59.8714 25.7087C60.5032 24.7496 61.4304 22.6953 61.7288 21.8734ZM60.7892 12.3439C60.7892 14.5136 57.9082 15.1495 53.42 15.0748C53.9436 12.8675 55.7385 10.4359 58.4695 10.4359C59.8538 10.4359 60.7892 11.1467 60.7892 12.3439Z" fill="#E6E6DD"/>
<path fill-rule="evenodd" clip-rule="evenodd" d="M32.4026 24.4265C33.5245 25.3243 36.0302 26.1851 39.0976 26.1851C44.7466 26.1851 48.8236 23.0799 48.8236 18.0304C48.8236 14.9629 46.991 12.9427 43.9235 11.3342C41.5662 9.98753 40.1454 8.97737 40.1454 7.25714C40.1454 5.57339 41.7162 3.96499 44.4842 3.96499C46.5422 3.92786 48.2253 4.63858 49.0478 5.08742L50.4697 1.4587C49.4967 0.898023 47.6641 0.186768 44.859 0.186768C39.7718 0.186768 35.5812 3.21725 35.5812 8.04256C35.5812 11.0354 37.7891 13.055 40.7061 14.6258C43.1752 15.9354 44.2594 17.0574 44.2594 18.7034C44.2594 21.1349 42.015 22.4439 39.5835 22.4439C37.3773 22.4439 35.32 21.7709 33.8981 20.8355C33.6209 20.6513 33.3816 20.4695 33.2044 20.2848L32.4026 24.4265Z" fill="#E6E6DD"/>
<path fill-rule="evenodd" clip-rule="evenodd" d="M110.253 21.8685C109.317 22.2798 108.046 22.7286 106.363 22.7286C103.931 22.7286 102.36 21.1949 102.36 18.4645C102.36 14.6863 105.015 10.7958 109.242 10.7958C110.44 10.7958 111.3 11.0576 111.973 11.357L113.095 7.95304C112.422 7.6536 111.002 7.24243 109.393 7.24243C102.622 7.24243 97.7962 12.6289 97.7962 18.9881C97.7962 23.3275 100.602 26.245 105.165 26.245C107.485 26.245 109.348 25.7432 110.402 25.2348C111.34 24.7831 112.36 24.0941 113.254 23.3251L112.245 20.4301C111.888 20.8195 111.241 21.3949 110.253 21.8685Z" fill="#E6E6DD"/>
<path fill-rule="evenodd" clip-rule="evenodd" d="M18.5814 25.8104L20.1534 17.3939C20.9382 13.1298 23.4822 10.7355 25.4642 10.7355C27.1849 10.7355 27.7468 11.8579 27.7468 13.354C27.7468 14.0647 27.6339 14.8501 27.5227 15.5238L25.5765 25.8104H29.9165L31.9356 15.2243C32.1233 14.2894 32.2728 13.0175 32.2728 12.1945C32.2728 8.75284 30.216 7.18201 27.6339 7.18201C25.0906 7.18201 22.772 8.41626 21.0877 10.8854H21.013L21.3877 7.59328H17.5349C17.3107 9.16466 17.0483 11.072 16.6 13.2417L14.2433 25.8104H18.5814Z" fill="#E6E6DD"/>
<path fill-rule="evenodd" clip-rule="evenodd" d="M125.457 21.7256C124.025 22.3579 122.502 22.841 120.445 22.841C118.723 22.841 117.414 22.205 116.704 20.9707C116.292 20.26 116.143 19.0257 116.218 18.3898C123.25 18.5392 128.151 17.0431 128.151 12.3672C128.151 9.33734 125.868 7.24243 122.277 7.24243C115.993 7.24243 111.953 13.2273 111.953 18.7263C111.953 23.1775 114.384 26.245 119.434 26.245C121.538 26.245 124.8 25.649 127.859 23.8717L128.604 19.897C127.756 20.546 126.552 21.269 125.457 21.7256ZM124.035 12.4043C124.035 14.5739 121.155 15.2099 116.666 15.1352C117.19 12.9285 118.986 10.4969 121.716 10.4969C123.1 10.4969 124.035 11.2076 124.035 12.4043Z" fill="#E6E6DD"/>
<path fill-rule="evenodd" clip-rule="evenodd" d="M76.8524 7.59351L79.9564 25.8106H84.3329L94.4706 7.59351H89.6447L85.1188 16.7582C84.1087 18.928 83.5851 20.2369 83.1362 21.3965H83.0238C82.9491 20.1999 82.7244 18.8156 82.5003 16.6459L81.3407 7.59351H76.8524Z" fill="#E6E6DD"/>
<path fill-rule="evenodd" clip-rule="evenodd" d="M95.8068 25.8107L99.2855 7.59362H94.909L91.4669 25.8107H95.8068ZM97.8635 4.9756C99.3225 4.9756 100.52 3.96543 100.557 2.35703C100.557 0.972624 99.585 0.000244141 98.2377 0.000244141C96.817 0.000244141 95.6191 1.085 95.6191 2.65583C95.5821 4.00246 96.5174 4.9756 97.8635 4.9756Z" fill="#E6E6DD"/>
<path fill-rule="evenodd" clip-rule="evenodd" d="M76.3215 7.59216L75.3837 7.59399C72.8692 7.60163 70.909 8.97765 69.6754 11.4468H69.563C69.7501 10.1002 69.8618 8.82825 69.9742 7.59399H66.1961C65.9718 9.24006 65.7466 12.0081 65.2612 14.589L63.1292 25.8111H67.4673L68.8516 18.4795C69.5853 14.5931 71.545 11.7298 74.6501 11.7298C74.9496 11.7298 75.2484 11.7675 75.4726 11.8045L76.3215 7.59216Z" fill="#E6E6DD"/>
<path fill-rule="evenodd" clip-rule="evenodd" d="M100.792 26.129C87.1756 34.8326 73.595 37.3959 60.015 39.7615C37.4642 42.6619 13.2615 43.5143 2.69124 35.7857C-1.35931 32.104 0.397415 26.9998 13.5757 21.7225C-0.665702 29.9884 4.0144 37.4 33.1837 38.4202C60.1737 38.9649 84.3982 34.7502 100.792 26.129Z" fill="#E6E6DD"/>
</svg>
