<svg width="111" height="48" viewBox="0 0 111 48" fill="none" xmlns="http://www.w3.org/2000/svg">
<path d="M16.7275 27.6163C16.4722 27.2242 16.2008 26.8559 15.9123 26.5139C15.6226 26.171 15.3194 25.8725 14.9998 25.6163C14.6804 25.359 14.3443 25.1735 13.99 25.0608L13.995 24.9925C14.8482 24.7533 15.6322 24.422 16.3489 24.0001C17.0638 23.578 17.6865 23.0768 18.2169 22.4952C18.7474 21.9132 19.1756 21.2611 19.5016 20.5361C19.8279 19.8114 20.0289 19.0217 20.1046 18.1663C20.4923 13.8052 17.8277 11.5836 12.1125 11.5H3.0239L0.846619 36.024H6.36811L7.20157 26.634H8.68755C9.03016 26.634 9.33976 26.7057 9.61808 26.8484C9.89672 26.9902 10.1568 27.1955 10.4007 27.463C10.6444 27.7322 10.8801 28.0534 11.1091 28.4292C11.3379 28.8063 11.5734 29.2337 11.8157 29.7132L15.0673 36.024H21.4094L17.4211 28.7723C17.2153 28.3954 16.9849 28.0104 16.7275 27.6163ZM12.9092 21.4351C12.1321 22.1191 11.1483 22.4611 9.96404 22.4611H7.57068L8.17851 15.6361H10.6724C13.2371 15.6361 14.423 16.7085 14.2338 18.8507C14.1414 19.8774 13.7018 20.7381 12.9092 21.4351Z" fill="#E6E6DD"/>
<path d="M31.7703 18.082C29.3093 18.082 27.1597 18.9309 25.3231 20.6307C23.4846 22.3301 22.4371 24.6321 22.1798 27.5407C21.9314 30.3451 22.5158 32.5319 23.9393 34.0994C25.3609 35.6688 27.4841 36.4516 30.3109 36.4516C32.8972 36.4516 35.0386 36.018 36.7338 35.1526L37.0797 31.2527C35.5394 32.1632 33.8064 32.6207 31.8808 32.6207C28.8612 32.6207 27.3738 31.3499 27.4168 28.8062H38.8358L39.0363 26.5316C39.2672 23.9323 38.7513 21.8735 37.4915 20.3569C36.2296 18.8397 34.322 18.082 31.7703 18.082ZM34.1213 25.4866H27.6769C27.9092 24.4168 28.3738 23.5219 29.0691 22.8032C29.7658 22.0844 30.5466 21.7251 31.4128 21.7251C33.4409 21.7251 34.3434 22.9794 34.1213 25.4866Z" fill="#E6E6DD"/>
<path d="M53.1771 27.3526C52.7965 26.9535 52.3288 26.606 51.7735 26.3092C51.2182 26.0126 50.5945 25.739 49.8975 25.4866C49.5103 25.3506 49.1215 25.2163 48.7279 25.0852C48.335 24.9552 47.9819 24.8061 47.6655 24.6412C47.3493 24.4764 47.098 24.2785 46.9136 24.0508C46.7293 23.8235 46.6522 23.5497 46.6803 23.23C46.7013 22.9901 46.7888 22.7767 46.942 22.5881C47.0948 22.4008 47.2977 22.2461 47.5464 22.1274C47.7967 22.0071 48.0825 21.9164 48.4003 21.8536C48.7191 21.7911 49.0556 21.7589 49.408 21.7589C50.1605 21.7589 50.9164 21.8586 51.6809 22.0579C52.4441 22.2584 53.1491 22.5575 53.7961 22.9564L54.1689 18.7827C53.4124 18.5553 52.6428 18.3805 51.8556 18.2618C51.0686 18.1416 50.2878 18.082 49.5134 18.082C48.5219 18.082 47.5559 18.1879 46.6207 18.3987C45.6847 18.6087 44.8421 18.941 44.0887 19.3893C43.3376 19.8402 42.7155 20.4196 42.2254 21.1267C41.7369 21.8324 41.4463 22.676 41.3594 23.6587C41.2966 24.3767 41.3345 24.9969 41.4768 25.5212C41.6176 26.0471 41.8503 26.5088 42.1731 26.9076C42.4973 27.3065 42.9112 27.6576 43.4134 27.9594C43.9171 28.2608 44.5039 28.5443 45.176 28.8062C45.5945 28.9763 46.0307 29.1313 46.4854 29.2683C46.9403 29.4048 47.3572 29.5582 47.7348 29.7295C48.1131 29.9009 48.4165 30.1004 48.6483 30.3287C48.8776 30.5554 48.9782 30.8422 48.9483 31.1835C48.9008 31.7193 48.5879 32.1189 48.0124 32.3819C47.4362 32.6419 46.6697 32.7742 45.7129 32.7742C44.9258 32.7742 44.1039 32.6419 43.2437 32.3819C42.3839 32.1189 41.5341 31.7193 40.692 31.1835L40.3034 35.5633C41.8913 36.155 43.6474 36.4516 45.5744 36.4516C46.6223 36.4516 47.6437 36.3459 48.6369 36.1352C49.6285 35.924 50.5196 35.5873 51.3074 35.1263C52.0948 34.663 52.745 34.0657 53.2609 33.3296C53.7769 32.5946 54.0794 31.7077 54.1721 30.6708C54.238 29.9287 54.1833 29.2902 54.0087 28.7553C53.834 28.2189 53.5553 27.7507 53.1771 27.3526Z" fill="#E6E6DD"/>
<path d="M66.9806 18.082C64.0289 18.082 61.6137 18.9006 59.7374 20.5359C57.8598 22.1717 56.7941 24.4392 56.5374 27.3345C56.2887 30.1399 56.9262 32.3602 58.4481 33.9971C59.9733 35.6332 62.1923 36.4516 65.1108 36.4516C68.0727 36.4516 70.4808 35.6076 72.3346 33.9214C74.1873 32.2319 75.2433 29.9354 75.5024 27.0272C75.7406 24.3369 75.1064 22.1717 73.5997 20.5359C72.0923 18.9006 69.887 18.082 66.9806 18.082ZM69.9908 27.13C69.6825 30.5851 68.236 32.3127 65.6499 32.3127C62.9368 32.3127 61.7312 30.6315 62.029 27.267C62.1723 25.6581 62.6349 24.4168 63.4188 23.538C64.2038 22.6614 65.2347 22.2212 66.5112 22.2212C69.1206 22.2212 70.2805 23.8582 69.9908 27.13Z" fill="#E6E6DD"/>
<path d="M83.7677 32.0432C83.7677 32.0432 82.9378 31.6981 83.056 29.9356C83.1562 28.4801 84.6271 11.6171 84.6374 11.5H79.2705L77.6385 30.5136C77.6385 30.5136 77.1476 36.0653 81.3764 36.4361C85.6059 36.8062 88.3457 35.4628 89.0112 35.1354L89.4283 30.707C89.4283 30.707 85.4893 32.8665 83.7677 32.0432Z" fill="#E6E6DD"/>
<path d="M110.235 12.2373L103.033 16.757L105.058 16.8429L96.8688 31.6256C95.2567 28.3516 93.8121 23.5648 95.2809 18.3677H90.8549C88.1651 27.8843 94.4743 36.0241 94.4743 36.0241H99.6746L109.067 19.0666L110.212 20.7396L110.235 12.2373Z" fill="#E6E6DD"/>
</svg>
