<svg width="184" height="48" viewBox="0 0 184 48" fill="none" xmlns="http://www.w3.org/2000/svg">
<path d="M162.343 14.1648C162.343 13.3059 161.652 12.6084 160.794 12.6084H158.496C157.637 12.6084 156.947 13.3059 156.947 14.1648V38.185C156.947 39.0439 157.637 39.7414 158.496 39.7414L160.794 39.7413C161.652 39.7413 162.343 39.0438 162.343 38.1849V14.1648ZM165.272 14.8035V15.9413C165.272 16.4112 165.661 16.793 166.131 16.793L181.98 16.7929C182.699 16.7929 183.287 16.2129 183.287 15.4862V13.5555C183.287 12.8287 182.692 12.1754 181.973 12.2488C181.973 12.2488 166.652 13.7537 166.16 13.8051C165.595 13.8784 165.272 14.3336 165.272 14.8035ZM152.439 39.7487C148.497 39.7487 146.016 36.7608 146.016 33.428V23.8185H144.885C144.283 23.8185 143.799 23.3339 143.799 22.7319V21.1242C143.799 20.5223 144.291 20.0378 144.893 20.0378H146.016V14.1282C146.016 13.2913 146.691 12.6158 147.528 12.6158H149.767C150.604 12.6158 151.28 13.2986 151.28 14.1355V20.0377H154.774C155.376 20.0377 155.868 20.5223 155.868 21.1242V22.7319C155.868 23.3339 155.383 23.8184 154.781 23.8184H151.287V32.7084C151.287 34.4555 152.344 35.6448 154.238 35.6448H154.554C155.207 35.6448 155.736 36.1734 155.736 36.8267V38.5739C155.736 39.2273 155.207 39.7557 154.554 39.7557L152.439 39.7487ZM115.528 23.4586C117.885 23.4586 119.911 25.1325 120.116 27.3935H110.977C111.175 25.1325 113.172 23.4586 115.528 23.4586V19.3477C109.156 19.3477 105.581 24.3323 105.581 29.5886C105.581 35.1899 109.406 40.1231 115.572 40.1231C119.786 40.1231 123.948 37.8987 124.726 34.2502C124.829 33.7584 124.499 33.1123 123.809 33.1123H120.799C120.248 33.1123 119.801 33.3765 119.536 33.7729C118.678 35.0356 117.407 35.7109 115.543 35.7109C112.9 35.7109 111.072 33.6334 110.94 31.3283H123.75C124.932 31.3283 125.461 30.6897 125.461 29.5958C125.461 24.4718 122.429 19.3549 115.536 19.3549L115.528 23.4586ZM173.912 23.4586C176.261 23.4586 178.295 25.1325 178.5 27.3935H169.361C169.559 25.1325 171.556 23.4586 173.912 23.4586V19.3477C167.54 19.3477 163.965 24.3323 163.965 29.5886C163.965 35.1899 167.797 40.1231 173.956 40.1231C178.17 40.1231 182.325 37.8987 183.11 34.2502C183.213 33.7584 182.883 33.1123 182.193 33.1123H179.183C178.64 33.1123 178.192 33.3765 177.92 33.7729C177.061 35.0356 175.799 35.7109 173.927 35.7109C171.291 35.7109 169.456 33.6334 169.317 31.3283H182.134C183.316 31.3283 183.845 30.6897 183.845 29.5958C183.845 24.4718 180.813 19.3549 173.919 19.3549L173.912 23.4586Z" fill="#E6E6DD"/>
<path d="M141.707 12.8796H100.207C99.2603 12.8796 98.5041 13.6431 98.5041 14.5901L98.6437 30.8873C98.6437 30.8873 89.7021 14.7369 89.2323 13.9073C88.7918 13.1365 87.8523 12.4171 86.5528 12.4171H83.1392C82.1995 12.4171 81.4287 13.1806 81.4287 14.1276V38.0303C81.4287 38.9699 82.1922 39.7408 83.1392 39.7408H85.3269C86.2739 39.7408 87.0374 38.9699 87.0374 38.0303L86.8978 21.2705C86.8978 21.2705 95.9274 37.5898 96.3093 38.2285C96.8304 39.0947 97.7113 39.7408 98.9888 39.7408H102.123C103.07 39.7408 103.834 38.9699 103.834 38.0303V16.9245H141.714C142.36 16.9245 142.881 16.4033 142.881 15.7572V14.032C142.874 13.4009 142.353 12.8796 141.707 12.8796Z" fill="#E6E6DD"/>
<path d="M134.99 23.2601C136.796 23.2601 138.146 23.9134 138.631 25.044C138.866 25.5872 139.314 25.6899 139.938 25.6899H142.419C142.83 25.6899 143.3 25.3376 143.3 24.8017C143.3 21.9166 139.864 19.34 134.99 19.34C129.946 19.34 126.643 21.7404 126.643 25.5652C126.643 28.4942 128.955 30.2341 131.796 30.9755C133.088 31.3133 135.305 31.8638 136.377 32.1428C137.537 32.4512 138.58 32.8035 138.58 33.7946C138.58 35.3656 136.928 35.9015 135.114 35.9015C133.404 35.9015 131.693 35.1381 131.209 33.9194C130.923 33.2146 130.431 33.1119 129.675 33.1119H127.157C126.716 33.1119 126.21 33.4936 126.21 34.0662V34.3891C126.21 37.1787 129.954 40.1078 135.122 40.1078C138.785 40.1078 143.887 38.5883 143.887 33.6698C143.887 30.8214 141.986 28.854 138.888 28.0684C137.676 27.7601 134.762 27.0187 134.131 26.8572C133 26.5635 131.95 26.1965 131.95 25.2347C131.943 23.7593 133.301 23.2601 134.99 23.2601ZM43.1154 7.35925C43.5779 7.35925 43.945 6.98481 43.945 6.52964C43.945 6.06715 43.5706 5.70014 43.1154 5.70014C42.6603 5.70014 42.2859 6.07446 42.2859 6.52964C42.2859 6.98469 42.6604 7.35925 43.1154 7.35925ZM31.9497 5.88354C32.3387 5.88354 32.6471 5.56791 32.6471 5.18617C32.6471 4.797 32.3314 4.48868 31.9497 4.48868C31.5605 4.48868 31.2522 4.80431 31.2522 5.18617C31.2449 5.56791 31.5605 5.88354 31.9497 5.88354ZM23.5733 22.9958L23.2356 22.6287C24.1826 21.7477 25.1885 20.3383 25.3572 19.5161C25.5114 18.7453 26.6126 18.8701 26.3997 19.707C26.1281 20.7787 24.8213 22.0635 23.5733 22.9958ZM16.4893 6.17724C14.7421 6.93331 14.4851 8.73185 15.711 9.80366C17.1866 11.1031 19.6312 9.97255 19.3964 7.99051C21.3784 8.09328 22.6558 6.0377 22.34 4.60618C23.221 3.85011 23.3092 2.23509 22.252 1.60372C21.1215 0.920963 20.0497 1.18531 19.3669 2.4919C17.5463 2.35247 15.8065 3.7841 16.4893 6.17724L15.6449 5.81012C14.5365 3.49041 16.4745 1.1192 18.8604 1.66241C19.3376 0.509866 21.1141 -0.686763 23.03 0.473091C24.5644 1.39805 24.8873 3.7913 23.2576 4.95115C24.0211 7.18282 22.4941 9.00351 20.1671 8.79785C19.8954 11.6682 17.1865 12.0353 15.4394 10.6772C14.4483 9.90643 14.0445 8.84192 13.861 8.03447C13.6628 7.18282 13.6628 6.41944 12.8185 5.54575C12.1872 4.88504 11.0567 4.90708 11.0567 4.90708C11.0567 2.82226 9.10386 0.913538 6.68126 1.83861C5.82242 1.09716 4.76534 1.02373 4.00174 1.94127C3.56129 2.46987 3.31898 3.86473 4.67718 4.50341C4.60376 6.40472 6.05731 7.61596 8.17159 7.44718C8.25232 8.46018 9.37552 9.39257 10.3666 9.532L10.3593 10.0386C9.30221 9.93578 8.72953 10.3102 8.02485 11.1838C5.53614 11.0663 3.78899 12.1749 3.86242 13.9587C2.11527 14.2891 1.78491 16.1243 2.77599 17.1007C3.76707 18.077 5.22051 17.6953 5.71976 16.5281C7.48894 16.8658 9.04528 15.5959 9.1187 14.1422C10.7631 14.1422 11.4899 13.4888 11.7615 11.9765L12.3855 12.0279C12.569 13.6577 11.813 15.2066 9.84542 15.0231C9.79404 16.9758 7.90004 18.0623 6.13816 17.3943C5.31598 18.9359 3.42929 19.5599 1.84361 18.0476C0.316624 16.5867 0.874457 14.0907 2.87134 13.4888C2.91542 11.5802 4.33221 9.75959 7.07043 10.4643C7.07043 10.4643 7.42283 9.61262 8.28179 9.56123C7.70922 9.32633 7.27609 9.01059 7.15859 8.4233C5.08839 8.86385 3.33393 6.96244 3.80372 5.0464C1.93176 4.04835 1.9023 2.19843 2.82738 1.10458C3.78899 -0.0406611 5.39671 -0.290287 6.83565 0.942993C9.27286 -0.40779 12.0258 1.24401 11.8569 4.019C13.5601 3.90881 14.5952 5.39171 14.4042 6.94804C14.6832 6.26539 15.0136 5.94966 15.6449 5.81012L16.4893 6.17724Z" fill="#E6E6DD"/>
<path d="M20.6667 2.84485L21.0779 3.13843C20.2777 4.81957 18.8683 6.6108 17.657 7.59446L17.1945 7.24948C18.0534 5.86193 19.896 3.55684 20.6667 2.84485ZM8.75953 12.102L9.0385 12.5131C8.02539 13.5482 6.16073 14.9284 5.16977 15.4055L4.7806 14.9871C5.74233 13.9519 7.57021 12.6011 8.75953 12.102ZM11.1674 7.09532L10.6829 7.69735C9.36144 6.83108 6.75534 4.50395 6.16804 3.65972L6.57914 3.24132C7.84188 3.88731 10.3012 6.08221 11.1674 7.09532ZM8.72276 29.192C8.87692 29.9482 8.7448 30.7852 9.42756 31.5999C9.66987 31.8863 10.9912 33.6261 11.9456 34.5291C10.6462 35.0429 8.04012 36.1 6.16085 36.335C5.78641 36.3791 5.36059 36.6433 5.0083 36.8489C4.77329 37.2527 4.53109 37.9648 4.42832 38.7724C4.35489 39.3522 4.3622 39.9982 4.3622 40.6516C4.3622 41.2316 4.67052 43.0522 5.31651 44.2708C5.9625 45.4895 6.58656 46.04 7.35005 46.3924C7.50421 46.3263 7.83457 46.2749 8.35575 46.2676C9.77265 46.2383 10.8811 47.0165 11.3656 47.6918C11.5491 47.9488 11.9309 48.0001 12.4227 48.0001C13.568 48.0001 14.8233 47.6258 16.0126 47.1706C16.2695 46.9577 16.9889 46.4806 17.6937 45.9299C18.3984 45.372 22.3333 42.0392 24.0731 41.1948C24.9909 41.694 26.4957 42.3327 28.052 42.3327C28.1402 42.3327 28.4412 42.3328 28.7568 42.2666C29.2413 42.1566 29.8653 41.9363 30.6508 41.7894C32.0529 41.5179 33.6974 41.2756 34.1819 41.2829C35.4739 41.3049 39.2545 41.4004 40.1502 41.4004C41.0898 41.4004 42.4332 41.3196 42.9471 41.2682C43.7399 41.0113 45.5018 40.5195 47.1902 39.7414C48.8787 38.9925 52.4245 36.526 53.0045 35.968C53.2833 35.7111 53.5331 35.4394 53.7239 35.1899C53.7972 35.0944 53.8192 35.0578 53.8192 34.9843C53.8192 34.9109 53.8046 32.4956 53.8046 32.4956C53.8046 32.4956 54.6562 31.5486 54.9791 31.2257C55.0084 31.1964 55.0159 31.1523 55.0084 31.1229C54.8617 30.6384 54.7149 29.1408 54.803 27.6139L53.9441 27.2101C53.9147 29.104 53.2173 30.7191 52.5713 31.7175C51.294 31.9157 48.8567 32.6718 47.9758 33.6775L48.4603 33.8171C49.2825 33.3619 50.1708 33.0463 51.1765 33.0463C52.0648 33.0463 52.4613 33.2812 52.4613 33.5308C52.4613 33.7069 52.2924 34.1327 52.2263 34.2648C52.1455 34.419 52.1014 34.6099 51.9474 34.7714C50.7435 36.0781 49.3853 37.194 47.7188 38.1189C46.603 38.743 45.5459 39.1688 43.8868 39.6313C43.3949 39.7707 42.7122 39.969 42.2717 40.1231C41.6477 40.1084 38.3956 40.0129 36.4943 40.0129C34.5929 40.0129 30.6801 40.2919 29.432 40.6075C28.8668 40.7544 28.7272 40.9747 28.0666 40.9747C26.8407 40.9747 25.2256 40.3506 24.2419 39.8735C24.0951 39.9175 23.7427 40.0716 23.383 40.2552C22.6855 40.6002 21.122 42.7659 20.2116 42.1126C19.7491 43.0596 17.745 43.9625 17.0622 44.9463C17.143 44.4323 17.9431 41.0848 18.0239 40.4167C18.0386 40.2993 18.0459 40.2039 17.9725 40.079C17.2384 38.8604 15.2049 38.0823 14.0524 37.8547C13.7147 37.7886 13.5458 37.7445 13.3183 37.6931L11.5051 37.1425L9.82392 37.6931L11.7693 38.0676L9.30274 39.6973C9.72846 39.5357 12.3859 38.7943 12.5842 38.7356C12.8043 38.6696 13.0907 38.6109 13.4064 38.721C13.7662 38.8457 14.7939 39.0807 15.4033 39.2935C15.763 39.4182 16.3503 40.0789 16.5044 40.4314C16.5631 40.5782 16.5926 40.8866 16.6292 41.562C16.6513 41.9877 16.5411 42.5897 16.4383 43.0522C16.1666 44.2635 15.616 45.2104 15.4399 45.5482C15.1976 46.018 14.8673 46.1648 14.5369 46.319C14.001 46.576 13.3403 46.7301 12.6135 46.7374C12.1144 46.7448 11.7766 46.7155 11.5638 46.4291C10.8883 45.5188 9.22932 44.6378 7.52614 44.9682C6.48367 44.3368 5.44852 42.3033 5.44852 40.681C5.44852 39.7119 5.94046 38.1776 6.2047 37.4068C7.90046 37.1792 11.2921 35.8873 12.9438 35.1384C13.2889 35.1237 14.2359 34.7861 15.1461 34.7861C17.3633 34.7861 19.5729 36.7315 20.9089 38.0382C21.1292 37.6784 21.5403 37.1279 22.6708 37.1279C24.2418 37.1279 25.1448 38.5595 25.5925 40.0277L26.4148 39.4331C26.268 38.5888 25.8349 37.6712 25.1668 37.0105C24.6236 36.4672 23.5885 36.0194 22.7809 36.0194C22.2964 36.0194 21.7898 36.1296 21.4668 36.1296C20.3436 36.1296 19.8884 35.6304 19.059 35.0578C18.1633 34.4411 16.4969 33.5455 15.3077 33.5455C14.5442 33.5455 14.1992 33.8464 13.5678 33.8464C12.6356 33.8464 12.2978 33.4647 11.85 32.9068C11.6591 32.6645 10.7121 31.835 10.4626 31.4973C10.3157 31.3064 10.0587 30.5136 9.97066 30.1245L8.72276 29.192Z" fill="#E6E6DD"/>
<path d="M9.9995 30.1019C10.2712 30.3882 10.5281 30.7113 10.8658 30.9681C11.1961 31.2177 11.5998 31.4307 11.989 31.6509C12.5322 31.9593 13.1562 32.3116 13.7656 32.5098C14.3015 32.6713 14.9989 32.7373 15.6522 32.7373C16.5845 32.7373 17.6857 32.5465 18.5959 32.9723C19.2053 33.2586 19.2493 33.9046 19.7338 34.0882C20.49 34.3818 22.5896 34.4479 23.7567 34.4479C26.0618 34.4479 28.5653 34.1543 30.0408 33.8019L29.3213 33.0091C28.3009 33.1779 25.3058 33.501 23.9331 33.501C21.995 33.501 20.167 33.1926 20.167 32.3925C20.167 31.8346 20.7616 31.0343 21.8995 31.0343C23.1182 31.0343 24.9608 31.7685 25.3058 31.8712C25.6435 31.9739 25.783 31.9446 25.9958 31.8492L26.7079 31.4821C25.7609 31.0416 22.4648 29.9037 21.3195 29.9037C20.7763 29.9037 20.4827 29.9844 20.1302 30.4396C19.6898 31.0049 18.5079 31.526 16.6359 31.526C15.6081 31.526 14.1326 31.3425 13.8095 31.2104C13.2443 30.9754 12.1358 30.3368 11.4236 29.8229C10.5134 29.1623 9.71311 28.4354 9.1699 27.5765C9.001 27.3122 8.92758 27.0185 8.92758 26.7543C8.92758 26.534 8.9937 26.3286 9.01574 26.1597C9.17732 26.3873 9.3534 26.5487 9.58099 26.7617C10.5721 27.7307 12.0404 28.4501 13.5452 28.7437C13.971 28.8245 14.3528 28.8906 14.7785 28.8906C15.4245 28.8906 16.0117 28.5456 16.3935 28.2078L15.7989 27.5178C15.6081 27.5765 15.2116 27.5765 14.9547 27.5765C12.7671 27.5765 9.99208 26.1449 9.3534 24.4933C9.28729 24.3317 9.21386 24.2436 9.27998 24.0895C9.34609 23.9426 9.41952 23.6196 9.47079 23.3186C9.59561 23.4654 9.86727 23.6856 10.1976 23.9059C11.0125 24.427 12.5615 25.1466 12.8624 25.3374C13.6406 25.1099 14.2279 24.8529 14.6977 24.6107C15.1529 24.3757 15.7769 24.1629 16.4964 24.1629C18.0967 24.1629 19.932 25.0731 21.6499 25.9247L22.8318 25.4622C21.2975 24.3831 17.9719 22.8781 16.1221 22.8781C15.0282 22.8781 14.0004 23.6783 13.2736 23.6783C12.378 23.6783 9.80869 22.4231 9.80869 21.3805C9.80869 20.5803 11.4678 20.1179 14.1472 19.7948C13.6847 20.4849 13.2443 21.1897 12.8331 21.9091L13.5158 22.2908C17.7076 16.2198 22.0609 12.2848 25.7315 9.88438C27.0602 9.01069 27.3685 8.50424 27.831 7.54993C28.9689 5.23011 30.0406 3.4462 31.9054 3.4462C32.7716 3.4462 33.4838 3.93803 33.9756 4.54005L35.3264 4.94384L33.9609 5.86879L35.3557 6.42674C33.5352 6.9333 31.0465 8.70979 30.0408 11.3087C28.1027 11.4115 27.163 12.9824 26.5317 14.2965C26.106 15.1847 25.4233 15.5371 24.4322 16.2125L16.4965 21.7477L17.5903 21.9018L24.9241 16.9906C26.3703 16.0142 27.0603 15.2948 27.4054 14.6046C28.0881 13.2466 28.8149 12.2335 30.2537 12.2335C30.9584 12.2335 31.7146 12.5344 32.3239 13.1071L33.6087 13.5255L32.2065 14.3845L33.3811 15.1112C30.0189 16.1611 27.934 18.5763 26.7228 23.1791L27.611 23.3774C28.0587 21.8504 28.4993 20.4556 29.2847 19.2149C31.2302 19.1929 33.2048 19.1195 35.1429 19.1195C40.311 19.1195 44.5983 19.3398 46.918 20.0225L46.0958 18.5983C43.6218 18.1799 40.0247 17.9596 35.1428 17.9596C33.5057 17.9596 31.8466 18.0183 30.2022 18.0404C31.2667 16.9172 32.7936 15.9702 35.1501 15.236L33.4764 14.3184L35.3337 13.2906L32.7717 12.3364C32.3312 11.9401 31.7806 11.5729 31.0832 11.3967C31.8908 8.90814 34.6584 7.45458 37.3011 6.44889L35.4512 5.69271L37.3232 4.67228L34.4454 3.75463C33.6893 2.87374 32.9699 2.46985 31.8613 2.46985C29.1892 2.46985 28.0733 4.78967 27.0088 6.84525C26.4509 7.92437 26.0986 8.38686 25.1516 9.0035C23.096 10.347 20.4826 12.4024 17.9793 15.0305C16.6726 14.0909 14.0078 11.3379 13.2809 9.83299C12.9947 10.1854 12.7157 10.9562 12.7157 10.9562C12.9874 11.2426 16.1294 14.4212 17.2965 15.7647C17.2085 15.8602 17.1204 15.963 17.0323 16.0583C15.7843 16.3079 12.5542 16.6163 11.4531 16.4695L10.8364 17.5707C11.6586 17.4899 14.874 17.1082 16.2027 17.0348C15.7916 17.5266 15.3952 18.0332 15.0135 18.547C10.8804 19.0168 8.12012 19.8611 8.12012 21.388C8.12012 21.6376 8.2229 21.9239 8.2229 22.1956C8.2229 22.8343 7.98058 23.0692 7.53283 23.3555C7.23913 23.539 7.21709 23.6711 7.3419 23.8473C7.46671 24.0235 8.10539 24.9705 8.10539 25.154C8.10539 25.4623 7.79696 25.7633 7.55476 26.0422C7.34179 26.2845 7.34921 26.3432 7.51799 26.6442L8.71461 29.1916L9.9995 30.1019ZM61.1598 15.9263C60.8956 16.2052 60.6607 16.4989 60.4698 16.8145L59.8019 15.8822C62.0262 12.9164 67.899 11.5289 71.3346 11.2867V9.70098C70.9015 9.83299 70.4244 9.98726 69.9913 10.09C69.3746 10.2369 68.8019 10.3763 68.3248 10.3616C67.8403 10.3543 67.4512 10.1561 67.2751 9.8991C66.8125 9.23839 67.2383 8.24 68.7506 7.30773L67.5614 6.31666C66.6364 7.51328 65.7334 8.8274 64.8084 9.61293C63.9715 10.3249 63.0906 10.6848 62.3858 10.1562C62.0041 9.86976 61.8572 9.73763 61.8206 8.99629C61.8719 7.90244 62.5327 6.22872 63.12 5.1568L61.7104 4.99534C61.4534 6.64713 60.7854 8.04918 60.0586 9.20904C59.1556 10.6553 57.9958 11.6684 56.7992 12.4979L56.0136 11.727C56.9754 11.1544 58.1867 10.2295 59.0162 8.95211C59.9779 7.4692 60.7634 5.6339 60.7634 3.96749L64.8524 4.35654C64.2798 5.09068 63.3328 6.74978 62.973 7.94641C62.7895 8.57047 62.7969 9.0623 63.0244 9.23107C63.4576 9.55412 64.2137 9.04026 64.9551 8.24742C65.9902 7.13154 67.0106 5.4505 67.4585 4.84848L70.4097 7.30043C69.0956 7.9978 67.8256 8.79064 68.0752 9.23839C68.3102 9.64959 69.147 9.52478 70.0721 9.23839C70.8282 9.00349 71.6284 8.65852 72.2671 8.28408V12.2776C70.8429 12.2556 68.4276 12.5272 66.1078 13.2246C66.6584 14.0028 68.2441 14.2891 69.2572 14.4286L68.7507 17.6735C66.2033 16.6089 64.2431 15.985 61.1598 15.9263L62.1803 15.0526C64.4487 15.0967 66.7244 15.7574 68.0165 16.4108L68.2001 15.1848C67.0403 15.0307 65.572 14.37 64.9552 13.6212C63.9422 14.003 62.9879 14.4727 62.1804 15.0527L61.1598 15.9263Z" fill="#E6E6DD"/>
<path d="M48.9815 26.2255L49.9285 24.1847C48.9374 23.0101 47.8216 21.5272 46.8818 20.0149L46.0596 18.5908C44.1656 14.9936 44.8557 13.2832 43.8426 11.6975C43.0056 10.3908 38.9534 11.2056 38.2854 11.3451L39.46 9.39969L37.1475 9.5832L39.1075 7.25607C39.3204 6.95517 39.4232 6.67619 39.6507 5.86862C39.9958 4.64265 41.0528 2.55042 44.1362 2.55042C47.5644 2.55042 48.6215 5.3253 50.1192 6.52935C51.8149 7.89475 54.0393 9.81078 56.0141 11.7268L56.7995 12.4976C57.8127 13.5328 58.8478 14.5973 59.8021 15.8818L60.4701 16.8142C64.5959 22.8339 69.7127 34.3374 71.9811 39.6084C72.2013 40.1223 72.3554 40.6362 72.495 41.0325C70.9533 40.181 69.2575 39.1312 67.5177 37.9273L66.4972 37.2152C65.8585 36.7527 65.2272 36.2829 64.6032 35.8057L63.5608 34.9834C62.9295 34.4768 62.3129 33.963 61.7035 33.4418L63.7664 45.4446C63.9206 46.1493 64.5226 46.0319 65.0071 45.4152C65.499 44.7912 65.6825 44.6224 65.499 43.8002L63.5609 34.9835L64.6033 35.8057L66.4607 43.301C66.6369 43.9764 66.9232 44.1893 67.716 44.226C68.5088 44.2628 68.6776 43.9544 68.5088 43.4332L66.4973 37.2153L67.5178 37.9274L69.4192 43.5139C69.911 44.9454 69.4192 45.1142 68.5602 45.1142C67.7014 45.1142 66.9305 44.9161 66.4607 45.217C65.9909 45.518 65.4036 46.3475 64.6915 47.067C64.0674 47.7057 63.1572 47.5368 62.981 46.3402L60.7053 32.5535C59.2224 31.2174 57.8055 29.8153 56.5428 28.3839C55.9849 28.1489 55.3609 27.8626 54.8103 27.6056L53.9515 27.2019C53.6504 27.0623 53.4229 26.9595 53.3348 26.9375C52.7034 27.6937 52.1015 28.5379 51.3967 29.1472C51.0224 29.4702 50.7654 29.6538 50.2074 29.6538C50.0386 29.6538 49.8257 29.6538 49.6274 29.5436C49.4146 29.4261 49.2164 29.1839 48.9962 28.8535C48.8273 28.5966 48.5777 28.2662 48.3648 27.9065C47.917 27.1504 47.4251 26.2034 46.992 25.4326C46.5002 24.5737 46.0818 23.9276 46.023 23.8175C45.9348 23.656 45.6926 23.4505 45.6926 23.4505C45.4503 23.8396 45.2741 24.5956 45.2741 25.0142L44.4152 24.7278C44.5253 24.1625 44.7529 23.4285 44.885 23.076C44.885 22.7751 44.5474 22.3713 44.2684 22.3713C43.8793 22.3713 43.4755 22.797 43.27 23.6192L42.4037 24.001C42.5065 22.6796 42.9617 21.226 44.2684 21.226C45.3255 21.226 45.9789 22.0336 46.4854 22.7898C46.9773 23.5312 48.6291 25.785 48.9815 26.2255L49.6349 27.055C49.7449 27.5689 49.9725 27.8699 50.0753 28.0387C50.3028 28.3911 50.5525 28.3691 50.8975 28.0534C51.0517 27.914 51.5509 27.5028 52.0354 26.9963C52.4538 26.5559 52.865 26.0273 53.0265 25.7556C53.511 25.9686 54.3993 26.4016 55.1262 26.7173C52.0281 22.8999 49.0696 18.275 47.7776 15.1257C47.249 13.8263 48.2842 13.3858 48.7908 14.6705C50.1562 18.1502 54.135 24.302 57.0641 27.5321C60.4483 31.2614 66.6443 36.6644 70.6819 38.8301C70.0946 37.685 69.3238 36.0478 68.4355 34.1466C63.5315 31.3789 58.569 26.2842 56.2564 21.9088L57.2769 22.0263C59.4278 25.8289 64.5666 30.909 67.6058 32.3846C64.8309 26.4896 61.219 19.0237 58.3926 15.8157C54.8909 11.8295 51.0736 8.75348 49.2529 7.14587C47.4544 5.5675 46.7129 3.57803 44.1288 3.57803C41.9926 3.57803 40.8694 5.11975 40.4436 6.66866C40.3555 6.96956 40.3041 7.16049 40.0912 7.47623L39.0782 8.68747L41.2585 8.42323L39.9959 10.1924C39.9959 10.1924 43.4168 9.4215 44.6134 11.0513C45.9054 12.8058 45.0686 14.7732 47.1828 18.5906C48.1151 20.2717 50.3615 23.2889 51.1177 23.9644L49.6422 27.0623L48.9815 26.2255ZM15.3811 26.7541L14.8672 26.4017C15.1535 26.1594 15.7261 25.7851 16.2913 25.5429C16.585 25.418 16.9154 25.3592 17.1576 25.3592C17.7376 25.3592 18.2367 25.6016 18.7212 25.8584C19.4921 26.2695 20.3583 26.7541 21.019 26.7541C21.2759 26.7541 21.5181 26.6954 21.7972 26.6954C22.4505 26.6954 23.0819 26.989 23.4416 26.989C23.6618 26.989 23.8086 26.7908 23.9555 26.5852C24.3152 26.064 24.8143 25.6749 25.453 25.4106C26.1357 25.1242 26.9654 25.0068 27.8609 25.0068C28.5656 25.0068 29.241 25.1096 29.5934 25.1829C29.5934 25.1829 29.0575 25.8289 28.9179 25.9758C28.2059 25.9758 26.8477 25.9537 25.9742 26.3061C25.4383 26.5264 25.2474 26.8347 25.2474 27.2826C25.2474 27.9286 25.9669 28.1782 26.767 28.4205C27.2368 28.5673 27.7654 28.5966 28.2133 28.5966C28.7639 28.5966 29.8135 28.3912 30.856 28.1635C32.1113 27.8846 33.2786 27.5615 33.6163 27.4293L34.0714 28.2442C32.6767 28.7214 31.2451 29.1692 29.9164 29.4335C29.1676 29.5877 28.4555 29.6831 27.8168 29.6831C26.7523 29.6831 25.5997 29.2353 24.6454 28.7801C23.8452 28.3984 23.1259 28.0166 22.4945 28.0166C21.7751 28.0166 21.0996 28.2662 20.4316 28.648C20.1087 28.8316 19.1249 29.507 18.2513 29.8519C17.5833 30.1163 17.0327 30.263 16.3499 30.263C15.748 30.263 15.3809 30.175 15.0652 29.9327L16.1223 29.2867C16.2544 29.4188 16.4966 29.4483 16.6509 29.4483C16.8051 29.4483 16.9886 29.4335 17.3998 29.2573C17.6347 29.1619 17.9797 28.949 18.1779 28.8169C18.5963 28.5525 18.7358 28.3912 18.8973 28.2589C19.2202 28.0093 19.3304 27.6716 18.9267 27.3119C18.7357 27.143 18.5376 26.9669 18.2807 26.8128C17.921 26.5925 17.6566 26.3796 16.9959 26.3796C16.2253 26.387 15.6821 26.5998 15.3811 26.7541Z" fill="#E6E6DD"/>
<path d="M30.0555 27.1733C30.0555 27.1733 29.4315 27.0044 29.2113 26.9824C29.637 26.4024 30.1877 25.9253 30.6208 25.6317C31.4723 25.0517 32.3679 24.736 33.7261 24.6553C34.0932 24.6332 34.8493 24.5598 35.2604 24.5818C35.6422 24.5966 36.2809 24.6259 36.8682 24.736C37.2866 24.8167 37.6757 24.9269 37.9914 24.9783C38.1896 25.0077 38.8722 25.0004 39.1072 24.9636C40.0689 24.8094 41.2214 24.4424 41.8234 24.1119L42.0805 25.0297C40.7884 25.6903 39.3201 26.329 37.9842 26.329C37.3014 26.329 36.5746 26.2776 35.8992 26.2116C34.7099 26.1014 33.6749 25.9399 33.3226 25.9399C32.3681 25.9399 30.9805 26.3878 30.0555 27.1733ZM29.1012 32.2974L27.8826 31.7394C29.571 30.8878 32.1551 30.0289 33.2122 29.8601C34.2694 29.6913 35.4806 29.5665 36.178 29.3315C36.501 30.139 37.1251 31.0052 38.0353 31.0052C38.3657 31.0052 38.9089 30.7557 39.4595 30.5134C40.0762 30.2418 40.6928 29.9481 41.0084 29.8014C41.3534 29.6472 42.4766 29.1554 43.4237 28.7294C43.7907 28.568 44.7891 28.0909 44.8405 28.0615L45.4792 28.4065C45.2883 29.2507 44.9726 30.2786 44.6129 31.0199C44.4735 31.3063 44.3341 31.5485 44.1798 31.7174C43.9009 32.033 43.4531 32.4442 42.8658 32.8626C42.2271 33.3178 41.4489 33.7803 40.6194 34.2575C39.9734 34.6245 39.3273 35.0063 38.6739 35.3073L38.3362 34.6906C39.3492 34.1181 40.377 33.3912 41.28 32.7232C41.7057 32.4076 42.1242 32.0845 42.4179 31.813C42.6381 31.6147 42.7776 31.4458 42.8877 31.2844C43.1593 30.8879 43.5925 30.1171 43.7319 29.75C43.3576 29.9336 41.926 30.6089 41.2874 30.9466C40.568 31.3283 39.3934 31.923 38.74 32.2314C38.2261 32.4736 37.7637 32.6057 37.4333 32.6057C36.6992 32.6057 36.3688 32.0771 36.1853 31.7615C35.7228 30.9392 35.2237 30.8584 33.9243 30.8438C32.4121 30.8145 30.3345 31.4457 29.1012 32.2974ZM36.2074 28.5021C36.2074 28.5021 36.0312 27.7827 35.9432 27.5183C35.9432 27.5183 36.156 27.4522 36.435 27.4522C36.8902 27.4522 38.006 27.577 38.4758 27.577C40.2303 27.577 40.8763 27.0264 41.3902 26.564C41.8306 26.1676 42.2785 25.8446 43.4678 25.8446C44.5176 25.8446 45.7215 26.2703 46.0665 26.4392L45.9931 27.3935C45.4792 27.1072 44.7744 26.9163 44.1504 26.9163C43.7173 26.9163 43.3283 26.9531 43.0493 27.0925C42.741 27.2541 42.5502 27.4963 42.2639 27.7312C41.9554 27.9881 41.5297 28.2303 40.9791 28.436C40.4285 28.6414 39.7384 28.7809 38.7181 28.7809C37.36 28.7736 36.6258 28.5534 36.2074 28.5021Z" fill="#E6E6DD"/>
<path d="M25.1159 35.7177L25.9234 35.38C26.6648 35.6663 27.7366 35.9892 28.4781 35.9892C28.9258 35.9892 29.293 35.8278 29.6013 35.6957C29.8362 35.5929 32.5304 34.2714 33.8664 33.7869C34.2922 33.6329 34.718 33.5447 34.9309 33.5447C35.2539 33.5447 35.2687 33.6915 35.3567 33.831C35.6062 34.2348 37.5958 37.0685 37.7939 37.2886C39.4825 36.7675 41.2076 36.0113 42.1987 35.057C43.2337 34.0586 44.0927 32.8987 44.9296 32.003C45.2525 31.658 45.649 31.3424 45.8472 31.2396C46.7062 30.7845 49.3857 30.7405 50.5162 30.7918L49.8482 31.7389C47.8662 31.7389 46.7576 31.9443 46.2583 32.3189C46.0455 32.4803 45.7297 32.7961 45.4215 33.1924C44.7461 34.0734 44.0046 35.2847 43.711 35.5196C44.291 35.9234 44.9224 36.2757 45.9354 36.2757C47.6165 36.2757 48.8205 35.226 49.4812 34.6313L50.0464 34.969C49.6279 35.5123 49.1507 36.0702 48.5414 36.4813C47.866 36.9365 47.0145 37.2375 46.5079 37.3769C45.5316 37.1934 43.388 36.7604 42.8814 36.6576C41.0242 37.4137 37.9996 38.6397 36.9793 38.9481C36.8324 38.992 36.5974 39.0287 36.2965 39.0582C35.4889 39.1023 34.373 39.0949 33.36 39.0802C32.6406 39.0729 31.9506 39.0802 31.6129 39.0141L30.7173 38.0745C31.5027 38.2287 31.8184 38.2727 32.5525 38.2727C34.2996 38.2727 35.4302 37.979 35.7974 37.8836C36.1057 37.8028 36.1571 37.6193 36.0689 37.3404C35.9221 36.8926 35.6651 36.4668 35.2688 36.0116C35.0558 35.7621 34.586 35.3437 34.3878 35.2115C34.1456 35.0499 33.9106 35.0059 33.2498 35.2335C32.6405 35.4391 30.7392 36.4668 29.917 36.8999C29.5132 37.1129 29.1976 37.1789 28.4709 37.0101C27.6927 36.8409 25.8574 36.1729 25.1159 35.7177ZM30.3795 14.656C30.7612 14.656 31.0696 14.3476 31.0696 13.9659C31.0696 13.5843 30.7612 13.2759 30.3795 13.2759C29.9978 13.2759 29.6894 13.5843 29.6894 13.9659C29.6894 14.3476 29.9978 14.656 30.3795 14.656Z" fill="#E6E6DD"/>
</svg>
