<svg width="59" height="48" viewBox="0 0 59 48" fill="none" xmlns="http://www.w3.org/2000/svg">
<path fill-rule="evenodd" clip-rule="evenodd" d="M19.8981 22.4794C19.9135 22.3435 19.9853 22.163 20.0237 22.0334C20.0667 21.889 20.1116 21.7318 20.154 21.5989L20.6714 19.8856C21.0952 18.4516 21.5453 17.0465 21.9641 15.6024C22.126 15.0442 22.3187 14.4614 22.4826 13.8946C22.6536 13.3035 22.8308 12.7479 23.0012 12.1786C23.1527 11.6721 23.3223 10.9333 23.5258 10.4733C23.73 10.0119 24.0293 9.35203 24.6491 9.37693C25.2223 9.39982 25.5398 10.0777 25.7206 10.5392C25.9263 11.0644 26.0895 11.6642 26.2618 12.2284C26.6115 13.3744 26.9566 14.4935 27.3011 15.6357C27.3197 15.6976 29.3631 22.3513 29.3795 22.4805L19.8981 22.4794ZM32.2429 34.803C32.3368 34.7132 32.4801 34.59 32.5714 34.5164C32.8406 34.2992 33.2762 33.8981 33.5679 33.6448C34.4393 32.8877 35.3175 32.0789 36.1413 31.2455C36.9106 30.4675 37.5662 29.8459 38.3065 29.0703C39.0611 28.2798 39.6653 27.6092 40.3903 26.7986C40.752 26.3939 41.1806 25.8687 41.5237 25.4443C41.5948 25.3561 42.0262 24.8229 42.0733 24.7338C42.0598 24.6551 42.0251 24.5694 42.0019 24.4891C41.9776 24.4051 41.9562 24.3311 41.9257 24.2497C41.7743 23.848 41.5871 23.2541 41.4478 22.8398L40.1802 19.0864C39.9809 18.4959 39.7558 17.784 39.5486 17.2094C39.4338 16.8911 39.3376 16.5823 39.2282 16.2634L38.2803 13.4558C37.9272 12.3671 37.5379 11.2534 37.173 10.1694C37.1428 10.0796 37.041 9.76432 37.0379 9.67393C37.0009 9.63841 36.6617 8.64899 36.5785 8.46196C36.4164 8.09758 36.2378 7.65118 36.0756 7.28031L35.8134 6.71085C35.617 6.26198 35.2004 5.47835 34.9197 5.07007C34.196 4.01716 33.4375 3.23837 32.5185 2.42689C32.2933 2.22806 31.9545 1.95925 31.7007 1.78001C31.6573 1.74922 31.6035 1.72786 31.5814 1.67676C31.5252 1.66957 31.2683 1.48879 31.1915 1.44112C30.1593 0.800151 29.2298 0.517074 28.0184 0.255116C27.7173 0.18998 27.243 0.139114 26.929 0.0961626C26.1848 -0.00567066 25.3057 -0.00613712 24.5488 0.0044828C24.1923 0.00943877 23.1448 0.0794086 22.8123 0.136402C22.6388 0.166138 22.4407 0.180772 22.2693 0.212514C22.091 0.245554 21.9106 0.27564 21.7355 0.309034C21.2428 0.402961 20.7328 0.535482 20.2556 0.691713C17.5257 1.58567 15.6764 3.53207 14.3195 5.99389C13.1325 8.14784 12.2692 10.8173 11.5153 13.1787C11.1179 14.4235 10.6906 15.7 10.297 16.955C9.89408 18.24 9.47719 19.4845 9.07505 20.7438C8.67338 22.0013 8.27041 23.2734 7.85635 24.5214C7.43687 25.7853 7.04547 27.0447 6.63424 28.3079C5.81863 30.8125 5.01329 33.3621 4.19473 35.8745C3.98752 36.5104 3.79978 37.1323 3.58372 37.7698C3.36979 38.4008 3.1843 39.0281 2.9758 39.651C2.57094 40.8608 2.1557 42.1937 1.75746 43.4292L0.84083 46.2704C0.816286 46.3452 0.792566 46.4289 0.764246 46.5124C0.726722 46.6228 0.734398 46.6629 0.734516 46.7875C0.735106 47.4815 0.681061 47.4377 0.880597 47.4523C0.931691 47.4561 0.982316 47.4619 1.03188 47.4678C1.13465 47.4798 1.25831 47.478 1.35766 47.4864C1.56841 47.5043 1.81492 47.5094 2.02708 47.5186C3.37605 47.5774 4.83334 47.5789 6.18207 47.5861C7.11296 47.5911 8.04764 47.5846 8.9757 47.574C9.42811 47.5689 11.3002 47.5573 11.5967 47.3789C11.9486 47.1672 11.9959 46.9243 12.1374 46.5075C12.2576 46.153 12.3727 45.8043 12.4921 45.4541C12.7256 44.7691 12.9624 44.0017 13.2023 43.3385C13.5696 42.323 13.9078 41.2001 14.2687 40.1748C14.3943 39.8175 14.4918 39.4907 14.62 39.1305C14.855 38.4697 15.1048 37.6959 15.3304 37.0189C15.4468 36.67 15.5664 36.3124 15.6858 35.965C15.8602 35.4578 16.0335 34.9512 16.5371 34.7019C16.6769 34.6325 16.9103 34.5446 17.0838 34.5428C17.5508 34.5384 18.0209 34.5433 18.4883 34.5433C22.6955 34.5433 26.9026 34.5433 31.1098 34.5433C31.5697 34.5433 31.7423 34.5037 32.1581 34.7164C32.1664 34.7207 32.2049 34.7391 32.2136 34.7464C32.2562 34.7819 32.2391 34.74 32.2429 34.803Z" fill="#E6E6DD"/>
<path fill-rule="evenodd" clip-rule="evenodd" d="M31.8998 40.5452C31.8874 40.2507 31.9539 39.8943 31.6835 39.793C31.5369 39.7381 31.4108 39.8222 31.3544 39.9099C31.2757 40.032 31.2804 40.1529 31.2804 40.3276V45.2303C31.2806 45.8346 31.8958 45.8216 31.8981 45.245L31.8979 42.2454C31.8978 41.7866 31.9397 41.2967 32.1246 40.9586C32.3041 40.6303 32.585 40.4183 33.0726 40.4101C34.1892 40.3911 34.3161 41.2533 34.3159 42.1733L34.3157 45.1871C34.3142 45.8706 34.9197 45.7849 34.9395 45.2886C34.9588 44.805 34.9397 44.277 34.9397 43.7884C34.9397 43.2837 34.9397 42.779 34.9397 42.2743C34.9397 41.7667 34.9237 41.3646 35.1332 40.9735C35.3068 40.6497 35.6159 40.4322 36.0808 40.4112C37.1427 40.3633 37.3942 41.1257 37.3972 42.1012C37.3979 42.8704 37.3972 43.6393 37.3972 44.4085C37.3972 44.6718 37.3574 45.3335 37.4506 45.5099C37.6155 45.8219 38.0134 45.6933 38.0134 45.2449V41.9282C38.0135 40.9284 37.7297 40.1394 36.9365 39.8271C36.562 39.6798 35.9555 39.6457 35.5695 39.7978C35.2835 39.9103 35.062 40.0764 34.8951 40.3164C34.8589 40.3683 34.7703 40.529 34.7346 40.5611C34.6865 40.5089 34.6406 40.3843 34.5032 40.2289C34.4112 40.125 34.3149 40.0443 34.2013 39.9706C33.8989 39.7746 33.6656 39.748 33.3273 39.7063C32.8588 39.6487 32.3981 39.8566 32.1244 40.1954C32.0073 40.3402 31.9368 40.5215 31.8998 40.5452Z" fill="white"/>
<path fill-rule="evenodd" clip-rule="evenodd" d="M47.0756 42.2493C47.0753 41.7907 47.2202 41.2914 47.407 40.9996C47.5999 40.6982 47.9163 40.432 48.4016 40.4225C49.4237 40.4024 49.7323 41.273 49.7097 42.251L47.0756 42.2493ZM47.073 42.9556C47.2402 42.9363 49.2539 42.951 49.6053 42.951C49.8949 42.951 50.1346 43.0013 50.25 42.7514C50.4125 42.3993 50.2907 41.5936 50.2129 41.2341C50.0117 40.3051 49.3439 39.6296 48.3297 39.7027C46.7399 39.817 46.42 41.4853 46.4453 42.9519C46.4627 43.959 46.7322 44.9302 47.3985 45.4046C48.1459 45.9369 49.3226 45.8133 49.932 45.1993C50.073 45.0574 50.2533 44.8939 50.1636 44.6103C50.1321 44.5107 50.0573 44.4202 49.9598 44.3961C49.6367 44.3163 49.4991 45.0526 48.4303 44.9993C47.9423 44.9749 47.6011 44.6726 47.3962 44.3398C47.2052 44.0299 47.0372 43.4058 47.073 42.9556Z" fill="white"/>
<path fill-rule="evenodd" clip-rule="evenodd" d="M39.5404 43.0816C39.4789 42.5936 39.58 41.7964 39.7085 41.3996C39.8582 40.9379 40.1297 40.5849 40.6219 40.458C41.1376 40.3252 41.6605 40.5009 41.9648 40.9081C42.2135 41.2408 42.3613 41.8469 42.3782 42.3599C42.4146 43.4669 42.3049 44.7297 41.2926 44.9827C40.7886 45.1086 40.2508 44.9425 39.952 44.5354C39.6431 44.1142 39.6144 43.6697 39.5404 43.0816ZM40.7213 39.7153C40.347 39.7714 40.1054 39.8313 39.8044 40.0664C39.0416 40.6616 38.8523 41.9872 38.9078 42.9614C38.9536 43.7645 39.0636 44.4169 39.4357 44.9677C39.8662 45.6048 40.4511 45.7639 41.1957 45.7272C41.8612 45.6944 42.392 45.2337 42.6611 44.6588C43.15 43.6146 43.1716 41.4397 42.4873 40.4693C42.312 40.2206 42.1069 40.0173 41.8128 39.8785C41.5222 39.7412 41.099 39.6587 40.7213 39.7153Z" fill="white"/>
<path fill-rule="evenodd" clip-rule="evenodd" d="M44.2419 39.591C44.1004 39.6173 43.8789 39.5636 43.7589 39.6198C43.5019 39.74 43.5122 40.1987 43.7442 40.3149C43.8761 40.3809 44.0793 40.329 44.2382 40.3491C44.2602 40.4908 44.2433 43.373 44.2433 43.6006C44.2433 44.1427 44.2216 44.6083 44.4369 45.0371C44.6137 45.3895 44.9399 45.6842 45.4222 45.6773C45.6554 45.674 45.7841 45.4224 45.725 45.1958C45.5924 44.6878 45.0739 45.2043 44.8958 44.4032C44.8437 44.1685 44.8663 43.8739 44.8663 43.6151C44.8663 43.3928 44.8492 40.4844 44.8715 40.3502C45.2429 40.2878 45.7859 40.5235 45.7931 39.9814C45.8004 39.4303 45.2874 39.6407 44.8726 39.5958C44.854 39.5015 44.8663 38.5046 44.8663 38.323C44.8663 37.9663 44.9482 37.3306 44.5617 37.3226C44.3837 37.3188 44.2735 37.5029 44.2492 37.6472C44.2286 37.7703 44.2503 39.3216 44.2419 39.591Z" fill="white"/>
<path fill-rule="evenodd" clip-rule="evenodd" d="M51.3008 37.7749V44.2062C51.3008 44.8916 51.4994 45.6288 52.2268 45.6753C52.6788 45.7042 52.689 45.1611 52.4688 44.987C52.3058 44.8582 51.9432 45.0627 51.9247 44.3221C51.9114 43.7895 51.9234 43.241 51.9234 42.7066V37.8902C51.9235 37.6312 51.8885 37.3993 51.6612 37.3487C51.4343 37.2982 51.3008 37.5553 51.3008 37.7749Z" fill="white"/>
<path fill-rule="evenodd" clip-rule="evenodd" d="M51.3005 37.7748C51.3005 37.5552 51.434 37.298 51.6609 37.3485C51.8882 37.3992 51.9232 37.631 51.9231 37.89V42.7064C51.9231 43.2408 51.9111 43.7893 51.9244 44.3219C51.9429 45.0625 52.3055 44.858 52.4685 44.9869C52.6887 45.1609 52.6785 45.7041 52.2265 45.6752C51.4991 45.6287 51.3005 44.8914 51.3005 44.2061V37.7748ZM40.7213 39.715C41.099 39.6584 41.5222 39.7409 41.8128 39.8782C42.1069 40.017 42.3119 40.2203 42.4873 40.4689C43.1716 41.4393 43.15 43.6143 42.6611 44.6585C42.3919 45.2334 41.8612 45.694 41.1957 45.7268C40.4511 45.7635 39.8662 45.6045 39.4357 44.9674C39.0635 44.4166 38.9536 43.7642 38.9078 42.9611C38.8523 41.9869 39.0416 40.6612 39.8043 40.0661C40.1054 39.831 40.347 39.7711 40.7213 39.715ZM47.0726 42.9552C47.0369 43.4054 47.2049 44.0295 47.3958 44.3394C47.6008 44.6722 47.9419 44.9745 48.43 44.9989C49.4988 45.0522 49.6364 44.3159 49.9595 44.3957C50.0569 44.4198 50.1318 44.5103 50.1633 44.6099C50.2529 44.8935 50.0726 45.057 49.9316 45.1989C49.3223 45.8129 48.1456 45.9365 47.3982 45.4042C46.7318 44.9298 46.4623 43.9586 46.445 42.9515C46.4196 41.4849 46.7395 39.8166 48.3293 39.7023C49.3435 39.6292 50.0114 40.3047 50.2126 41.2337C50.2903 41.5932 50.4121 42.3989 50.2496 42.751C50.1342 43.0009 49.8946 42.9506 49.605 42.9506C49.2536 42.9506 47.2398 42.9359 47.0726 42.9552ZM31.8995 40.5447C31.9364 40.521 32.007 40.3397 32.124 40.1949C32.3978 39.8561 32.8584 39.6482 33.3269 39.7058C33.6652 39.7475 33.8985 39.7741 34.2009 39.9701C34.3146 40.0438 34.4108 40.1245 34.5029 40.2284C34.6402 40.3838 34.6861 40.5084 34.7343 40.5606C34.7699 40.5285 34.8585 40.3678 34.8948 40.3159C35.0616 40.0759 35.2831 39.9098 35.5691 39.7973C35.9551 39.6452 36.5616 39.6793 36.9361 39.8266C37.7293 40.1389 38.0131 40.9279 38.013 41.9277V45.2443C38.013 45.6927 37.6151 45.8214 37.4503 45.5094C37.357 45.333 37.3968 44.6713 37.3968 44.408C37.3968 43.6388 37.3975 42.8698 37.3968 42.1007C37.3939 41.1252 37.1423 40.3628 36.0804 40.4107C35.6155 40.4317 35.3064 40.6492 35.1329 40.973C34.9233 41.3641 34.9394 41.7662 34.9394 42.2738C34.9394 42.7785 34.9394 43.2832 34.9394 43.7879C34.9394 44.2765 34.9585 44.8044 34.9391 45.2881C34.9193 45.7844 34.3138 45.8701 34.3154 45.1866L34.3155 42.1728C34.3157 41.2528 34.1889 40.3906 33.0723 40.4096C32.5847 40.4178 32.3037 40.6297 32.1242 40.9581C31.9393 41.2962 31.8975 41.7861 31.8976 42.2449L31.8977 45.2445C31.8954 45.8211 31.2802 45.8341 31.2801 45.2298V40.3271C31.2801 40.1524 31.2754 40.0315 31.3541 39.9094C31.4105 39.8217 31.5365 39.7376 31.6832 39.7925C31.9535 39.8938 31.8871 40.2501 31.8995 40.5447ZM44.2422 39.5908C44.2506 39.3214 44.2288 37.77 44.2495 37.647C44.2738 37.5026 44.384 37.3186 44.5619 37.3223C44.9485 37.3304 44.8666 37.966 44.8666 38.3228C44.8666 38.5043 44.8542 39.5013 44.8729 39.5956C45.2877 39.6404 45.8007 39.43 45.7934 39.9812C45.7862 40.5233 45.2432 40.2876 44.8718 40.35C44.8495 40.4841 44.8666 43.3926 44.8666 43.6149C44.8666 43.8737 44.844 44.1683 44.8961 44.403C45.0742 45.2041 45.5927 44.6876 45.7253 45.1956C45.7844 45.4222 45.6557 45.6737 45.4225 45.677C44.9401 45.684 44.614 45.3892 44.4372 45.0369C44.2219 44.6081 44.2436 44.1425 44.2436 43.6004C44.2436 43.3728 44.2605 40.4906 44.2385 40.3489C44.0796 40.3287 43.8764 40.3806 43.7445 40.3147C43.5125 40.1985 43.5022 39.7398 43.7592 39.6196C43.8792 39.5634 44.1007 39.6171 44.2422 39.5908ZM31.5813 1.67644C31.6034 1.72754 31.6572 1.7489 31.7006 1.77969C31.9544 1.95893 32.2932 2.22774 32.5185 2.42657C33.4375 3.23805 34.196 4.01684 34.9197 5.06975C35.2004 5.47803 35.6169 6.26166 35.8134 6.71053L36.0756 7.27999C36.2377 7.65086 36.4164 8.09726 36.5785 8.46164C36.6617 8.64867 37.0008 9.63809 37.0379 9.67361C38.1618 9.56281 39.2808 9.5621 40.4072 9.65602C42.2422 9.80907 44.1048 10.4921 45.1307 12.0109C45.9294 13.1935 46.2099 14.818 46.0525 16.3303C45.9974 16.8593 45.9063 17.3464 45.7798 17.8307C45.3234 19.5779 44.4753 21.1935 43.5344 22.6665C43.2949 23.0416 42.3772 24.3894 42.0732 24.7335C42.0261 24.8226 41.5948 25.3558 41.5236 25.444C41.1806 25.8684 40.752 26.3936 40.3902 26.7982C39.6652 27.6089 39.0611 28.2795 38.3065 29.07C37.5661 29.8456 36.9105 30.4672 36.1413 31.2451C35.3174 32.0786 34.4393 32.8873 33.5678 33.6444C33.2762 33.8978 32.8405 34.2989 32.5713 34.5161C32.48 34.5897 32.3368 34.7129 32.2428 34.8027C32.1671 34.8509 32.0715 34.9476 32.0015 35.0097L31.3004 35.616C31.0099 35.8757 30.6647 36.1585 30.3606 36.4298L28.4824 38.0577C27.8688 38.5807 27.2711 39.1264 26.609 39.6908L25.677 40.5115C25.3769 40.7828 25.0635 41.0658 24.7556 41.3432C24.6571 41.4318 24.3868 41.675 24.3244 41.788C24.0904 42.2112 23.9986 42.688 23.9673 43.1828C23.8985 44.2736 23.8337 46.358 24.0797 47.3427C24.1411 47.5889 24.2646 47.7348 24.4746 47.8262C24.6465 47.901 24.9976 47.9825 25.1924 47.9901C25.7576 48.0121 26.3703 47.9904 26.9408 47.9904C35.0877 47.9904 43.2346 47.9904 51.3815 47.9904C51.5704 47.9904 58.1571 48.0092 58.3604 47.9856L58.3557 35.6869C58.1556 35.6652 57.8531 35.6829 57.642 35.6829L48.4302 35.6833C47.9537 35.6833 47.5012 35.7023 47.0262 35.7063C46.5586 35.7104 46.0903 35.7219 45.648 35.6632C45.3331 35.6213 44.7165 35.5037 44.7267 35.1502C44.7405 34.6654 46.0774 33.7681 46.5475 33.3997C46.9205 33.1074 47.3179 32.7382 47.6883 32.4131C48.2055 31.959 48.7054 31.5479 49.1895 31.0838C49.6507 30.6418 50.1631 30.1379 50.6442 29.6931C51.0752 29.2946 51.6964 28.7082 52.1007 28.3039C52.4489 27.9557 53.0352 27.2042 53.4122 26.7685C53.6269 26.5205 53.8274 26.2599 54.045 25.9786C55.0956 24.6197 56.0013 23.206 56.7553 21.5835C58.1847 18.5077 58.6993 15.4114 58.1018 12.0197C57.7114 9.80434 56.802 7.78727 55.4871 6.09988C54.856 5.28982 54.1529 4.6066 53.3536 3.96421C50.2206 1.44682 45.7571 0.304117 41.4819 0.245589C41.0131 0.239099 40.5422 0.2424 40.078 0.254082L38.7414 0.333858C38.531 0.36088 38.2925 0.37704 38.0859 0.393088C37.6078 0.430258 36.6591 0.564429 36.2156 0.649506C35.9885 0.693166 35.516 0.768324 35.3081 0.819418C35.2184 0.841484 35.1219 0.861074 35.0264 0.88078C34.8195 0.923614 31.6524 1.63538 31.5813 1.67644Z" fill="#BEBEB5"/>
<path fill-rule="evenodd" clip-rule="evenodd" d="M39.5403 43.0819C39.6143 43.67 39.643 44.1145 39.9519 44.5356C40.2507 44.9427 40.7885 45.1088 41.2925 44.9829C42.3048 44.73 42.4146 43.4671 42.3781 42.3602C42.3612 41.8471 42.2135 41.2411 41.9647 40.9083C41.6604 40.5011 41.1376 40.3254 40.6218 40.4583C40.1296 40.5851 39.8581 40.9382 39.7085 41.3998C39.58 41.7966 39.4788 42.5938 39.5403 43.0819Z" fill="#BEBEB5"/>
<path fill-rule="evenodd" clip-rule="evenodd" d="M47.0753 42.2488L49.7094 42.2505C49.732 41.2725 49.4234 40.4019 48.4013 40.422C47.916 40.4315 47.5996 40.6977 47.4067 40.9991C47.2199 41.2909 47.075 41.7902 47.0753 42.2488Z" fill="#BEBEB5"/>
</svg>
