<svg width="24" height="27" viewBox="0 0 24 27" fill="none" xmlns="http://www.w3.org/2000/svg">
<g clip-path="url(#clip0_204_249)">
<path d="M16.1132 26.2061C15.761 26.144 15.4088 26.0943 15.0566 26.0323C13.61 25.7592 12.2893 25.1881 11.044 24.4433C9.0943 23.2763 7.43392 21.7742 5.89933 20.1107C4.33958 18.4224 2.9182 16.6223 1.7987 14.6113C0.968512 13.1216 0.339581 11.5698 0.100588 9.86905C-0.163563 7.9821 0.062852 6.15722 1.01883 4.46889C1.52197 3.57507 2.17606 2.81781 2.99367 2.17227C3.38361 1.87433 3.73581 1.52674 4.12574 1.2288C4.94335 0.595677 5.83644 0.620506 6.566 1.36535C6.98109 1.78744 7.37103 2.24676 7.71065 2.74333C8.33958 3.66197 8.98109 4.56821 9.34587 5.63582C9.72323 6.72827 9.57229 7.70899 8.6792 8.50349C8.22637 8.90074 7.76097 9.31041 7.2704 9.65801C6.20122 10.3904 6.05027 11.2843 6.45279 12.4388C6.81757 13.5064 7.47166 14.4126 8.16348 15.2816C9.06914 16.4237 10.0503 17.5037 11.1823 18.4224C11.8113 18.9314 12.4779 19.3907 13.2956 19.5769C14.0125 19.7383 14.6163 19.5521 15.1446 19.0679C15.6729 18.5838 16.1886 18.0872 16.7295 17.6279C17.6226 16.883 18.6163 16.8582 19.6352 17.3672C19.9748 17.541 20.3018 17.7148 20.5912 17.9507C21.6352 18.77 22.7169 19.5645 23.5345 20.6445C24.2012 21.5383 24.1509 22.3949 23.3207 23.1398C22.5157 23.8598 21.761 24.6419 20.7924 25.1757C19.8113 25.7219 18.7673 26.0695 17.6352 26.1812C17.5597 26.1812 17.4842 26.2061 17.4213 26.2309H16.1132V26.2061Z" fill="#E6E6DD"/>
</g>
<defs>
<clipPath id="clip0_204_249">
<rect width="24" height="25.4118" fill="white" transform="translate(0 0.794189)"/>
</clipPath>
</defs>
</svg>
