<svg width="123" height="32" viewBox="0 0 123 32" fill="none" xmlns="http://www.w3.org/2000/svg">
<path d="M107.971 9.44323C107.971 8.87059 107.511 8.4056 106.938 8.4056H105.406C104.834 8.4056 104.374 8.87059 104.374 9.44323V25.4567C104.374 26.0292 104.834 26.4942 105.406 26.4942L106.938 26.4942C107.511 26.4942 107.971 26.0292 107.971 25.4566V9.44323ZM109.923 9.86901V10.6276C109.923 10.9408 110.183 11.1953 110.496 11.1953L121.062 11.1952C121.542 11.1952 121.933 10.8086 121.933 10.3241V9.03701C121.933 8.55246 121.537 8.11693 121.057 8.16588C121.057 8.16588 110.843 9.16917 110.516 9.20342C110.139 9.2523 109.923 9.55575 109.923 9.86901ZM101.369 26.4991C98.7404 26.4991 97.0862 24.5072 97.0862 22.2853V15.879H96.3326C95.9313 15.879 95.6083 15.556 95.6083 15.1546V14.0828C95.6083 13.6815 95.9362 13.3585 96.3375 13.3585H97.0863V9.41879C97.0863 8.86085 97.5366 8.41055 98.0946 8.41055H99.5873C100.145 8.41055 100.595 8.86573 100.595 9.42367V13.3584H102.925C103.326 13.3584 103.654 13.6815 103.654 14.0828V15.1546C103.654 15.556 103.331 15.8789 102.93 15.8789H100.6V21.8056C100.6 22.9703 101.305 23.7632 102.568 23.7632H102.778C103.214 23.7632 103.566 24.1156 103.566 24.5511V25.7159C103.566 26.1515 103.214 26.5038 102.778 26.5038L101.369 26.4991ZM76.7611 15.6391C78.3321 15.6391 79.6828 16.755 79.8199 18.2623H73.7268C73.8589 16.755 75.1901 15.6391 76.7611 15.6391V12.8985C72.5131 12.8985 70.1296 16.2216 70.1296 19.7257C70.1296 23.4599 72.6794 26.7487 76.7904 26.7487C79.5996 26.7487 82.3746 25.2658 82.8933 22.8334C82.9618 22.5056 82.7417 22.0748 82.2816 22.0748H80.2751C79.908 22.0748 79.6095 22.251 79.4333 22.5152C78.8607 23.3571 78.014 23.8073 76.7709 23.8073C75.0091 23.8073 73.7904 22.4223 73.7023 20.8856H82.2425C83.0304 20.8856 83.3828 20.4598 83.3828 19.7305C83.3828 16.3145 81.3616 12.9033 76.7661 12.9033L76.7611 15.6391ZM115.684 15.6391C117.25 15.6391 118.606 16.755 118.743 18.2623H112.649C112.782 16.755 114.113 15.6391 115.684 15.6391V12.8985C111.436 12.8985 109.052 16.2216 109.052 19.7257C109.052 23.4599 111.607 26.7487 115.713 26.7487C118.522 26.7487 121.292 25.2658 121.816 22.8334C121.885 22.5056 121.664 22.0748 121.204 22.0748H119.198C118.836 22.0748 118.537 22.251 118.356 22.5152C117.783 23.3571 116.942 23.8073 115.694 23.8073C113.937 23.8073 112.713 22.4223 112.62 20.8856H121.165C121.953 20.8856 122.306 20.4598 122.306 19.7305C122.306 16.3145 120.284 12.9033 115.689 12.9033L115.684 15.6391Z" fill="#E6E6DD"/>
<path d="M94.2142 8.58627H66.5479C65.9166 8.58627 65.4124 9.09527 65.4124 9.7266L65.5055 20.5914C65.5055 20.5914 59.5444 9.8245 59.2312 9.27143C58.9376 8.75756 58.3112 8.27795 57.4448 8.27795H55.1691C54.5427 8.27795 54.0288 8.78695 54.0288 9.41828V25.3534C54.0288 25.9798 54.5378 26.4937 55.1691 26.4937H56.6276C57.2589 26.4937 57.7679 25.9798 57.7679 25.3534L57.6749 14.1802C57.6749 14.1802 63.6946 25.0598 63.9492 25.4856C64.2966 26.063 64.8839 26.4937 65.7355 26.4937H67.8252C68.4566 26.4937 68.9656 25.9798 68.9656 25.3534V11.2829H94.2191C94.6498 11.2829 94.9973 10.9354 94.9973 10.5047V9.35456C94.9923 8.9338 94.6448 8.58627 94.2142 8.58627Z" fill="#E6E6DD"/>
<path d="M89.7359 15.5067C90.9399 15.5067 91.8403 15.9423 92.1633 16.696C92.32 17.0582 92.6185 17.1266 93.0345 17.1266H94.6887C94.9628 17.1266 95.276 16.8917 95.276 16.5345C95.276 14.6111 92.9856 12.8933 89.7359 12.8933C86.3737 12.8933 84.1713 14.4936 84.1713 17.0435C84.1713 18.9962 85.713 20.156 87.607 20.6503C88.4684 20.8755 89.9463 21.2425 90.6609 21.4285C91.4341 21.6342 92.1291 21.869 92.1291 22.5297C92.1291 23.577 91.0279 23.9343 89.8191 23.9343C88.6788 23.9343 87.5385 23.4254 87.2154 22.6129C87.0245 22.1431 86.6966 22.0746 86.1925 22.0746H84.514C84.2202 22.0746 83.8825 22.3291 83.8825 22.7108V22.9261C83.8825 24.7858 86.3786 26.7386 89.824 26.7386C92.2661 26.7386 95.6674 25.7255 95.6674 22.4465C95.6674 20.5476 94.3999 19.236 92.3346 18.7123C91.527 18.5067 89.5841 18.0124 89.1633 17.9048C88.4096 17.709 87.7097 17.4643 87.7097 16.8232C87.7048 15.8395 88.6103 15.5067 89.7359 15.5067ZM28.4865 4.90616C28.7948 4.90616 29.0395 4.65654 29.0395 4.35309C29.0395 4.04477 28.7899 3.80009 28.4865 3.80009C28.183 3.80009 27.9335 4.04964 27.9335 4.35309C27.9335 4.65646 28.1831 4.90616 28.4865 4.90616ZM21.0426 3.92236C21.302 3.92236 21.5075 3.71194 21.5075 3.45744C21.5075 3.198 21.2971 2.99245 21.0426 2.99245C20.7832 2.99245 20.5776 3.20287 20.5776 3.45744C20.5728 3.71194 20.7832 3.92236 21.0426 3.92236ZM15.4584 15.3305L15.2333 15.0858C15.8646 14.4985 16.5351 13.5588 16.6477 13.0107C16.7504 12.4968 17.4845 12.5801 17.3426 13.138C17.1616 13.8525 16.2904 14.709 15.4584 15.3305ZM10.7357 4.11816C9.57091 4.6222 9.39955 5.82123 10.2169 6.53577C11.2006 7.40204 12.8303 6.64837 12.6738 5.32701C13.9951 5.39552 14.8467 4.02513 14.6362 3.07079C15.2235 2.56674 15.2823 1.49006 14.5775 1.06915C13.8238 0.613975 13.1093 0.790206 12.6541 1.66127C11.4404 1.56831 10.2805 2.52273 10.7357 4.11816L10.1728 3.87341C9.43381 2.32694 10.7259 0.746131 12.3164 1.10827C12.6345 0.339911 13.8189 -0.457842 15.0962 0.315394C16.1191 0.932034 16.3344 2.52753 15.2479 3.30077C15.7569 4.78855 14.7389 6.00234 13.1875 5.86523C13.0064 7.7788 11.2005 8.02355 10.0358 7.11815C9.37504 6.60428 9.10584 5.89461 8.98351 5.35631C8.85135 4.78855 8.85135 4.27963 8.28853 3.69717C7.86762 3.25669 7.11395 3.27138 7.11395 3.27138C7.11395 1.88151 5.81208 0.609025 4.19701 1.22574C3.62445 0.731438 2.91973 0.682487 2.41066 1.29418C2.11703 1.64658 1.95549 2.57649 2.86096 3.00227C2.81201 4.26981 3.78105 5.0773 5.19056 4.96479C5.24439 5.64012 5.99318 6.26171 6.6539 6.35466L6.64903 6.69237C5.94431 6.62385 5.56253 6.87347 5.09274 7.45585C3.4336 7.37752 2.26883 8.11657 2.31778 9.30578C1.15302 9.52609 0.93278 10.7495 1.5935 11.4004C2.25422 12.0513 3.22318 11.7968 3.55601 11.0187C4.73547 11.2439 5.77302 10.3972 5.82197 9.42812C6.91822 9.42812 7.40278 8.99251 7.58381 7.98434L7.99985 8.0186C8.12219 9.1051 7.61814 10.1377 6.30645 10.0154C6.27219 11.3172 5.00953 12.0415 3.83495 11.5962C3.28682 12.6239 2.02903 13.0399 0.971909 12.0317C-0.0460786 11.0578 0.32581 9.39378 1.65707 8.99251C1.68645 7.7201 2.63098 6.50639 4.45646 6.97618C4.45646 6.97618 4.69139 6.40841 5.26403 6.37415C4.88232 6.21755 4.59356 6.00706 4.51523 5.61553C3.1351 5.90923 1.96546 4.64162 2.27865 3.36427C1.03068 2.6989 1.01104 1.46562 1.62776 0.736384C2.26883 -0.0271074 3.34064 -0.193525 4.29994 0.628662C5.92474 -0.27186 7.76005 0.82934 7.64745 2.67934C8.78291 2.60587 9.47294 3.59447 9.34565 4.63202C9.53163 4.17693 9.75187 3.96644 10.1728 3.87341L10.7357 4.11816Z" fill="#E6E6DD"/>
<path d="M13.5205 1.89648L13.7946 2.09221C13.2611 3.21297 12.3215 4.40712 11.5139 5.06289L11.2056 4.83291C11.7783 3.90787 13.0067 2.37115 13.5205 1.89648ZM5.58232 8.0679L5.7683 8.34197C5.09289 9.03207 3.84979 9.95216 3.18915 10.2702L2.9297 9.99129C3.57086 9.30118 4.78944 8.40066 5.58232 8.0679ZM7.18756 4.73013L6.86455 5.13148C5.98359 4.55397 4.24619 3.00255 3.85466 2.43973L4.12873 2.1608C4.97055 2.59146 6.61013 4.05472 7.18756 4.73013ZM5.55781 19.4613C5.66058 19.9654 5.5725 20.5233 6.02767 21.0665C6.18922 21.2575 7.0701 22.4173 7.70638 23.0193C6.84011 23.3619 5.10271 24.0666 3.84987 24.2233C3.60024 24.2526 3.31636 24.4288 3.0815 24.5658C2.92483 24.835 2.76336 25.3098 2.69485 25.8481C2.6459 26.2347 2.65077 26.6654 2.65077 27.101C2.65077 27.4876 2.85632 28.7014 3.28697 29.5138C3.71763 30.3262 4.13367 30.6933 4.64267 30.9282C4.74544 30.8841 4.96568 30.8499 5.31313 30.845C6.25773 30.8254 6.99671 31.3442 7.31972 31.7945C7.44206 31.9657 7.69656 32 8.02444 32C8.78793 32 9.62481 31.7504 10.4177 31.447C10.589 31.305 11.0686 30.9869 11.5385 30.6199C12.0082 30.2479 14.6315 28.026 15.7914 27.4631C16.4032 27.7959 17.4064 28.2217 18.444 28.2217C18.5027 28.2217 18.7034 28.2217 18.9138 28.1777C19.2369 28.1043 19.6528 27.9574 20.1765 27.8595C21.1112 27.6785 22.2075 27.5169 22.5306 27.5218C23.3919 27.5365 25.9123 27.6002 26.5094 27.6002C27.1359 27.6002 28.0314 27.5463 28.374 27.5121C28.9026 27.3408 30.0772 27.0129 31.2028 26.4942C32.3284 25.9949 34.6923 24.3505 35.0789 23.9786C35.2648 23.8073 35.4313 23.6262 35.5585 23.4598C35.6074 23.3962 35.6221 23.3718 35.6221 23.3228C35.6221 23.2739 35.6124 21.6637 35.6124 21.6637C35.6124 21.6637 36.1801 21.0323 36.3954 20.817C36.4149 20.7975 36.4199 20.7681 36.4149 20.7485C36.3171 20.4255 36.2192 19.4271 36.278 18.4092L35.7053 18.14C35.6858 19.4026 35.2208 20.4793 34.7902 21.1449C33.9386 21.277 32.3137 21.7811 31.7265 22.4516L32.0495 22.5446C32.5976 22.2412 33.1898 22.0308 33.8603 22.0308C34.4525 22.0308 34.7168 22.1874 34.7168 22.3538C34.7168 22.4712 34.6042 22.755 34.5601 22.8431C34.5063 22.9459 34.4769 23.0732 34.3742 23.1808C33.5716 24.052 32.6661 24.7959 31.5552 25.4125C30.8113 25.8286 30.1065 26.1124 29.0005 26.4208C28.6726 26.5137 28.2174 26.6459 27.9238 26.7487C27.5077 26.7388 25.3397 26.6752 24.0721 26.6752C22.8045 26.6752 20.196 26.8612 19.364 27.0716C18.9872 27.1695 18.8941 27.3163 18.4537 27.3163C17.6364 27.3163 16.5597 26.9003 15.9039 26.5822C15.8061 26.6116 15.5711 26.7143 15.3313 26.8367C14.8663 27.0667 13.824 28.5105 13.217 28.075C12.9087 28.7063 11.5726 29.3083 11.1175 29.9641C11.1713 29.6214 11.7047 27.3897 11.7585 26.9444C11.7684 26.8661 11.7732 26.8025 11.7243 26.7193C11.2349 25.9068 9.87923 25.3881 9.11087 25.2364C8.88576 25.1923 8.77317 25.1629 8.62152 25.1287L7.41268 24.7616L6.29191 25.1287L7.58884 25.3783L5.94446 26.4648C6.22827 26.3571 7.99993 25.8628 8.13209 25.8236C8.27887 25.7796 8.46979 25.7405 8.68021 25.8139C8.92009 25.897 9.60525 26.0537 10.0115 26.1956C10.2513 26.2787 10.6428 26.7192 10.7456 26.9542C10.7847 27.052 10.8043 27.2577 10.8288 27.7079C10.8435 27.9917 10.77 28.393 10.7015 28.7014C10.5204 29.5089 10.1533 30.1402 10.0359 30.3654C9.87436 30.6786 9.6542 30.7765 9.43388 30.8792C9.07661 31.0506 8.63613 31.1533 8.15165 31.1582C7.8189 31.1631 7.59371 31.1436 7.45181 30.9526C7.00151 30.3458 5.89551 29.7585 4.76006 29.9787C4.06508 29.5578 3.37498 28.2021 3.37498 27.1206C3.37498 26.4745 3.70294 25.4517 3.8791 24.9378C5.00961 24.7861 7.2707 23.9248 8.37182 23.4255C8.60188 23.4157 9.23321 23.1906 9.84003 23.1906C11.3181 23.1906 12.7912 24.4876 13.6819 25.3587C13.8288 25.1188 14.1028 24.7518 14.8565 24.7518C15.9038 24.7518 16.5058 25.7062 16.8043 26.685L17.3525 26.2886C17.2546 25.7258 16.9659 25.114 16.5205 24.6735C16.1584 24.3114 15.4683 24.0128 14.9299 24.0128C14.6069 24.0128 14.2692 24.0863 14.0538 24.0863C13.305 24.0863 13.0016 23.7535 12.4486 23.3718C11.8515 22.9607 10.7406 22.3636 9.94775 22.3636C9.43876 22.3636 9.20877 22.5642 8.78786 22.5642C8.16635 22.5642 7.94116 22.3097 7.64266 21.9378C7.51537 21.7763 6.88404 21.2233 6.7177 20.9981C6.6198 20.8709 6.44843 20.3423 6.38974 20.0829L5.55781 19.4613Z" fill="#E6E6DD"/>
<path d="M6.40903 20.0679C6.59014 20.2587 6.76143 20.4741 6.98654 20.6453C7.20678 20.8117 7.47589 20.9537 7.73534 21.1005C8.09748 21.3061 8.51352 21.541 8.91974 21.6731C9.27701 21.7808 9.74193 21.8248 10.1775 21.8248C10.799 21.8248 11.5332 21.6976 12.14 21.9814C12.5462 22.1723 12.5756 22.603 12.8986 22.7254C13.4027 22.9211 14.8024 22.9652 15.5805 22.9652C17.1172 22.9652 18.7862 22.7694 19.7699 22.5345L19.2903 22.0059C18.61 22.1185 16.6132 22.3339 15.6981 22.3339C14.406 22.3339 13.1873 22.1283 13.1873 21.5949C13.1873 21.223 13.5837 20.6895 14.3424 20.6895C15.1548 20.6895 16.3832 21.1789 16.6132 21.2474C16.8384 21.3158 16.9313 21.2963 17.0732 21.2327L17.548 20.988C16.9166 20.6943 14.7192 19.9357 13.9557 19.9357C13.5936 19.9357 13.3978 19.9895 13.1628 20.293C12.8692 20.6698 12.0813 21.0173 10.8333 21.0173C10.1481 21.0173 9.16442 20.8949 8.94905 20.8069C8.57222 20.6502 7.83324 20.2245 7.35843 19.8818C6.75161 19.4414 6.2181 18.9569 5.85596 18.3842C5.74337 18.2081 5.69441 18.0123 5.69441 17.8361C5.69441 17.6892 5.73849 17.5523 5.75319 17.4397C5.86091 17.5914 5.9783 17.6991 6.13002 17.841C6.79074 18.4871 7.7696 18.9667 8.77282 19.1624C9.0567 19.2162 9.3112 19.2603 9.595 19.2603C10.0257 19.2603 10.4172 19.0303 10.6717 18.8051L10.2753 18.3451C10.1481 18.3842 9.88376 18.3842 9.71247 18.3842C8.25408 18.3842 6.40408 17.4299 5.9783 16.3288C5.93422 16.221 5.88527 16.1623 5.92935 16.0596C5.97343 15.9617 6.02238 15.7463 6.05656 15.5456C6.13977 15.6435 6.32087 15.7903 6.54111 15.9371C7.08437 16.2846 8.11705 16.7643 8.31765 16.8915C8.83646 16.7398 9.22799 16.5685 9.54118 16.407C9.84463 16.2503 10.2606 16.1085 10.7403 16.1085C11.8071 16.1085 13.0307 16.7153 14.1759 17.283L14.9639 16.9747C13.941 16.2553 11.7239 15.252 10.4907 15.252C9.7615 15.252 9.07626 15.7854 8.59178 15.7854C7.99471 15.7854 6.28182 14.9486 6.28182 14.2536C6.28182 13.7201 7.38789 13.4118 9.17416 13.1965C8.86584 13.6565 8.57222 14.1264 8.29808 14.606L8.75325 14.8605C11.5478 10.8131 14.4499 8.1898 16.897 6.5895C17.7828 6.00704 17.9884 5.66941 18.2967 5.03321C19.0553 3.48666 19.7698 2.29738 21.013 2.29738C21.5904 2.29738 22.0652 2.62527 22.3931 3.02662L23.2936 3.29581L22.3833 3.91245L23.3132 4.28441C22.0995 4.62212 20.4403 5.80645 19.7699 7.53905C18.4778 7.60756 17.8514 8.65486 17.4305 9.53095C17.1467 10.1231 16.6915 10.358 16.0308 10.8082L10.7404 14.4984L11.4696 14.6011L16.3588 11.327C17.3229 10.6761 17.7829 10.1965 18.013 9.73635C18.4681 8.83095 18.9526 8.15561 19.9118 8.15561C20.3816 8.15561 20.8857 8.35621 21.292 8.73799L22.1485 9.01693L21.2137 9.58957L21.9968 10.074C19.7553 10.774 18.3654 12.3841 17.5579 15.4527L18.15 15.5848C18.4485 14.5668 18.7422 13.637 19.2658 12.8099C20.5628 12.7952 21.8792 12.7462 23.1713 12.7462C26.6167 12.7462 29.4749 12.8931 31.0213 13.3483L30.4732 12.3988C28.8239 12.1198 26.4258 11.973 23.1712 11.973C22.0798 11.973 20.9738 12.0121 19.8775 12.0268C20.5872 11.278 21.6051 10.6467 23.1761 10.1573L22.0603 9.54549L23.2985 8.86033L21.5905 8.22421C21.2968 7.95997 20.9298 7.71521 20.4648 7.59774C21.0032 5.93868 22.8483 4.96964 24.6101 4.29918L23.3768 3.79505L24.6248 3.11477L22.7063 2.503C22.2022 1.91575 21.7226 1.64648 20.9836 1.64648C19.2022 1.64648 18.4582 3.19303 17.7486 4.56342C17.3766 5.28283 17.1418 5.59116 16.5104 6.00225C15.14 6.8979 13.3978 8.26821 11.7289 10.0202C10.8577 9.39384 9.08121 7.55854 8.59666 6.55524C8.4058 6.79017 8.21982 7.30404 8.21982 7.30404C8.40093 7.49497 10.4956 9.61408 11.2737 10.5097C11.215 10.5734 11.1563 10.6419 11.0975 10.7055C10.2655 10.8719 8.11217 11.0774 7.37807 10.9796L6.96697 11.7137C7.5151 11.6599 9.65872 11.4054 10.5445 11.3564C10.2704 11.6843 10.0062 12.022 9.75167 12.3646C6.99628 12.6778 5.15611 13.2407 5.15611 14.2586C5.15611 14.425 5.22463 14.6159 5.22463 14.797C5.22463 15.2228 5.06308 15.3794 4.76458 15.5702C4.56878 15.6926 4.55409 15.7806 4.6373 15.8981C4.7205 16.0156 5.14629 16.6469 5.14629 16.7692C5.14629 16.9748 4.94067 17.1755 4.7792 17.3614C4.63722 17.5229 4.64217 17.562 4.75469 17.7627L5.55244 19.461L6.40903 20.0679ZM40.5159 10.6175C40.3397 10.8034 40.1831 10.9992 40.0559 11.2096L39.6106 10.5881C41.0935 8.61086 45.0087 7.68583 47.2991 7.52436V6.46723C47.0103 6.55524 46.6923 6.65809 46.4035 6.72661C45.9924 6.82451 45.6106 6.91746 45.2926 6.90764C44.9696 6.90277 44.7101 6.77068 44.5927 6.59932C44.2843 6.15884 44.5682 5.49325 45.5764 4.87174L44.7836 4.21102C44.1669 5.00877 43.5649 5.88485 42.9483 6.40854C42.3903 6.8832 41.8031 7.12308 41.3332 6.77069C41.0787 6.57976 40.9808 6.49167 40.9564 5.99745C40.9906 5.26821 41.4311 4.1524 41.8226 3.43778L40.8829 3.33014C40.7116 4.43134 40.2663 5.36604 39.7817 6.13927C39.1798 7.10344 38.4065 7.77885 37.6088 8.33185L37.0851 7.81791C37.7263 7.4362 38.5338 6.81956 39.0868 5.96799C39.728 4.97939 40.2516 3.75585 40.2516 2.64491L42.9776 2.90428C42.5959 3.39371 41.9646 4.49977 41.7247 5.29752C41.6023 5.71356 41.6073 6.04145 41.7589 6.15397C42.0478 6.36933 42.5518 6.02676 43.0461 5.4982C43.7361 4.75427 44.4164 3.63359 44.715 3.23224L46.6825 4.86687C45.8064 5.33179 44.9597 5.86034 45.1262 6.15884C45.2828 6.43298 45.8407 6.34977 46.4574 6.15884C46.9615 6.00225 47.495 5.77226 47.9208 5.52264V8.185C46.9713 8.17031 45.3611 8.35141 43.8145 8.81633C44.1816 9.33514 45.2388 9.526 45.9142 9.61895L45.5765 11.7822C43.8782 11.0725 42.5714 10.6566 40.5159 10.6175L41.1962 10.035C42.7085 10.0644 44.2256 10.5049 45.087 10.9405L45.2094 10.1231C44.4362 10.0204 43.4573 9.5799 43.0462 9.08072C42.3708 9.33522 41.7346 9.64841 41.1963 10.0351L40.5159 10.6175Z" fill="#E6E6DD"/>
<path d="M32.3966 17.4839L33.028 16.1234C32.3672 15.3403 31.6234 14.3517 30.9969 13.3436L30.4487 12.3942C29.1861 9.99604 29.6461 8.85572 28.9707 7.7986C28.4128 6.92746 25.7113 7.47071 25.2659 7.56366L26.049 6.26674L24.5073 6.38908L25.814 4.83766C25.9559 4.63706 26.0245 4.45108 26.1761 3.9127C26.4062 3.09538 27.1109 1.70056 29.1664 1.70056C31.452 1.70056 32.1567 3.55048 33.1551 4.35318C34.2856 5.26345 35.7685 6.5408 37.0851 7.81816L37.6087 8.33202C38.2841 9.02213 38.9742 9.7318 39.6104 10.5882L40.0558 11.2098C42.8063 15.2229 46.2174 22.8919 47.7297 26.4059C47.8765 26.7485 47.9793 27.091 48.0723 27.3553C47.0445 26.7876 45.914 26.0878 44.7541 25.2851L44.0738 24.8104C43.648 24.5021 43.2271 24.1889 42.8111 23.8707L42.1162 23.3225C41.6953 22.9848 41.2842 22.6423 40.878 22.2948L42.2533 30.2967C42.356 30.7664 42.7574 30.6882 43.0804 30.2771C43.4083 29.8611 43.5306 29.7485 43.4083 29.2004L42.1162 23.3226L42.8112 23.8707L44.0494 28.8676C44.1669 29.3179 44.3578 29.4598 44.8863 29.4843C45.4149 29.5088 45.5274 29.3032 45.4149 28.9557L44.0739 24.8105L44.7542 25.2852L46.0218 29.0096C46.3497 29.9639 46.0218 30.0764 45.4491 30.0764C44.8766 30.0764 44.3626 29.9443 44.0494 30.1449C43.7362 30.3456 43.3447 30.8986 42.87 31.3783C42.4539 31.8041 41.8471 31.6915 41.7297 30.8937L40.2125 21.7026C39.2239 20.8119 38.2793 19.8771 37.4375 18.9229C37.0656 18.7662 36.6496 18.5753 36.2825 18.404L35.71 18.1348C35.5093 18.0418 35.3576 17.9733 35.2989 17.9586C34.878 18.4627 34.4767 19.0255 34.0068 19.4318C33.7573 19.6471 33.5859 19.7695 33.2139 19.7695C33.1014 19.7695 32.9594 19.7695 32.8273 19.696C32.6854 19.6177 32.5532 19.4562 32.4064 19.236C32.2939 19.0647 32.1274 18.8444 31.9855 18.6046C31.687 18.1005 31.3591 17.4692 31.0703 16.9553C30.7424 16.3828 30.4635 15.952 30.4243 15.8786C30.3655 15.7709 30.2041 15.634 30.2041 15.634C30.0425 15.8933 29.925 16.3974 29.925 16.6764L29.3525 16.4854C29.4259 16.1086 29.5776 15.6193 29.6657 15.3843C29.6657 15.1837 29.4406 14.9145 29.2546 14.9145C28.9952 14.9145 28.726 15.1983 28.589 15.7464L28.0115 16.001C28.08 15.12 28.3834 14.151 29.2546 14.151C29.9593 14.151 30.3949 14.6894 30.7326 15.1935C31.0605 15.6878 32.1617 17.1902 32.3966 17.4839L32.8322 18.0369C32.9056 18.3795 33.0573 18.5802 33.1259 18.6927C33.2775 18.9276 33.444 18.913 33.674 18.7025C33.7768 18.6096 34.1096 18.3354 34.4326 17.9978C34.7115 17.7042 34.9857 17.3518 35.0933 17.1707C35.4163 17.3127 36.0085 17.6013 36.4931 17.8118C34.4277 15.2669 32.4554 12.1836 31.5941 10.084C31.2417 9.21778 31.9318 8.92415 32.2695 9.7806C33.1798 12.1004 35.8323 16.2016 37.7851 18.355C40.0412 20.8412 44.1719 24.4432 46.8636 25.887C46.4721 25.1236 45.9582 24.0321 45.366 22.7647C42.0967 20.9195 38.7883 17.5231 37.2466 14.6061L37.9269 14.6845C39.3608 17.2196 42.7867 20.6063 44.8129 21.59C42.9629 17.66 40.555 12.6828 38.6707 10.5441C36.3363 7.8866 33.7914 5.83594 32.5776 4.7642C31.3786 3.71195 30.8843 2.38564 29.1616 2.38564C27.7374 2.38564 26.9886 3.41345 26.7047 4.44606C26.646 4.64666 26.6117 4.77394 26.4698 4.98444L25.7945 5.79193L27.248 5.61577L26.4062 6.79522C26.4062 6.79522 28.6869 6.28128 29.4846 7.36778C30.346 8.5375 29.7881 9.84911 31.1975 12.394C31.819 13.5148 33.3166 15.5262 33.8208 15.9765L32.8371 18.0418L32.3966 17.4839ZM9.99639 17.8364L9.65381 17.6014C9.84466 17.4399 10.2264 17.1903 10.6032 17.0289C10.799 16.9456 11.0192 16.9064 11.1807 16.9064C11.5674 16.9064 11.9001 17.068 12.2231 17.2392C12.7371 17.5133 13.3145 17.8364 13.755 17.8364C13.9263 17.8364 14.0878 17.7972 14.2738 17.7972C14.7093 17.7972 15.1303 17.9929 15.3701 17.9929C15.5168 17.9929 15.6147 17.8608 15.7126 17.7238C15.9524 17.3763 16.2852 17.1169 16.711 16.9407C17.1662 16.7498 17.7192 16.6715 18.3162 16.6715C18.7861 16.6715 19.2363 16.74 19.4712 16.7889C19.4712 16.7889 19.114 17.2196 19.021 17.3175C18.5463 17.3175 17.6408 17.3028 17.0584 17.5377C16.7012 17.6845 16.574 17.8901 16.574 18.1887C16.574 18.6193 17.0536 18.7857 17.587 18.9473C17.9002 19.0451 18.2526 19.0647 18.5512 19.0647C18.9183 19.0647 19.618 18.9277 20.313 18.7759C21.1499 18.59 21.9281 18.3746 22.1532 18.2865L22.4566 18.8297C21.5268 19.1479 20.5724 19.4464 19.6866 19.6226C19.1874 19.7254 18.7126 19.789 18.2868 19.789C17.5772 19.789 16.8088 19.4905 16.1726 19.187C15.6391 18.9325 15.1596 18.678 14.7387 18.678C14.259 18.678 13.8087 18.8444 13.3634 19.0989C13.1481 19.2214 12.4923 19.6716 11.9099 19.9016C11.4645 20.0778 11.0974 20.1756 10.6423 20.1756C10.241 20.1756 9.99624 20.1169 9.78582 19.9554L10.4905 19.5247C10.5786 19.6128 10.7401 19.6324 10.8429 19.6324C10.9457 19.6324 11.068 19.6226 11.3422 19.5052C11.4988 19.4415 11.7288 19.2996 11.8609 19.2115C12.1399 19.0353 12.2329 18.9277 12.3405 18.8396C12.5558 18.6731 12.6293 18.448 12.3601 18.2082C12.2328 18.0956 12.1007 17.9782 11.9294 17.8755C11.6896 17.7286 11.5134 17.5866 11.0729 17.5866C10.5592 17.5916 10.1971 17.7335 9.99639 17.8364Z" fill="#E6E6DD"/>
<path d="M19.7802 18.1158C19.7802 18.1158 19.3642 18.0032 19.2174 17.9885C19.5012 17.6018 19.8683 17.2837 20.157 17.088C20.7247 16.7014 21.3218 16.4909 22.2273 16.437C22.4719 16.4224 22.9761 16.3734 23.2501 16.3881C23.5046 16.3979 23.9304 16.4175 24.3219 16.4909C24.6009 16.5447 24.8603 16.6182 25.0707 16.6524C25.2029 16.672 25.658 16.6671 25.8147 16.6426C26.4557 16.5398 27.2241 16.2951 27.6254 16.0748L27.7968 16.6867C26.9354 17.1271 25.9566 17.5529 25.0659 17.5529C24.6108 17.5529 24.1262 17.5186 23.676 17.4746C22.8831 17.4011 22.1931 17.2935 21.9582 17.2935C21.3219 17.2935 20.3968 17.5921 19.7802 18.1158ZM19.144 21.5318L18.3315 21.1598C19.4572 20.5921 21.1799 20.0195 21.8846 19.9069C22.5894 19.7944 23.3969 19.7112 23.8618 19.5545C24.0772 20.0929 24.4932 20.6703 25.1 20.6703C25.3203 20.6703 25.6824 20.504 26.0495 20.3424C26.4606 20.1614 26.8717 19.9656 27.0821 19.8678C27.3121 19.765 28.0609 19.4371 28.6923 19.1532C28.937 19.0455 29.6026 18.7274 29.6368 18.7079L30.0626 18.9379C29.9353 19.5007 29.7249 20.1859 29.4851 20.6801C29.3922 20.8711 29.2992 21.0325 29.1964 21.1451C29.0104 21.3555 28.7119 21.6297 28.3203 21.9086C27.8946 22.2121 27.3757 22.5204 26.8228 22.8385C26.3921 23.0832 25.9614 23.3377 25.5258 23.5384L25.3006 23.1273C25.976 22.7456 26.6611 22.261 27.2632 21.8157C27.547 21.6052 27.826 21.3899 28.0218 21.2088C28.1685 21.0767 28.2616 20.9641 28.335 20.8565C28.516 20.5921 28.8048 20.0783 28.8978 19.8335C28.6482 19.9559 27.6938 20.4062 27.2681 20.6313C26.7885 20.8858 26.0054 21.2822 25.5698 21.4878C25.2273 21.6493 24.9189 21.7373 24.6987 21.7373C24.2093 21.7373 23.989 21.3849 23.8667 21.1745C23.5584 20.6263 23.2256 20.5725 22.3593 20.5628C21.3513 20.5432 19.9662 20.964 19.144 21.5318ZM23.8815 19.0016C23.8815 19.0016 23.764 18.522 23.7053 18.3457C23.7053 18.3457 23.8472 18.3017 24.0332 18.3017C24.3366 18.3017 25.0805 18.3849 25.3937 18.3849C26.5634 18.3849 26.994 18.0178 27.3366 17.7095C27.6302 17.4453 27.9288 17.2299 28.7217 17.2299C29.4215 17.2299 30.2242 17.5137 30.4541 17.6263L30.4052 18.2625C30.0626 18.0717 29.5928 17.9444 29.1768 17.9444C28.888 17.9444 28.6287 17.9689 28.4427 18.0619C28.2371 18.1696 28.1099 18.331 27.9191 18.4876C27.7135 18.6589 27.4296 18.8204 27.0626 18.9575C26.6955 19.0945 26.2354 19.1875 25.5552 19.1875C24.6498 19.1826 24.1604 19.0358 23.8815 19.0016Z" fill="#E6E6DD"/>
<path d="M16.4866 23.8122L17.0249 23.587C17.5192 23.7779 18.2337 23.9932 18.728 23.9932C19.0265 23.9932 19.2713 23.8855 19.4768 23.7975C19.6334 23.7289 21.4296 22.848 22.3202 22.525C22.6041 22.4223 22.888 22.3635 23.0299 22.3635C23.2453 22.3635 23.2551 22.4613 23.3138 22.5544C23.4801 22.8236 24.8065 24.7127 24.9386 24.8595C26.0643 24.512 27.2144 24.0079 27.8751 23.3717C28.5651 22.7061 29.1377 21.9328 29.6957 21.3357C29.911 21.1057 30.1753 20.8953 30.3074 20.8268C30.8801 20.5233 32.6664 20.494 33.4201 20.5282L32.9748 21.1596C31.6534 21.1596 30.9143 21.2966 30.5815 21.5463C30.4396 21.6539 30.2291 21.8644 30.0236 22.1286C29.5733 22.716 29.079 23.5235 28.8833 23.6801C29.27 23.9493 29.6909 24.1842 30.3662 24.1842C31.487 24.1842 32.2896 23.4843 32.7301 23.0879L33.1069 23.3131C32.8279 23.6752 32.5098 24.0472 32.1035 24.3212C31.6533 24.6247 31.0856 24.8253 30.7479 24.9183C30.097 24.796 28.6679 24.5073 28.3302 24.4388C27.0921 24.9428 25.0757 25.7601 24.3955 25.9657C24.2976 25.9951 24.1409 26.0195 23.9403 26.0391C23.4019 26.0685 22.658 26.0636 21.9827 26.0538C21.503 26.049 21.043 26.0538 20.8179 26.0097L20.2208 25.3834C20.7444 25.4861 20.9549 25.5155 21.4443 25.5155C22.609 25.5155 23.3628 25.3197 23.6075 25.2561C23.8131 25.2023 23.8473 25.0799 23.7886 24.8939C23.6907 24.5954 23.5194 24.3116 23.2551 24.0081C23.1132 23.8418 22.8 23.5628 22.6678 23.4747C22.5063 23.367 22.3497 23.3376 21.9092 23.4894C21.503 23.6264 20.2354 24.3116 19.6873 24.6003C19.4181 24.7423 19.2077 24.7863 18.7232 24.6738C18.2044 24.561 16.9809 24.1156 16.4866 23.8122ZM19.9956 9.77104C20.2501 9.77104 20.4557 9.56542 20.4557 9.311C20.4557 9.05657 20.2501 8.85095 19.9956 8.85095C19.7411 8.85095 19.5356 9.05657 19.5356 9.311C19.5356 9.56542 19.7411 9.77104 19.9956 9.77104Z" fill="#E6E6DD"/>
</svg>
