<svg width="69" height="32" viewBox="0 0 69 32" fill="none" xmlns="http://www.w3.org/2000/svg">
<path fill-rule="evenodd" clip-rule="evenodd" d="M27.1047 6.85694C27.0022 8.56756 27.249 9.10757 27.6748 10.5148C29.8906 10.0847 28.3338 6.80994 30.7058 6.64975C31.7632 6.57847 32.5142 7.24789 32.5763 8.24246C32.7776 11.4674 35.5461 10.9601 36.3769 10.0885C37.2029 9.22192 36.6825 8.34042 37.2163 7.49628C37.6397 6.82713 38.7392 6.47174 39.5815 6.97454C40.4656 7.50241 40.3008 8.50288 40.5103 9.56379C40.9395 10.0301 40.8221 10.2003 41.4735 10.5363C41.72 10.2931 41.8857 9.68841 41.9844 9.21606L42.0185 9.27302C42.1473 8.72035 42.2154 8.14451 42.2154 7.5525C42.2154 3.66727 39.2821 0.467902 35.5098 0.0476193C35.4565 0.0315959 35.4169 0.0161611 35.3927 0.000244141C35.3398 0.00817601 35.2885 0.0151486 35.2379 0.0218029C35.0489 0.00753616 34.8577 0.000244141 34.6649 0.000244141C33.5304 0.000244141 32.4544 0.25103 31.489 0.699367C30.7436 1.03533 30.2067 1.42979 29.6191 1.90192C28.4906 2.80908 27.3321 4.66641 27.1047 6.85694ZM33.2815 14.9833L33.3383 14.9885C33.769 15.0649 34.2124 15.1049 34.6649 15.1049C37.07 15.1049 39.2122 13.98 40.5947 12.2276C40.6211 12.2098 40.6492 12.1923 40.6795 12.1752L41.0422 11.6601C40.6789 11.0196 40.3353 10.7433 40.3025 9.69671C40.2738 8.78087 39.7362 8.23198 38.8298 8.13925C38.0844 8.06285 37.4061 8.4924 37.1253 9.0275C36.6606 9.91252 37.1498 10.6713 36.3684 11.5094C35.2908 12.6656 32.6601 12.4108 32.5591 10.0399C32.4399 7.24236 29.5491 7.84491 29.2081 9.29836C29.0835 9.82995 29.2087 10.1684 29.0055 10.7202C28.7973 11.2855 28.6557 11.2535 28.3556 11.6601C28.5701 12.2971 29.6553 13.264 30.2893 13.7079C31.1612 14.3292 32.1708 14.7698 33.2636 14.9749L33.2815 14.9833ZM32.853 5.08505H32.5569V4.02266C32.5569 3.81797 32.5249 3.66993 32.462 3.57874C32.3985 3.48691 32.2925 3.44118 32.1433 3.44118C32.0168 3.44118 31.909 3.49916 31.8208 3.61441C31.732 3.7304 31.6876 3.8686 31.6876 4.03006V5.08505H31.3916V3.98683C31.3916 3.62319 31.2511 3.44118 30.9706 3.44118C30.8403 3.44118 30.7337 3.49553 30.6493 3.60466C30.5649 3.71374 30.5229 3.85556 30.5229 4.03006V5.08505H30.2262V3.23522H30.5229V3.52811H30.5303C30.6611 3.30379 30.8527 3.19215 31.1044 3.19215C31.2307 3.19215 31.341 3.22734 31.4348 3.2975C31.5292 3.36788 31.5931 3.46035 31.6284 3.57496C31.7653 3.31981 31.97 3.19215 32.2425 3.19215C32.6495 3.19215 32.853 3.44305 32.853 3.94488V5.08505ZM34.1859 5.12827C33.9128 5.12827 33.6946 5.04182 33.5311 4.86919C33.3684 4.6966 33.2864 4.46722 33.2864 4.18178C33.2864 3.871 33.3714 3.62873 33.541 3.45359C33.7113 3.27909 33.9405 3.19215 34.2298 3.19215C34.5054 3.19215 34.7205 3.27658 34.8754 3.44682C35.0301 3.61643 35.1071 3.85194 35.1071 4.15271C35.1071 4.44805 35.0239 4.6842 34.8574 4.86184C34.6903 5.03932 34.4665 5.12827 34.1859 5.12827ZM34.2076 3.44118C34.0177 3.44118 33.8672 3.50608 33.7562 3.63549C33.6453 3.76485 33.5898 3.94313 33.5898 4.17134C33.5898 4.39019 33.6459 4.56266 33.7581 4.6892C33.8702 4.81558 34.0201 4.87909 34.2076 4.87909C34.3992 4.87909 34.5467 4.81685 34.6496 4.69298C34.7526 4.56894 34.8037 4.39258 34.8037 4.16384C34.8037 3.93275 34.7526 3.75446 34.6496 3.62931C34.5467 3.50357 34.3992 3.44118 34.2076 3.44118ZM36.4389 5.06711C36.3693 5.10533 36.2768 5.1245 36.1627 5.1245C35.8384 5.1245 35.6768 4.94387 35.6768 4.58247V3.48814H35.3586V3.23522H35.6768V2.78406L35.9728 2.68781V3.23522H36.4389V3.48814H35.9728V4.53061C35.9728 4.65465 35.9939 4.74281 36.0363 4.79583C36.0783 4.8489 36.1479 4.87536 36.2459 4.87536C36.3205 4.87536 36.3847 4.85508 36.4389 4.81372V5.06711ZM38.2917 4.23426H36.9858C36.9907 4.44006 37.0462 4.59913 37.1523 4.7114C37.2583 4.82298 37.4038 4.87909 37.5895 4.87909C37.7978 4.87909 37.9889 4.81057 38.1641 4.67318V4.95127C38.0012 5.06961 37.7862 5.12827 37.5191 5.12827C37.2578 5.12827 37.0525 5.04432 36.9033 4.87658C36.7533 4.70836 36.6788 4.47211 36.6788 4.16761C36.6788 3.87962 36.7609 3.64539 36.9235 3.46412C37.0869 3.28286 37.2899 3.19215 37.5315 3.19215C37.7738 3.19215 37.9607 3.27046 38.0932 3.42702C38.2257 3.5831 38.2917 3.80067 38.2917 4.07876V4.23426ZM37.9884 3.98321C37.9871 3.81233 37.9458 3.6793 37.865 3.58358C37.7837 3.48867 37.6708 3.44118 37.5259 3.44118C37.3865 3.44118 37.2676 3.49117 37.1701 3.59114C37.0728 3.69096 37.0124 3.8216 36.9896 3.98321H37.9884ZM39.0364 5.08505H38.7399V2.34675H39.0364V5.08505Z" fill="#E6E6DD"/>
<path fill-rule="evenodd" clip-rule="evenodd" d="M8.23006 17.9478C7.67883 19.1319 7.45663 19.2122 7.54159 20.8999C7.95474 22.5505 8.76225 23.6522 10.6051 23.8018C14.7807 24.1407 15.5423 18.688 12.6235 17.1737C10.0987 15.8638 8.39961 17.9037 8.23006 17.9478ZM41.1398 22.9466C41.0908 23.5636 40.9294 23.1262 40.9227 23.6391C42.671 23.694 47.895 24.2143 47.1548 21.3194C46.9374 20.4689 46.1606 20.4141 45.4879 20.0431C45.8922 19.6716 46.3347 19.6671 46.5719 19.1382C46.8939 18.4204 46.5185 18.0015 46.3903 17.5512C46.0173 17.3966 45.8302 17.1972 45.2654 17.0776C44.3596 16.8857 41.8336 16.9335 40.8786 16.9581C41.081 17.8596 41.3794 16.9877 41.3747 19.8525C41.3736 20.4935 41.5072 22.5699 41.1398 22.9466ZM14.7155 23.6472L17.3519 23.648C17.3398 23.2788 16.7051 22.8716 16.8974 21.1903C18.0837 21.1993 18.8464 21.1875 19.6411 20.6012C20.2389 20.1603 20.7826 19.3199 20.3623 18.1937C19.7339 16.5104 16.5371 16.9285 14.6781 16.9586C14.9052 18.0174 15.1671 16.8377 15.1608 20.3289C15.1596 20.9437 15.1624 21.5602 15.113 22.1731C15.0554 22.8881 14.7163 23.3548 14.7155 23.6472ZM47.3415 23.6155L48.8891 23.6502C48.888 23.1507 48.6231 23.4172 48.7876 22.6893C48.8662 22.341 48.9936 22.037 49.1456 21.7062L51.7454 21.6707C52.4791 23.4642 51.9942 23.1027 52.0042 23.6166L54.5624 23.6436C54.5514 23.2321 54.1785 23.2892 53.6941 22.2071C52.9259 20.4906 52.2745 18.3349 51.657 17.0053L49.745 16.9482C49.9159 17.6299 50.2974 17.1619 49.7585 18.8035C49.4827 19.6442 48.7554 21.4793 48.3317 22.2318C47.7195 23.319 47.3459 23.2706 47.3415 23.6155ZM19.5513 23.6245L21.1214 23.6087C21.1122 23.173 20.8186 23.3717 21.0321 22.5668C21.1104 22.2715 21.2785 21.8889 21.3739 21.6748L23.9473 21.671C24.672 23.3753 24.2253 23.1542 24.2089 23.6348L26.766 23.6302C26.7554 23.2745 26.5226 23.2408 26.296 22.9317C25.9699 22.4872 25.3175 20.952 25.2021 20.4256C24.9792 20.0725 24.6765 19.1335 24.5209 18.7103C24.4034 18.3908 24.3035 18.1342 24.1871 17.8054C24.1387 17.6689 24.0887 17.4947 24.0405 17.381C23.8086 16.8337 23.8561 16.9967 21.9806 16.9197C21.965 17.5129 22.6006 17.0153 21.9541 18.8193C21.6228 19.7433 20.6209 22.4384 19.9856 23.0385C19.7803 23.2324 19.4363 23.3286 19.5513 23.6245ZM61.4398 23.6126L63.0362 23.6425C63.0288 23.4914 62.546 22.9162 63.2886 21.693L65.8537 21.6755C66.5613 23.3489 66.1304 23.1213 66.1097 23.6109L68.6819 23.6499C68.6678 23.2821 68.4576 23.2656 68.2489 22.9905C67.559 22.0814 66.3186 18.2329 65.7724 16.9917L63.8572 16.9517C64.0007 17.5058 64.4388 17.1494 63.8682 18.8107C63.5195 19.8256 62.6238 22.2305 61.9506 22.9935C61.7064 23.2702 61.4565 23.2986 61.4398 23.6126ZM34.7887 23.6315C34.8147 23.1469 34.5264 23.3725 34.7261 22.6294C34.7965 22.3674 34.9482 21.9177 35.0914 21.6989L37.6419 21.6856C38.3375 23.2692 37.9237 23.1991 37.9078 23.6137L40.4692 23.6445C40.4576 23.1401 40.1838 23.4564 40.0752 22.9311C39.7316 22.6508 39.3628 21.8046 39.3393 21.4177C38.9656 21.1096 37.9111 17.7325 37.5632 16.9658L35.6436 16.9671C35.7859 17.4864 35.7528 17.0577 35.8895 17.4366C36.1032 18.0289 35.2057 20.0609 34.9937 20.6063C34.7644 21.196 34.4932 21.7933 34.2046 22.2988C34.0597 22.5525 33.8654 22.8718 33.7132 23.0489C33.487 23.312 33.2645 23.2878 33.2551 23.6286L34.7887 23.6315ZM9.62826 17.3175C8.88287 17.6602 8.66153 18.0451 8.77081 19.0949C8.92887 20.613 10.54 24.0153 12.3135 23.2766C14.5031 22.3646 11.6754 16.3765 9.62826 17.3175ZM60.0307 22.125L56.8069 16.9978L54.9885 16.949C55.1109 17.4654 55.4144 17.46 55.5278 18.3643C55.6072 18.9988 55.5972 19.6879 55.5971 20.3289C55.5969 20.948 55.6083 21.5771 55.535 22.1911C55.3746 23.5341 55.041 23.0943 55.0258 23.6376L56.4768 23.6397C56.4833 22.9677 55.988 23.7396 55.9097 21.3666L56.0329 18.5613C56.0422 18.5407 56.0583 18.5078 56.076 18.4844L59.2484 23.6479L60.5294 23.6525C61.4497 23.5662 60.6352 23.4253 60.4924 22.2926C60.3841 21.4328 60.3305 18.3937 60.674 17.6203C60.878 17.1611 61.0349 17.3732 60.9633 16.9467L59.5419 16.946C59.5087 17.401 60.0007 17.1536 60.0839 19.1853C60.1192 20.0471 60.1666 21.2918 60.0307 22.125ZM28.0492 17.4143C27.34 18.1353 26.8195 18.59 26.7256 20.1659C26.8529 25.7103 33.4993 23.7063 33.1715 21.8716C32.7377 21.8966 32.8345 22.0563 32.531 22.3412C30.8735 23.8972 29.0617 22.5454 28.2028 20.1616C27.7985 18.9243 27.7813 17.1884 29.2795 17.1603C30.898 17.13 30.7988 18.7467 31.7595 19.1639C33.3963 19.3152 33.194 17.6534 31.7104 17.0496C30.2448 16.4532 29.1918 16.8346 28.0492 17.4143ZM1.19429 22.3359C1.85449 22.9659 2.45082 23.9755 4.4216 23.8013C5.04832 23.7458 5.60771 23.5667 6.14622 23.2032C6.49331 22.9689 7.28202 22.3969 7.09762 21.9299C6.72104 21.7765 6.51875 22.4007 5.93477 22.7151C3.8398 23.8427 2.41383 21.1896 2.37667 20.5662C1.9327 20.1862 1.77528 18.74 1.98737 18.09C2.234 17.3344 3.1098 16.7838 4.06339 17.3471C4.80643 17.786 5.04651 18.754 5.49868 19.0565C6.32264 19.6077 7.35224 18.5508 6.53041 17.6431C4.56485 15.4718 -0.981175 17.2178 1.19429 22.3359ZM43.0799 20.2069C43.0578 20.9179 43.0191 22.2246 43.2727 22.8155C43.9506 24.3941 46.3796 22.3943 45.269 20.8185C44.8675 20.2489 43.8663 20.1911 43.0799 20.2069ZM16.8567 20.8591C18.6986 21.28 19.2573 18.6675 18.4884 17.5962C17.9525 16.8496 17.118 17.2498 16.9269 18.1618C16.78 18.8625 16.8324 20.115 16.8567 20.8591ZM43.0737 19.8879C45.9003 19.891 44.9113 17.8073 44.7135 17.5647C44.286 17.0405 43.5181 17.1967 43.2708 17.7415C43.0333 18.2645 43.0652 19.2698 43.0737 19.8879ZM49.3618 21.1797L51.5057 21.2017C51.4299 20.707 50.6862 18.6451 50.4016 18.3861L49.3618 21.1797ZM63.5307 21.1991L65.615 21.1973C65.5443 20.7222 64.794 18.7792 64.5919 18.3612C64.3665 18.7213 63.5956 20.7291 63.5307 21.1991ZM35.2717 21.1753L37.4159 21.2007C37.3297 20.6872 36.8772 19.6934 36.6609 19.0489C36.5458 18.7058 36.5257 18.5844 36.3065 18.3876L35.2717 21.1753ZM21.6175 21.2035L23.7097 21.2041L22.726 18.3835L22.4974 18.6932C22.4491 18.7788 22.3918 18.9433 22.359 19.0337L21.6175 21.2035Z" fill="#E6E6DD"/>
<path fill-rule="evenodd" clip-rule="evenodd" d="M30.0442 26.586C29.9116 26.7743 29.8872 26.7073 29.8453 26.9282C29.7525 27.4178 29.8967 27.2857 29.9964 27.3738L30.5953 27.0006L30.4558 29.3845C30.3843 30.1596 30.3832 29.6208 30.1715 30.0456C30.4002 30.6706 30.2461 29.5819 30.4953 31.1051C30.5665 31.541 30.7292 31.9126 31.1727 31.6651C31.0101 31.328 31.1957 31.6375 30.8285 31.389L30.7939 30.2807C31.2069 30.4408 31.6568 30.7815 32.0382 31.0053C32.4514 31.2476 32.8485 31.4415 33.328 31.6184C33.7944 31.7901 34.3243 31.9552 34.8986 31.9916C35.4161 32.0245 36.1674 31.9856 36.359 31.4746L36.2014 31.2181C35.7224 31.1875 35.6378 32.0276 33.3932 31.2698C32.5897 30.9986 31.5511 30.5509 31.1035 30.0456C31.5651 29.7072 33.7475 28.9319 33.8236 27.1765C33.8675 26.165 33.2687 25.8011 32.2307 25.9129C29.8163 26.173 31.1078 26.4577 30.0442 26.586ZM38.143 27.4688C37.2833 26.8372 36.551 27.6359 36.3298 28.7397C36.1963 29.4049 36.336 29.6423 35.9742 30.0743C35.0437 31.1855 34.3001 30.2989 34.5196 29.4553C36.3928 29.5703 35.987 28.0025 35.712 27.7889C34.6112 27.2719 33.6907 28.8738 33.8981 29.9475C34.0275 30.6176 34.2697 30.9861 34.9952 30.9669C35.6759 30.9489 36.0065 30.4347 36.313 30.1093C36.4305 30.3445 36.3808 30.3462 36.6663 30.4845C37.0082 30.6503 37.2256 30.6094 37.4631 30.4239C37.6492 30.2784 38.2396 29.0812 37.9591 29.4736C38.4419 29.8242 37.8348 30.1738 38.807 30.2358C39.3947 30.1642 39.8493 28.9774 39.7246 28.4383L39.6643 28.2726C39.3663 28.6593 39.407 29.7086 38.807 29.8889C38.2734 28.5824 39.0592 26.8845 39.0506 25.601C38.7646 25.5316 38.7175 25.4508 38.3761 25.5189C38.109 26.0837 38.233 26.8853 38.143 27.4688ZM30.9029 29.6657C31.6415 29.5365 32.3376 28.9644 32.6823 28.5886C33.715 27.4629 33.8491 26.1437 32.0093 26.479C31.373 26.595 31.425 26.5972 31.2981 27.2085C31.15 27.9218 30.9079 28.942 30.9029 29.6657ZM34.5353 29.1477C34.6299 28.9919 35.2233 27.9241 35.4616 28.2222C35.6526 28.4613 35.3885 28.8747 35.2236 29.0247C35.0416 29.1904 34.8052 29.2083 34.5353 29.1477ZM37.8655 27.7441C37.7145 27.6735 37.4416 27.714 37.193 28.0139C36.4314 28.9309 36.6993 32.0421 37.8928 28.9991C38.0033 28.7174 38.2154 27.9077 37.8655 27.7441Z" fill="#E6E6DD"/>
</svg>
