<svg width="128" height="32" viewBox="0 0 128 32" fill="none" xmlns="http://www.w3.org/2000/svg">
<path d="M25.8065 27.1298C23.4124 29.7559 20.1707 31.3703 16.5979 31.3703C9.22677 31.3703 3.249 24.4963 3.249 16.0191C3.249 7.5383 8.71004 0.702307 16.0814 0.702307C18.4935 0.702307 20.6874 1.44659 22.2519 3.07257C23.438 4.31303 22.5902 5.98099 23.2852 7.02291C24.3949 8.69848 26.4978 8.31304 27.1818 7.59927C28.317 6.40841 27.7676 4.83587 26.8288 3.87407C24.0965 1.07629 20.2327 0 16.1504 0C7.11647 0 0.305664 7.13355 0.305664 15.981C0.305664 24.8282 7.6332 32 16.6671 32C20.7094 32 24.4095 30.5649 27.2656 28.1832C27.6403 27.8703 27.8768 27.0726 27.4221 26.6986C26.7853 26.1643 26.0686 26.8398 25.8067 27.1298H25.8066H25.8065Z" fill="#E6E6DD"/>
<path d="M17.1399 26.4614C17.1399 26.2667 16.9871 26.1866 16.6633 26.1866C15.6192 26.1446 14.2183 25.8698 13.5599 24.7744C12.4465 22.9271 13.4617 21.7591 13.1161 20.4309C12.7704 19.0988 11.2751 18.3469 9.90341 19.2629C8.28442 20.3431 9.47049 23.4614 11.588 25.0225C12.4176 25.6332 13.8509 26.2935 15.4737 26.6141C15.9648 26.7095 16.3832 26.7362 16.7362 26.7248C17.0382 26.7283 17.14 26.6369 17.14 26.4614V26.4615L17.1399 26.4614Z" fill="#E6E6DD"/>
<path d="M24.5187 15.6487C22.5321 13.6639 18.1662 12.4349 15.2919 11.5265C13.1926 10.8051 12.2684 9.52652 12.2758 7.99981C12.2867 5.63339 14.135 5.0265 15.1501 4.74409C15.5648 4.62576 15.5066 4.40063 15.4485 4.28606C15.3721 4.12582 15.212 4.04563 14.9026 4.12582C13.6983 4.45406 12.7743 4.88918 11.8319 5.62962C9.54705 7.43122 8.51376 13.2404 14.7535 15.2022C14.9936 15.2823 19.1304 16.7823 20.2583 17.1983C22.3576 17.977 24.2532 19.0571 24.4605 21.7976C24.617 23.8853 23.067 25.0075 21.99 25.519C21.7753 25.6297 21.7827 25.7708 21.8591 25.8777C21.9355 25.9922 22.1246 26.0495 22.4157 25.9082C23.107 25.5648 23.9766 24.9884 24.8897 23.9998C26.9271 21.805 27.0509 18.1754 24.5187 15.6487Z" fill="#E6E6DD"/>
<path d="M73.1909 27.3854L73.7441 28.9312L75.3162 29.0075L74.0899 30.0343L74.5043 31.6221L73.1909 30.7214L71.8775 31.6221L72.2927 30.0343L71.0627 29.0075L72.6343 28.9312L73.1909 27.3854Z" fill="#E6E6DD"/>
<path d="M65.0419 27.3854L65.5985 28.9312L67.1702 29.0075L65.9404 30.0343L66.3589 31.6221L65.0418 30.7214L63.7284 31.6221L64.1469 30.0343L62.917 29.0075L64.4888 28.9312L65.0419 27.3854Z" fill="#E6E6DD"/>
<path d="M56.8159 27.3854L57.3726 28.9312L58.9442 29.0075L57.7145 30.0343L58.1292 31.6221L56.8159 30.7214L55.5061 31.6221L55.9172 30.0343L54.6912 29.0075L56.2629 28.9312L56.8159 27.3854Z" fill="#E6E6DD"/>
<path d="M107.37 27.3854L107.92 28.9312L109.488 29.0075L108.265 30.0343L108.68 31.6221L107.37 30.7214L106.053 31.6221L106.471 30.0343L105.242 29.0075L106.81 28.9312L107.37 27.3854Z" fill="#E6E6DD"/>
<path d="M99.1185 27.3854L99.6716 28.9312L101.24 29.0075L100.013 30.0343L100.428 31.6221L99.1185 30.7214L97.8051 31.6221L98.2196 30.0343L96.9932 29.0075L98.5619 28.9312L99.1185 27.3854Z" fill="#E6E6DD"/>
<path d="M90.9168 27.3854L91.4742 28.9312L93.0457 29.0075L91.8193 30.0343L92.231 31.6221L90.9169 30.7214L89.6071 31.6221L90.0222 30.0343L88.7959 29.0075L90.3646 28.9312L90.9168 27.3854Z" fill="#E6E6DD"/>
<path d="M81.924 26.0345L82.6588 28.0803L84.7395 28.1834L83.11 29.5498L83.6631 31.6567L81.924 30.4544L80.1813 31.6567L80.7301 29.5498L79.1077 28.1834L81.1813 28.0803L81.924 26.0345Z" fill="#E6E6DD"/>
<path d="M87.7114 19.0577C87.5332 19.3401 87.3479 19.5729 87.1512 19.7561C86.9292 19.9583 86.693 20.0577 86.4348 20.0577C86.2269 20.0577 86.0451 20.0081 85.9142 19.8974C85.772 19.7944 85.6632 19.5996 85.5796 19.3249C85.4997 19.0577 85.4446 18.676 85.4269 18.1989C85.3978 17.7217 85.3901 17.1112 85.3901 16.3706V15.1645C85.3901 14.695 85.3936 14.2485 85.4084 13.8172C85.419 13.3898 85.4304 13.0042 85.441 12.6722C85.4524 12.3362 85.47 12.1111 85.4919 11.9889C85.5428 11.3172 85.2154 11.1111 84.9353 11.2332C84.6772 11.3743 84.3936 11.5919 84.0802 11.8743C83.7641 12.1645 83.5965 12.5384 83.5746 12.9889C83.5236 13.8744 83.3858 14.779 83.1566 15.718C83.0618 16.008 82.9125 16.4088 82.716 16.9394C82.5193 17.4661 82.2831 17.9814 82.0031 18.5004C81.723 19.0119 81.421 19.4546 81.0936 19.8287C80.7661 20.199 80.4494 20.3859 80.1473 20.3859C79.66 20.3859 79.3432 20.0882 79.2017 19.4852C79.0631 18.8897 78.9902 17.825 78.9902 16.2943V15.1035C78.9902 14.6493 78.998 14.2142 79.0086 13.7791C79.0199 13.3477 79.0305 12.9737 79.0454 12.6492C79.056 12.3248 79.0708 12.1072 79.0963 11.9851C79.1429 11.4241 78.8155 11.1073 78.539 11.2294C78.2808 11.3706 77.9902 11.5882 77.6592 11.8706C77.3353 12.1607 77.1712 12.5347 77.1712 12.9851V16.8629C77.1712 17.7714 77.2186 18.527 77.3062 19.1454C77.1492 19.3935 76.9894 19.6034 76.8147 19.7714C76.5962 19.9736 76.3529 20.073 76.0834 20.073C75.8762 20.073 75.7086 20.0196 75.5706 19.9127C75.4356 19.8096 75.3302 19.6149 75.2467 19.344C75.1703 19.0654 75.1194 18.6951 75.0975 18.2181C75.072 17.741 75.0649 17.1341 75.0649 16.3937C75.0649 16.1799 75.0684 15.8822 75.0826 15.5005C75.0903 15.1188 75.108 14.718 75.1335 14.3058C75.1554 13.8899 75.1923 13.4776 75.2317 13.0731C75.3591 11.8822 74.5768 11.718 74.2352 11.8097C73.9474 11.886 73.4452 12.0501 73.0746 11.7143C72.6997 11.386 72.1177 11.2181 71.3205 11.2181C70.8404 11.2181 70.3382 11.3211 69.8071 11.5197C69.2758 11.7219 68.7811 12.0617 68.3445 12.5387C67.897 13.012 67.5331 13.6494 67.253 14.451C67.0311 15.0655 66.9001 15.8098 66.8492 16.6724C66.7 17.0236 66.5218 17.3938 66.3108 17.7792C66.0561 18.2334 65.776 18.657 65.4558 19.0578C65.1356 19.4509 64.7899 19.7754 64.4152 20.0425C64.0368 20.302 63.6438 20.4356 63.2363 20.4356C62.8943 20.4356 62.5705 20.3745 62.2649 20.2562C61.9521 20.1379 61.6864 19.9432 61.4609 19.6684C61.2353 19.3936 61.0534 19.0271 60.9151 18.5729C60.7805 18.1188 60.7078 17.5576 60.7078 16.8898C60.7078 15.9279 60.7841 15.1301 60.9334 14.4851C61.0789 13.8401 61.2754 13.3173 61.5155 12.9241C61.7556 12.531 62.305 11.8325 63.1054 11.8325C63.9931 11.8325 64.7354 12.157 64.7354 12.7982C64.7354 12.9433 64.3716 14.7409 65.7287 14.5234C66.3909 14.4204 66.4236 13.5349 66.2781 13.1188C65.6778 11.4279 63.8258 11.1875 63.0326 11.1875C62.5997 11.1875 62.0393 11.2753 61.5373 11.4548C61.0388 11.6342 60.5768 11.9395 60.151 12.3707C59.729 12.7982 59.3797 13.3861 59.0959 14.1304C58.8121 14.867 58.6667 15.8135 58.6667 16.9586C58.6667 17.8212 58.7794 18.5349 59.0124 19.1112C59.0451 19.1991 59.0814 19.2792 59.1215 19.3594C59.0087 19.5198 58.8886 19.6572 58.7686 19.7754C58.5502 19.9776 58.3065 20.077 58.0336 20.077C57.83 20.077 57.6625 20.0236 57.5243 19.9166C57.3897 19.8136 57.2841 19.6189 57.2005 19.3479C57.1204 19.0693 57.073 18.699 57.0513 18.222C57.0222 17.7449 57.0148 17.138 57.0148 16.3976C57.0148 16.1838 57.0185 15.8861 57.0294 15.5045C57.044 15.1228 57.0585 14.7219 57.084 14.3097C57.1058 13.8938 57.1422 13.4815 57.1821 13.077C57.3059 11.8861 56.5272 11.722 56.1852 11.8136C55.8941 11.89 55.3957 12.054 55.0208 11.7182C54.6461 11.39 54.0603 11.222 53.2673 11.222C52.7942 11.222 52.2886 11.3251 51.7537 11.5236C51.2189 11.7258 50.735 12.0656 50.2911 12.5426C49.8509 13.0159 49.4871 13.6533 49.2033 14.4549C48.9195 15.2526 48.7776 16.2602 48.7776 17.4702C48.7776 18.7831 49.0177 19.7755 49.4943 20.4511C49.9746 21.1267 50.5384 21.4701 51.1971 21.4701C51.7609 21.4701 52.274 21.2679 52.7251 20.8594C53.1799 20.4587 53.5764 19.9778 53.9149 19.4167C54.2568 18.8556 54.5334 18.2983 54.7517 17.7372C54.9699 17.1762 55.1301 16.7296 55.2427 16.3938C55.2427 17.9662 55.3592 19.2029 55.6029 20.1075C55.8394 21.0121 56.3707 21.4663 57.182 21.4663C57.6804 21.4663 58.1242 21.2984 58.5099 20.9624C58.8557 20.6647 59.1612 20.3098 59.4231 19.9091C59.5686 20.1267 59.7252 20.3213 59.8998 20.4855C60.2636 20.8328 60.6857 21.0847 61.1623 21.2412C61.6462 21.3939 62.1228 21.4741 62.5994 21.4741C63.2397 21.4741 63.8146 21.3062 64.3239 20.9703C64.8406 20.6382 65.2844 20.2375 65.6591 19.7719C66.0339 19.3024 66.354 18.81 66.6159 18.2834C66.7033 18.1155 66.776 17.9589 66.8488 17.8062C66.8889 18.9474 67.1218 19.8329 67.5547 20.4474C68.0313 21.123 68.599 21.4664 69.2575 21.4664C69.8251 21.4664 70.3344 21.2642 70.7891 20.8557C71.2403 20.455 71.6406 19.9741 71.9787 19.413C72.3175 18.8519 72.5976 18.2946 72.8119 17.7336C73.0234 17.1725 73.1903 16.7259 73.3035 16.3901C73.3035 17.9625 73.4195 19.1992 73.6599 20.1038C73.8961 21.0084 74.4272 21.4626 75.2392 21.4626C75.7448 21.4626 76.1812 21.2948 76.5667 20.9587C76.9125 20.661 77.2074 20.3176 77.4727 19.9167C77.5201 20.1 77.5745 20.2679 77.6403 20.4129C77.9387 21.1038 78.5349 21.4472 79.4232 21.4472C79.9324 21.4472 80.4091 21.2564 80.8561 20.8747C81.3002 20.493 81.7005 20.0349 82.0605 19.4969C82.4248 18.9587 82.7303 18.3976 82.9919 17.8251C83.2466 17.2526 83.4468 16.7717 83.5888 16.3861C83.5888 18.0389 83.7048 19.2946 83.9523 20.1571C84.1964 21.0197 84.7381 21.4472 85.579 21.4472C86.0882 21.4472 86.543 21.2794 86.9397 20.9434C87.3357 20.6075 87.6781 20.2068 87.973 19.745C88.3294 19.1648 87.9694 18.5922 87.7106 19.058H87.7111L87.7114 19.0577ZM54.9342 15.2523C54.745 16.0157 54.4939 16.7752 54.1846 17.5386C53.879 18.3019 53.5261 18.9661 53.1295 19.5347C52.7366 20.1073 52.3328 20.3973 51.9216 20.3973C51.6742 20.3973 51.4194 20.1721 51.1757 19.7332C50.9247 19.2942 50.8009 18.5157 50.8009 17.3935C50.8009 15.4661 51.0447 14.0501 51.5322 13.1455C52.0198 12.237 52.6201 11.7867 53.3223 11.7867C53.9372 11.7867 54.4066 11.9851 54.7339 12.3783C55.0614 12.7713 55.2251 13.1569 55.2251 13.5386C55.2251 13.9202 55.1269 14.4889 54.934 15.2523L54.9341 15.2524L54.9342 15.2523ZM72.9986 15.2523C72.8056 16.0157 72.558 16.7752 72.249 17.5386C71.9434 18.3019 71.5906 18.9661 71.1938 19.5347C70.7972 20.1073 70.3899 20.3973 69.9823 20.3973C69.7349 20.3973 69.4876 20.1721 69.2365 19.7332C68.9855 19.2942 68.8654 18.5157 68.8654 17.3935C68.8654 15.4661 69.1055 14.0501 69.5931 13.1455C70.0806 12.237 70.6773 11.7867 71.3792 11.7867C71.9944 11.7867 72.4634 11.9851 72.7951 12.3783C73.1225 12.7713 73.2859 13.1569 73.2859 13.5386C73.2894 13.9202 73.1911 14.4889 72.9987 15.2523V15.2524L72.9986 15.2523Z" fill="#E6E6DD"/>
<path d="M96.0659 14.0038C95.5051 13.5801 94.8579 13.2595 93.5078 12.6297C92.4639 12.1373 91.9837 11.9884 91.5543 11.706C90.6774 11.0953 90.27 10.4197 90.27 9.52658C90.27 7.98848 91.4235 7.03044 93.1152 7.03044C94.3338 7.03044 95.3197 7.519 95.3197 8.24422L95.2942 8.47712C95.2362 8.75953 95.2143 8.92361 95.2072 8.96944C95.174 9.56102 95.6364 9.97331 96.0835 9.97331C96.6005 9.97331 97.0263 9.48091 97.0263 8.87402C97.0263 7.58774 95.2327 6.39319 93.1329 6.39319C90.7389 6.39319 88.7275 8.21 88.7275 10.4772C88.7275 11.626 89.1745 12.5497 90.1901 13.2253C90.6916 13.565 91.1902 13.8857 92.4562 14.4467C93.5878 14.9582 94.0503 15.2445 94.4938 15.5459C95.498 16.2482 96.044 17.0116 96.044 18.1146C96.044 19.8933 94.7631 20.9391 92.8607 20.9391C91.831 20.9391 91.234 20.8512 90.8302 20.1757C90.7574 20.0573 90.7178 19.9199 90.7178 19.7979V19.733C90.739 19.6605 90.739 19.6185 90.739 19.5728C90.7538 19.5231 90.7538 19.5002 90.7793 19.4315L90.8013 19.34L90.8267 19.0804C90.8267 18.5651 90.3975 18.0765 89.9462 18.0765C89.4511 18.0765 89.0041 18.5881 89.0041 19.172C89.0041 20.5078 90.8268 21.6071 93.0057 21.6071C94.1996 21.6071 95.1268 21.2293 96.0441 20.3667C96.9861 19.4773 97.4558 18.401 97.4558 17.1644C97.4593 15.8972 97.0738 14.8248 96.0661 14.0042V14.004L96.0659 14.0038Z" fill="#E6E6DD"/>
<path d="M127.349 11.21C127.17 10.9581 126.952 10.8359 126.686 10.8359C126.202 10.8359 125.962 11.0994 125.962 11.6223C125.962 11.836 126.002 12.0344 126.078 12.2176C126.155 12.3971 126.235 12.5764 126.323 12.752C126.414 12.9314 126.494 13.1185 126.574 13.3054C126.65 13.5001 126.686 13.7024 126.686 13.9161C126.686 14.2521 126.624 14.6756 126.504 15.1871C126.38 15.7023 126.224 16.2443 126.024 16.8168C125.831 17.3894 125.591 17.9657 125.318 18.5572C125.042 19.1412 124.765 19.6603 124.481 20.1145C124.412 20.1145 124.317 19.9541 124.201 19.645C124.078 19.3397 123.947 18.9351 123.801 18.4465C123.655 17.9542 123.51 17.4198 123.357 16.832C123.201 16.248 123.059 15.6717 122.931 15.1067C122.797 14.5495 122.695 14.0343 122.612 13.5724C122.259 11.4655 122.495 10.496 121.076 11.6946C120.756 11.9655 120.501 12.5496 120.788 13.916C120.847 14.2175 120.894 14.4388 120.985 14.7709C120.876 15.1793 120.716 15.6717 120.508 16.2594C120.298 16.8434 120.087 17.4121 119.879 17.9617C119.672 18.5113 119.486 18.977 119.319 19.3586C119.155 19.7402 119.039 19.9312 118.973 19.9312C118.926 19.9312 118.845 19.7823 118.726 19.4808C118.62 19.2212 117.285 13.8052 117.263 13.7061C116.823 11.5877 117.103 10.5113 115.684 11.7175C115.379 11.977 115.142 12.5191 115.353 13.7328C115.36 13.7939 115.375 13.855 115.382 13.9123C115.393 13.9427 115.404 14.0077 115.43 14.0993C115.462 14.2634 115.495 14.4199 115.535 14.5917C115.691 15.2749 115.954 16.374 116.263 17.5191C116.609 18.7864 117.089 20.2596 117.198 20.5726C117.769 22.2023 118.882 21.3283 119.239 20.6451C119.414 20.3092 119.602 19.9199 119.795 19.4772C119.999 19.0382 120.189 18.5802 120.374 18.1183C120.563 17.6527 120.734 17.1985 120.887 16.7596C121.044 16.3168 121.171 15.9275 121.284 15.5916C121.418 16.0916 121.553 16.6222 121.695 17.168C121.84 17.7176 121.979 18.2328 122.106 18.7099C122.237 19.187 122.357 19.5992 122.456 19.9465C122.55 20.2939 122.623 20.5001 122.67 20.5726C122.823 20.9543 123.033 21.2214 123.296 21.3817C123.561 21.5382 124.296 21.771 124.915 20.645C125.231 20.061 125.566 19.4313 125.882 18.729C126.202 18.0229 126.49 17.3053 126.737 16.5573C126.992 15.8207 127.203 15.0916 127.367 14.3741C127.534 13.6565 127.611 13 127.611 12.4008C127.611 11.8626 127.524 11.4618 127.349 11.2099L127.349 11.21H127.349Z" fill="#E6E6DD"/>
<path d="M114.09 12.7292C113.803 12.2788 113.443 11.9086 113.013 11.6261C112.577 11.3323 112.067 11.191 111.474 11.191C110.932 11.191 110.416 11.2902 109.917 11.5001C109.426 11.7023 108.989 12.0192 108.611 12.4466C108.236 12.8779 107.93 13.4237 107.694 14.0764C107.461 14.7366 107.345 15.5076 107.345 16.3931C107.345 17.248 107.45 18.0038 107.658 18.6488C107.734 18.874 107.825 19.0878 107.92 19.2901C107.796 19.4733 107.672 19.6412 107.534 19.7672C107.323 19.9771 107.086 20.0724 106.824 20.0724C106.628 20.0724 106.471 20.0189 106.366 19.912C106.253 19.8051 106.169 19.5952 106.115 19.2861C106.06 18.977 106.024 18.538 106.013 17.9732C105.999 17.4121 105.995 16.6678 105.995 15.7365C105.995 14.0877 105.991 13.0725 105.74 12.3816C105.442 11.5648 104.849 11.1869 104.019 11.1869C103.488 11.1869 103.001 11.3778 102.55 11.7594C102.098 12.1411 101.698 12.6068 101.363 13.1564C101.021 13.7022 100.73 14.2709 100.487 14.8586C100.242 15.4388 100.068 15.9273 99.9589 16.309C99.9589 16.309 99.9624 14.4769 99.9624 11.9769C99.9624 9.78216 99.9482 9.13729 99.9772 7.42335C99.9878 6.53789 99.253 6.93864 98.8131 7.38521C98.3583 7.84324 98.2233 7.99202 98.2233 8.59891C98.2233 9.20964 98.2487 19.4767 98.2347 19.8241C98.2233 20.1753 98.1582 20.5264 98.1364 20.6448C98.0926 20.8356 98.0488 20.9882 98.0091 21.0913C97.9617 21.1981 97.9397 21.2897 97.9397 21.3622C97.9397 21.4806 97.9941 21.5378 98.1038 21.5378C98.282 21.5378 98.4822 21.4806 98.6965 21.3622C98.944 21.221 99.2056 20.9996 99.5077 20.7171C99.8026 20.4309 99.9518 20.0569 99.9518 19.6026C99.9518 19.1026 99.9957 18.6027 100.083 18.0988C100.17 17.5988 100.279 17.1065 100.414 16.6294C100.505 16.3164 100.636 15.9195 100.824 15.4309C101.014 14.9423 101.229 14.4615 101.487 13.9768C101.738 13.5034 102.015 13.0874 102.309 12.7439C102.607 12.3965 102.906 12.2249 103.215 12.2249C103.437 12.2249 103.615 12.2859 103.761 12.4004C103.903 12.5226 104.034 12.7173 104.088 13.0111C104.18 13.4539 104.15 13.6752 104.165 14.1791C104.18 14.8851 104.139 15.3164 104.139 16.0836C104.139 17.9234 104.234 19.2784 104.42 20.1485C104.609 21.0188 105.231 21.4653 106.021 21.4653C106.505 21.4653 106.93 21.2974 107.29 20.9615C107.636 20.6408 107.942 20.2668 108.207 19.8241C108.302 19.973 108.404 20.1142 108.512 20.2363C108.877 20.6523 109.295 20.9653 109.768 21.1675C110.237 21.3737 110.743 21.4767 111.289 21.4767C112.111 21.4767 112.879 21.2171 113.461 20.5759C114.756 19.1484 114.883 17.1713 114.912 16.6674C114.924 16.4308 114.927 16.1828 114.927 15.9117C114.927 15.3659 114.858 14.8086 114.716 14.2476C114.581 13.6942 114.371 13.1827 114.09 12.7286L114.091 12.7289L114.09 12.7292ZM113.202 19.9506C112.82 20.4735 112.224 20.6491 111.617 20.6491C111.052 20.6491 110.353 20.3056 109.932 19.6262C109.51 18.943 109.295 17.8285 109.295 16.2751C109.295 14.7484 109.51 13.63 109.932 12.9239C110.358 12.2216 111.052 11.8667 111.617 11.8667C112.064 11.8667 112.442 11.9812 112.759 12.2026C113.083 12.4355 113.344 12.7256 113.559 13.0804C113.77 13.4392 113.934 13.8285 114.057 14.2484C114.17 14.672 114.767 17.817 113.202 19.9506Z" fill="#E6E6DD"/>
<path d="M43.7904 6.91985C44.8528 6.94653 45.5296 7.1985 46.0608 7.83583C46.4646 8.32439 46.1663 9.20992 46.5046 9.69078C47.0504 10.4771 47.9417 10.3206 48.211 9.93891C48.7348 9.35493 48.4801 8.64501 48.0654 8.18314C46.8648 6.84727 45.1585 6.33203 43.3574 6.33203C39.3734 6.33203 36.2372 9.74422 36.27 13.9694C36.3101 19.1794 39.6572 21.7748 43.6376 21.7748C45.4203 21.7748 46.9922 20.935 48.2582 19.8015C48.4474 19.6297 48.5894 19.2213 48.3019 18.9656C47.9308 18.6335 47.5742 19.0114 47.4614 19.1525C46.4026 20.4045 45.1657 21.0649 43.5903 21.0649C40.3413 21.0649 38.6131 18.0916 38.6131 14.0382C38.6168 9.99234 40.8652 6.83973 43.7904 6.91977L43.7904 6.91985Z" fill="#E6E6DD"/>
</svg>
