<svg width="39" height="32" viewBox="0 0 39 32" fill="none" xmlns="http://www.w3.org/2000/svg">
<path fill-rule="evenodd" clip-rule="evenodd" d="M13.3405 14.9864C13.3508 14.8958 13.3987 14.7754 13.4243 14.6891C13.4529 14.5928 13.4829 14.488 13.5112 14.3994L13.8561 13.2572C14.1386 12.3012 14.4387 11.3645 14.7179 10.4018C14.8258 10.0296 14.9543 9.64105 15.0636 9.26321C15.1775 8.86909 15.2957 8.49874 15.4093 8.11917C15.5103 7.78154 15.6233 7.28901 15.759 6.98229C15.8951 6.67471 16.0947 6.23481 16.5079 6.25141C16.89 6.26667 17.1017 6.7186 17.2222 7.02627C17.3593 7.37641 17.4681 7.77627 17.583 8.15237C17.8162 8.91637 18.0463 9.66245 18.2759 10.4239C18.2883 10.4652 19.6506 14.901 19.6615 14.9871L13.3405 14.9864ZM21.5704 23.2021C21.633 23.1423 21.7285 23.0602 21.7894 23.0111C21.9689 22.8662 22.2593 22.5989 22.4538 22.43C23.0347 21.9252 23.6201 21.3861 24.1694 20.8304C24.6822 20.3118 25.1193 19.8974 25.6128 19.3803C26.1159 18.8533 26.5187 18.4063 27.002 17.8658C27.2432 17.5961 27.5289 17.2459 27.7576 16.963C27.805 16.9042 28.0926 16.5487 28.124 16.4893C28.115 16.4369 28.0919 16.3797 28.0764 16.3262C28.0602 16.2702 28.046 16.2208 28.0256 16.1666C27.9247 15.8988 27.7999 15.5029 27.707 15.2267L26.862 12.7244C26.7291 12.3307 26.579 11.8561 26.4409 11.473C26.3643 11.2609 26.3002 11.055 26.2273 10.8424L25.5954 8.97066C25.3599 8.24488 25.1004 7.50236 24.8572 6.77973C24.837 6.71986 24.7691 6.50967 24.7671 6.44941C24.7424 6.42573 24.5163 5.76611 24.4609 5.64143C24.3528 5.39851 24.2337 5.10091 24.1256 4.85366L23.9508 4.47402C23.8198 4.17477 23.5421 3.65235 23.355 3.38017C22.8725 2.67823 22.3668 2.15903 21.7542 1.61805C21.604 1.4855 21.3782 1.30629 21.2089 1.1868C21.18 1.16627 21.1441 1.15203 21.1294 1.11796C21.092 1.11317 20.9207 0.992652 20.8695 0.960871C20.1813 0.533556 19.5617 0.344838 18.7541 0.170199C18.5533 0.126776 18.2372 0.092865 18.0278 0.0642305C17.5317 -0.00365837 16.9456 -0.00396935 16.441 0.00311061C16.2033 0.00641458 15.505 0.0530611 15.2833 0.0910569C15.1677 0.110881 15.0356 0.120637 14.9213 0.141798C14.8025 0.163825 14.6823 0.183882 14.5655 0.206144C14.237 0.268763 13.897 0.35711 13.5789 0.461264C11.7589 1.05724 10.5261 2.35484 9.62151 3.99605C8.83013 5.43202 8.2546 7.21168 7.752 8.78594C7.48706 9.61579 7.2022 10.4668 6.93985 11.3034C6.67121 12.1601 6.39328 12.9898 6.12519 13.8293C5.85741 14.6677 5.58876 15.5158 5.31272 16.3477C5.03307 17.1903 4.77214 18.0299 4.49798 18.872C3.95424 20.5418 3.41735 22.2415 2.87164 23.9164C2.7335 24.3404 2.60834 24.755 2.4643 25.18C2.32168 25.6007 2.19802 26.0189 2.05902 26.4341C1.78912 27.2406 1.51229 28.1292 1.24679 28.953L0.635708 30.8471C0.619346 30.897 0.603532 30.9527 0.584652 31.0084C0.559636 31.082 0.564753 31.1087 0.564832 31.1918C0.565225 31.6544 0.529195 31.6252 0.66222 31.635C0.696282 31.6375 0.730032 31.6414 0.763072 31.6453C0.83159 31.6533 0.914027 31.6521 0.980264 31.6577C1.12076 31.6697 1.2851 31.6731 1.42654 31.6792C2.32585 31.7184 3.29738 31.7194 4.19653 31.7242C4.81713 31.7275 5.44024 31.7232 6.05895 31.7161C6.36056 31.7127 7.6086 31.705 7.80629 31.5861C8.04087 31.4449 8.07241 31.283 8.16673 31.0051C8.24689 30.7688 8.32359 30.5363 8.4032 30.3029C8.55888 29.8462 8.71676 29.3346 8.87669 28.8925C9.12158 28.2155 9.34704 27.4669 9.5876 26.7833C9.67138 26.5451 9.73636 26.3272 9.82179 26.0871C9.97849 25.6466 10.145 25.1307 10.2954 24.6794C10.373 24.4468 10.4528 24.2084 10.5324 23.9768C10.6487 23.6387 10.7641 23.301 11.0999 23.1347C11.1931 23.0885 11.3487 23.0299 11.4643 23.0287C11.7757 23.0257 12.0891 23.029 12.4007 23.029C15.2055 23.029 18.0102 23.029 20.815 23.029C21.1216 23.029 21.2367 23.0026 21.5139 23.1444C21.5194 23.1472 21.5451 23.1595 21.5509 23.1644C21.5793 23.1881 21.5679 23.1601 21.5704 23.2021Z" fill="#E6E6DD"/>
<path fill-rule="evenodd" clip-rule="evenodd" d="M21.3422 27.0306C21.3339 26.8342 21.3782 26.5966 21.198 26.5291C21.1002 26.4925 21.0162 26.5486 20.9786 26.607C20.9261 26.6884 20.9292 26.7691 20.9292 26.8855V30.154C20.9293 30.5569 21.3395 30.5482 21.341 30.1638L21.3409 28.1641C21.3408 27.8582 21.3687 27.5316 21.492 27.3062C21.6117 27.0873 21.799 26.946 22.124 26.9405C22.8684 26.9278 22.953 27.5026 22.9528 28.116L22.9528 30.1252C22.9517 30.5808 23.3554 30.5237 23.3686 30.1929C23.3815 29.8704 23.3688 29.5185 23.3688 29.1927C23.3688 28.8562 23.3688 28.5198 23.3688 28.1833C23.3688 27.8449 23.358 27.5768 23.4978 27.3161C23.6135 27.1003 23.8195 26.9553 24.1295 26.9413C24.8374 26.9093 25.0051 27.4176 25.0071 28.0679C25.0075 28.5807 25.0071 29.0933 25.0071 29.6061C25.0071 29.7817 24.9805 30.2228 25.0427 30.3404C25.1526 30.5484 25.4178 30.4626 25.4178 30.1637V27.9526C25.4179 27.2861 25.2287 26.76 24.6999 26.5519C24.4503 26.4536 24.0459 26.4309 23.7886 26.5323C23.5979 26.6073 23.4502 26.718 23.339 26.878C23.3149 26.9126 23.2558 27.0198 23.232 27.0412C23.1999 27.0064 23.1693 26.9233 23.0778 26.8197C23.0164 26.7504 22.9522 26.6966 22.8765 26.6475C22.6748 26.5169 22.5193 26.4991 22.2938 26.4713C21.9815 26.4329 21.6744 26.5715 21.4919 26.7974C21.4138 26.8939 21.3668 27.0148 21.3422 27.0306Z" fill="white"/>
<path fill-rule="evenodd" clip-rule="evenodd" d="M31.4589 28.1663C31.4587 27.8606 31.5553 27.5277 31.6799 27.3332C31.8085 27.1323 32.0194 26.9548 32.343 26.9484C33.0244 26.9351 33.2301 27.5155 33.215 28.1675L31.4589 28.1663ZM31.4572 28.6372C31.5686 28.6243 32.9112 28.6341 33.1454 28.6341C33.3385 28.6341 33.4982 28.6677 33.5752 28.5011C33.6835 28.2663 33.6023 27.7292 33.5505 27.4895C33.4164 26.8702 32.9711 26.4199 32.295 26.4686C31.2351 26.5448 31.0218 27.657 31.0387 28.6347C31.0503 29.3061 31.23 29.9536 31.6742 30.2699C32.1725 30.6247 32.9569 30.5423 33.3632 30.133C33.4572 30.0384 33.5774 29.9294 33.5176 29.7403C33.4966 29.6739 33.4467 29.6136 33.3817 29.5975C33.1663 29.5443 33.0746 30.0352 32.3621 29.9997C32.0367 29.9834 31.8093 29.7818 31.6726 29.56C31.5454 29.3534 31.4333 28.9374 31.4572 28.6372Z" fill="white"/>
<path fill-rule="evenodd" clip-rule="evenodd" d="M26.4351 28.7212C26.3941 28.3958 26.4615 27.8644 26.5472 27.5998C26.6469 27.2921 26.8279 27.0567 27.156 26.9721C27.4999 26.8836 27.8484 27.0007 28.0513 27.2722C28.2172 27.494 28.3156 27.898 28.3269 28.2401C28.3512 28.9781 28.278 29.8199 27.6032 29.9886C27.2672 30.0725 26.9086 29.9618 26.7094 29.6904C26.5035 29.4096 26.4844 29.1133 26.4351 28.7212ZM27.2223 26.477C26.9728 26.5144 26.8117 26.5543 26.611 26.7111C26.1025 27.1078 25.9763 27.9916 26.0133 28.6411C26.0438 29.1765 26.1172 29.6114 26.3653 29.9786C26.6522 30.4033 27.0422 30.5094 27.5386 30.4849C27.9823 30.463 28.3361 30.1559 28.5155 29.7727C28.8414 29.0765 28.8558 27.6266 28.3997 26.9796C28.2828 26.8139 28.146 26.6783 27.95 26.5858C27.7563 26.4942 27.4742 26.4393 27.2223 26.477Z" fill="white"/>
<path fill-rule="evenodd" clip-rule="evenodd" d="M29.5697 26.3939C29.4754 26.4115 29.3278 26.3757 29.2478 26.4131C29.0764 26.4933 29.0833 26.799 29.2379 26.8765C29.3259 26.9205 29.4613 26.8859 29.5673 26.8993C29.5819 26.9938 29.5707 28.9152 29.5707 29.067C29.5707 29.4284 29.5562 29.7388 29.6998 30.0247C29.8176 30.2596 30.0351 30.4561 30.3566 30.4514C30.5121 30.4492 30.5979 30.2815 30.5585 30.1305C30.4701 29.7918 30.1244 30.1361 30.0057 29.6021C29.9709 29.4456 29.9861 29.2492 29.9861 29.0767C29.9861 28.9284 29.9746 26.9895 29.9895 26.9C30.2371 26.8584 30.5991 27.0156 30.6039 26.6542C30.6088 26.2868 30.2667 26.427 29.9902 26.3971C29.9778 26.3343 29.9861 25.6696 29.9861 25.5486C29.9861 25.3108 30.0406 24.887 29.7829 24.8816C29.6643 24.8791 29.5908 25.0018 29.5746 25.098C29.5609 25.1801 29.5753 26.2143 29.5697 26.3939Z" fill="white"/>
<path fill-rule="evenodd" clip-rule="evenodd" d="M34.2755 25.1831V29.4706C34.2755 29.9275 34.4079 30.419 34.8928 30.45C35.1942 30.4693 35.2009 30.1072 35.0541 29.9912C34.9455 29.9053 34.7038 30.0416 34.6914 29.5479C34.6825 29.1928 34.6906 28.8271 34.6906 28.4709V25.2599C34.6906 25.0873 34.6673 24.9327 34.5158 24.8989C34.3645 24.8653 34.2755 25.0367 34.2755 25.1831Z" fill="white"/>
<path fill-rule="evenodd" clip-rule="evenodd" d="M34.2757 25.1833C34.2757 25.0369 34.3646 24.8654 34.5159 24.8991C34.6674 24.9329 34.6908 25.0874 34.6907 25.2601V28.471C34.6907 28.8273 34.6827 29.1929 34.6916 29.548C34.7039 30.0417 34.9457 29.9054 35.0543 29.9913C35.2011 30.1074 35.1943 30.4695 34.893 30.4502C34.4081 30.4192 34.2757 29.9277 34.2757 29.4708V25.1833ZM27.2229 26.4768C27.4747 26.439 27.7568 26.494 27.9505 26.5856C28.1466 26.6781 28.2833 26.8136 28.4002 26.9794C28.8564 27.6263 28.842 29.0763 28.5161 29.7724C28.3366 30.1557 27.9828 30.4628 27.5391 30.4846C27.0427 30.5091 26.6528 30.4031 26.3658 29.9783C26.1177 29.6111 26.0444 29.1762 26.0138 28.6408C25.9769 27.9913 26.1031 27.1076 26.6115 26.7108C26.8122 26.5541 26.9733 26.5141 27.2229 26.4768ZM31.4571 28.6369C31.4332 28.937 31.5452 29.3531 31.6725 29.5597C31.8092 29.7815 32.0366 29.9831 32.362 29.9993C33.0745 30.0349 33.1662 29.544 33.3816 29.5972C33.4466 29.6133 33.4965 29.6736 33.5175 29.74C33.5773 29.9291 33.4571 30.0381 33.3631 30.1327C32.9568 30.542 32.1724 30.6244 31.6741 30.2696C31.2299 29.9533 31.0502 29.3058 31.0386 28.6344C31.0217 27.6567 31.235 26.5445 32.2949 26.4683C32.971 26.4196 33.4162 26.8699 33.5504 27.4892C33.6022 27.7289 33.6834 28.266 33.5751 28.5008C33.4981 28.6674 33.3384 28.6338 33.1453 28.6338C32.911 28.6338 31.5685 28.624 31.4571 28.6369ZM21.3416 27.0299C21.3662 27.0141 21.4133 26.8932 21.4913 26.7967C21.6738 26.5708 21.9809 26.4322 22.2932 26.4706C22.5188 26.4984 22.6743 26.5162 22.8759 26.6468C22.9517 26.6959 23.0159 26.7497 23.0772 26.819C23.1688 26.9226 23.1994 27.0057 23.2315 27.0405C23.2553 27.0191 23.3143 26.9119 23.3385 26.8773C23.4497 26.7173 23.5974 26.6066 23.7881 26.5316C24.0454 26.4302 24.4497 26.4529 24.6994 26.5512C25.2282 26.7593 25.4174 27.2854 25.4173 27.9519V30.163C25.4173 30.4619 25.1521 30.5477 25.0422 30.3397C24.98 30.2221 25.0065 29.781 25.0065 29.6054C25.0065 29.0926 25.007 28.58 25.0065 28.0672C25.0046 27.4169 24.8368 26.9086 24.1289 26.9406C23.819 26.9546 23.6129 27.0996 23.4972 27.3154C23.3575 27.5761 23.3682 27.8442 23.3682 28.1826C23.3682 28.5191 23.3682 28.8555 23.3682 29.192C23.3682 29.5178 23.381 29.8697 23.3681 30.1922C23.3548 30.523 22.9512 30.5801 22.9522 30.1245L22.9523 28.1153C22.9525 27.5019 22.8679 26.9271 22.1235 26.9398C21.7984 26.9453 21.6111 27.0866 21.4915 27.3055C21.3682 27.5309 21.3403 27.8575 21.3404 28.1634L21.3404 30.1631C21.3389 30.5475 20.9288 30.5562 20.9287 30.1533V26.8848C20.9287 26.7684 20.9256 26.6877 20.978 26.6063C21.0156 26.5479 21.0996 26.4918 21.1974 26.5284C21.3777 26.5959 21.3334 26.8335 21.3416 27.0299ZM29.5701 26.3939C29.5757 26.2143 29.5612 25.1801 29.575 25.0981C29.5912 25.0018 29.6647 24.8791 29.7833 24.8816C30.041 24.887 29.9864 25.3108 29.9864 25.5486C29.9864 25.6696 29.9781 26.3343 29.9906 26.3972C30.2671 26.427 30.6091 26.2868 30.6042 26.6542C30.5994 27.0156 30.2374 26.8584 29.9899 26.9001C29.975 26.9895 29.9864 28.9285 29.9864 29.0767C29.9864 29.2492 29.9713 29.4456 30.0061 29.6021C30.1248 30.1361 30.4704 29.7918 30.5589 30.1305C30.5983 30.2815 30.5124 30.4492 30.357 30.4514C30.0354 30.4561 29.818 30.2596 29.7001 30.0247C29.5566 29.7388 29.571 29.4284 29.571 29.067C29.571 28.9153 29.5823 26.9938 29.5677 26.8994C29.4617 26.8859 29.3262 26.9205 29.2383 26.8765C29.0836 26.7991 29.0768 26.4933 29.2481 26.4131C29.3281 26.3757 29.4758 26.4115 29.5701 26.3939ZM21.1295 1.11771C21.1443 1.15177 21.1801 1.16601 21.2091 1.18654C21.3783 1.30604 21.6041 1.48524 21.7543 1.61779C22.367 2.15878 22.8726 2.67798 23.3551 3.37992C23.5422 3.6521 23.8199 4.17452 23.9509 4.47377L24.1257 4.85341C24.2338 5.10066 24.3529 5.39825 24.461 5.64117C24.5164 5.76586 24.7425 6.42548 24.7672 6.44915C25.5165 6.37529 26.2625 6.37481 27.0135 6.43743C28.2368 6.53946 29.4785 6.99478 30.1625 8.00737C30.6949 8.79577 30.8819 9.87876 30.777 10.8869C30.7403 11.2396 30.6795 11.5643 30.5952 11.8872C30.2909 13.052 29.7255 14.1291 29.0983 15.1111C28.9386 15.3612 28.3268 16.2597 28.1241 16.4891C28.0927 16.5485 27.8052 16.904 27.7577 16.9627C27.529 17.2457 27.2433 17.5958 27.0021 17.8656C26.5188 18.406 26.116 18.8531 25.613 19.3801C25.1194 19.8971 24.6823 20.3115 24.1695 20.8302C23.6203 21.3858 23.0348 21.925 22.4539 22.4297C22.2594 22.5986 21.969 22.866 21.7895 23.0108C21.7287 23.0599 21.6332 23.142 21.5705 23.2019C21.52 23.234 21.4563 23.2985 21.4097 23.3399L20.9422 23.7441C20.7486 23.9172 20.5185 24.1058 20.3157 24.2866L19.0636 25.3719C18.6545 25.7205 18.256 26.0844 17.8146 26.4606L17.1933 27.0078C16.9933 27.1886 16.7843 27.3773 16.579 27.5622C16.5134 27.6213 16.3332 27.7834 16.2916 27.8588C16.1356 28.1409 16.0744 28.4588 16.0535 28.7886C16.0077 29.5158 15.9645 30.9054 16.1284 31.5619C16.1694 31.726 16.2517 31.8233 16.3917 31.8842C16.5063 31.9341 16.7404 31.9884 16.8702 31.9935C17.2471 32.0082 17.6555 31.9937 18.0358 31.9937C23.4671 31.9937 28.8984 31.9937 34.3296 31.9937C34.4556 31.9937 38.8467 32.0062 38.9823 31.9905L38.9791 23.7913C38.8457 23.7769 38.6441 23.7887 38.5033 23.7887L32.3621 23.789C32.0445 23.789 31.7428 23.8016 31.4261 23.8043C31.1144 23.807 30.8022 23.8147 30.5073 23.7755C30.2974 23.7476 29.8863 23.6692 29.8931 23.4336C29.9023 23.1103 30.7936 22.5121 31.107 22.2666C31.3557 22.0717 31.6206 21.8255 31.8675 21.6088C32.2123 21.3061 32.5456 21.032 32.8683 20.7226C33.1758 20.428 33.5174 20.092 33.8381 19.7955C34.1254 19.5298 34.5396 19.1389 34.8091 18.8694C35.0412 18.6372 35.4321 18.1362 35.6835 17.8457C35.8266 17.6804 35.9602 17.5067 36.1053 17.3192C36.8057 16.4132 37.4095 15.4707 37.9122 14.3891C38.8651 12.3386 39.2082 10.2744 38.8098 8.01319C38.5496 6.53631 37.9433 5.1916 37.0667 4.06667C36.646 3.52663 36.1773 3.07115 35.6444 2.64289C33.5557 0.964626 30.58 0.202826 27.7299 0.163808C27.4174 0.159481 27.1034 0.161681 26.794 0.169469L25.9029 0.222654C25.7627 0.240668 25.6037 0.251442 25.4659 0.26214C25.1472 0.28692 24.5147 0.376367 24.2191 0.433085C24.0676 0.462192 23.7527 0.512298 23.6141 0.54636C23.5543 0.561071 23.4899 0.574131 23.4263 0.587268C23.2883 0.615824 21.1769 1.09034 21.1295 1.11771Z" fill="#BEBEB5"/>
<path fill-rule="evenodd" clip-rule="evenodd" d="M26.4357 28.721C26.485 29.113 26.5041 29.4094 26.71 29.6901C26.9092 29.9615 27.2678 30.0723 27.6038 29.9883C28.2786 29.8197 28.3518 28.9778 28.3275 28.2398C28.3163 27.8978 28.2178 27.4938 28.0519 27.2719C27.8491 27.0004 27.5005 26.8833 27.1566 26.9719C26.8285 27.0565 26.6475 27.2918 26.5478 27.5996C26.4621 27.8641 26.3947 28.3956 26.4357 28.721Z" fill="#BEBEB5"/>
<path fill-rule="evenodd" clip-rule="evenodd" d="M31.4591 28.166L33.2152 28.1671C33.2303 27.5151 33.0246 26.9347 32.3432 26.9481C32.0196 26.9545 31.8087 27.1319 31.6801 27.3329C31.5556 27.5274 31.4589 27.8602 31.4591 28.166Z" fill="#BEBEB5"/>
</svg>
