<svg width="86" height="32" viewBox="0 0 86 32" fill="none" xmlns="http://www.w3.org/2000/svg">
<path fill-rule="evenodd" clip-rule="evenodd" d="M66.8861 17.4295C57.8038 23.235 48.7445 24.9451 39.6853 26.5229C24.6424 28.4577 8.49747 29.0264 1.44633 23.8708C-1.25525 21.4152 -0.0833122 18.0104 8.70686 14.4904C-0.792416 20.004 2.3288 24.9478 21.7863 25.6283C39.7911 25.9919 55.9498 23.1801 66.8861 17.4295Z" fill="#E6E6DD"/>
<path fill-rule="evenodd" clip-rule="evenodd" d="M62.2592 28.9751V31.4942C61.8671 31.6644 61.4968 31.7907 61.1454 31.875C60.7947 31.9578 60.4605 32.0002 60.1424 32.0002C59.7848 32.0002 59.4479 31.9566 59.1325 31.868C58.8172 31.781 58.5281 31.6499 58.2638 31.477C57.8225 31.1863 57.4774 30.8173 57.2323 30.3686C56.9864 29.9179 56.8628 29.4269 56.8628 28.8923C56.8628 28.4926 56.9448 28.1048 57.106 27.7282C57.2672 27.3533 57.4978 27.0238 57.7963 26.7434C58.1117 26.4398 58.4654 26.2143 58.8596 26.066C59.2549 25.9193 59.6966 25.8452 60.1849 25.8452C60.5175 25.8452 60.85 25.8845 61.183 25.9645C61.5168 26.0445 61.8584 26.1637 62.207 26.3233V27.2489C61.8294 27.0442 61.4752 26.8928 61.1418 26.794C60.8112 26.6967 60.4884 26.6473 60.1758 26.6473C59.4801 26.6473 58.9062 26.8638 58.4513 27.2968C57.9963 27.7298 57.77 28.2718 57.77 28.9241C57.77 29.5693 57.9935 30.107 58.4422 30.5396C58.8901 30.9726 59.4542 31.1895 60.1327 31.1895C60.3363 31.1895 60.541 31.1675 60.7453 31.124C60.9489 31.0789 61.1607 31.0122 61.3788 30.9205V29.7685H60.2633V28.9751H62.2592ZM63.3492 31.8955V25.9413H65.0925C65.6946 25.9413 66.1594 26.0837 66.4865 26.3669C66.8132 26.65 66.9759 27.0528 66.9759 27.5713C66.9759 27.9636 66.8858 28.2789 66.7073 28.5174C66.5273 28.7554 66.2452 28.9343 65.857 29.0535C65.957 29.1072 66.0504 29.1786 66.1386 29.2685C66.2272 29.3571 66.3406 29.5069 66.4802 29.7175L67.9263 31.8955H66.8959L65.8746 30.3337C65.5675 29.8626 65.3208 29.5622 65.1322 29.4328C64.9447 29.3018 64.7195 29.2367 64.4596 29.2367H64.2034V31.8955H63.3492ZM64.2034 28.5217H64.9102C65.3063 28.5217 65.6028 28.4448 65.8001 28.2922C65.9966 28.1381 66.0954 27.9044 66.0954 27.589C66.0954 27.2646 66.0021 27.0309 65.8154 26.8842C65.6279 26.7375 65.3252 26.665 64.9102 26.665H64.2034V28.5217ZM68.868 28.9241C68.868 29.2276 68.9241 29.5187 69.0374 29.7932C69.1512 30.0678 69.3151 30.3117 69.5277 30.5255C69.7348 30.7377 69.9775 30.9016 70.2583 31.0165C70.5368 31.1311 70.829 31.1895 71.1334 31.1895C71.444 31.1895 71.737 31.1326 72.0119 31.0208C72.2849 30.909 72.5308 30.7436 72.7461 30.5255C72.958 30.3117 73.1219 30.0678 73.2372 29.7932C73.3517 29.5187 73.4094 29.2276 73.4094 28.9241C73.4094 28.6205 73.3533 28.3342 73.24 28.0624C73.1266 27.7921 72.958 27.5439 72.7371 27.32C72.5246 27.1007 72.2806 26.9352 72.0045 26.8203C71.7299 26.7054 71.4397 26.6473 71.1334 26.6473C70.8369 26.6473 70.5513 26.7054 70.2745 26.8218C69.9979 26.9379 69.7485 27.1034 69.5277 27.32C69.3151 27.5266 69.1512 27.769 69.0374 28.0483C68.9241 28.3256 68.868 28.6173 68.868 28.9241ZM67.9608 28.8923C67.9608 28.4954 68.0428 28.1091 68.204 27.7357C68.3652 27.3607 68.5961 27.0297 68.8942 26.7434C69.1978 26.4512 69.5403 26.2288 69.9242 26.0751C70.3062 25.9221 70.7098 25.8452 71.1334 25.8452C71.5632 25.8452 71.9731 25.9221 72.3602 26.0778C72.7469 26.2319 73.0886 26.4539 73.3835 26.7434C73.6933 27.0442 73.9256 27.3795 74.0824 27.7474C74.2381 28.1165 74.3166 28.5174 74.3166 28.9488C74.3166 29.3544 74.2365 29.7438 74.0754 30.1172C73.9157 30.4906 73.6871 30.8188 73.3921 31.1024C73.0831 31.3974 72.7383 31.6209 72.3563 31.7719C71.9743 31.9245 71.566 32.0002 71.1334 32.0002C70.7098 32.0002 70.3046 31.9217 69.9168 31.766C69.5304 31.6092 69.1892 31.3883 68.8942 31.1024C68.5872 30.8044 68.355 30.4675 68.1977 30.0937C68.0392 29.7191 67.9608 29.3178 67.9608 28.8923ZM75.2304 25.9413H76.0756V29.3587C76.0756 29.7395 76.0961 30.0097 76.1368 30.1678C76.1792 30.3262 76.2474 30.4643 76.3451 30.5808C76.5208 30.7883 76.7287 30.9424 76.9695 31.0455C77.2107 31.1471 77.4856 31.1981 77.792 31.1981C78.3073 31.1981 78.7234 31.0644 79.0387 30.7985C79.3537 30.5314 79.511 30.1796 79.511 29.7422V25.9413H80.3562V29.7685C80.3562 30.4309 80.1193 30.9687 79.6455 31.3809C79.1725 31.7939 78.5544 32.0002 77.792 32.0002C77.3398 32.0002 76.9334 31.9202 76.5702 31.7605C76.207 31.5989 75.9015 31.3652 75.6517 31.0557C75.4979 30.871 75.39 30.6663 75.3257 30.4396C75.2618 30.2129 75.2304 29.8642 75.2304 29.3935V25.9413ZM82.4486 28.5739H83.3712C83.7857 28.5739 84.0849 28.5001 84.2705 28.3531C84.4568 28.2052 84.5497 27.9694 84.5497 27.6427C84.5497 27.3172 84.4568 27.0803 84.2705 26.932C84.0849 26.7822 83.7857 26.7085 83.3712 26.7085H82.4486V28.5739ZM81.6031 31.8955V25.9413H83.4614C84.0822 25.9413 84.567 26.0908 84.9157 26.3916C85.2643 26.6924 85.4393 27.1093 85.4393 27.6427C85.4393 28.173 85.2643 28.5872 84.9157 28.8848C84.567 29.1826 84.0822 29.3324 83.4614 29.3324H82.4486V31.8955H81.6031Z" fill="#E6E6DD"/>
<path fill-rule="evenodd" clip-rule="evenodd" d="M8.02444 13.7859L9.69207 5.06273H6.77443L4.85571 15.5771C6.44693 14.5624 6.99329 14.3311 8.02444 13.7859ZM8.74488 3.31702C9.71754 3.31702 10.5153 2.64358 10.5405 1.57132C10.5405 0.648375 9.8917 0.00012207 8.9943 0.00012207C8.04639 0.00012207 7.2486 0.723292 7.2486 1.77051C7.22348 2.66827 7.84677 3.31702 8.74488 3.31702Z" fill="#E6E6DD"/>
<path fill-rule="evenodd" clip-rule="evenodd" d="M40.8038 14.5821C39.9872 14.9465 38.9914 15.1869 37.7833 15.1869C36.6362 15.1869 35.7634 14.7629 35.2893 13.9401C35.0147 13.4659 34.9151 12.643 34.9649 12.2191C39.6534 12.319 42.9201 11.3213 42.9201 8.20398C42.9201 6.18409 41.3992 4.78784 39.0055 4.78784C34.8155 4.78784 32.1226 8.77782 32.1226 12.4434C32.1226 15.4113 33.7432 17.4563 37.11 17.4563C37.9885 17.4563 38.7023 17.3645 39.5656 17.139C39.9868 16.4996 40.6049 15.13 40.8038 14.5821ZM40.1774 8.2291C40.1774 9.67557 38.2568 10.0995 35.2646 10.0497C35.6137 8.57819 36.8103 6.95713 38.6309 6.95713C39.5538 6.95713 40.1774 7.43094 40.1774 8.2291Z" fill="#E6E6DD"/>
<path fill-rule="evenodd" clip-rule="evenodd" d="M21.2534 16.2844C22.0013 16.8829 23.6718 17.4567 25.7167 17.4567C29.4827 17.4567 32.2008 15.3866 32.2008 12.0203C32.2008 9.97525 30.979 8.62844 28.934 7.5561C27.3625 6.65835 26.4153 5.98491 26.4153 4.83809C26.4153 3.71559 27.4625 2.64333 29.3078 2.64333C30.6798 2.61857 31.8018 3.09238 32.3502 3.39161L33.2981 0.972465C32.6494 0.598682 31.4277 0.124512 29.5577 0.124512C26.1662 0.124512 23.3725 2.14483 23.3725 5.3617C23.3725 7.35691 24.8444 8.70336 26.789 9.75051C28.4352 10.6236 29.158 11.3716 29.158 12.469C29.158 14.0899 27.6617 14.9626 26.0407 14.9626C24.5699 14.9626 23.1983 14.514 22.2504 13.8903C22.0656 13.7675 21.906 13.6463 21.7879 13.5232L21.2534 16.2844Z" fill="#E6E6DD"/>
<path fill-rule="evenodd" clip-rule="evenodd" d="M73.1534 14.579C72.5298 14.8531 71.6822 15.1524 70.5601 15.1524C68.9387 15.1524 67.8919 14.1299 67.8919 12.3096C67.8919 9.79082 69.6619 7.19716 72.48 7.19716C73.2785 7.19716 73.8519 7.37168 74.3006 7.57131L75.0485 5.30199C74.5998 5.10236 73.6527 4.82825 72.5804 4.82825C68.0664 4.82825 64.8491 8.41926 64.8491 12.6587C64.8491 15.5516 66.7196 17.4966 69.7615 17.4966C71.3081 17.4966 72.5502 17.1621 73.253 16.8232C73.8786 16.522 74.5583 16.0627 75.1541 15.55L74.4818 13.62C74.2438 13.8796 73.8123 14.2632 73.1534 14.579Z" fill="#E6E6DD"/>
<path fill-rule="evenodd" clip-rule="evenodd" d="M12.0393 17.2068L13.0873 11.5958C13.6105 8.75307 15.3065 7.15683 16.6278 7.15683C17.775 7.15683 18.1496 7.90511 18.1496 8.90254C18.1496 9.37628 18.0743 9.89989 18.0002 10.349L16.7027 17.2068H19.5961L20.9421 10.1494C21.0672 9.5261 21.1669 8.67815 21.1669 8.1295C21.1669 5.83506 19.7957 4.78784 18.0743 4.78784C16.3788 4.78784 14.833 5.61068 13.7102 7.25679H13.6604L13.9102 5.06203H11.3416C11.1921 6.10961 11.0173 7.38114 10.7184 8.82762L9.14722 17.2068H12.0393Z" fill="#E6E6DD"/>
<path fill-rule="evenodd" clip-rule="evenodd" d="M83.2894 14.4837C82.3344 14.9052 81.319 15.2273 79.9478 15.2273C78.8002 15.2273 77.9275 14.8033 77.4541 13.9804C77.1796 13.5066 77.08 12.6838 77.1298 12.2598C81.8182 12.3594 85.085 11.362 85.085 8.24474C85.085 6.22485 83.5632 4.82825 81.1696 4.82825C76.98 4.82825 74.2866 8.81816 74.2866 12.4842C74.2866 15.4516 75.9076 17.4966 79.274 17.4966C80.6765 17.4966 82.851 17.0993 84.8908 15.9144L85.3874 13.2647C84.8222 13.6973 84.0193 14.1793 83.2894 14.4837ZM82.3414 8.2695C82.3414 9.71591 80.4216 10.1399 77.4286 10.0901C77.7777 8.61896 78.9751 6.99789 80.7954 6.99789C81.7179 6.99789 82.3414 7.47171 82.3414 8.2695Z" fill="#E6E6DD"/>
<path fill-rule="evenodd" clip-rule="evenodd" d="M50.887 5.06262L52.9563 17.2074H55.8739L62.6324 5.06262H59.4152L56.3979 11.1725C55.7245 12.6189 55.3754 13.4916 55.0761 14.2646H55.0012C54.9514 13.4669 54.8016 12.544 54.6522 11.0975L53.8792 5.06262H50.887Z" fill="#E6E6DD"/>
<path fill-rule="evenodd" clip-rule="evenodd" d="M63.523 17.2071L65.8421 5.06237H62.9244L60.6296 17.2071H63.523ZM64.8941 3.31702C65.8668 3.31702 66.6649 2.64358 66.6897 1.57132C66.6897 0.648375 66.0417 0.00012207 65.1435 0.00012207C64.1964 0.00012207 63.3978 0.723292 63.3978 1.77051C63.3731 2.66827 63.9967 3.31702 64.8941 3.31702Z" fill="#E6E6DD"/>
<path fill-rule="evenodd" clip-rule="evenodd" d="M50.5327 5.06128L49.9075 5.0625C48.2312 5.06759 46.9243 5.98494 46.1019 7.63105H46.027C46.1517 6.73329 46.2262 5.88534 46.3011 5.0625H43.7824C43.6329 6.15988 43.4827 8.00526 43.1592 9.72585L41.7378 17.2072H44.6299L45.5528 12.3195C46.0419 9.72858 47.3483 7.81969 49.4184 7.81969C49.6181 7.81969 49.8173 7.84481 49.9668 7.86949L50.5327 5.06128Z" fill="#E6E6DD"/>
<path fill-rule="evenodd" clip-rule="evenodd" d="M66.8461 17.4196C57.7688 23.2219 48.715 24.9308 39.6616 26.5079C24.6278 28.4415 8.49266 29.0098 1.44583 23.8574C-1.25453 21.4029 -0.083384 18.0001 8.70212 14.4819C-0.792129 19.9925 2.32794 24.9336 21.7741 25.6137C39.7675 25.9768 55.9171 23.1671 66.8461 17.4196Z" fill="#E6E6DD"/>
</svg>
