<svg width="96" height="32" viewBox="0 0 96 32" fill="none" xmlns="http://www.w3.org/2000/svg">
<path d="M38.8006 4.88676V7.08683H40.1403C40.4874 7.08683 40.7184 7.03924 40.8346 6.94411C40.9906 6.81814 41.0762 6.59704 41.0946 6.28071H41.2598V8.22047H41.0946C41.0533 7.94897 41.0105 7.77403 40.9692 7.69703C40.9157 7.6019 40.827 7.52633 40.7046 7.47174C40.5823 7.41715 40.3941 7.38917 40.1403 7.38917H38.8006V9.22538C38.8006 9.47166 38.8128 9.62142 38.8358 9.67463C38.8603 9.72778 38.9015 9.77119 38.9612 9.80198C39.0208 9.83415 39.1356 9.84957 39.3022 9.84957H40.3314C40.674 9.84957 40.9233 9.82715 41.0793 9.7838C41.2338 9.74039 41.3836 9.65364 41.5258 9.52486C41.7109 9.35554 41.9005 9.09941 42.0947 8.7579H42.2783L41.7537 10.1519H37.0664V10.0007H37.282C37.4258 10.0007 37.5619 9.96849 37.6903 9.90553C37.7867 9.86213 37.8525 9.79636 37.8861 9.70818C37.9212 9.62004 37.9381 9.44086 37.9381 9.16936V5.55016C37.9381 5.19747 37.8998 4.98056 37.8219 4.89937C37.7133 4.7902 37.5343 4.73561 37.282 4.73561H37.0664V4.58447H41.7553L41.8195 5.81047H41.6451C41.5824 5.51518 41.5136 5.31221 41.4371 5.20166C41.3607 5.09111 41.2475 5.00711 41.0992 4.94834C40.9799 4.90774 40.7688 4.88676 40.4676 4.88676H38.8006ZM47.7548 8.61518L47.9016 8.64455L47.3785 10.1519H42.6713V10.0007H42.8992C43.1561 10.0007 43.3396 9.92514 43.4497 9.77257C43.5124 9.68581 43.543 9.48426 43.543 9.16936V5.56696C43.543 5.21984 43.5017 5.00292 43.4176 4.91617C43.3014 4.79581 43.1286 4.73561 42.8992 4.73561H42.6713V4.58447H45.4241V4.73561C45.1014 4.7328 44.875 4.75941 44.7435 4.8168C44.6135 4.87277 44.5248 4.94553 44.4774 5.0309C44.43 5.11771 44.4055 5.32482 44.4055 5.6509V9.16099C44.4055 9.38909 44.43 9.54447 44.4774 9.62985C44.5126 9.68862 44.5692 9.73059 44.6441 9.75857C44.7175 9.78518 44.9515 9.79917 45.3446 9.79917H45.788C46.256 9.79917 46.5833 9.76838 46.7714 9.70542C46.9595 9.64241 47.1323 9.53048 47.2883 9.37091C47.4428 9.21134 47.5988 8.95945 47.7548 8.61518ZM50.0105 4.88676V7.08683H51.3501C51.6973 7.08683 51.9282 7.03924 52.0445 6.94411C52.2005 6.81814 52.2861 6.59704 52.3044 6.28071H52.4696V8.22047H52.3044C52.2632 7.94897 52.2203 7.77403 52.179 7.69703C52.1255 7.6019 52.0368 7.52633 51.9145 7.47174C51.7921 7.41715 51.604 7.38917 51.3501 7.38917H50.0105V9.22538C50.0105 9.47166 50.0227 9.62142 50.0457 9.67463C50.0701 9.72778 50.1114 9.77119 50.171 9.80198C50.2307 9.83415 50.3454 9.84957 50.5121 9.84957H51.5413C51.8839 9.84957 52.1332 9.82715 52.2892 9.7838C52.4436 9.74039 52.5935 9.65364 52.7357 9.52486C52.9207 9.35554 53.1104 9.09941 53.3046 8.7579H53.4881L52.9636 10.1519H48.2763V10.0007H48.4918C48.6356 10.0007 48.7717 9.96849 48.9002 9.90553C48.9965 9.86213 49.0623 9.79636 49.096 9.70818C49.1311 9.62004 49.1479 9.44086 49.1479 9.16936V5.55016C49.1479 5.19747 49.1097 4.98056 49.0317 4.89937C48.9231 4.7902 48.7442 4.73561 48.4918 4.73561H48.2763V4.58447H52.9651L53.0293 5.81047H52.855C52.7923 5.51518 52.7234 5.31221 52.647 5.20166C52.5705 5.09111 52.4573 5.00711 52.309 4.94834C52.1897 4.90774 51.9787 4.88676 51.6774 4.88676H50.0105ZM60.2079 4.58447V4.73561C59.9938 4.77202 59.8302 4.83498 59.7201 4.92597C59.5625 5.06032 59.4219 5.26743 59.2995 5.54597L57.1875 10.2778H57.0223L54.7483 5.48296C54.632 5.23526 54.5495 5.08411 54.502 5.02953C54.4271 4.94415 54.3354 4.87695 54.2252 4.82798C54.1167 4.78039 53.9699 4.7496 53.7848 4.73561V4.58447H56.2653V4.73561C55.984 4.76083 55.802 4.80419 55.7178 4.8672C55.6353 4.93016 55.5924 5.00992 55.5924 5.10929C55.5924 5.24506 55.6613 5.45917 55.7989 5.7489L57.345 9.00842L58.7811 5.78949C58.9218 5.47178 58.9921 5.25206 58.9921 5.1289C58.9921 5.05051 58.9478 4.97356 58.8621 4.90218C58.775 4.82936 58.6281 4.77763 58.4232 4.74822C58.4079 4.74541 58.3819 4.74123 58.3467 4.73561V4.58447H60.2079ZM63.3461 8.29604H60.9894L60.5826 9.16799C60.4817 9.38352 60.4297 9.54585 60.4297 9.65221C60.4297 9.73621 60.474 9.81178 60.5627 9.87612C60.6499 9.93913 60.841 9.9811 61.1332 10.0007V10.1519H59.2154V10.0007C59.4692 9.96012 59.6329 9.90691 59.7078 9.84114C59.8607 9.70961 60.029 9.44229 60.214 9.04058L62.3535 4.4585H62.5049L64.62 9.08961C64.7897 9.4619 64.9442 9.70261 65.0834 9.81454C65.2225 9.92514 65.4152 9.98672 65.6645 10.0007V10.1519H63.2666V10.0007C63.5081 9.98948 63.6718 9.95312 63.7574 9.89016C63.8431 9.82715 63.8844 9.7502 63.8844 9.65921C63.8844 9.53885 63.8247 9.34854 63.7054 9.08823L63.3461 8.29604ZM63.2084 7.99375L62.1838 5.74746L61.1316 7.99375H63.2084ZM65.9245 10.1519V10.0007H66.1524C66.4093 10.0007 66.5912 9.92514 66.6983 9.77537C66.764 9.68581 66.7962 9.48289 66.7962 9.16936V5.56696C66.7962 5.21984 66.7549 5.00292 66.6707 4.91617C66.5545 4.79581 66.3817 4.73561 66.1524 4.73561H65.9245V4.58447H68.3974C69.3058 4.58447 69.997 4.67822 70.4696 4.8672C70.9436 5.05613 71.3245 5.37103 71.612 5.81186C71.901 6.25273 72.0448 6.76218 72.0448 7.33877C72.0448 8.11411 71.7878 8.76071 71.274 9.28135C70.6974 9.86213 69.8196 10.1519 68.639 10.1519H65.9245ZM67.6587 9.74321C68.038 9.82016 68.3545 9.85794 68.6115 9.85794C69.3027 9.85794 69.8762 9.63541 70.3335 9.18897C70.7892 8.74391 71.0171 8.13933 71.0171 7.37656C71.0171 6.60822 70.7892 6.00222 70.3335 5.55996C69.8762 5.11628 69.2905 4.89518 68.5748 4.89518C68.3071 4.89518 68.0013 4.93434 67.6587 5.01415V9.74321ZM75.7472 4.4585C76.5348 4.4585 77.2184 4.7328 77.795 5.28142C78.373 5.83003 78.6621 6.51442 78.6621 7.33597C78.6621 8.1813 78.3715 8.88244 77.7888 9.44086C77.2077 9.99928 76.5027 10.2778 75.6754 10.2778C74.8403 10.2778 74.1384 10.0049 73.5695 9.46047C73.0005 8.91605 72.7161 8.2121 72.7161 7.34715C72.7161 6.46408 73.0449 5.74328 73.701 5.18486C74.2714 4.70063 74.9535 4.4585 75.7472 4.4585ZM75.6616 4.75241C75.1202 4.75241 74.6843 4.93715 74.3571 5.30664C73.9487 5.76707 73.7438 6.44028 73.7438 7.32759C73.7438 8.23589 73.9549 8.93565 74.3785 9.42549C74.7043 9.79774 75.1325 9.98391 75.6662 9.98391C76.2366 9.98391 76.7061 9.77956 77.0777 9.37234C77.4493 8.96363 77.6344 8.32127 77.6344 7.44233C77.6344 6.48925 77.4295 5.77831 77.0212 5.31083C76.6938 4.93853 76.2412 4.75241 75.6616 4.75241ZM85.2274 10.1519H83.5987L81.5326 7.54869C81.3842 7.55431 81.2634 7.55712 81.1701 7.55712C81.1319 7.55712 81.0906 7.55569 81.0478 7.55431C81.0035 7.55288 80.9591 7.5515 80.9117 7.54869V9.16936C80.9117 9.51924 80.953 9.73621 81.0371 9.82015C81.1503 9.94051 81.32 10.0007 81.5464 10.0007H81.7834V10.1519H79.1774V10.0007H79.4053C79.6623 10.0007 79.8457 9.92371 79.9559 9.77119C80.0186 9.68719 80.0492 9.48569 80.0492 9.16936V5.56696C80.0492 5.21708 80.0079 5.00012 79.9238 4.91617C79.8075 4.79581 79.6347 4.73561 79.4053 4.73561H79.1774V4.58447H81.3919C82.0388 4.58447 82.5144 4.62787 82.8203 4.71324C83.1277 4.8 83.3876 4.95952 83.6002 5.19047C83.8143 5.42138 83.9214 5.69712 83.9214 6.01759C83.9214 6.36047 83.799 6.65719 83.5559 6.90909C83.3112 7.16103 82.935 7.33878 82.4226 7.44376L83.6812 9.03783C83.9688 9.40451 84.215 9.6494 84.4214 9.76975C84.6264 9.89154 84.8956 9.96711 85.2274 10.0007V10.1519ZM80.9117 7.28838C80.9683 7.28838 81.0172 7.28838 81.0585 7.2898C81.0998 7.29118 81.1334 7.29261 81.1594 7.29261C81.7329 7.29261 82.1657 7.17783 82.4563 6.9483C82.7484 6.71734 82.8937 6.42486 82.8937 6.06936C82.8937 5.72229 82.7759 5.43961 82.5419 5.22127C82.3064 5.00435 81.9944 4.89518 81.6075 4.89518C81.4362 4.89518 81.2038 4.92035 80.9117 4.97075V7.28838ZM87.0595 4.88676V7.08683H88.3992C88.7463 7.08683 88.9773 7.03924 89.0935 6.94411C89.2495 6.81814 89.3351 6.59704 89.3535 6.28071H89.5186V8.22047H89.3535C89.3122 7.94897 89.2694 7.77403 89.228 7.69703C89.1745 7.6019 89.0858 7.52633 88.9635 7.47174C88.8412 7.41715 88.653 7.38917 88.3992 7.38917H87.0595V9.22538C87.0595 9.47166 87.0717 9.62142 87.0947 9.67463C87.1192 9.72778 87.1604 9.77119 87.2201 9.80198C87.2797 9.83415 87.3944 9.84957 87.5611 9.84957H88.5904C88.9329 9.84957 89.1822 9.82715 89.3382 9.7838C89.4927 9.74039 89.6425 9.65364 89.7847 9.52486C89.9698 9.35554 90.1594 9.09941 90.3536 8.7579H90.5371L90.0126 10.1519H85.3253V10.0007H85.5409C85.6847 10.0007 85.8208 9.96849 85.9492 9.90553C86.0456 9.86213 86.1114 9.79636 86.145 9.70818C86.1802 9.62004 86.197 9.44086 86.197 9.16936V5.55016C86.197 5.19747 86.1587 4.98056 86.0808 4.89937C85.9722 4.7902 85.7932 4.73561 85.5409 4.73561H85.3253V4.58447H90.0142L90.0784 5.81047H89.904C89.8414 5.51518 89.7725 5.31221 89.696 5.20166C89.6196 5.09111 89.5064 5.00711 89.3581 4.94834C89.2388 4.90774 89.0277 4.88676 88.7265 4.88676H87.0595ZM94.9584 4.4585V6.38151H94.7932C94.7397 6.01202 94.6434 5.7181 94.5042 5.49976C94.365 5.28142 94.1662 5.10791 93.9078 4.97913C93.6508 4.8504 93.3847 4.78601 93.1095 4.78601C92.7975 4.78601 92.5406 4.87277 92.3371 5.04633C92.1338 5.21984 92.0313 5.41857 92.0313 5.63972C92.0313 5.80905 92.0955 5.96443 92.224 6.10439C92.4106 6.30869 92.851 6.583 93.5484 6.9245C94.1173 7.20443 94.5057 7.41853 94.7137 7.56687C94.9217 7.71663 95.0823 7.89158 95.1939 8.09455C95.3055 8.29747 95.3621 8.50877 95.3621 8.7313C95.3621 9.15256 95.1832 9.51506 94.8269 9.82015C94.469 10.1253 94.0087 10.2778 93.4474 10.2778C93.2701 10.2778 93.1049 10.2652 92.9489 10.24C92.8556 10.2261 92.6645 10.1757 92.3723 10.0889C92.0818 10.0021 91.8967 9.95874 91.8188 9.95874C91.7438 9.95874 91.6842 9.97973 91.6413 10.0203C91.5985 10.0623 91.5664 10.1477 91.545 10.2778H91.3798V8.37162H91.545C91.623 8.77052 91.7269 9.07 91.8585 9.26735C91.99 9.46609 92.1919 9.63122 92.4626 9.76138C92.7332 9.89292 93.03 9.95874 93.3526 9.95874C93.7258 9.95874 94.0225 9.86774 94.2381 9.68719C94.4553 9.50525 94.5638 9.29115 94.5638 9.04482C94.5638 8.90767 94.5226 8.76908 94.4415 8.62912C94.3589 8.48921 94.232 8.35905 94.0592 8.23727C93.943 8.1547 93.6233 7.98114 93.1018 7.71526C92.5803 7.45076 92.2087 7.23798 91.9885 7.07984C91.7682 6.92169 91.6001 6.74538 91.4869 6.55502C91.3722 6.36328 91.3156 6.15193 91.3156 5.92246C91.3156 5.52356 91.4838 5.17929 91.8188 4.891C92.1536 4.60265 92.5818 4.4585 93.0987 4.4585C93.423 4.4585 93.7656 4.53126 94.128 4.67546C94.2962 4.74403 94.414 4.77764 94.4828 4.77764C94.5608 4.77764 94.625 4.7566 94.674 4.71463C94.7229 4.67122 94.7627 4.58728 94.7932 4.4585H94.9584Z" fill="#E6E6DD"/>
<path d="M48.3147 17.5205C49.002 17.6638 49.5169 17.8898 49.8592 18.2056C50.3316 18.6429 50.569 19.1773 50.569 19.809C50.569 20.29 50.414 20.7516 50.1016 21.1913C49.7892 21.631 49.3619 21.9517 48.8171 22.1533C48.2748 22.3549 47.4451 22.457 46.328 22.457H41.6472V22.1946H42.0171C42.4294 22.1946 42.7243 22.0659 42.9042 21.8108C43.0167 21.6456 43.0717 21.2909 43.0717 20.7516V14.4984C43.0717 13.9007 43.0017 13.5242 42.8617 13.3687C42.6718 13.1598 42.3919 13.0554 42.0171 13.0554H41.6472V12.793H45.9306C46.7303 12.793 47.3701 12.8489 47.8524 12.963C48.5847 13.1355 49.142 13.4367 49.5268 13.8716C49.9117 14.3065 50.1041 14.8045 50.1041 15.3705C50.1041 15.854 49.9542 16.2864 49.6518 16.6703C49.3494 17.0517 48.9046 17.3359 48.3147 17.5205ZM44.4812 17.1245C44.6611 17.1585 44.8685 17.1828 45.0984 17.1998C45.3309 17.2168 45.5858 17.2241 45.8632 17.2241C46.5754 17.2241 47.1127 17.1488 47.4701 17.0006C47.8275 16.8525 48.1023 16.6241 48.2923 16.3155C48.4797 16.0095 48.5747 15.6742 48.5747 15.3098C48.5747 14.7462 48.3373 14.2676 47.8649 13.8692C47.3926 13.4732 46.7029 13.274 45.7982 13.274C45.3108 13.274 44.871 13.325 44.4812 13.4295V17.1245ZM44.4812 21.7549C45.0485 21.8836 45.6107 21.9468 46.1631 21.9468C47.0502 21.9468 47.7275 21.7525 48.1923 21.3662C48.6571 20.9799 48.8896 20.5013 48.8896 19.9329C48.8896 19.5588 48.7821 19.1968 48.5647 18.8518C48.3498 18.5044 48.0049 18.2323 47.5326 18.0331C47.0602 17.8339 46.4729 17.7343 45.7757 17.7343C45.4733 17.7343 45.2159 17.7392 45.001 17.7489C44.786 17.7586 44.6136 17.7756 44.4812 17.7975V21.7549ZM54.5275 13.3177V17.1367H56.7167C57.284 17.1367 57.6614 17.0541 57.8513 16.8889C58.1062 16.6703 58.2461 16.2864 58.2762 15.7374H58.5461V19.1045H58.2762C58.2087 18.6332 58.1387 18.3295 58.0712 18.1959C57.9837 18.0307 57.8388 17.8995 57.6389 17.8048C57.4389 17.71 57.1315 17.6614 56.7167 17.6614H54.5275V20.8488C54.5275 21.2763 54.5475 21.5363 54.585 21.6286C54.625 21.7209 54.6924 21.7962 54.7899 21.8496C54.8874 21.9055 55.0748 21.9323 55.3472 21.9323H57.0291C57.5889 21.9323 57.9962 21.8934 58.2511 21.8181C58.5035 21.7428 58.7485 21.5921 58.9809 21.3686C59.2833 21.0747 59.5932 20.6301 59.9106 20.0373H60.2105L59.3533 22.457H51.6936V22.1946H52.0459C52.2808 22.1946 52.5032 22.1387 52.7132 22.0294C52.8706 21.9541 52.9781 21.8399 53.0331 21.6869C53.0905 21.5338 53.118 21.2228 53.118 20.7516V14.4692C53.118 13.857 53.0555 13.4805 52.9281 13.3396C52.7506 13.1501 52.4583 13.0554 52.0459 13.0554H51.6936V12.793H59.3558L59.4607 14.9211H59.1758C59.0734 14.4085 58.9609 14.0563 58.836 13.8643C58.711 13.6724 58.5261 13.5267 58.2837 13.4246C58.0887 13.3542 57.7438 13.3177 57.2515 13.3177H54.5275ZM69.1597 19.7896L69.3996 19.8406L68.5449 22.457H60.8527V22.1946H61.2251C61.6449 22.1946 61.9448 22.0634 62.1247 21.7986C62.2272 21.648 62.2772 21.2982 62.2772 20.7516V14.4984C62.2772 13.8959 62.2097 13.5194 62.0723 13.3687C61.8823 13.1598 61.5999 13.0554 61.2251 13.0554H60.8527V12.793H65.3511V13.0554C64.8238 13.0505 64.4539 13.0967 64.239 13.1962C64.0266 13.2934 63.8816 13.4197 63.8041 13.568C63.7267 13.7185 63.6867 14.0781 63.6867 14.6442V20.737C63.6867 21.133 63.7267 21.4026 63.8041 21.5508C63.8616 21.6528 63.9541 21.7258 64.0766 21.7743C64.1965 21.8205 64.5789 21.8448 65.2211 21.8448H65.9458C66.7106 21.8448 67.2454 21.7913 67.5528 21.682C67.8602 21.5727 68.1426 21.3783 68.3975 21.1014C68.6499 20.8245 68.9048 20.3872 69.1597 19.7896ZM78.9037 12.5743L79.1586 15.6207H78.8886C78.6312 14.8652 78.2964 14.2967 77.8891 13.9129C77.2992 13.3615 76.542 13.0845 75.6173 13.0845C74.3578 13.0845 73.3982 13.5704 72.7409 14.5445C72.1911 15.3633 71.9162 16.3423 71.9162 17.4768C71.9162 18.3975 72.0986 19.2356 72.466 19.9961C72.8309 20.754 73.3107 21.3103 73.903 21.665C74.4952 22.0173 75.105 22.1946 75.7298 22.1946C76.0947 22.1946 76.4496 22.1484 76.7919 22.0586C77.1318 21.9687 77.4617 21.8351 77.7791 21.6577V18.8567C77.7791 18.3708 77.7416 18.0525 77.6666 17.9043C77.5891 17.7538 77.4717 17.6395 77.3142 17.5618C77.1543 17.4816 76.8744 17.4428 76.4745 17.4428V17.1804H80.3131V17.4428H80.1307C79.7508 17.4428 79.4909 17.5667 79.3485 17.8145C79.251 17.9894 79.2036 18.3368 79.2036 18.8567V21.8181C78.6438 22.1144 78.089 22.3306 77.5441 22.4691C76.9968 22.6076 76.3896 22.6756 75.7223 22.6756C73.8055 22.6756 72.351 22.078 71.3564 20.8803C70.6092 19.9839 70.2368 18.9465 70.2368 17.7756C70.2368 16.9253 70.4467 16.109 70.8666 15.3317C71.3639 14.4061 72.0461 13.6918 72.9133 13.1938C73.6406 12.7808 74.4977 12.5743 75.4899 12.5743C75.8498 12.5743 76.1771 12.6035 76.472 12.6594C76.7669 12.7177 77.1843 12.8416 77.7266 13.0359C77.999 13.1355 78.1839 13.1865 78.2764 13.1865C78.3688 13.1865 78.4463 13.1452 78.5138 13.0627C78.5788 12.98 78.6187 12.8172 78.6337 12.5743H78.9037ZM86.0186 12.5743C87.3056 12.5743 88.4227 13.0505 89.3648 14.0028C90.3095 14.9551 90.7818 16.143 90.7818 17.5691C90.7818 19.0364 90.307 20.2536 89.3549 21.2228C88.4052 22.1922 87.2531 22.6756 85.9011 22.6756C84.5366 22.6756 83.3895 22.2019 82.4599 21.2569C81.5302 20.3118 81.0653 19.0899 81.0653 17.5885C81.0653 16.0556 81.6027 14.8045 82.6748 13.8352C83.6069 12.9946 84.7215 12.5743 86.0186 12.5743ZM85.8786 13.0845C84.9939 13.0845 84.2817 13.4052 83.7469 14.0465C83.0796 14.8458 82.7447 16.0143 82.7447 17.5545C82.7447 19.1312 83.0896 20.3458 83.7819 21.1961C84.3142 21.8423 85.014 22.1655 85.8861 22.1655C86.8183 22.1655 87.5855 21.8108 88.1927 21.1038C88.8 20.3945 89.1024 19.2794 89.1024 17.7538C89.1024 16.0993 88.7675 14.8652 88.1003 14.0538C87.5655 13.4076 86.8257 13.0845 85.8786 13.0845Z" fill="#E6E6DD"/>
<path d="M41.7969 28.9757V26.0594H42.4392V28.4787H44.0294V28.9757H41.7969ZM45.6138 28.9757V26.0348H46.2561V28.9757H45.6138ZM45.5119 25.7678L45.8131 25.1681H46.4909L45.8928 25.7678H45.5119ZM48.0974 26.0348H49.2654C49.5289 26.0348 49.7297 26.0533 49.8678 26.0909C50.0531 26.1415 50.2126 26.2319 50.3447 26.362C50.4776 26.4914 50.578 26.6502 50.6474 26.8385C50.7161 27.0261 50.7508 27.2581 50.7508 27.5333C50.7508 27.7756 50.7183 27.9838 50.6534 28.159C50.5744 28.3733 50.4614 28.5465 50.3145 28.6786C50.2037 28.7793 50.0538 28.8573 49.8656 28.9134C49.7246 28.9552 49.5363 28.9757 49.3 28.9757H48.0974V26.0348ZM48.7397 26.5318V28.4787H49.2159C49.3938 28.4787 49.5223 28.4692 49.6013 28.4506C49.7054 28.4267 49.791 28.3856 49.8589 28.3281C49.9276 28.2706 49.983 28.1761 50.0258 28.0447C50.0694 27.9133 50.0907 27.7332 50.0907 27.5059C50.0907 27.2787 50.0694 27.1048 50.0258 26.9829C49.983 26.8611 49.9224 26.7666 49.8449 26.6981C49.7674 26.6304 49.6692 26.5838 49.5496 26.5599C49.461 26.5414 49.286 26.5318 49.0261 26.5318H48.7397ZM52.5271 28.9757V26.0348H54.8748V26.5318H53.1694V27.1849H54.7552V27.6819H53.1694V28.4787H54.9369V28.9757H52.5271ZM56.7124 28.9757V26.0348H58.0613C58.4001 26.0348 58.6467 26.0615 58.8003 26.1142C58.9546 26.1669 59.0771 26.2607 59.1694 26.3955C59.2617 26.5311 59.3082 26.6851 59.3082 26.859C59.3082 27.0801 59.2388 27.2622 59.0993 27.406C58.9597 27.5497 58.7516 27.6401 58.474 27.6778C58.612 27.7524 58.7257 27.8345 58.8151 27.9242C58.9051 28.0139 59.0262 28.1734 59.1783 28.402L59.5652 28.9757H58.7996L58.3403 28.3336C58.1757 28.1056 58.0627 27.9619 58.0014 27.9023C57.9409 27.8435 57.8767 27.8024 57.8088 27.7804C57.7402 27.7585 57.6324 27.7476 57.4847 27.7476H57.3547V28.9757H56.7124ZM57.3547 27.2793H57.8288C58.1358 27.2793 58.3271 27.267 58.4038 27.2431C58.4799 27.2191 58.5404 27.1773 58.5833 27.1185C58.6268 27.0596 58.6482 26.9857 58.6482 26.8973C58.6482 26.7981 58.6194 26.7187 58.5626 26.657C58.5057 26.5961 58.4253 26.5578 58.3219 26.542C58.2695 26.5352 58.1137 26.5318 57.8545 26.5318H57.3547V27.2793ZM63.5947 28.9757V26.0348H64.5567L65.1252 28.0406L65.687 26.0348H66.6512V28.9757H66.0576L66.0554 26.6605L65.4301 28.9757H64.8129L64.1905 26.6605L64.1883 28.9757H63.5947ZM68.5242 26.0348H69.1666V27.6285C69.1666 27.8818 69.1747 28.0454 69.1902 28.12C69.2175 28.2405 69.2817 28.3377 69.3836 28.4103C69.4863 28.4835 69.6258 28.5198 69.803 28.5198C69.9824 28.5198 70.1182 28.4856 70.2098 28.4164C70.3013 28.3473 70.356 28.2631 70.3744 28.1624C70.3928 28.0619 70.4024 27.8955 70.4024 27.6627V26.0348H71.0447V27.5813C71.0447 27.9345 71.0278 28.1844 70.9931 28.3302C70.9584 28.476 70.8949 28.5992 70.8018 28.6998C70.7096 28.8005 70.5856 28.8799 70.4305 28.9395C70.2747 28.999 70.0725 29.0291 69.8222 29.0291C69.5202 29.0291 69.2914 28.997 69.1355 28.932C68.9798 28.8669 68.8565 28.7827 68.7657 28.6786C68.6748 28.5746 68.6158 28.4664 68.587 28.3521C68.5449 28.1837 68.5242 27.9345 68.5242 27.6052V26.0348ZM72.954 28.9757V26.0348H73.5756L74.8809 28.0057V26.0348H75.4745V28.9757H74.8329L73.5476 27.0425V28.9757H72.954ZM77.3837 26.0348H78.5516C78.8152 26.0348 79.0161 26.0533 79.1541 26.0909C79.3394 26.1415 79.4988 26.2319 79.631 26.362C79.7639 26.4914 79.8643 26.6502 79.9337 26.8385C80.0024 27.0261 80.0371 27.2581 80.0371 27.5333C80.0371 27.7756 80.0046 27.9838 79.9396 28.159C79.8606 28.3733 79.7476 28.5465 79.6008 28.6786C79.49 28.7793 79.3401 28.8573 79.1519 28.9134C79.0109 28.9552 78.8226 28.9757 78.5864 28.9757H77.3837V26.0348ZM78.026 26.5318V28.4787H78.5022C78.6801 28.4787 78.8085 28.4692 78.8876 28.4506C78.9916 28.4267 79.0773 28.3856 79.1452 28.3281C79.2139 28.2706 79.2693 28.1761 79.3121 28.0447C79.3556 27.9133 79.3771 27.7332 79.3771 27.5059C79.3771 27.2787 79.3556 27.1048 79.3121 26.9829C79.2693 26.8611 79.2088 26.7666 79.1312 26.6981C79.0537 26.6304 78.9555 26.5838 78.8359 26.5599C78.7473 26.5414 78.5723 26.5318 78.3124 26.5318H78.026ZM81.7912 28.9757V26.0348H82.4336V28.9757H81.7912ZM86.9674 28.9757H86.2756L86.0017 28.3062H84.7296L84.4661 28.9757H83.7868L85.0183 26.0348H85.6968L86.9674 28.9757ZM85.7935 27.8092L85.3528 26.7207L84.9245 27.8092H85.7935ZM88.393 28.9757V26.0594H89.0353V28.4787H90.6256V28.9757H88.393Z" fill="#E6E6DD"/>
<path fill-rule="evenodd" clip-rule="evenodd" d="M4.50586 20.8824L10.8833 3.38489L28.3808 9.76229L23.3072 12.1254C23.1912 12.3177 23.06 12.5005 22.917 12.6743C23.5884 12.5786 24.28 12.5722 24.9302 12.7368L28.9986 10.8418L27.048 16.1934C26.9658 16.5989 26.8233 16.9789 26.6321 17.3346L22.5707 28.4779L4.93468 22.05L11.2102 19.1271L10.6868 18.0035L4.50586 20.8824ZM8.62001 12.9225L15.414 9.75815C16.7626 9.13003 17.7803 8.70116 18.4753 8.4677C19.1754 8.23511 19.8375 8.11695 20.4693 8.10955C21.1023 8.10485 21.6841 8.21749 22.216 8.45013C22.7477 8.68277 23.1291 9.04675 23.3574 9.53679C23.6041 10.0666 23.6188 10.6561 23.3978 11.2975C23.178 11.9414 22.7509 12.5433 22.123 13.1066C23.2501 12.8299 24.2014 12.8059 24.986 13.0335C25.7667 13.2631 26.31 13.7065 26.6172 14.3661C26.859 14.8852 26.9155 15.4714 26.7839 16.1292C26.6523 16.7868 26.3446 17.4073 25.8567 17.9923C25.3715 18.5729 24.6882 19.1104 23.8068 19.6047C23.2559 19.9097 21.8881 20.579 19.7061 21.6082L13.9206 24.3029L8.62001 12.9225ZM12.9415 13.2115L14.163 15.834L16.4092 14.7879C17.7418 14.1671 18.5662 13.7671 18.8782 13.5896C19.4424 13.2719 19.8422 12.9214 20.0735 12.5396C20.3047 12.1579 20.3337 11.7865 20.1635 11.4209C19.9994 11.0686 19.7211 10.8533 19.33 10.7679C18.939 10.6824 18.4462 10.7508 17.8558 10.971C17.5034 11.1029 16.5203 11.5446 14.9109 12.2943L12.9415 13.2115ZM15.044 17.7255L16.4654 20.7772L19.6448 19.2963C20.8786 18.7216 21.6545 18.3312 21.9656 18.1315C22.4462 17.8303 22.7911 17.4859 22.9992 17.0957C23.206 16.7027 23.2188 16.3067 23.03 15.9014C22.8697 15.5571 22.6126 15.3254 22.2524 15.203C21.8962 15.0788 21.4548 15.0716 20.9376 15.1803C20.4204 15.289 19.3781 15.7068 17.8161 16.4344L15.044 17.7255Z" fill="#E6E6DD"/>
<path d="M38.8006 4.88676V7.08683H40.1403C40.4874 7.08683 40.7184 7.03924 40.8346 6.94411C40.9906 6.81814 41.0762 6.59704 41.0946 6.28071H41.2598V8.22047H41.0946C41.0533 7.94897 41.0105 7.77403 40.9692 7.69703C40.9157 7.6019 40.827 7.52633 40.7046 7.47174C40.5823 7.41715 40.3941 7.38917 40.1403 7.38917H38.8006V9.22538C38.8006 9.47166 38.8128 9.62142 38.8358 9.67463C38.8603 9.72778 38.9015 9.77119 38.9612 9.80198C39.0208 9.83415 39.1356 9.84957 39.3022 9.84957H40.3314C40.674 9.84957 40.9233 9.82715 41.0793 9.7838C41.2338 9.74039 41.3836 9.65364 41.5258 9.52486C41.7109 9.35554 41.9005 9.09941 42.0947 8.7579H42.2783L41.7537 10.1519H37.0664V10.0007H37.282C37.4258 10.0007 37.5619 9.96849 37.6903 9.90553C37.7867 9.86213 37.8525 9.79636 37.8861 9.70818C37.9212 9.62004 37.9381 9.44086 37.9381 9.16936V5.55016C37.9381 5.19747 37.8998 4.98056 37.8219 4.89937C37.7133 4.7902 37.5343 4.73561 37.282 4.73561H37.0664V4.58447H41.7553L41.8195 5.81047H41.6451C41.5824 5.51518 41.5136 5.31221 41.4371 5.20166C41.3607 5.09111 41.2475 5.00711 41.0992 4.94834C40.9799 4.90774 40.7688 4.88676 40.4676 4.88676H38.8006ZM47.7548 8.61518L47.9016 8.64455L47.3785 10.1519H42.6713V10.0007H42.8992C43.1561 10.0007 43.3396 9.92514 43.4497 9.77257C43.5124 9.68581 43.543 9.48426 43.543 9.16936V5.56696C43.543 5.21984 43.5017 5.00292 43.4176 4.91617C43.3014 4.79581 43.1286 4.73561 42.8992 4.73561H42.6713V4.58447H45.4241V4.73561C45.1014 4.7328 44.875 4.75941 44.7435 4.8168C44.6135 4.87277 44.5248 4.94553 44.4774 5.0309C44.43 5.11771 44.4055 5.32482 44.4055 5.6509V9.16099C44.4055 9.38909 44.43 9.54447 44.4774 9.62985C44.5126 9.68862 44.5692 9.73059 44.6441 9.75857C44.7175 9.78518 44.9515 9.79917 45.3446 9.79917H45.788C46.256 9.79917 46.5833 9.76838 46.7714 9.70542C46.9595 9.64241 47.1323 9.53048 47.2883 9.37091C47.4428 9.21134 47.5988 8.95945 47.7548 8.61518ZM50.0105 4.88676V7.08683H51.3501C51.6973 7.08683 51.9282 7.03924 52.0445 6.94411C52.2005 6.81814 52.2861 6.59704 52.3044 6.28071H52.4696V8.22047H52.3044C52.2632 7.94897 52.2203 7.77403 52.179 7.69703C52.1255 7.6019 52.0368 7.52633 51.9145 7.47174C51.7921 7.41715 51.604 7.38917 51.3501 7.38917H50.0105V9.22538C50.0105 9.47166 50.0227 9.62142 50.0457 9.67463C50.0701 9.72778 50.1114 9.77119 50.171 9.80198C50.2307 9.83415 50.3454 9.84957 50.5121 9.84957H51.5413C51.8839 9.84957 52.1332 9.82715 52.2892 9.7838C52.4436 9.74039 52.5935 9.65364 52.7357 9.52486C52.9207 9.35554 53.1104 9.09941 53.3046 8.7579H53.4881L52.9636 10.1519H48.2763V10.0007H48.4918C48.6356 10.0007 48.7717 9.96849 48.9002 9.90553C48.9965 9.86213 49.0623 9.79636 49.096 9.70818C49.1311 9.62004 49.1479 9.44086 49.1479 9.16936V5.55016C49.1479 5.19747 49.1097 4.98056 49.0317 4.89937C48.9231 4.7902 48.7442 4.73561 48.4918 4.73561H48.2763V4.58447H52.9651L53.0293 5.81047H52.855C52.7923 5.51518 52.7234 5.31221 52.647 5.20166C52.5705 5.09111 52.4573 5.00711 52.309 4.94834C52.1897 4.90774 51.9787 4.88676 51.6774 4.88676H50.0105ZM60.2079 4.58447V4.73561C59.9938 4.77202 59.8302 4.83498 59.7201 4.92597C59.5625 5.06032 59.4219 5.26743 59.2995 5.54597L57.1875 10.2778H57.0223L54.7483 5.48296C54.632 5.23526 54.5495 5.08411 54.502 5.02953C54.4271 4.94415 54.3354 4.87695 54.2252 4.82798C54.1167 4.78039 53.9699 4.7496 53.7848 4.73561V4.58447H56.2653V4.73561C55.984 4.76083 55.802 4.80419 55.7178 4.8672C55.6353 4.93016 55.5924 5.00992 55.5924 5.10929C55.5924 5.24506 55.6613 5.45917 55.7989 5.7489L57.345 9.00842L58.7811 5.78949C58.9218 5.47178 58.9921 5.25206 58.9921 5.1289C58.9921 5.05051 58.9478 4.97356 58.8621 4.90218C58.775 4.82936 58.6281 4.77763 58.4232 4.74822C58.4079 4.74541 58.3819 4.74123 58.3467 4.73561V4.58447H60.2079ZM63.3461 8.29604H60.9894L60.5826 9.16799C60.4817 9.38352 60.4297 9.54585 60.4297 9.65221C60.4297 9.73621 60.474 9.81178 60.5627 9.87612C60.6499 9.93913 60.841 9.9811 61.1332 10.0007V10.1519H59.2154V10.0007C59.4692 9.96012 59.6329 9.90691 59.7078 9.84114C59.8607 9.70961 60.029 9.44229 60.214 9.04058L62.3535 4.4585H62.5049L64.62 9.08961C64.7897 9.4619 64.9442 9.70261 65.0834 9.81454C65.2225 9.92514 65.4152 9.98672 65.6645 10.0007V10.1519H63.2666V10.0007C63.5081 9.98948 63.6718 9.95312 63.7574 9.89016C63.8431 9.82715 63.8844 9.7502 63.8844 9.65921C63.8844 9.53885 63.8247 9.34854 63.7054 9.08823L63.3461 8.29604ZM63.2084 7.99375L62.1838 5.74746L61.1316 7.99375H63.2084ZM65.9245 10.1519V10.0007H66.1524C66.4093 10.0007 66.5912 9.92514 66.6983 9.77537C66.764 9.68581 66.7962 9.48289 66.7962 9.16936V5.56696C66.7962 5.21984 66.7549 5.00292 66.6707 4.91617C66.5545 4.79581 66.3817 4.73561 66.1524 4.73561H65.9245V4.58447H68.3974C69.3058 4.58447 69.997 4.67822 70.4696 4.8672C70.9436 5.05613 71.3245 5.37103 71.612 5.81186C71.901 6.25273 72.0448 6.76218 72.0448 7.33877C72.0448 8.11411 71.7878 8.76071 71.274 9.28135C70.6974 9.86213 69.8196 10.1519 68.639 10.1519H65.9245ZM67.6587 9.74321C68.038 9.82016 68.3545 9.85794 68.6115 9.85794C69.3027 9.85794 69.8762 9.63541 70.3335 9.18897C70.7892 8.74391 71.0171 8.13933 71.0171 7.37656C71.0171 6.60822 70.7892 6.00222 70.3335 5.55996C69.8762 5.11628 69.2905 4.89518 68.5748 4.89518C68.3071 4.89518 68.0013 4.93434 67.6587 5.01415V9.74321ZM75.7472 4.4585C76.5348 4.4585 77.2184 4.7328 77.795 5.28142C78.373 5.83003 78.6621 6.51442 78.6621 7.33597C78.6621 8.1813 78.3715 8.88244 77.7888 9.44086C77.2077 9.99928 76.5027 10.2778 75.6754 10.2778C74.8403 10.2778 74.1384 10.0049 73.5695 9.46047C73.0005 8.91605 72.7161 8.2121 72.7161 7.34715C72.7161 6.46408 73.0449 5.74328 73.701 5.18486C74.2714 4.70063 74.9535 4.4585 75.7472 4.4585ZM75.6616 4.75241C75.1202 4.75241 74.6843 4.93715 74.3571 5.30664C73.9487 5.76707 73.7438 6.44028 73.7438 7.32759C73.7438 8.23589 73.9549 8.93565 74.3785 9.42549C74.7043 9.79774 75.1325 9.98391 75.6662 9.98391C76.2366 9.98391 76.7061 9.77956 77.0777 9.37234C77.4493 8.96363 77.6344 8.32127 77.6344 7.44233C77.6344 6.48925 77.4295 5.77831 77.0212 5.31083C76.6938 4.93853 76.2412 4.75241 75.6616 4.75241ZM85.2274 10.1519H83.5987L81.5326 7.54869C81.3842 7.55431 81.2634 7.55712 81.1701 7.55712C81.1319 7.55712 81.0906 7.55569 81.0478 7.55431C81.0035 7.55288 80.9591 7.5515 80.9117 7.54869V9.16936C80.9117 9.51924 80.953 9.73621 81.0371 9.82015C81.1503 9.94051 81.32 10.0007 81.5464 10.0007H81.7834V10.1519H79.1774V10.0007H79.4053C79.6623 10.0007 79.8457 9.92371 79.9559 9.77119C80.0186 9.68719 80.0492 9.48569 80.0492 9.16936V5.56696C80.0492 5.21708 80.0079 5.00012 79.9238 4.91617C79.8075 4.79581 79.6347 4.73561 79.4053 4.73561H79.1774V4.58447H81.3919C82.0388 4.58447 82.5144 4.62787 82.8203 4.71324C83.1277 4.8 83.3876 4.95952 83.6002 5.19047C83.8143 5.42138 83.9214 5.69712 83.9214 6.01759C83.9214 6.36047 83.799 6.65719 83.5559 6.90909C83.3112 7.16103 82.935 7.33878 82.4226 7.44376L83.6812 9.03783C83.9688 9.40451 84.215 9.6494 84.4214 9.76975C84.6264 9.89154 84.8956 9.96711 85.2274 10.0007V10.1519ZM80.9117 7.28838C80.9683 7.28838 81.0172 7.28838 81.0585 7.2898C81.0998 7.29118 81.1334 7.29261 81.1594 7.29261C81.7329 7.29261 82.1657 7.17783 82.4563 6.9483C82.7484 6.71734 82.8937 6.42486 82.8937 6.06936C82.8937 5.72229 82.7759 5.43961 82.5419 5.22127C82.3064 5.00435 81.9944 4.89518 81.6075 4.89518C81.4362 4.89518 81.2038 4.92035 80.9117 4.97075V7.28838ZM87.0595 4.88676V7.08683H88.3992C88.7463 7.08683 88.9773 7.03924 89.0935 6.94411C89.2495 6.81814 89.3351 6.59704 89.3535 6.28071H89.5186V8.22047H89.3535C89.3122 7.94897 89.2694 7.77403 89.228 7.69703C89.1745 7.6019 89.0858 7.52633 88.9635 7.47174C88.8412 7.41715 88.653 7.38917 88.3992 7.38917H87.0595V9.22538C87.0595 9.47166 87.0717 9.62142 87.0947 9.67463C87.1192 9.72778 87.1604 9.77119 87.2201 9.80198C87.2797 9.83415 87.3944 9.84957 87.5611 9.84957H88.5904C88.9329 9.84957 89.1822 9.82715 89.3382 9.7838C89.4927 9.74039 89.6425 9.65364 89.7847 9.52486C89.9698 9.35554 90.1594 9.09941 90.3536 8.7579H90.5371L90.0126 10.1519H85.3253V10.0007H85.5409C85.6847 10.0007 85.8208 9.96849 85.9492 9.90553C86.0456 9.86213 86.1114 9.79636 86.145 9.70818C86.1802 9.62004 86.197 9.44086 86.197 9.16936V5.55016C86.197 5.19747 86.1587 4.98056 86.0808 4.89937C85.9722 4.7902 85.7932 4.73561 85.5409 4.73561H85.3253V4.58447H90.0142L90.0784 5.81047H89.904C89.8414 5.51518 89.7725 5.31221 89.696 5.20166C89.6196 5.09111 89.5064 5.00711 89.3581 4.94834C89.2388 4.90774 89.0277 4.88676 88.7265 4.88676H87.0595ZM94.9584 4.4585V6.38151H94.7932C94.7397 6.01202 94.6434 5.7181 94.5042 5.49976C94.365 5.28142 94.1662 5.10791 93.9078 4.97913C93.6508 4.8504 93.3847 4.78601 93.1095 4.78601C92.7975 4.78601 92.5406 4.87277 92.3371 5.04633C92.1338 5.21984 92.0313 5.41857 92.0313 5.63972C92.0313 5.80905 92.0955 5.96443 92.224 6.10439C92.4106 6.30869 92.851 6.583 93.5484 6.9245C94.1173 7.20443 94.5057 7.41853 94.7137 7.56687C94.9217 7.71663 95.0823 7.89158 95.1939 8.09455C95.3055 8.29747 95.3621 8.50877 95.3621 8.7313C95.3621 9.15256 95.1832 9.51506 94.8269 9.82015C94.469 10.1253 94.0087 10.2778 93.4474 10.2778C93.2701 10.2778 93.1049 10.2652 92.9489 10.24C92.8556 10.2261 92.6645 10.1757 92.3723 10.0889C92.0818 10.0021 91.8967 9.95874 91.8188 9.95874C91.7438 9.95874 91.6842 9.97973 91.6413 10.0203C91.5985 10.0623 91.5664 10.1477 91.545 10.2778H91.3798V8.37162H91.545C91.623 8.77052 91.7269 9.07 91.8585 9.26735C91.99 9.46609 92.1919 9.63122 92.4626 9.76138C92.7332 9.89292 93.03 9.95874 93.3526 9.95874C93.7258 9.95874 94.0225 9.86774 94.2381 9.68719C94.4553 9.50525 94.5638 9.29115 94.5638 9.04482C94.5638 8.90767 94.5226 8.76908 94.4415 8.62912C94.3589 8.48921 94.232 8.35905 94.0592 8.23727C93.943 8.1547 93.6233 7.98114 93.1018 7.71526C92.5803 7.45076 92.2087 7.23798 91.9885 7.07984C91.7682 6.92169 91.6001 6.74538 91.4869 6.55502C91.3722 6.36328 91.3156 6.15193 91.3156 5.92246C91.3156 5.52356 91.4838 5.17929 91.8188 4.891C92.1536 4.60265 92.5818 4.4585 93.0987 4.4585C93.423 4.4585 93.7656 4.53126 94.128 4.67546C94.2962 4.74403 94.414 4.77764 94.4828 4.77764C94.5608 4.77764 94.625 4.7566 94.674 4.71463C94.7229 4.67122 94.7627 4.58728 94.7932 4.4585H94.9584Z" fill="#E6E6DD"/>
<path d="M48.3147 17.5205C49.002 17.6638 49.5169 17.8898 49.8592 18.2056C50.3316 18.6429 50.569 19.1773 50.569 19.809C50.569 20.29 50.414 20.7516 50.1016 21.1913C49.7892 21.631 49.3619 21.9517 48.8171 22.1533C48.2748 22.3549 47.4451 22.457 46.328 22.457H41.6472V22.1946H42.0171C42.4294 22.1946 42.7243 22.0659 42.9042 21.8108C43.0167 21.6456 43.0717 21.2909 43.0717 20.7516V14.4984C43.0717 13.9007 43.0017 13.5242 42.8617 13.3687C42.6718 13.1598 42.3919 13.0554 42.0171 13.0554H41.6472V12.793H45.9306C46.7303 12.793 47.3701 12.8489 47.8524 12.963C48.5847 13.1355 49.142 13.4367 49.5268 13.8716C49.9117 14.3065 50.1041 14.8045 50.1041 15.3705C50.1041 15.854 49.9542 16.2864 49.6518 16.6703C49.3494 17.0517 48.9046 17.3359 48.3147 17.5205ZM44.4812 17.1245C44.6611 17.1585 44.8685 17.1828 45.0984 17.1998C45.3309 17.2168 45.5858 17.2241 45.8632 17.2241C46.5754 17.2241 47.1127 17.1488 47.4701 17.0006C47.8275 16.8525 48.1023 16.6241 48.2923 16.3155C48.4797 16.0095 48.5747 15.6742 48.5747 15.3098C48.5747 14.7462 48.3373 14.2676 47.8649 13.8692C47.3926 13.4732 46.7029 13.274 45.7982 13.274C45.3108 13.274 44.871 13.325 44.4812 13.4295V17.1245ZM44.4812 21.7549C45.0485 21.8836 45.6107 21.9468 46.1631 21.9468C47.0502 21.9468 47.7275 21.7525 48.1923 21.3662C48.6571 20.9799 48.8896 20.5013 48.8896 19.9329C48.8896 19.5588 48.7821 19.1968 48.5647 18.8518C48.3498 18.5044 48.0049 18.2323 47.5326 18.0331C47.0602 17.8339 46.4729 17.7343 45.7757 17.7343C45.4733 17.7343 45.2159 17.7392 45.001 17.7489C44.786 17.7586 44.6136 17.7756 44.4812 17.7975V21.7549ZM54.5275 13.3177V17.1367H56.7167C57.284 17.1367 57.6614 17.0541 57.8513 16.8889C58.1062 16.6703 58.2461 16.2864 58.2762 15.7374H58.5461V19.1045H58.2762C58.2087 18.6332 58.1387 18.3295 58.0712 18.1959C57.9837 18.0307 57.8388 17.8995 57.6389 17.8048C57.4389 17.71 57.1315 17.6614 56.7167 17.6614H54.5275V20.8488C54.5275 21.2763 54.5475 21.5363 54.585 21.6286C54.625 21.7209 54.6924 21.7962 54.7899 21.8496C54.8874 21.9055 55.0748 21.9323 55.3472 21.9323H57.0291C57.5889 21.9323 57.9962 21.8934 58.2511 21.8181C58.5035 21.7428 58.7485 21.5921 58.9809 21.3686C59.2833 21.0747 59.5932 20.6301 59.9106 20.0373H60.2105L59.3533 22.457H51.6936V22.1946H52.0459C52.2808 22.1946 52.5032 22.1387 52.7132 22.0294C52.8706 21.9541 52.9781 21.8399 53.0331 21.6869C53.0905 21.5338 53.118 21.2228 53.118 20.7516V14.4692C53.118 13.857 53.0555 13.4805 52.9281 13.3396C52.7506 13.1501 52.4583 13.0554 52.0459 13.0554H51.6936V12.793H59.3558L59.4607 14.9211H59.1758C59.0734 14.4085 58.9609 14.0563 58.836 13.8643C58.711 13.6724 58.5261 13.5267 58.2837 13.4246C58.0887 13.3542 57.7438 13.3177 57.2515 13.3177H54.5275ZM69.1597 19.7896L69.3996 19.8406L68.5449 22.457H60.8527V22.1946H61.2251C61.6449 22.1946 61.9448 22.0634 62.1247 21.7986C62.2272 21.648 62.2772 21.2982 62.2772 20.7516V14.4984C62.2772 13.8959 62.2097 13.5194 62.0723 13.3687C61.8823 13.1598 61.5999 13.0554 61.2251 13.0554H60.8527V12.793H65.3511V13.0554C64.8238 13.0505 64.4539 13.0967 64.239 13.1962C64.0266 13.2934 63.8816 13.4197 63.8041 13.568C63.7267 13.7185 63.6867 14.0781 63.6867 14.6442V20.737C63.6867 21.133 63.7267 21.4026 63.8041 21.5508C63.8616 21.6528 63.9541 21.7258 64.0766 21.7743C64.1965 21.8205 64.5789 21.8448 65.2211 21.8448H65.9458C66.7106 21.8448 67.2454 21.7913 67.5528 21.682C67.8602 21.5727 68.1426 21.3783 68.3975 21.1014C68.6499 20.8245 68.9048 20.3872 69.1597 19.7896ZM78.9037 12.5743L79.1586 15.6207H78.8886C78.6312 14.8652 78.2964 14.2967 77.8891 13.9129C77.2992 13.3615 76.542 13.0845 75.6173 13.0845C74.3578 13.0845 73.3982 13.5704 72.7409 14.5445C72.1911 15.3633 71.9162 16.3423 71.9162 17.4768C71.9162 18.3975 72.0986 19.2356 72.466 19.9961C72.8309 20.754 73.3107 21.3103 73.903 21.665C74.4952 22.0173 75.105 22.1946 75.7298 22.1946C76.0947 22.1946 76.4496 22.1484 76.7919 22.0586C77.1318 21.9687 77.4617 21.8351 77.7791 21.6577V18.8567C77.7791 18.3708 77.7416 18.0525 77.6666 17.9043C77.5891 17.7538 77.4717 17.6395 77.3142 17.5618C77.1543 17.4816 76.8744 17.4428 76.4745 17.4428V17.1804H80.3131V17.4428H80.1307C79.7508 17.4428 79.4909 17.5667 79.3485 17.8145C79.251 17.9894 79.2036 18.3368 79.2036 18.8567V21.8181C78.6438 22.1144 78.089 22.3306 77.5441 22.4691C76.9968 22.6076 76.3896 22.6756 75.7223 22.6756C73.8055 22.6756 72.351 22.078 71.3564 20.8803C70.6092 19.9839 70.2368 18.9465 70.2368 17.7756C70.2368 16.9253 70.4467 16.109 70.8666 15.3317C71.3639 14.4061 72.0461 13.6918 72.9133 13.1938C73.6406 12.7808 74.4977 12.5743 75.4899 12.5743C75.8498 12.5743 76.1771 12.6035 76.472 12.6594C76.7669 12.7177 77.1843 12.8416 77.7266 13.0359C77.999 13.1355 78.1839 13.1865 78.2764 13.1865C78.3688 13.1865 78.4463 13.1452 78.5138 13.0627C78.5788 12.98 78.6187 12.8172 78.6337 12.5743H78.9037ZM86.0186 12.5743C87.3056 12.5743 88.4227 13.0505 89.3648 14.0028C90.3095 14.9551 90.7818 16.143 90.7818 17.5691C90.7818 19.0364 90.307 20.2536 89.3549 21.2228C88.4052 22.1922 87.2531 22.6756 85.9011 22.6756C84.5366 22.6756 83.3895 22.2019 82.4599 21.2569C81.5302 20.3118 81.0653 19.0899 81.0653 17.5885C81.0653 16.0556 81.6027 14.8045 82.6748 13.8352C83.6069 12.9946 84.7215 12.5743 86.0186 12.5743ZM85.8786 13.0845C84.9939 13.0845 84.2817 13.4052 83.7469 14.0465C83.0796 14.8458 82.7447 16.0143 82.7447 17.5545C82.7447 19.1312 83.0896 20.3458 83.7819 21.1961C84.3142 21.8423 85.014 22.1655 85.8861 22.1655C86.8183 22.1655 87.5855 21.8108 88.1927 21.1038C88.8 20.3945 89.1024 19.2794 89.1024 17.7538C89.1024 16.0993 88.7675 14.8652 88.1003 14.0538C87.5655 13.4076 86.8257 13.0845 85.8786 13.0845Z" fill="#E6E6DD"/>
<path d="M41.7969 28.9757V26.0594H42.4392V28.4787H44.0294V28.9757H41.7969ZM45.6138 28.9757V26.0348H46.2561V28.9757H45.6138ZM45.5119 25.7678L45.8131 25.1681H46.4909L45.8928 25.7678H45.5119ZM48.0974 26.0348H49.2654C49.5289 26.0348 49.7297 26.0533 49.8678 26.0909C50.0531 26.1415 50.2126 26.2319 50.3447 26.362C50.4776 26.4914 50.578 26.6502 50.6474 26.8385C50.7161 27.0261 50.7508 27.2581 50.7508 27.5333C50.7508 27.7756 50.7183 27.9838 50.6534 28.159C50.5744 28.3733 50.4614 28.5465 50.3145 28.6786C50.2037 28.7793 50.0538 28.8573 49.8656 28.9134C49.7246 28.9552 49.5363 28.9757 49.3 28.9757H48.0974V26.0348ZM48.7397 26.5318V28.4787H49.2159C49.3938 28.4787 49.5223 28.4692 49.6013 28.4506C49.7054 28.4267 49.791 28.3856 49.8589 28.3281C49.9276 28.2706 49.983 28.1761 50.0258 28.0447C50.0694 27.9133 50.0907 27.7332 50.0907 27.5059C50.0907 27.2787 50.0694 27.1048 50.0258 26.9829C49.983 26.8611 49.9224 26.7666 49.8449 26.6981C49.7674 26.6304 49.6692 26.5838 49.5496 26.5599C49.461 26.5414 49.286 26.5318 49.0261 26.5318H48.7397ZM52.5271 28.9757V26.0348H54.8748V26.5318H53.1694V27.1849H54.7552V27.6819H53.1694V28.4787H54.9369V28.9757H52.5271ZM56.7124 28.9757V26.0348H58.0613C58.4001 26.0348 58.6467 26.0615 58.8003 26.1142C58.9546 26.1669 59.0771 26.2607 59.1694 26.3955C59.2617 26.5311 59.3082 26.6851 59.3082 26.859C59.3082 27.0801 59.2388 27.2622 59.0993 27.406C58.9597 27.5497 58.7516 27.6401 58.474 27.6778C58.612 27.7524 58.7257 27.8345 58.8151 27.9242C58.9051 28.0139 59.0262 28.1734 59.1783 28.402L59.5652 28.9757H58.7996L58.3403 28.3336C58.1757 28.1056 58.0627 27.9619 58.0014 27.9023C57.9409 27.8435 57.8767 27.8024 57.8088 27.7804C57.7402 27.7585 57.6324 27.7476 57.4847 27.7476H57.3547V28.9757H56.7124ZM57.3547 27.2793H57.8288C58.1358 27.2793 58.3271 27.267 58.4038 27.2431C58.4799 27.2191 58.5404 27.1773 58.5833 27.1185C58.6268 27.0596 58.6482 26.9857 58.6482 26.8973C58.6482 26.7981 58.6194 26.7187 58.5626 26.657C58.5057 26.5961 58.4253 26.5578 58.3219 26.542C58.2695 26.5352 58.1137 26.5318 57.8545 26.5318H57.3547V27.2793ZM63.5947 28.9757V26.0348H64.5567L65.1252 28.0406L65.687 26.0348H66.6512V28.9757H66.0576L66.0554 26.6605L65.4301 28.9757H64.8129L64.1905 26.6605L64.1883 28.9757H63.5947ZM68.5242 26.0348H69.1666V27.6285C69.1666 27.8818 69.1747 28.0454 69.1902 28.12C69.2175 28.2405 69.2817 28.3377 69.3836 28.4103C69.4863 28.4835 69.6258 28.5198 69.803 28.5198C69.9824 28.5198 70.1182 28.4856 70.2098 28.4164C70.3013 28.3473 70.356 28.2631 70.3744 28.1624C70.3928 28.0619 70.4024 27.8955 70.4024 27.6627V26.0348H71.0447V27.5813C71.0447 27.9345 71.0278 28.1844 70.9931 28.3302C70.9584 28.476 70.8949 28.5992 70.8018 28.6998C70.7096 28.8005 70.5856 28.8799 70.4305 28.9395C70.2747 28.999 70.0725 29.0291 69.8222 29.0291C69.5202 29.0291 69.2914 28.997 69.1355 28.932C68.9798 28.8669 68.8565 28.7827 68.7657 28.6786C68.6748 28.5746 68.6158 28.4664 68.587 28.3521C68.5449 28.1837 68.5242 27.9345 68.5242 27.6052V26.0348ZM72.954 28.9757V26.0348H73.5756L74.8809 28.0057V26.0348H75.4745V28.9757H74.8329L73.5476 27.0425V28.9757H72.954ZM77.3837 26.0348H78.5516C78.8152 26.0348 79.0161 26.0533 79.1541 26.0909C79.3394 26.1415 79.4988 26.2319 79.631 26.362C79.7639 26.4914 79.8643 26.6502 79.9337 26.8385C80.0024 27.0261 80.0371 27.2581 80.0371 27.5333C80.0371 27.7756 80.0046 27.9838 79.9396 28.159C79.8606 28.3733 79.7476 28.5465 79.6008 28.6786C79.49 28.7793 79.3401 28.8573 79.1519 28.9134C79.0109 28.9552 78.8226 28.9757 78.5864 28.9757H77.3837V26.0348ZM78.026 26.5318V28.4787H78.5022C78.6801 28.4787 78.8085 28.4692 78.8876 28.4506C78.9916 28.4267 79.0773 28.3856 79.1452 28.3281C79.2139 28.2706 79.2693 28.1761 79.3121 28.0447C79.3556 27.9133 79.3771 27.7332 79.3771 27.5059C79.3771 27.2787 79.3556 27.1048 79.3121 26.9829C79.2693 26.8611 79.2088 26.7666 79.1312 26.6981C79.0537 26.6304 78.9555 26.5838 78.8359 26.5599C78.7473 26.5414 78.5723 26.5318 78.3124 26.5318H78.026ZM81.7912 28.9757V26.0348H82.4336V28.9757H81.7912ZM86.9674 28.9757H86.2756L86.0017 28.3062H84.7296L84.4661 28.9757H83.7868L85.0183 26.0348H85.6968L86.9674 28.9757ZM85.7935 27.8092L85.3528 26.7207L84.9245 27.8092H85.7935ZM88.393 28.9757V26.0594H89.0353V28.4787H90.6256V28.9757H88.393Z" fill="#E6E6DD"/>
<path fill-rule="evenodd" clip-rule="evenodd" d="M26.4583 3.20325C30.8664 6.08761 33.9173 10.7932 34.2553 16.1095C34.8134 24.8855 27.7696 31.9998 18.5226 31.9998C17.4498 31.9998 16.3948 31.9029 15.3665 31.7199C15.9233 31.7617 16.4886 31.7748 17.0614 31.7561C25.7077 31.4737 32.717 24.2356 32.717 15.5892C32.717 10.4691 30.2586 6.00402 26.4583 3.27182V3.20325Z" fill="#E6E6DD"/>
<path fill-rule="evenodd" clip-rule="evenodd" d="M5.13379 26.5182C1.87764 23.1543 -0.0143301 18.6073 0.3043 13.8585C0.89305 5.08454 8.80283 -1.05261 17.9712 0.150781C18.835 0.264139 19.6788 0.439387 20.4987 0.670087C19.4145 0.467931 18.2887 0.37837 17.1332 0.416156C8.48685 0.698531 1.47761 7.93673 1.47761 16.5831C1.47761 20.4111 2.85221 23.8726 5.13379 26.5182Z" fill="#E6E6DD"/>
</svg>
