<svg width="107" height="34" viewBox="0 0 107 34" fill="none" xmlns="http://www.w3.org/2000/svg">
<path d="M15.944 24.3967C15.944 24.3967 16.0779 24.6131 15.7946 24.6205C15.3086 24.6336 13.604 24.1275 12.2098 23.5741C12.7995 23.158 13.4671 22.6669 14.1578 22.0899C14.4368 22.1508 15.0378 22.3632 15.3515 23.0933C15.7517 24.0245 15.9575 24.3462 15.944 24.3967ZM11.4702 23.8336C11.2506 23.9858 11.0556 24.1222 10.8759 24.2506C10.7538 24.1601 10.5081 24.1882 10.2732 24.3391C10.0274 24.4968 9.89727 24.7219 9.94648 24.871C9.20988 25.2973 8.67984 25.422 8.31302 25.422C7.8235 25.422 7.62434 25.2012 7.61017 25.1847C7.19118 24.5957 7.24606 23.8299 7.61365 22.9729C7.73301 22.925 7.86137 22.8219 7.96353 22.668C8.10671 22.452 8.14523 22.2244 8.07992 22.0928C9.88767 19.1487 14.4207 15.5457 16.1919 14.2023C19.1633 11.9483 18.6725 8.81052 18.4085 7.12509L18.3737 6.90088C18.0804 5.32778 16.781 5.29345 16.2243 5.29345C16.5672 5.06202 16.8998 4.99297 17.0724 4.95709C17.1956 4.93159 17.2772 4.91445 17.2888 4.82428C17.2964 4.76663 17.2644 4.71987 17.1856 4.68064C16.7951 4.52438 16.5415 3.96929 16.2726 3.3818C16.1471 3.10645 16.0182 2.82504 15.8674 2.5616C18.1791 3.82237 19.444 5.72873 19.6834 7.88585C20.6732 17.3997 14.5002 21.7315 11.4702 23.8336ZM9.33438 16.9839C9.43976 16.8128 9.51048 16.8546 9.59776 16.8919C9.76819 16.9647 10.4443 17.2991 10.618 18.5562C10.354 18.8263 10.0971 19.0986 9.84922 19.372C9.59692 19.0152 9.46713 18.1378 9.43931 17.4598C9.34527 18.4534 9.59537 19.2403 9.7059 19.5308C9.56536 19.6887 9.42907 19.8465 9.29586 20.0041C9.12344 19.6937 8.60757 18.5494 9.33438 16.9839ZM14.1965 22.0576C17.2702 19.4793 20.7891 15.1661 20.0251 7.82188C19.7654 5.48339 18.1989 3.48416 15.6135 2.19137L15.2314 2L15.481 2.34743C15.7202 2.67934 15.9037 3.08094 16.0811 3.46934C16.3271 4.00716 16.5611 4.51936 16.9207 4.77442C16.6808 4.82911 16.2956 4.94357 15.9231 5.25699C15.8447 5.31798 15.8445 5.37699 15.8583 5.4155C15.8909 5.50819 15.9771 5.50691 16.1673 5.50478C16.6825 5.50059 17.895 5.48255 18.166 6.93592L18.2004 7.15749C18.4574 8.7999 18.8675 11.6856 15.9966 13.8635C14.6136 14.9127 12.5025 16.6389 10.6842 18.4891C10.6674 18.042 10.5233 17.2122 9.71614 16.668L9.47918 16.4706C9.47918 16.4706 9.34765 16.273 9.17632 16.655C9.00718 17.0325 8.32571 18.4532 9.27802 20.0252C8.71379 20.695 8.22298 21.3611 7.85094 21.9989C7.71748 22.0296 7.56206 22.1429 7.44303 22.3225C7.27112 22.5815 7.24432 22.8634 7.37623 22.9659C7.24819 23.2931 7.164 23.6074 7.12851 23.9059C6.79087 24.3645 6.33748 24.2428 6.04126 24.0981C6.59152 24.5345 6.93914 24.3876 7.11041 24.2411C7.11563 24.634 7.21579 24.9949 7.44039 25.3096L7.44238 25.3118C7.46654 25.344 7.89629 25.8701 9.05381 25.5067C8.99107 25.6788 8.9456 26.0569 9.60542 26.3046C9.36485 26.1488 9.07513 25.8685 9.28955 25.4256C9.54005 25.3282 9.82345 25.1871 10.1369 24.9999C10.2692 25.0144 10.4421 24.9729 10.6108 24.8645C10.7906 24.7491 10.9058 24.5972 10.9393 24.4646C11.132 24.3256 11.3477 24.175 11.5906 24.0064C11.7799 23.8752 11.9824 23.7346 12.1946 23.585C12.67 23.8684 15.7278 25.5493 16.4618 24.6555C16.1108 24.0589 15.865 23.0054 15.2331 22.4788C14.8162 22.1314 14.4203 22.0639 14.1965 22.0576Z" fill="#E6E6DD" stroke="#E6E6DD" stroke-width="0.755906" stroke-miterlimit="22.9256"/>
<path d="M13.3898 22.7552C13.1791 22.8256 13.144 22.9309 13.144 22.9309C13.144 22.9309 14.0217 23.9139 15.2858 23.9843C14.5835 23.7738 13.6707 23.317 13.3898 22.7552Z" fill="#E6E6DD" stroke="#E6E6DD" stroke-width="0.755906" stroke-miterlimit="22.9256"/>
<path d="M18.9197 12.0209C18.4983 13.2322 18.1297 14.7067 15.9968 16.2606C13.9224 17.7713 10.9864 19.8768 11.3345 20.9119C11.3001 20.7077 11.3675 20.1406 12.6788 19.157C14.364 17.8932 18.3931 15.7602 18.9197 12.0209Z" fill="#E6E6DD" stroke="#E6E6DD" stroke-width="0.755906" stroke-miterlimit="22.9256"/>
<path d="M11.3342 20.9115C11.3441 20.9699 11.3617 21.0001 11.3617 21.0001C11.3467 20.9724 11.3441 20.9409 11.3342 20.9115Z" fill="#E6E6DD" stroke="#E6E6DD" stroke-width="0.755906" stroke-miterlimit="22.9256"/>
<path d="M5.82764 4.32031C6.52991 4.531 7.44286 4.98748 7.72356 5.54927C7.93432 5.47893 7.96935 5.37361 7.96935 5.37361C7.96935 5.37361 7.0917 4.39058 5.82764 4.32031Z" fill="#E6E6DD" stroke="#E6E6DD" stroke-width="0.755906" stroke-miterlimit="22.9256"/>
<path d="M13.4993 5.3317C13.38 5.3793 13.2516 5.48275 13.1496 5.63663C13.0063 5.8526 12.9678 6.08029 13.0331 6.21149C11.2254 9.15596 6.69233 12.7588 4.9211 14.1023C1.94964 16.3564 2.44071 19.4941 2.70454 21.1793L2.73938 21.4034C3.03258 22.9765 4.33206 23.0112 4.88889 23.0112C4.54584 23.2426 4.21323 23.3116 4.04061 23.3473C3.91745 23.3727 3.83584 23.3901 3.82425 23.48C3.81665 23.5378 3.84866 23.5848 3.92744 23.6239C4.31796 23.78 4.57154 24.3353 4.84033 24.9228C4.96593 25.1981 5.09481 25.4796 5.24566 25.7427C2.93397 24.4822 1.66907 22.5758 1.42966 20.4185C0.439923 10.9047 6.61284 6.57309 9.64285 4.47098C9.86249 4.31885 10.0575 4.18211 10.2371 4.05374C10.3592 4.1443 10.6051 4.11641 10.84 3.96556C11.0856 3.80775 11.2157 3.58244 11.1665 3.43353C11.9031 3.00739 12.4332 2.88268 12.8 2.88268C13.2895 2.88268 13.4887 3.10335 13.5028 3.11965C13.9218 3.70894 13.867 4.47472 13.4993 5.3317ZM11.7786 11.3205C11.6733 11.4915 11.6025 11.4499 11.5153 11.4128C11.3448 11.3396 10.669 11.0055 10.4951 9.74821C10.7591 9.47808 11.016 9.20581 11.2639 8.93239C11.5162 9.28916 11.6458 10.1666 11.6737 10.8449C11.7678 9.8512 11.5176 9.0643 11.4071 8.77368C11.5477 8.61594 11.6841 8.45807 11.8172 8.30052C11.9898 8.61092 12.5054 9.75517 11.7786 11.3205ZM5.76153 5.21132C5.36122 4.27982 5.1553 3.9584 5.16902 3.90765C5.16902 3.90765 5.03536 3.69149 5.31832 3.68389C5.80443 3.67101 7.5088 4.17708 8.90316 4.73043C8.31354 5.14665 7.64593 5.63772 6.95525 6.21452C6.67642 6.15378 6.07521 5.94109 5.76153 5.21132ZM14.0026 4.06327C13.9974 3.67062 13.8975 3.30954 13.6726 2.99496L13.6706 2.99257C13.6467 2.96056 13.2168 2.43445 12.0593 2.79792C12.1219 2.62581 12.1674 2.24747 11.5076 2C11.7482 2.15581 12.0379 2.43619 11.8235 2.87895C11.573 2.97627 11.2895 3.11753 10.9763 3.30445C10.8437 3.29015 10.6709 3.33169 10.5022 3.4399C10.3224 3.55545 10.2073 3.7074 10.1737 3.83995C9.98113 3.97902 9.76542 4.12967 9.52266 4.29791C9.3331 4.42944 9.13065 4.56979 8.91842 4.71961C8.44307 4.43614 5.38518 2.75528 4.65122 3.64879C5.00232 4.24574 5.24805 5.29905 5.87998 5.8258C6.29697 6.17317 6.69278 6.24041 6.91648 6.24698C3.8428 8.82534 0.323919 13.1385 1.08789 20.4828C1.3476 22.8212 2.91419 24.8205 5.49944 26.113L5.88165 26.3046L5.63206 25.9571C5.39284 25.6252 5.20934 25.2236 5.03188 24.8351C4.7859 24.2974 4.55196 23.7852 4.19255 23.5302C4.43222 23.4753 4.81753 23.3609 5.18995 23.0473C5.26827 22.9866 5.26853 22.9277 5.25481 22.8891C5.22215 22.7963 5.13597 22.7977 4.9457 22.7999C4.43048 22.8037 3.21808 22.8218 2.94678 21.3687L2.91265 21.147C2.65558 19.5047 2.24548 16.6188 5.11639 14.441C6.49942 13.3919 8.61041 11.6655 10.429 9.81527C10.4456 10.2625 10.5897 11.0921 11.3969 11.6365L11.6338 11.834C11.6338 11.834 11.7656 12.0314 11.9366 11.6495C12.106 11.2721 12.7873 9.8514 11.835 8.27914C12.3992 7.60939 12.8903 6.94352 13.2621 6.30553C13.3957 6.27506 13.5509 6.16144 13.67 5.98206C13.842 5.72281 13.8687 5.44114 13.7368 5.33866C13.8648 5.01145 13.9491 4.69713 13.9846 4.39852C14.3221 3.94011 14.7755 4.06179 15.0718 4.20652C14.5216 3.77007 14.1739 3.91705 14.0026 4.06327Z" fill="#E6E6DD" stroke="#E6E6DD" stroke-width="0.755906" stroke-miterlimit="22.9256"/>
<path d="M8.43448 9.14805C6.74904 10.4121 2.72016 12.5451 2.1936 16.2842C2.61485 15.0731 2.98354 13.5984 5.11649 12.0446C7.1909 10.5338 10.1267 8.4284 9.7786 7.39319C9.81299 7.59737 9.74575 8.16463 8.43448 9.14805Z" fill="#E6E6DD" stroke="#E6E6DD" stroke-width="0.755906" stroke-miterlimit="22.9256"/>
<path d="M9.77835 7.39306C9.76856 7.3349 9.75098 7.30469 9.75098 7.30469C9.76592 7.33206 9.76856 7.36389 9.77835 7.39306Z" fill="#E6E6DD" stroke="#E6E6DD" stroke-width="0.755906" stroke-miterlimit="22.9256"/>
<path fill-rule="evenodd" clip-rule="evenodd" d="M43.1294 23.0369H38.4241L37.9352 25.0294H32.3712L27.9149 13.255V25.0294H24.6487V4.51543H27.7585L32.1552 16.3107V4.51543H35.4213V21.7639L39.4206 4.51543H42.1331L46.8895 25.0294H43.6184L43.1294 23.0369ZM39.4007 20.0554H42.1231L40.7598 11.0879L39.4007 20.0554ZM60.2621 17.0805C60.1333 16.8848 59.9623 16.7297 59.7594 16.611C59.4788 16.4467 59.1751 16.3145 58.8749 16.1923L56.7177 15.3387C55.6598 14.92 54.5796 14.2776 54.0376 13.2453C53.5207 12.2606 53.3586 11.1125 53.3586 10.0143C53.3586 9.26777 53.4629 8.52686 53.6892 7.81396C53.7236 7.70556 53.7612 7.59805 53.8022 7.49184H51.069V25.0245H47.8028V7.49184H44.3156V4.51053H54.5564V6.01226C54.5697 6.0006 54.5829 5.98901 54.5962 5.97748C54.7807 5.81697 54.9732 5.664 55.1692 5.51746C55.3662 5.37022 55.5685 5.22813 55.7759 5.0955C55.9466 4.98639 56.128 4.87722 56.3124 4.79252C57.0422 4.45713 57.8568 4.33984 58.6558 4.33984C59.3804 4.33984 60.0929 4.4628 60.7599 4.74846C61.3708 5.01016 61.9291 5.36597 62.4073 5.82586L62.4108 5.82934C63.2973 6.72059 63.8057 7.78478 63.8057 9.04677V10.5942H60.5398V9.81513C60.5398 9.22416 60.4062 8.65832 60.0729 8.16216C59.724 7.64275 59.1373 7.49184 58.5379 7.49184C58.2206 7.49184 57.8741 7.53789 57.5976 7.70182C57.3673 7.83831 57.17 8.01389 57.0173 8.23295C56.8628 8.47623 56.7641 8.74507 56.7107 9.027C56.6508 9.34306 56.6243 9.66473 56.6243 9.98608C56.6243 10.3134 56.6318 10.6429 56.6679 10.9685C56.6937 11.2016 56.7581 11.4276 56.8742 11.6329C56.99 11.8375 57.1572 12.0005 57.3524 12.1313C57.6278 12.3157 57.9487 12.4553 58.258 12.5736L60.5627 13.4557C61.1466 13.6711 61.7351 13.9525 62.2224 14.3434C62.6339 14.6736 62.9766 15.0691 63.2279 15.5316L63.2307 15.5369L63.2333 15.5423C63.4705 16.0422 63.6121 16.5813 63.6863 17.1275C63.7761 17.7879 63.8057 18.4563 63.8057 19.1222C63.8057 19.9303 63.7271 20.7412 63.5363 21.5279C63.3697 22.2151 63.0931 22.875 62.6568 23.4388C62.2156 24.0091 61.6411 24.4308 60.9838 24.7285C60.2065 25.0805 59.3269 25.1951 58.4785 25.1951C57.7633 25.1951 57.0598 25.077 56.3934 24.8164C55.772 24.5733 55.2061 24.2278 54.7264 23.7656C54.2597 23.316 53.8902 22.7918 53.6208 22.2051C53.3386 21.5906 53.2105 20.9343 53.2105 20.2607V19.0545H56.4767V20.0902C56.4767 20.5957 56.6316 21.0487 56.9388 21.4521C57.2993 21.9255 57.9128 22.043 58.4785 22.043C58.845 22.043 59.2874 22.0078 59.6189 21.8427C59.8786 21.7134 60.0843 21.5276 60.2319 21.2792C60.3943 21.0058 60.4704 20.6929 60.4954 20.379C60.5279 19.9704 60.5398 19.5603 60.5398 19.1506C60.5398 18.7193 60.5307 18.2844 60.4812 17.8555C60.4512 17.5958 60.3923 17.3105 60.2621 17.0805ZM68.3039 4.51543V20.0661C68.3039 20.5922 68.3997 21.1879 68.7977 21.5711C69.1427 21.9033 69.5629 22.0479 70.0404 22.0479C70.5174 22.0479 70.9374 21.9028 71.2822 21.5711C71.6805 21.1878 71.7763 20.5925 71.7763 20.0661V4.51543H75.0423V20.3509C75.0423 21.0015 74.9252 21.6387 74.6622 22.2366C74.407 22.8165 74.0432 23.3296 73.5855 23.7704C73.1191 24.2195 72.5799 24.5701 71.9806 24.8202C71.3631 25.0778 70.7097 25.2002 70.0404 25.2002C69.3755 25.2002 68.726 25.0795 68.114 24.82C67.521 24.5684 66.9869 24.2157 66.5243 23.7704C66.0654 23.3285 65.6981 22.8157 65.4338 22.2383C65.1608 21.6417 65.0382 21.0043 65.0382 20.3509V4.51543H68.3039ZM83.2187 15.0806L87.0014 4.51536H90.1417V25.0294H86.8758V13.1792L84.0476 21.4148H82.3598L79.5621 13.167V25.0294H76.2961V4.51536H79.4065L83.2187 15.0806ZM91.509 25.0342V4.52019H94.775V25.0342H91.509Z" fill="#E6E6DD"/>
<path d="M24.7697 27.5117H25.5708V32.4309C25.5708 32.9317 25.5033 33.293 25.3677 33.5145C25.1684 33.8384 24.8437 34.0002 24.3938 34.0002C24.128 34.0002 23.9018 33.945 23.7151 33.8337V32.9707C23.9428 33.1174 24.1191 33.1908 24.2442 33.1908C24.5946 33.1908 24.7697 32.9234 24.7697 32.3892V32.1321V27.5117Z" fill="#E6E6DD"/>
<path d="M31.5495 32.0032L31.373 30.9825C31.2555 30.2873 31.1597 29.5455 31.0855 28.757C31.0497 29.1417 31.0039 29.5314 30.9475 29.9254C30.8915 30.32 30.8249 30.7387 30.7482 31.1815L30.6025 32.0032H31.5495ZM30.7866 27.5117H31.4077L32.6764 33.9211H31.8868L31.6644 32.6716H30.4913L30.2651 33.9211H29.4983L30.7866 27.5117Z" fill="#E6E6DD"/>
<path d="M37.3651 30.3388C37.695 30.3388 37.9222 30.2668 38.0476 30.1228C38.1754 29.9761 38.2394 29.716 38.2394 29.3427C38.2394 28.9606 38.1779 28.681 38.0552 28.504C37.9327 28.3268 37.7397 28.2382 37.4764 28.2382H37.3651V30.3388ZM36.5679 27.5117H37.6183C38.1243 27.5117 38.4923 27.6503 38.7223 27.9268C38.9523 28.2064 39.0674 28.6493 39.0674 29.2554C39.0674 30.1075 38.836 30.6588 38.3736 30.9076C38.141 31.0208 37.8048 31.0776 37.3651 31.0776V33.9211H36.5679V27.5117Z" fill="#E6E6DD"/>
<path d="M44.7213 32.0032L44.5448 30.9825C44.4271 30.2873 44.3315 29.5455 44.2573 28.757C44.2215 29.1417 44.1754 29.5314 44.1193 29.9254C44.0631 30.32 43.9966 30.7387 43.9198 31.1815L43.7742 32.0032H44.7213ZM43.9584 27.5117H44.5795L45.8483 33.9211H45.0584L44.8363 32.6716H43.6631L43.4367 33.9211H42.6702L43.9584 27.5117Z" fill="#E6E6DD"/>
<path d="M49.7861 27.5117H50.5298L51.3235 30.069C51.5536 30.7912 51.7566 31.5621 51.933 32.3814C51.8692 31.886 51.8221 31.4376 51.7912 31.0361C51.7606 30.6348 51.7454 30.257 51.7454 29.9028V27.5117H52.5465V33.9211H51.7988L50.9055 31.0361C50.8239 30.7675 50.7465 30.4923 50.6738 30.2101C50.6009 29.9276 50.5336 29.6317 50.4724 29.3217C50.4671 29.2829 50.459 29.2361 50.4476 29.1807C50.4359 29.1255 50.4223 29.0618 50.4073 28.9897C50.4149 29.0618 50.4213 29.1231 50.4266 29.1744C50.4315 29.2257 50.4353 29.2694 50.4378 29.305L50.48 29.9569L50.5222 30.7495C50.5245 30.794 50.5267 30.8481 50.5281 30.9114C50.5292 30.9753 50.5298 31.0473 50.5298 31.1275L50.5722 33.9211H49.7861V27.5117Z" fill="#E6E6DD"/>
<path d="M56.9526 27.5117H59.0723V28.2423H57.7499V30.2723H58.9228V31.0028H57.7499V33.1908H59.0723V33.9211H56.9526V27.5117Z" fill="#E6E6DD"/>
<path d="M65.5908 27.6445V28.4872C65.3479 28.2989 65.1291 28.2048 64.9351 28.2048C64.7257 28.2048 64.5539 28.2852 64.4214 28.4454C64.2883 28.5979 64.222 28.8013 64.222 29.0558C64.222 29.2798 64.2692 29.472 64.3638 29.6328C64.4121 29.7186 64.4922 29.8293 64.6033 29.965C64.7148 30.1004 64.8583 30.2635 65.0345 30.4547C65.3591 30.8117 65.5804 31.1203 65.6983 31.3804C65.8157 31.6325 65.8744 31.941 65.8744 32.3061C65.8744 32.8017 65.7453 33.2097 65.4871 33.5307C65.229 33.8436 64.8978 33.9999 64.494 33.9999C64.1543 33.9999 63.8639 33.8989 63.6241 33.6969V32.8419C63.9078 33.0658 64.1658 33.1782 64.3981 33.1782C64.6154 33.1782 64.7856 33.0997 64.9081 32.9431C65.0309 32.787 65.0922 32.5746 65.0922 32.3061C65.0922 32.0737 65.0451 31.8648 64.9503 31.6793C64.902 31.5908 64.8342 31.489 64.7473 31.3745C64.6601 31.2594 64.5518 31.1316 64.4214 30.9899C64.2194 30.7746 64.052 30.5834 63.9188 30.4174C63.7863 30.2512 63.6877 30.1059 63.6241 29.9813C63.5011 29.7377 63.4397 29.431 63.4397 29.0598C63.4397 28.5588 63.56 28.1617 63.8003 27.8686C64.043 27.5722 64.3689 27.4244 64.7776 27.4244C65.0614 27.4244 65.3321 27.4978 65.5908 27.6445Z" fill="#E6E6DD"/>
<path d="M70.2964 27.5117H72.4163V28.2423H71.0939V30.2723H72.2668V31.0028H71.0939V33.1908H72.4163V33.9211H70.2964V27.5117Z" fill="#E6E6DD"/>
<path d="M82.0999 27.5117H84.2315V28.2423H82.8975V30.2682H84.1011V30.9988H82.8975V33.9211H82.0999V27.5117Z" fill="#E6E6DD"/>
<path d="M90.6022 30.9653C90.6022 29.8557 90.5566 29.1196 90.4643 28.7569C90.3722 28.3914 90.1845 28.2091 89.9009 28.2091C89.6172 28.2091 89.4281 28.3766 89.3336 28.7111C89.2414 29.049 89.1952 29.727 89.1952 30.7454C89.1952 31.6834 89.2439 32.3337 89.3412 32.6964C89.4408 33.0393 89.6272 33.2113 89.9009 33.2113C90.1691 33.2113 90.3533 33.0506 90.4527 32.7296C90.5526 32.4114 90.6022 31.8231 90.6022 30.9653ZM91.4381 30.8739C91.4381 32.0059 91.3221 32.8098 91.0891 33.2857C90.8566 33.7618 90.4667 33.9999 89.9198 33.9999C89.3447 33.9999 88.9395 33.7437 88.7048 33.2316C88.472 32.731 88.3557 31.8414 88.3557 30.5627C88.3557 29.4226 88.4708 28.6159 88.7008 28.1428C88.9332 27.6664 89.327 27.4283 89.8818 27.4283C90.3772 27.4283 90.7457 27.6126 90.9859 27.9808C91.1444 28.2272 91.2595 28.5769 91.3308 29.031C91.4025 29.4515 91.4381 30.0662 91.4381 30.8739Z" fill="#E6E6DD"/>
<path d="M98.0405 30.9653C98.0405 29.8557 97.9947 29.1196 97.9026 28.7569C97.8104 28.3914 97.6228 28.2091 97.3392 28.2091C97.0555 28.2091 96.8664 28.3766 96.7718 28.7111C96.6797 29.049 96.6334 29.727 96.6334 30.7454C96.6334 31.6834 96.682 32.3337 96.7794 32.6964C96.8791 33.0393 97.0654 33.2113 97.3392 33.2113C97.6073 33.2113 97.7915 33.0506 97.891 32.7296C97.9908 32.4114 98.0405 31.8231 98.0405 30.9653ZM98.8763 30.8739C98.8763 32.0059 98.7603 32.8098 98.5273 33.2857C98.2948 33.7618 97.9049 33.9999 97.358 33.9999C96.7829 33.9999 96.3778 33.7437 96.1431 33.2316C95.9101 32.731 95.7939 31.8414 95.7939 30.5627C95.7939 29.4226 95.909 28.6159 96.1391 28.1428C96.3714 27.6664 96.7653 27.4283 97.32 27.4283C97.8155 27.4283 98.1839 27.6126 98.4242 27.9808C98.5827 28.2272 98.6978 28.5769 98.7691 29.031C98.8407 29.4515 98.8763 30.0662 98.8763 30.8739Z" fill="#E6E6DD"/>
<path d="M104.099 33.166C104.585 33.166 104.909 33.0068 105.073 32.6882C105.242 32.3701 105.326 31.7518 105.326 30.833C105.326 29.8447 105.245 29.1655 105.084 28.7945C104.924 28.424 104.628 28.2383 104.199 28.2383H104.099V33.166ZM103.302 27.5117H104.283C104.582 27.5117 104.834 27.5478 105.039 27.6201C105.227 27.689 105.396 27.8124 105.544 27.9894C105.767 28.2552 105.925 28.601 106.02 29.027C106.115 29.4392 106.162 30.0302 106.162 30.7997C106.162 31.5054 106.109 32.0808 106.004 32.5262C105.902 32.9527 105.733 33.2778 105.499 33.5022C105.209 33.7814 104.692 33.9213 103.946 33.9213H103.302V27.5117Z" fill="#E6E6DD"/>
<path fill-rule="evenodd" clip-rule="evenodd" d="M106.083 4.78003H97.1626V5.92666H106.083V4.78003Z" fill="#E6E6DD"/>
<path fill-rule="evenodd" clip-rule="evenodd" d="M106.083 9.61038H102.025V7.75633H106.083V6.6095H97.1626V7.75633H101.068V9.61038H97.1626V10.7572H106.083V9.61038Z" fill="#E6E6DD"/>
<path fill-rule="evenodd" clip-rule="evenodd" d="M103.704 14.4011V15.5476H104.093C104.374 15.5476 104.647 15.4955 104.904 15.3789C105.151 15.2666 105.371 15.1136 105.56 14.9193C105.754 14.7201 105.898 14.4858 105.999 14.2277C106.11 13.9486 106.159 13.655 106.159 13.3556C106.159 13.0009 106.112 12.6288 105.963 12.3036C105.839 12.0337 105.666 11.7979 105.429 11.6168C105.193 11.4358 104.915 11.322 104.627 11.2528C104.285 11.1707 103.932 11.1368 103.581 11.1368C103.289 11.1368 102.994 11.1497 102.704 11.1887C102.474 11.2196 102.247 11.278 102.037 11.3766C101.848 11.4787 101.686 11.6177 101.551 11.7849C101.386 11.988 101.266 12.2377 101.176 12.4813L100.778 13.5092C100.721 13.6566 100.652 13.8123 100.563 13.9435C100.491 14.0504 100.4 14.1407 100.287 14.2041C100.176 14.2662 100.055 14.3011 99.9296 14.315C99.7784 14.3317 99.6228 14.3351 99.4708 14.3351C99.3166 14.3351 99.1626 14.3222 99.0109 14.2939C98.8644 14.2666 98.7248 14.2157 98.5987 14.1357L98.5973 14.1348L98.5959 14.1339C98.4783 14.0535 98.3844 13.949 98.3112 13.827C98.2222 13.6786 98.1948 13.4998 98.1948 13.3292C98.1948 13.0073 98.2864 12.7021 98.565 12.517C98.8138 12.3517 99.0972 12.2837 99.394 12.2837H99.5904V11.1368H99.048C98.5222 11.1368 98.0821 11.3466 97.7093 11.7134C97.5154 11.9131 97.3662 12.1453 97.2559 12.4004C97.1358 12.6784 97.0845 12.9745 97.0845 13.2764C97.0845 13.6092 97.1328 13.9511 97.274 14.2552C97.3941 14.5138 97.559 14.7425 97.779 14.9252L97.7799 14.926L97.7808 14.9267C98.0023 15.1195 98.2605 15.2536 98.5399 15.3414C98.846 15.4375 99.1629 15.4818 99.4835 15.4818C99.9513 15.4818 100.446 15.4149 100.866 15.1967C101.295 14.9738 101.562 14.5161 101.736 14.0824L102.12 13.1216C102.177 12.9802 102.241 12.8377 102.319 12.7066C102.384 12.5955 102.471 12.5024 102.579 12.4314L102.582 12.4293L102.585 12.4276C102.708 12.359 102.855 12.3264 102.994 12.3105C103.191 12.2878 103.395 12.2837 103.594 12.2837C103.782 12.2837 103.971 12.2886 104.158 12.3035C104.323 12.3167 104.486 12.3576 104.629 12.4419C104.767 12.5226 104.871 12.636 104.942 12.7785C105.028 12.9498 105.049 13.1665 105.049 13.3556C105.049 13.6597 104.976 13.9723 104.722 14.1641C104.513 14.3213 104.277 14.4011 104.016 14.4011H103.704Z" fill="#E6E6DD"/>
<path fill-rule="evenodd" clip-rule="evenodd" d="M97.1626 15.9272V17.0741H104.004C104.286 17.0741 104.588 17.1306 104.792 17.3405C104.969 17.5229 105.05 17.7478 105.05 18.0011C105.05 18.2543 104.969 18.4791 104.792 18.6614C104.588 18.8715 104.286 18.9281 104.004 18.9281H97.1626V20.0752H104.132C104.405 20.0752 104.669 20.0248 104.918 19.9124C105.16 19.8027 105.375 19.6504 105.56 19.4596C105.748 19.2667 105.895 19.0455 106.001 18.7982C106.11 18.5448 106.16 18.2766 106.16 18.0011C106.16 17.7231 106.109 17.453 106.001 17.1968C105.896 16.9472 105.749 16.7237 105.56 16.5295C105.376 16.3395 105.162 16.1896 104.919 16.0838C104.669 15.975 104.404 15.9272 104.132 15.9272H97.1626Z" fill="#E6E6DD"/>
<path fill-rule="evenodd" clip-rule="evenodd" d="M102.037 20.695C101.848 20.7975 101.686 20.9362 101.551 21.1035C101.386 21.3066 101.267 21.5562 101.176 21.7999L100.778 22.828C100.721 22.9753 100.652 23.1308 100.564 23.2619C100.491 23.3689 100.4 23.4594 100.287 23.5228C100.176 23.5847 100.055 23.6198 99.9296 23.6336C99.7783 23.6502 99.6228 23.6538 99.4708 23.6538C99.3166 23.6538 99.1626 23.6408 99.011 23.6125C98.8643 23.5852 98.7246 23.5344 98.5985 23.454L98.5972 23.4531L98.5959 23.4522C98.4783 23.3719 98.3844 23.2676 98.3112 23.1456C98.2223 22.9973 98.1949 22.8184 98.1949 22.6478C98.1949 22.3259 98.2866 22.0213 98.5649 21.8359C98.8136 21.6702 99.0972 21.6023 99.3941 21.6023H99.5905V20.4552H99.0481C98.5222 20.4552 98.0821 20.6654 97.7093 21.0323C97.5152 21.2318 97.3663 21.4641 97.2559 21.7193C97.1358 21.9972 97.0845 22.2933 97.0845 22.5952C97.0845 22.9279 97.1328 23.2699 97.274 23.5737C97.3943 23.8325 97.559 24.0612 97.7791 24.2441L97.78 24.2448L97.7807 24.2455C98.0025 24.438 98.2605 24.5725 98.54 24.6603C98.846 24.7564 99.1631 24.8002 99.4836 24.8002C99.9512 24.8002 100.447 24.7335 100.866 24.5153C101.295 24.2923 101.562 23.835 101.736 23.401L102.12 22.4401C102.177 22.2988 102.241 22.1562 102.319 22.025C102.384 21.914 102.472 21.8206 102.58 21.7498L102.582 21.7479L102.586 21.7462C102.708 21.6775 102.855 21.6451 102.994 21.6291C103.191 21.6063 103.395 21.6023 103.594 21.6023C103.782 21.6023 103.971 21.6072 104.159 21.6221C104.323 21.6353 104.486 21.6761 104.629 21.7605C104.767 21.8414 104.871 21.9546 104.942 22.0971C105.028 22.2685 105.049 22.4848 105.049 22.674C105.049 22.9782 104.976 23.2907 104.722 23.4828C104.513 23.6399 104.277 23.7195 104.016 23.7195H103.704V24.8661H104.093C104.374 24.8661 104.647 24.8139 104.904 24.6971C105.151 24.5847 105.371 24.432 105.56 24.2377C105.754 24.0385 105.898 23.8044 106 23.5463C106.11 23.267 106.159 22.9737 106.159 22.674C106.159 22.3193 106.112 21.9474 105.963 21.6223C105.839 21.3522 105.666 21.1165 105.429 20.9354C105.193 20.7543 104.915 20.6406 104.627 20.5715C104.285 20.4894 103.932 20.4552 103.581 20.4552C103.289 20.4552 102.994 20.4684 102.704 20.5075C102.475 20.5385 102.247 20.5966 102.037 20.695Z" fill="#E6E6DD"/>
</svg>
