<svg width="127" height="32" viewBox="0 0 127 32" fill="none" xmlns="http://www.w3.org/2000/svg">
<path fill-rule="evenodd" clip-rule="evenodd" d="M16.6865 0C25.5502 0 32.7355 7.16346 32.7355 16C32.7355 24.8365 25.5502 32 16.6865 32C7.82301 32 0.637695 24.8365 0.637695 16C0.637695 7.16346 7.82301 0 16.6865 0Z" fill="#E6E6DD"/>
<path fill-rule="evenodd" clip-rule="evenodd" d="M16.6865 0C17.585 0 18.4658 0.0747981 19.3241 0.216272C20.1202 0.703095 19.9837 1.55397 19.4255 2.65837C18.1392 5.20364 15.6362 7.76277 13.634 9.75587C11.8775 11.5043 5.02324 18.0562 2.85491 18.7277C1.898 19.0241 1.14539 18.2717 0.658706 16.8249C0.644769 16.5516 0.637695 16.2767 0.637695 16C0.637695 7.16347 7.82301 0 16.6865 0Z" fill="url(#paint0_linear_508_1272)"/>
<path d="M77.739 19.1862C77.7144 17.6681 77.0555 16.8502 75.5744 16.4685C74.2501 16.127 72.9038 16.0929 71.5931 16.4799C70.9178 16.6793 70.2991 17.0698 69.6657 17.3687C67.4316 15.7016 65.0718 15.9805 62.6547 17.1275C62.6334 16.881 62.6145 16.6611 62.5937 16.4225H61.294V17.0207C61.294 19.1836 61.2871 21.3464 61.297 23.5087C61.3012 24.4378 61.1072 24.3535 62.1696 24.3741C62.5219 24.3808 62.6396 24.2647 62.6342 23.9049C62.6148 22.6348 62.6228 21.3642 62.6282 20.0936C62.6334 18.9006 63.1507 18.1288 64.2592 17.6775C65.213 17.289 66.204 17.2639 67.1958 17.4759C68.4237 17.7382 68.8371 18.2777 68.8375 19.5277C68.8378 20.8586 68.8279 22.1895 68.8408 23.5205C68.8504 24.4488 68.6344 24.347 69.7177 24.3755C70.1051 24.3862 70.2425 24.2779 70.2353 23.8677C70.2104 22.4763 70.2248 21.0851 70.2263 19.6937C70.2278 18.6575 70.5975 18.087 71.5582 17.7174C72.6129 17.3118 73.7046 17.235 74.8057 17.4888C75.9535 17.7536 76.3646 18.2948 76.3654 19.4726C76.3661 20.8039 76.3658 22.1345 76.3658 23.4654C76.3658 24.4047 76.3654 24.3935 77.3279 24.3751C77.6414 24.3691 77.7523 24.2627 77.7505 23.9501C77.7402 22.3625 77.7649 20.7739 77.739 19.1862Z" fill="#E6E6DD"/>
<path d="M126.107 17.3522C126.101 16.3403 126.318 16.4551 125.152 16.4331C124.815 16.4269 124.711 16.5375 124.716 16.8771C124.735 18.1777 124.725 19.4785 124.723 20.7795C124.721 22.1151 124.107 22.9761 122.828 23.378C121.635 23.7532 120.418 23.7612 119.206 23.4771C117.92 23.1751 117.504 22.6228 117.504 21.3082C117.503 19.9317 117.51 18.5552 117.501 17.179C117.497 16.4065 117.663 16.4623 116.741 16.4296C116.293 16.4137 116.136 16.5413 116.144 17.0115C116.173 18.5237 116.149 20.0366 116.157 21.549C116.166 22.9605 116.728 23.8611 118.067 24.3101C120.25 25.0428 122.421 25.0724 124.488 23.8656C124.544 23.8333 124.616 23.8288 124.741 23.7946C124.711 24.051 124.71 24.2629 124.659 24.4623C124.446 25.2946 123.808 25.6848 123.055 25.9038C121.756 26.2822 120.428 26.2852 119.105 26.0671C118.119 25.9046 117.281 25.508 117.027 24.3959C117.005 24.3036 116.845 24.1886 116.742 24.1802C116.399 24.1532 116.053 24.1699 115.679 24.1699C115.678 25.5115 116.482 26.5246 117.89 26.9458C119.635 27.4669 121.409 27.4544 123.174 27.071C125.231 26.6244 126.176 25.5726 126.121 23.3871C126.071 21.3767 126.118 19.3638 126.107 17.3522Z" fill="#E6E6DD"/>
<path d="M87.4885 23.1946C86.7415 23.4795 85.9627 23.742 85.0714 23.742C84.1806 23.742 83.3968 23.4643 82.5971 23.1858C81.4254 22.7776 80.8347 21.8569 80.7744 20.625C80.7156 19.4301 81.2689 18.5465 82.3154 18.0193C84.009 17.1667 85.7732 17.0998 87.5215 17.8149C88.7134 18.3024 89.3709 19.2181 89.345 20.5654C89.3203 21.8724 88.6556 22.7494 87.4885 23.1946ZM88.1247 16.7883C85.7056 15.8987 83.278 15.8889 81.015 17.3778C80.96 17.4143 80.8848 17.42 80.7873 17.4496C80.7713 17.0887 80.7569 16.764 80.741 16.397C80.4442 16.397 80.1876 16.4206 79.9367 16.3918C79.5415 16.3455 79.4205 16.4826 79.4224 16.8893C79.4384 20.1399 79.4311 23.3906 79.4326 26.6412C79.433 26.8 79.4538 26.9591 79.4649 27.1107H80.7728V23.5289C81.3494 23.8248 81.8216 24.1388 82.3397 24.3197C84.2129 24.9741 86.1076 24.9555 87.9721 24.2954C89.1241 23.8879 90.0581 23.1672 90.4636 21.9591C91.1472 19.9234 90.5622 17.6843 88.1247 16.7883Z" fill="#E6E6DD"/>
<path d="M99.7874 22.7583C98.044 23.6342 96.2388 23.6707 94.4423 22.9544C93.3423 22.5156 92.6846 21.672 92.6705 20.4493C92.6573 19.2513 93.2876 18.4331 94.3281 17.9015C95.1564 17.4783 96.9034 17.3264 97.3688 17.3426C97.8341 17.3589 98.7648 17.5758 99.6033 17.8823C100.676 18.2747 101.256 19.1241 101.303 20.2814C101.35 21.4351 100.786 22.2565 99.7874 22.7583ZM102.636 16.5944C102.632 16.466 102.488 16.2484 102.387 16.2342C102.05 16.1887 101.703 16.2171 101.319 16.2171V17.544C100.118 16.6168 98.8472 16.3023 97.5005 16.2442C95.9371 16.1773 94.4423 16.4003 93.0645 17.226C90.7443 18.617 90.66 22.2759 93.1328 23.5886C95.745 24.975 98.3849 24.9739 100.97 23.4427C101.055 23.3922 101.146 23.3509 101.284 23.2794C101.303 23.6821 101.32 24.0315 101.339 24.4087C101.544 24.4087 101.693 24.4111 101.842 24.4083C102.738 24.3924 102.645 24.5504 102.647 23.6252C102.652 22.007 102.649 20.3894 102.649 18.7712C102.649 18.0454 102.661 17.3192 102.636 16.5944Z" fill="#E6E6DD"/>
<path d="M46.6119 21.5984C46.3071 22.3825 45.7219 22.8956 44.9141 23.1003C44.3182 23.2511 43.7044 23.3757 43.0927 23.4095C41.8905 23.4764 40.7081 23.343 39.6291 22.7403C38.731 22.2388 38.2812 21.4728 38.3018 20.4366C38.3275 19.166 39.1276 18.1883 40.5757 17.7109C41.774 17.3159 43.005 17.2604 44.245 17.4578C45.3279 17.6303 46.1629 18.1575 46.6161 19.1987C46.6382 19.2496 46.6921 19.286 46.741 19.3399C47.1296 19.2005 47.5088 19.0642 47.9412 18.9089C47.4872 17.797 46.7535 17.0598 45.6877 16.6732C44.3064 16.1718 42.882 16.1395 41.4438 16.3363C40.4619 16.4707 39.5467 16.7901 38.6885 17.2998C36.4487 18.6293 36.2324 22.2826 38.7994 23.6496C39.1444 23.8334 39.5019 24.0043 39.8701 24.1327C41.2115 24.5995 42.609 24.6614 43.9873 24.4632C44.8355 24.3409 45.684 24.037 46.4628 23.6678C47.2735 23.2838 47.7605 22.5416 48.0646 21.6501C47.7264 21.5469 47.433 21.4781 47.1563 21.3667C46.878 21.2551 46.7299 21.2953 46.6119 21.5984Z" fill="#E6E6DD"/>
<path d="M114.422 19.4015C114.422 17.9821 113.944 17.2517 112.622 16.737C111.025 16.1144 109.377 16.0749 107.727 16.4586C107.096 16.6051 106.502 16.9052 105.867 17.1441C105.837 16.9131 105.806 16.6694 105.773 16.4153H104.485V16.9983C104.485 19.1774 104.478 21.3561 104.488 23.5348C104.492 24.4313 104.295 24.351 105.338 24.3754C105.713 24.3841 105.837 24.258 105.831 23.8821C105.812 22.6567 105.84 21.4305 105.819 20.2056C105.799 19.0524 106.328 18.2571 107.361 17.8229C108.825 17.2084 110.33 17.1768 111.825 17.7059C112.752 18.0333 113.079 18.5503 113.082 19.5276C113.085 20.8438 113.076 22.1602 113.085 23.4764C113.093 24.4484 112.919 24.3515 113.98 24.3754C114.349 24.3838 114.433 24.2386 114.429 23.8953C114.413 22.3973 114.422 20.8996 114.422 19.4015Z" fill="#E6E6DD"/>
<path d="M57.2602 22.8396C57.1477 22.8961 57.0343 22.947 56.9196 22.9934C56.1183 23.3178 55.27 23.4043 54.4088 23.4392C53.6474 23.4135 52.8947 23.3462 52.1766 23.1142C51.937 23.0371 51.7013 22.941 51.4705 22.8224C50.4807 22.3134 49.8742 21.5484 49.8782 20.3923C49.8824 19.2194 50.478 18.4061 51.515 17.9503C53.4029 17.1203 55.3288 17.1235 57.2221 17.9176C58.2803 18.3621 58.8877 19.1977 58.8907 20.3881C58.8937 21.5618 58.2724 22.3301 57.2602 22.8396ZM58.2833 17.131C57.2232 16.5183 56.0587 16.2869 54.8571 16.2399C53.2971 16.1787 51.7833 16.3851 50.4086 17.2001C49.115 17.967 48.4447 19.0916 48.516 20.6129C48.5828 22.0445 49.326 23.0412 50.5612 23.7071C51.7495 24.3479 53.0321 24.5582 54.0148 24.5468C55.8652 24.5465 57.0718 24.2969 58.0898 23.7599C59.0144 23.2722 59.7501 22.6075 60.0788 21.5735C60.6416 19.8047 59.9512 18.0951 58.2833 17.131Z" fill="#E6E6DD"/>
<path d="M44.987 13.2652C41.4017 13.2652 38.9128 11.9444 38.9128 9.27115C38.9128 6.59828 41.4017 5.2776 44.987 5.2776C48.572 5.2776 51.0608 6.59828 51.0608 9.27115C51.0608 11.9444 48.572 13.2652 44.987 13.2652ZM44.987 3.79626C40.0671 3.79626 36.9789 5.90583 36.9789 9.27115C36.9789 12.6369 40.0671 14.746 44.987 14.746C49.9069 14.746 52.995 12.6369 52.995 9.27115C52.995 5.90583 49.9069 3.79626 44.987 3.79626Z" fill="#E6E6DD"/>
<path d="M59.1968 13.1034H55.2425V5.43797H59.1968C63.1484 5.43797 65.7417 6.694 65.7417 9.27044C65.7417 11.8472 63.1484 13.1034 59.1968 13.1034ZM58.9873 3.95691H53.413V14.5844H58.9873C64.4044 14.5844 67.6755 12.6844 67.6755 9.27044C67.6755 5.85686 64.4044 3.95691 58.9873 3.95691Z" fill="#E6E6DD"/>
<path d="M76.102 13.2651C72.5166 13.2651 70.0278 11.9443 70.0278 9.27103C70.0278 6.59816 72.5166 5.27748 76.102 5.27748C79.6874 5.27748 82.1758 6.59816 82.1758 9.27103C82.1758 11.9443 79.6874 13.2651 76.102 13.2651ZM76.102 3.79614C71.1817 3.79614 68.094 5.90571 68.094 9.27103C68.094 12.6368 71.1817 14.7459 76.102 14.7459C81.022 14.7459 84.1101 12.6368 84.1101 9.27103C84.1101 5.90571 81.022 3.79614 76.102 3.79614Z" fill="#E6E6DD"/>
<path d="M110.635 3.95691H98.084H97.5602H96.0951V11.4086H96.0917V12.5402L87.1188 3.95691H84.5282V14.5848H86.5171V7.08074L86.5137 7.02485V5.99525L95.493 14.5848H98.084V5.71181H103.315V14.5848H105.145V5.71181H110.635V3.95691Z" fill="#E6E6DD"/>
<path d="M118.077 13.2651C114.492 13.2651 112.003 11.9443 112.003 9.27103C112.003 6.59816 114.492 5.27748 118.077 5.27748C121.663 5.27748 124.151 6.59816 124.151 9.27103C124.151 11.9443 121.663 13.2651 118.077 13.2651ZM118.077 3.79614C113.158 3.79614 110.069 5.90571 110.069 9.27103C110.069 12.6368 113.158 14.7459 118.077 14.7459C122.997 14.7459 126.085 12.6368 126.085 9.27103C126.085 5.90571 122.997 3.79614 118.077 3.79614Z" fill="#E6E6DD"/>
<path d="M25.8384 8.37341C25.7199 9.79452 25.5854 11.2198 25.3479 12.6244C24.8344 15.6591 24.0029 18.6085 22.706 21.4101C22.0182 22.8953 21.2113 24.3094 20.0808 25.5103C19.2703 26.3706 18.3548 27.058 17.1479 27.2723C16.4549 27.3962 15.8214 27.2188 15.2086 26.9432C14.0049 26.4031 13.1 25.4984 12.3058 24.4756C10.6974 22.4 9.65369 20.0392 8.86473 17.5548C7.90698 14.5443 7.40489 11.4614 7.4572 8.29651C7.46309 7.93933 7.50084 7.57199 7.59462 7.2293C7.82882 6.378 8.40809 5.92837 9.27892 6.01354C10.644 6.14717 12.0021 6.35853 13.3624 6.53447C14.5375 6.68694 15.7088 6.87274 16.888 6.97696C17.9267 7.06835 18.9281 6.81286 19.9036 6.46303C20.0255 6.41932 20.1489 6.37716 20.2715 6.3343C20.0026 7.00294 19.532 7.44977 18.9141 7.74813C17.9537 8.21149 16.9167 8.35835 15.8778 8.3613C14.3982 8.36487 12.9144 8.30289 11.4379 8.19279C9.94217 8.0808 9.21372 8.69628 9.17023 10.2119C9.11679 12.1015 9.47867 13.93 9.97193 15.737C10.6539 18.2327 11.5781 20.6325 12.9412 22.8406C13.3466 23.497 13.8337 24.1058 14.3169 24.7098C14.5473 24.9992 14.8439 25.2401 15.1287 25.4807C15.9935 26.2104 16.9051 26.342 17.934 25.7757C18.9432 25.2196 19.7445 24.4588 20.4039 23.5341C21.4942 22.0047 22.1841 20.2862 22.7179 18.5C23.5077 15.8555 23.9317 13.1444 24.1194 10.3966C24.1858 9.42214 23.7134 9.04303 22.7573 9.33165C21.8661 9.60059 21.0029 9.96072 20.1291 10.2847C18.9183 10.7336 17.7342 11.278 16.4946 11.6151C14.8272 12.0677 13.3742 10.9854 13.2405 9.29229C13.5984 9.35147 13.9466 9.41528 14.2971 9.4643C15.8848 9.6866 17.4099 9.38236 18.8906 8.84707C20.1056 8.40808 21.2926 7.88974 22.5004 7.42722C23.1985 7.15996 23.9089 6.93164 24.6801 7.05022C25.436 7.16585 25.9008 7.61646 25.8384 8.37341Z" fill="#121212"/>
<defs>
<linearGradient id="paint0_linear_508_1272" x1="4.82406" y1="4.81792" x2="11.1244" y2="12.1375" gradientUnits="userSpaceOnUse">
<stop stop-color="#232323" stop-opacity="0.5"/>
<stop offset="1" stop-color="#E6E6DD"/>
</linearGradient>
</defs>
</svg>
