<svg width="114" height="32" viewBox="0 0 114 32" fill="none" xmlns="http://www.w3.org/2000/svg">
<path d="M112.66 22.2676L112.427 21.931H112.413H112.17V22.2676H111.89V21.0599H112.413C112.736 21.0599 112.938 21.2269 112.938 21.4976C112.938 21.6792 112.846 21.8122 112.689 21.8793L112.96 22.2676H112.66ZM112.398 21.2874H112.17V21.7085H112.398C112.569 21.7085 112.655 21.629 112.655 21.4976C112.655 21.3651 112.569 21.2874 112.398 21.2874ZM112.352 23.0534C111.609 23.0534 111.006 22.4499 111.006 21.708C111.006 20.9663 111.609 20.3627 112.352 20.3627C113.093 20.3627 113.697 20.9663 113.697 21.708C113.697 22.4499 113.093 23.0534 112.352 23.0534ZM112.352 20.612C111.747 20.612 111.255 21.1039 111.255 21.708C111.255 22.3125 111.747 22.8039 112.352 22.8039C112.956 22.8039 113.448 22.3125 113.448 21.708C113.448 21.1039 112.956 20.612 112.352 20.612ZM75.7176 7.21157C76.42 6.36134 76.8929 5.17754 76.7638 4.00024C75.7514 4.04037 74.527 4.67447 73.8011 5.52451C73.15 6.27644 72.5806 7.48095 72.7341 8.63498C73.8623 8.72263 75.0151 8.06151 75.7176 7.21157ZM76.0494 9.48048C75.9127 9.49961 75.8111 9.61595 75.8111 9.75419V10.0141C75.8111 10.3204 75.5629 10.6037 75.257 10.6459L72.9223 10.9748C72.6163 11.0177 72.3686 10.8047 72.3686 10.4988V10.3162C72.3686 10.1479 72.2195 10.018 72.0533 10.042L71.7451 10.0854C71.1336 10.1711 70.6372 10.7364 70.6372 11.3491V22.2896C70.6372 22.901 71.1336 23.3274 71.7451 23.2414L76.4345 22.5823C77.0464 22.4966 77.5423 21.9308 77.5423 21.3188V10.3776C77.5423 9.76671 77.0464 9.34017 76.4345 9.42634L76.0494 9.48048ZM105.738 17.5499V18.7089C105.339 19.7627 104.373 20.3658 103.082 20.3658C101.851 20.3658 101.087 19.8172 101.087 18.9336C101.087 18.0027 101.803 17.5499 103.278 17.5499H105.738ZM103.376 9.37645C101.188 9.37645 99.0309 9.98244 97.6061 10.9972L97.4942 11.0768L99.0157 14.0373L99.1667 13.918C100.09 13.1844 101.506 12.7286 102.862 12.7286C104.707 12.7286 105.673 13.4943 105.735 15.0061H102.862C99.1139 15.0061 97.05 16.4619 97.05 19.105C97.05 21.5854 99.0905 23.2522 102.128 23.2522C103.866 23.2522 105.187 22.7395 105.983 21.7614V23.0568H109.873V15.3848C109.873 11.4538 107.626 9.37645 103.376 9.37645ZM91.2497 16.3147C91.2497 18.4009 89.9661 19.8029 88.0552 19.8029C86.1446 19.8029 84.8605 18.4009 84.8605 16.3147C84.8605 14.2278 86.1446 12.8263 88.0552 12.8263C89.9661 12.8263 91.2497 14.2278 91.2497 16.3147ZM88.716 9.37645C87.1522 9.37645 85.8739 9.83523 84.9097 10.7396V4.57992H80.7753V23.0568H84.7383V21.7911C85.6997 22.7611 87.0355 23.2522 88.716 23.2522C92.6711 23.2522 95.4334 20.3997 95.4334 16.3147C95.4334 12.23 92.6711 9.37645 88.716 9.37645ZM63.3191 15.8985C63.3191 17.7076 61.9648 18.971 60.0261 18.971C58.0733 18.971 56.7092 17.7076 56.7092 15.8985C56.7092 14.0895 58.0733 12.8263 60.0261 12.8263C61.9648 12.8263 63.3191 14.0895 63.3191 15.8985ZM63.4658 9.57276V10.9943C62.4648 9.93423 61.0234 9.37645 59.2678 9.37645C55.361 9.37645 52.5258 12.1195 52.5258 15.8985C52.5258 19.6773 55.361 22.4204 59.2678 22.4204C60.9014 22.4204 62.2759 21.9337 63.2699 21.0073V21.1851C63.2699 23.5321 62.0919 24.6248 59.5614 24.6248C57.8985 24.6248 56.1114 24.0526 55.0106 23.1667L54.8639 23.0483L53.1895 26.0727L53.2968 26.1557C54.8038 27.3285 57.1943 28.0002 59.8556 28.0002C64.8646 28.0002 67.4049 25.543 67.4049 20.6959V9.57276H63.4658ZM51.4374 10.0074L44.786 24.7245C43.7433 27.1072 42.4531 27.8766 40.7404 27.8766C39.5745 27.8766 38.4819 27.4797 37.7375 26.7104L38.3578 25.7673C39.0281 26.4626 39.7974 26.7851 40.7654 26.7851C41.9567 26.7851 42.825 26.239 43.6197 24.4765L44.314 22.9134L38.4819 10.0074H39.7974L44.9845 21.5981L50.1715 10.0074H51.4374ZM35.7763 10.0074V22.9628H34.5853V20.1835C33.7414 21.995 31.9791 23.062 29.696 23.062C26.3951 23.062 24.2855 21.2007 24.2855 17.5774V10.0074H25.5263V17.4774C25.5263 20.4063 27.0905 21.9451 29.7952 21.9451C32.724 21.9451 34.5356 19.9847 34.5356 16.9076V10.0074H35.7763ZM19.3466 16.4853C19.3466 13.2343 17.0881 11.0251 14.1103 11.0251C11.1319 11.0251 8.89822 13.2343 8.89822 16.4853C8.89822 19.7364 11.1319 21.9451 14.1103 21.9451C17.0881 21.9451 19.3466 19.7364 19.3466 16.4853ZM20.5878 16.4853C20.5878 20.3569 17.8333 23.062 14.1846 23.062C11.8521 23.062 9.89093 21.8961 8.87328 19.9099V22.9628H7.68198V4.54748H8.92277V12.9612C9.96587 11.0252 11.9011 9.90821 14.1846 9.90821C17.8333 9.90821 20.5878 12.5888 20.5878 16.4853ZM1.20461 10.0074H2.4453V22.9628H1.20461V10.0074ZM0.807251 5.86301C0.807251 5.31666 1.25431 4.84546 1.82501 4.84546C2.39591 4.84546 2.84286 5.29172 2.84286 5.83807C2.84286 6.40897 2.39591 6.85543 1.82501 6.85543C1.25431 6.85543 0.807251 6.40896 0.807251 5.86301Z" fill="#E6E6DD"/>
</svg>
