<svg width="89" height="32" viewBox="0 0 89 32" fill="none" xmlns="http://www.w3.org/2000/svg">
<path d="M13.3866 18.8933C13.1824 18.5796 12.9652 18.285 12.7344 18.0114C12.5027 17.737 12.2601 17.4982 12.0044 17.2933C11.7489 17.0874 11.48 16.9391 11.1966 16.8489L11.2006 16.7942C11.8832 16.6029 12.5103 16.3379 13.0837 16.0003C13.6556 15.6626 14.1538 15.2617 14.5781 14.7964C15.0025 14.3308 15.3451 13.8091 15.6059 13.2291C15.8669 12.6493 16.0277 12.0176 16.0883 11.3333C16.3984 7.84442 14.2668 6.0671 9.69458 6.00024H2.42371L0.681885 25.6194H5.09908L5.76585 18.1075H6.95463C7.22872 18.1075 7.4764 18.1648 7.69906 18.279C7.92197 18.3924 8.13001 18.5566 8.32513 18.7707C8.5201 18.986 8.70864 19.243 8.8919 19.5436C9.07492 19.8453 9.2633 20.1872 9.45713 20.5708L12.0584 25.6194H17.1321L13.9415 19.8181C13.7768 19.5166 13.5925 19.2086 13.3866 18.8933ZM10.3319 13.9484C9.71026 14.4956 8.92326 14.7692 7.97583 14.7692H6.06113L6.5474 9.30916H8.54251C10.5942 9.30916 11.543 10.1671 11.3916 11.8808C11.3177 12.7021 10.9661 13.3907 10.3319 13.9484Z" fill="#E6E6DD"/>
<path d="M25.421 11.2659C23.4521 11.2659 21.7324 11.945 20.2632 13.3048C18.7923 14.6643 17.9544 16.506 17.7486 18.8328C17.5498 21.0764 18.0174 22.8257 19.1561 24.0798C20.2934 25.3353 21.992 25.9615 24.2534 25.9615C26.3224 25.9615 28.0356 25.6147 29.3917 24.9223L29.6685 21.8024C28.4362 22.5308 27.0498 22.8968 25.5093 22.8968C23.0937 22.8968 21.9038 21.8802 21.9381 19.8452H31.0733L31.2338 18.0255C31.4184 15.9461 31.0057 14.2991 29.9979 13.0858C28.9884 11.872 27.4623 11.2659 25.421 11.2659ZM27.3017 17.1895H22.1462C22.332 16.3337 22.7038 15.6177 23.26 15.0428C23.8173 14.4678 24.4419 14.1803 25.1349 14.1803C26.7574 14.1803 27.4794 15.1838 27.3017 17.1895Z" fill="#E6E6DD"/>
<path d="M42.5465 18.6823C42.242 18.3631 41.8679 18.0851 41.4236 17.8476C40.9794 17.6103 40.4804 17.3914 39.9228 17.1895C39.6131 17.0807 39.302 16.9733 38.9872 16.8684C38.6729 16.7644 38.3903 16.6451 38.1372 16.5132C37.8842 16.3813 37.6833 16.223 37.5357 16.0409C37.3883 15.859 37.3266 15.64 37.3491 15.3843C37.3659 15.1923 37.4359 15.0216 37.5584 14.8707C37.6807 14.7209 37.843 14.5971 38.0419 14.5022C38.2422 14.4059 38.4708 14.3334 38.7251 14.2832C38.9801 14.2331 39.2493 14.2074 39.5313 14.2074C40.1332 14.2074 40.7379 14.2871 41.3495 14.4466C41.9601 14.607 42.5241 14.8463 43.0417 15.1654L43.3399 11.8264C42.7347 11.6445 42.1191 11.5046 41.4893 11.4097C40.8597 11.3136 40.2351 11.2659 39.6156 11.2659C38.8223 11.2659 38.0496 11.3506 37.3014 11.5192C36.5526 11.6872 35.8785 11.953 35.2758 12.3117C34.6749 12.6724 34.1772 13.136 33.7852 13.7016C33.3943 14.2662 33.1619 14.9411 33.0923 15.7272C33.0421 16.3016 33.0724 16.7978 33.1863 17.2172C33.2989 17.638 33.4851 18.0073 33.7433 18.3263C34.0027 18.6454 34.3338 18.9263 34.7355 19.1678C35.1385 19.4089 35.608 19.6357 36.1457 19.8452C36.4804 19.9812 36.8294 20.1053 37.1932 20.2149C37.5571 20.3241 37.8906 20.4468 38.1927 20.5838C38.4953 20.721 38.738 20.8806 38.9235 21.0632C39.1069 21.2446 39.1874 21.474 39.1635 21.747C39.1255 22.1757 38.8751 22.4954 38.4148 22.7058C37.9538 22.9138 37.3406 23.0196 36.5751 23.0196C35.9455 23.0196 35.288 22.9138 34.5998 22.7058C33.912 22.4954 33.2321 22.1757 32.5584 21.747L32.2476 25.2509C33.5179 25.7243 34.9228 25.9615 36.4643 25.9615C37.3027 25.9615 38.1198 25.877 38.9144 25.7084C39.7076 25.5395 40.4205 25.2701 41.0507 24.9013C41.6806 24.5307 42.2009 24.0528 42.6135 23.4639C43.0264 22.8759 43.2684 22.1664 43.3425 21.3369C43.3953 20.7432 43.3515 20.2324 43.2118 19.8045C43.072 19.3754 42.8491 19.0008 42.5465 18.6823Z" fill="#E6E6DD"/>
<path d="M53.5893 11.2659C51.228 11.2659 49.2958 11.9207 47.7948 13.229C46.2927 14.5376 45.4401 16.3516 45.2347 18.6678C45.0358 20.9122 45.5458 22.6884 46.7633 23.998C47.9835 25.3068 49.7587 25.9615 52.0935 25.9615C54.463 25.9615 56.3895 25.2863 57.8725 23.9374C59.3547 22.5858 60.1995 20.7486 60.4068 18.422C60.5974 16.2697 60.09 14.5376 58.8846 13.229C57.6787 11.9207 55.9144 11.2659 53.5893 11.2659ZM55.9975 18.5042C55.7508 21.2683 54.5937 22.6504 52.5248 22.6504C50.3543 22.6504 49.3898 21.3054 49.6281 18.6138C49.7427 17.3268 50.1128 16.3337 50.7399 15.6307C51.3678 14.9294 52.1926 14.5772 53.2138 14.5772C55.3013 14.5772 56.2292 15.8868 55.9975 18.5042Z" fill="#E6E6DD"/>
<path d="M67.0186 22.4348C67.0186 22.4348 66.3547 22.1587 66.4493 20.7487C66.5294 19.5843 67.7061 6.09391 67.7143 6.00024H63.4209L62.1153 21.2111C62.1153 21.2111 61.7225 25.6525 65.1056 25.9491C68.4891 26.2452 70.681 25.1705 71.2134 24.9086L71.5471 21.3659C71.5471 21.3659 68.3959 23.0935 67.0186 22.4348Z" fill="#E6E6DD"/>
<path d="M88.1928 6.59009L82.4313 10.2058L84.0507 10.2745L77.4996 22.1007C76.2099 19.4816 75.0542 15.6521 76.2293 11.4944H72.6885C70.5366 19.1077 75.584 25.6195 75.584 25.6195H79.7443L87.2584 12.0535L88.1742 13.3919L88.1928 6.59009Z" fill="#E6E6DD"/>
</svg>
