<svg width="93" height="32" viewBox="0 0 93 32" fill="none" xmlns="http://www.w3.org/2000/svg">
<path d="M4.552 31.9528V29.3611H6.47046V29.7991H5.07669V30.3746H6.37265V30.8126H5.07669V31.5148H6.52101V31.9528H4.552ZM6.96638 31.9528V29.3611H7.47426L8.54086 31.0979V29.3611H9.02589V31.9528H8.50176L7.45148 30.2491V31.9528H6.96638ZM11.2381 30.9973L11.7448 31.1529C11.667 31.4381 11.5373 31.65 11.3565 31.7887C11.1754 31.927 10.9462 31.9962 10.6681 31.9962C10.3235 31.9962 10.0407 31.8786 9.81868 31.6434C9.59719 31.4081 9.48616 31.0866 9.48616 30.678C9.48616 30.2468 9.59775 29.9113 9.82037 29.6725C10.043 29.4334 10.3362 29.3141 10.6994 29.3141C11.0168 29.3141 11.2743 29.4081 11.4722 29.5958C11.5904 29.7068 11.6786 29.866 11.7376 30.0742L11.22 30.1973C11.1894 30.0633 11.1254 29.9572 11.0282 29.8794C10.9305 29.8014 10.8122 29.7629 10.6736 29.7629C10.481 29.7629 10.3249 29.8316 10.2053 29.9698C10.0852 30.1072 10.0256 30.3306 10.0256 30.6395C10.0256 30.9665 10.0847 31.1998 10.2023 31.3386C10.3205 31.4779 10.4738 31.5475 10.6626 31.5475C10.802 31.5475 10.9221 31.5033 11.0221 31.4147C11.1224 31.326 11.1947 31.1872 11.2381 30.9973ZM12.0856 30.6727C12.0856 30.4084 12.1255 30.1864 12.2046 30.0066C12.2631 29.8745 12.3439 29.7557 12.4458 29.6507C12.5478 29.5458 12.6594 29.4678 12.7806 29.4166C12.9424 29.3485 13.1287 29.3141 13.3398 29.3141C13.7223 29.3141 14.0276 29.4328 14.2576 29.67C14.4868 29.9077 14.6014 30.2377 14.6014 30.6607C14.6014 31.0798 14.4874 31.4081 14.2599 31.6445C14.0325 31.8816 13.7278 31.9998 13.3472 31.9998C12.9617 31.9998 12.6547 31.8822 12.4271 31.6464C12.1997 31.4111 12.0856 31.0866 12.0856 30.6727ZM12.6251 30.6552C12.6251 30.949 12.6932 31.1715 12.8289 31.3235C12.9647 31.4749 13.1372 31.5511 13.3459 31.5511C13.5553 31.5511 13.7267 31.4755 13.8611 31.3254C13.9951 31.1745 14.062 30.949 14.062 30.6478C14.062 30.3504 13.9969 30.1284 13.866 29.9825C13.7357 29.836 13.5626 29.7629 13.3459 29.7629C13.1301 29.7629 12.9556 29.8371 12.8235 29.9849C12.6915 30.1333 12.6251 30.3565 12.6251 30.6552ZM15.0026 31.9528V29.3611H15.7888L16.2533 31.1287L16.7124 29.3611H17.5003V31.9528H17.0153L17.0134 29.9124L16.5025 31.9528H15.9982L15.4895 29.9124L15.4876 31.9528H15.0026ZM18.0252 31.9528V29.3611H19.9436V29.7991H18.5499V30.3746H19.8458V30.8126H18.5499V31.5148H19.9942V31.9528H18.0252ZM20.4396 31.9528V29.3611H20.9475L22.014 31.0979V29.3611H22.499V31.9528H21.975L20.9246 30.2491V31.9528H20.4396ZM23.0536 29.3611H24.008C24.2232 29.3611 24.3872 29.3774 24.5002 29.4106C24.6516 29.4551 24.7818 29.5348 24.8898 29.6494C24.9984 29.7635 25.0805 29.9034 25.1372 30.0693C25.1932 30.2347 25.2218 30.4392 25.2218 30.6816C25.2218 30.8953 25.1951 31.0786 25.1421 31.2331C25.0775 31.4219 24.9852 31.5746 24.8651 31.6909C24.7747 31.7797 24.6522 31.8484 24.4983 31.8978C24.3831 31.9347 24.2292 31.9528 24.0363 31.9528H23.0536V29.3611ZM23.5783 29.7991V31.5148H23.9674C24.1129 31.5148 24.2179 31.5063 24.2823 31.49C24.3674 31.4689 24.4375 31.4329 24.493 31.382C24.5491 31.3315 24.5942 31.2482 24.6293 31.1323C24.6648 31.0165 24.6823 30.8578 24.6823 30.6577C24.6823 30.4573 24.6648 30.304 24.6293 30.1966C24.5942 30.0893 24.5447 30.0061 24.4815 29.9457C24.418 29.886 24.3378 29.845 24.2402 29.8239C24.1677 29.8074 24.0248 29.7991 23.8123 29.7991H23.5783ZM28.0021 31.9528H27.4368L27.2131 31.3628H26.1735L25.9583 31.9528H25.4032L26.4095 29.3611H26.9638L28.0021 31.9528ZM27.0429 30.9248L26.6827 29.9657L26.3329 30.9248H27.0429ZM28.1438 31.113L28.6542 31.0624C28.685 31.2331 28.7465 31.3579 28.84 31.4381C28.9336 31.5184 29.0598 31.5582 29.2184 31.5582C29.386 31.5582 29.5127 31.5227 29.5979 31.4516C29.6828 31.3803 29.7256 31.2971 29.7256 31.2017C29.7256 31.1402 29.7076 31.0883 29.6721 31.0449C29.6363 31.002 29.5737 30.9646 29.4844 30.9333C29.4234 30.9116 29.2846 30.8742 29.0675 30.8198C28.7883 30.75 28.5921 30.6643 28.4794 30.5623C28.3206 30.4191 28.2416 30.2449 28.2416 30.0391C28.2416 29.9071 28.2791 29.7827 28.3532 29.6676C28.4281 29.5524 28.5354 29.4648 28.6759 29.4045C28.8166 29.3441 28.9856 29.3141 29.1846 29.3141C29.5086 29.3141 29.7528 29.3859 29.9163 29.5301C30.0804 29.6742 30.1662 29.866 30.1747 30.1067L29.6498 30.1248C29.6273 29.9909 29.5797 29.895 29.5067 29.8365C29.4338 29.778 29.3239 29.7483 29.178 29.7483C29.0271 29.7483 28.9089 29.7797 28.8238 29.8426C28.7688 29.883 28.7411 29.9366 28.7411 30.0042C28.7411 30.0658 28.7671 30.1182 28.819 30.1616C28.8847 30.2177 29.0446 30.2757 29.2986 30.3361C29.5525 30.3957 29.7402 30.4584 29.8614 30.5224C29.9834 30.587 30.0785 30.6745 30.1474 30.786C30.2161 30.8976 30.2505 31.0352 30.2505 31.1987C30.2505 31.3471 30.2095 31.4864 30.1268 31.6162C30.0442 31.7459 29.9279 31.8424 29.777 31.9052C29.6261 31.9684 29.4379 31.9998 29.2129 31.9998C28.8853 31.9998 28.6338 31.9245 28.4582 31.773C28.2826 31.6222 28.1782 31.4021 28.1438 31.113ZM31.7017 31.9528V29.3611H32.2096L33.2761 31.0979V29.3611H33.7611V31.9528H33.2371L32.1867 30.2491V31.9528H31.7017ZM36.6502 31.9528H36.0849L35.8612 31.3628H34.8217L34.6064 31.9528H34.0514L35.0576 29.3611H35.612L36.6502 31.9528ZM35.6911 30.9248L35.3309 29.9657L34.981 30.9248H35.6911ZM38.5873 30.9973L39.0941 31.1529C39.0163 31.4381 38.8866 31.65 38.7057 31.7887C38.5246 31.927 38.2955 31.9962 38.0173 31.9962C37.6728 31.9962 37.39 31.8786 37.1679 31.6434C36.9464 31.4081 36.8354 31.0866 36.8354 30.678C36.8354 30.2468 36.947 29.9113 37.1696 29.6725C37.3922 29.4334 37.6854 29.3141 38.0487 29.3141C38.3661 29.3141 38.6236 29.4081 38.8214 29.5958C38.9396 29.7068 39.0278 29.866 39.0869 30.0742L38.5692 30.1973C38.5386 30.0633 38.4746 29.9572 38.3774 29.8794C38.2798 29.8014 38.1614 29.7629 38.0228 29.7629C37.8302 29.7629 37.6741 29.8316 37.5546 29.9698C37.4345 30.1072 37.3748 30.3306 37.3748 30.6395C37.3748 30.9665 37.4339 31.1998 37.5515 31.3386C37.6697 31.4779 37.823 31.5475 38.0118 31.5475C38.1512 31.5475 38.2713 31.5033 38.3713 31.4147C38.4716 31.326 38.5439 31.1872 38.5873 30.9973ZM39.5255 31.9528V29.3611H40.0504V31.9528H39.5255ZM40.4406 30.6727C40.4406 30.4084 40.4805 30.1864 40.5596 30.0066C40.6181 29.8745 40.6989 29.7557 40.8008 29.6507C40.9028 29.5458 41.0144 29.4678 41.1356 29.4166C41.2974 29.3485 41.4837 29.3141 41.6948 29.3141C42.0773 29.3141 42.3826 29.4328 42.6126 29.67C42.8418 29.9077 42.9564 30.2377 42.9564 30.6607C42.9564 31.0798 42.8424 31.4081 42.6149 31.6445C42.3875 31.8816 42.0828 31.9998 41.7022 31.9998C41.3167 31.9998 41.0097 31.8822 40.7821 31.6464C40.5547 31.4111 40.4406 31.0866 40.4406 30.6727ZM40.98 30.6552C40.98 30.949 41.0482 31.1715 41.1839 31.3235C41.3197 31.4749 41.4922 31.5511 41.7009 31.5511C41.9102 31.5511 42.0817 31.4755 42.2161 31.3254C42.3501 31.1745 42.417 30.949 42.417 30.6478C42.417 30.3504 42.3519 30.1284 42.221 29.9825C42.0907 29.836 41.9176 29.7629 41.7009 29.7629C41.4851 29.7629 41.3106 29.8371 41.1784 29.9849C41.0465 30.1333 40.98 30.3565 40.98 30.6552ZM43.365 31.9528V29.3611H43.8729L44.9394 31.0979V29.3611H45.4244V31.9528H44.9003L43.85 30.2491V31.9528H43.365ZM48.3135 31.9528H47.7482L47.5245 31.3628H46.485L46.2697 31.9528H45.7146L46.7209 29.3611H47.2753L48.3135 31.9528ZM47.3544 30.9248L46.9942 29.9657L46.6443 30.9248H47.3544ZM48.5748 31.9528V29.3611H49.0997V31.9528H48.5748ZM49.461 31.113L49.9714 31.0624C50.0022 31.2331 50.0637 31.3579 50.1572 31.4381C50.2508 31.5184 50.3769 31.5582 50.5356 31.5582C50.7032 31.5582 50.8299 31.5227 50.915 31.4516C51 31.3803 51.0428 31.2971 51.0428 31.2017C51.0428 31.1402 51.0247 31.0883 50.9892 31.0449C50.9535 31.002 50.8909 30.9646 50.8016 30.9333C50.7406 30.9116 50.6018 30.8742 50.3847 30.8198C50.1054 30.75 49.9093 30.6643 49.7966 30.5623C49.6378 30.4191 49.5588 30.2449 49.5588 30.0391C49.5588 29.9071 49.5962 29.7827 49.6704 29.6676C49.7452 29.5524 49.8526 29.4648 49.9931 29.4045C50.1338 29.3441 50.3027 29.3141 50.5017 29.3141C50.8257 29.3141 51.07 29.3859 51.2335 29.5301C51.3976 29.6742 51.4833 29.866 51.4918 30.1067L50.9669 30.1248C50.9445 29.9909 50.8969 29.895 50.8238 29.8365C50.7509 29.778 50.6411 29.7483 50.4951 29.7483C50.3443 29.7483 50.2261 29.7797 50.141 29.8426C50.086 29.883 50.0583 29.9366 50.0583 30.0042C50.0583 30.0658 50.0843 30.1182 50.1362 30.1616C50.2019 30.2177 50.3618 30.2757 50.6158 30.3361C50.8697 30.3957 51.0574 30.4584 51.1786 30.5224C51.3006 30.587 51.3957 30.6745 51.4646 30.786C51.5333 30.8976 51.5677 31.0352 51.5677 31.1987C51.5677 31.3471 51.5267 31.4864 51.444 31.6162C51.3613 31.7459 51.245 31.8424 51.0942 31.9052C50.9433 31.9684 50.7551 31.9998 50.5301 31.9998C50.2025 31.9998 49.951 31.9245 49.7754 31.773C49.5998 31.6222 49.4954 31.4021 49.461 31.113ZM53.0188 31.9528V29.3611H54.9373V29.7991H53.5435V30.3746H54.8395V30.8126H53.5435V31.5148H54.9879V31.9528H53.0188ZM56.4209 31.9528V29.3611H56.9458V31.9528H56.4209ZM57.4448 31.9528V29.3611H57.9527L59.0192 31.0979V29.3611H59.5042V31.9528H58.9801L57.9298 30.2491V31.9528H57.4448ZM60.6414 31.9528V29.7991H59.8741V29.3611H61.93V29.7991H61.1662V31.9528H60.6414ZM62.2698 31.9528V29.3611H64.1883V29.7991H62.7945V30.3746H64.0905V30.8126H62.7945V31.5148H64.2388V31.9528H62.2698ZM64.6843 31.9528V29.3611H65.7863C66.0633 29.3611 66.2647 29.3845 66.3902 29.4312C66.5164 29.4776 66.6164 29.5601 66.6919 29.6791C66.7673 29.7984 66.8052 29.9341 66.8052 30.0875C66.8052 30.2823 66.7486 30.4428 66.6346 30.5695C66.5205 30.6961 66.3504 30.7758 66.1237 30.809C66.2364 30.8747 66.3293 30.9471 66.4023 31.0262C66.4759 31.1053 66.5749 31.2458 66.6991 31.4472L67.0152 31.9528H66.3897L66.0143 31.3869C65.8799 31.1861 65.7876 31.0594 65.7376 31.0069C65.6881 30.955 65.6356 30.9187 65.5801 30.8995C65.5238 30.8802 65.4359 30.8706 65.3152 30.8706H65.2089V31.9528H64.6843ZM65.2089 30.4579H65.5963C65.8473 30.4579 66.0036 30.4469 66.0663 30.426C66.1284 30.4048 66.1779 30.368 66.213 30.3161C66.2485 30.2642 66.2661 30.199 66.2661 30.1212C66.2661 30.0338 66.2424 29.9638 66.1959 29.9094C66.1495 29.8558 66.0838 29.822 65.9992 29.8082C65.9566 29.8021 65.8291 29.7991 65.6175 29.7991H65.2089V30.4579ZM67.2982 31.9528V29.3611H67.8061L68.8726 31.0979V29.3611H69.3577V31.9528H68.8336L67.7832 30.2491V31.9528H67.2982ZM72.2467 31.9528H71.6814L71.4577 31.3628H70.4182L70.2029 31.9528H69.6479L70.6542 29.3611H71.2085L72.2467 31.9528ZM71.2876 30.9248L70.9274 29.9657L70.5775 30.9248H71.2876ZM74.1839 30.9973L74.6906 31.1529C74.6128 31.4381 74.4831 31.65 74.3022 31.7887C74.1211 31.927 73.892 31.9962 73.6138 31.9962C73.2693 31.9962 72.9865 31.8786 72.7644 31.6434C72.5429 31.4081 72.432 31.0866 72.432 30.678C72.432 30.2468 72.5435 29.9113 72.7661 29.6725C72.9887 29.4334 73.2819 29.3141 73.6452 29.3141C73.9626 29.3141 74.2201 29.4081 74.4179 29.5958C74.5361 29.7068 74.6243 29.866 74.6834 30.0742L74.1657 30.1973C74.1351 30.0633 74.0711 29.9572 73.9739 29.8794C73.8763 29.8014 73.7579 29.7629 73.6193 29.7629C73.4267 29.7629 73.2706 29.8316 73.1511 29.9698C73.031 30.1072 72.9714 30.3306 72.9714 30.6395C72.9714 30.9665 73.0304 31.1998 73.1481 31.3386C73.2663 31.4779 73.4195 31.5475 73.6084 31.5475C73.7477 31.5475 73.8678 31.5033 73.9679 31.4147C74.0681 31.326 74.1404 31.1872 74.1839 30.9973ZM75.122 31.9528V29.3611H75.6469V31.9528H75.122ZM76.0371 30.6727C76.0371 30.4084 76.077 30.1864 76.1561 30.0066C76.2146 29.8745 76.2954 29.7557 76.3974 29.6507C76.4993 29.5458 76.6109 29.4678 76.7321 29.4166C76.8939 29.3485 77.0802 29.3141 77.2913 29.3141C77.6738 29.3141 77.9791 29.4328 78.2091 29.67C78.4384 29.9077 78.5529 30.2377 78.5529 30.6607C78.5529 31.0798 78.4389 31.4081 78.2114 31.6445C77.9841 31.8816 77.6793 31.9998 77.2987 31.9998C76.9132 31.9998 76.6062 31.8822 76.3786 31.6464C76.1512 31.4111 76.0371 31.0866 76.0371 30.6727ZM76.5765 30.6552C76.5765 30.949 76.6447 31.1715 76.7804 31.3235C76.9162 31.4749 77.0888 31.5511 77.2974 31.5511C77.5068 31.5511 77.6782 31.4755 77.8126 31.3254C77.9467 31.1745 78.0135 30.949 78.0135 30.6478C78.0135 30.3504 77.9484 30.1284 77.8176 29.9825C77.6873 29.836 77.5142 29.7629 77.2974 29.7629C77.0816 29.7629 76.9071 29.8371 76.775 29.9849C76.643 30.1333 76.5765 30.3565 76.5765 30.6552ZM78.9615 31.9528V29.3611H79.4694L80.5359 31.0979V29.3611H81.0209V31.9528H80.4969L79.4465 30.2491V31.9528H78.9615ZM83.91 31.9528H83.3447L83.121 31.3628H82.0815L81.8663 31.9528H81.3111L82.3175 29.3611H82.8718L83.91 31.9528ZM82.9509 30.9248L82.5907 29.9657L82.2408 30.9248H82.9509ZM84.1714 31.9528V29.3611H84.6962V31.9528H84.1714ZM85.0576 31.113L85.5679 31.0624C85.5987 31.2331 85.6602 31.3579 85.7537 31.4381C85.8473 31.5184 85.9734 31.5582 86.1321 31.5582C86.2997 31.5582 86.4264 31.5227 86.5116 31.4516C86.5965 31.3803 86.6394 31.2971 86.6394 31.2017C86.6394 31.1402 86.6213 31.0883 86.5858 31.0449C86.55 31.002 86.4874 30.9646 86.3981 30.9333C86.3371 30.9116 86.1983 30.8742 85.9812 30.8198C85.702 30.75 85.5058 30.6643 85.3931 30.5623C85.2343 30.4191 85.1553 30.2449 85.1553 30.0391C85.1553 29.9071 85.1927 29.7827 85.2669 29.6676C85.3418 29.5524 85.4491 29.4648 85.5896 29.4045C85.7303 29.3441 85.8993 29.3141 86.0983 29.3141C86.4223 29.3141 86.6665 29.3859 86.8301 29.5301C86.9941 29.6742 87.0798 29.866 87.0884 30.1067L86.5635 30.1248C86.541 29.9909 86.4934 29.895 86.4204 29.8365C86.3475 29.778 86.2376 29.7483 86.0917 29.7483C85.9408 29.7483 85.8226 29.7797 85.7375 29.8426C85.6825 29.883 85.6548 29.9366 85.6548 30.0042C85.6548 30.0658 85.6808 30.1182 85.7328 30.1616C85.7984 30.2177 85.9583 30.2757 86.2123 30.3361C86.4662 30.3957 86.6539 30.4584 86.7751 30.5224C86.8971 30.587 86.9922 30.6745 87.0611 30.786C87.1299 30.8976 87.1642 31.0352 87.1642 31.1987C87.1642 31.3471 87.1233 31.4864 87.0405 31.6162C86.9579 31.7459 86.8416 31.8424 86.6907 31.9052C86.5398 31.9684 86.3516 31.9998 86.1266 31.9998C85.799 31.9998 85.5475 31.9245 85.3719 31.773C85.1963 31.6222 85.0919 31.4021 85.0576 31.113Z" fill="#E6E6DD"/>
<path d="M11.0039 11.6293L14.4781 11.6362L14.4873 6.94843L18.705 11.6863L22.0539 11.693L22.0766 0.182938L18.6233 0.176044L18.6125 5.6382L14.605 0.147067L11.0267 0.139966L11.0039 11.6293ZM35.7618 0.209155L39.7169 0.217106L42.1708 7.96461L44.6766 0.205708L48.6315 0.213371L44.361 11.715L39.9455 11.7062L35.7618 0.209155ZM51.9864 7.37699L53.1655 3.65455L54.2666 7.38136L51.9864 7.37699ZM55.3272 0.24769L50.9743 0.239258L46.6827 11.7195L50.6376 11.7272L51.1009 10.3677L55.2236 10.3759L55.5978 11.7161L59.5532 11.724L55.3272 0.24769ZM29.6465 0.000258065C26.1539 -0.00642179 23.3637 2.39087 23.3428 5.95186C23.3221 9.54851 26.1302 11.9211 29.6229 11.9279C33.1144 11.9348 35.9524 9.53845 35.9594 5.97661C35.9665 2.41463 33.1377 0.00721918 29.6465 0.000258065ZM29.6514 8.87701C28.107 8.87391 26.8565 7.56958 26.8598 5.96388C26.863 4.35762 28.1185 3.05857 29.6629 3.06145C31.2072 3.06462 32.4574 4.36838 32.4545 5.97485C32.4512 7.58062 31.1958 8.87989 29.6514 8.87701Z" fill="#E6E6DD"/>
<path d="M27.9768 13.8777L32.2459 13.8861L27.7442 19.6683L32.1988 25.3945L27.9541 25.3862L25.6286 22.3636L23.2428 25.4017L19.0218 25.3933L23.4745 19.66L19.5133 14.4666L17.9986 16.3724C17.9986 16.3724 17.5646 16.9207 16.9104 16.8982L0.123047 16.8652L2.14423 14.3041C2.14423 14.3041 2.48209 13.8789 3.13721 13.8629L19.0766 13.8941L19.0698 13.8851L23.2654 13.8934L25.6153 16.9652L27.9768 13.8777Z" fill="#E6E6DD"/>
<path d="M39.7993 13.9289L33.076 13.9156L33.0535 25.3991L36.5132 25.406L36.5202 21.7499L39.3424 21.7553C39.3424 21.7553 43.3409 21.8867 43.3741 17.6903C43.3741 17.6903 43.3319 14.3527 39.7993 13.9289ZM38.882 18.7909L36.5512 18.7989L36.5546 16.9584L39.0327 16.9498C39.744 16.9966 39.8164 17.7569 39.8164 17.7569C39.863 18.7629 38.882 18.7909 38.882 18.7909Z" fill="#E6E6DD"/>
<path d="M54.1163 15.6804L55.0795 14.4521C55.0795 14.4521 55.5002 14.0201 56.0705 14.0106L66.3095 14.0307L64.3533 16.5077C64.3533 16.5077 63.9229 17.0556 63.268 17.0333L54.6361 17.0165C54.6693 17.1714 54.6917 17.3134 54.707 17.4363H52.3633V14.2324C53.2184 14.5564 53.7658 15.1049 54.1163 15.6804Z" fill="#E6E6DD"/>
<path d="M74.4845 17.7684L76.3684 15.3337C76.3684 15.3337 74.8111 13.796 71.7156 13.7899C71.7156 13.7899 67.1991 13.5425 66.7969 17.4125C66.7969 17.4125 66.4684 20.0329 69.3476 20.9478C69.3476 20.9478 70.2764 21.2649 70.699 21.3183C70.699 21.3183 72.44 21.6385 72.6931 21.723C72.6931 21.723 73.2313 21.8512 73.1987 22.1782C73.1987 22.1782 73.2194 22.5585 72.5756 22.6733C72.5756 22.6733 70.6319 23.2394 68.3555 21.3878L66.4297 23.8222C66.4297 23.8222 68.1039 25.7255 71.8412 25.6905C71.8412 25.6905 76.1676 25.8679 76.6676 22.4066C76.6676 22.4066 77.008 20.7889 76.1234 19.7737C76.1234 19.7737 75.5706 18.6681 72.8902 18.0927C72.8902 18.0927 71.2303 17.78 70.991 17.709C70.991 17.709 70.2421 17.5596 70.3269 17.1692C70.3269 17.1692 70.3698 16.7685 70.9929 16.7168C70.9929 16.7168 72.9037 16.5832 74.4845 17.7684Z" fill="#E6E6DD"/>
<path d="M85.2293 17.7885L87.1133 15.3539C87.1133 15.3539 85.5557 13.8161 82.4603 13.8101C82.4603 13.8101 77.9438 13.5626 77.5415 17.4327C77.5415 17.4327 77.2131 20.0528 80.0925 20.9678C80.0925 20.9678 81.0214 21.2848 81.4436 21.3385C81.4436 21.3385 83.1844 21.6583 83.438 21.7433C83.438 21.7433 83.9759 21.8713 83.9436 22.1981C83.9436 22.1981 83.9636 22.5783 83.3194 22.6932C83.3194 22.6932 81.3762 23.2595 79.1001 21.4077L77.1738 23.8424C77.1738 23.8424 78.8488 25.7457 82.5853 25.7107C82.5853 25.7107 86.9125 25.8881 87.4118 22.4267C87.4118 22.4267 87.7527 20.8089 86.868 19.7939C86.868 19.7939 86.3147 18.6883 83.6351 18.1128C83.6351 18.1128 81.975 17.8001 81.7357 17.7289C81.7357 17.7289 80.9863 17.5798 81.0716 17.1893C81.0716 17.1893 81.1147 16.7884 81.7378 16.737C81.7378 16.737 83.6484 16.6034 85.2293 17.7885Z" fill="#E6E6DD"/>
<path d="M5.79297 21.137L7.81408 18.5759C7.81408 18.5759 8.23702 18.1442 8.80706 18.1344L19.0459 18.1545L17.0778 20.6313C17.0778 20.6313 16.6441 21.1794 15.9895 21.1569L5.79297 21.137Z" fill="#E6E6DD"/>
<path d="M54.9128 21.2338L56.9337 18.6728C56.9337 18.6728 57.3567 18.241 57.9267 18.2313L65.461 18.2462L63.4928 20.7229C63.4928 20.7229 63.0588 21.2708 62.4041 21.2484L54.9128 21.2338Z" fill="#E6E6DD"/>
<path d="M55.7917 25.4536L57.8127 22.8925C57.8127 22.8925 58.2361 22.4603 58.8061 22.4508L66.3396 22.4656L64.3717 24.9424C64.3717 24.9424 63.9377 25.4903 63.2837 25.4682L55.7917 25.4536Z" fill="#E6E6DD"/>
<path d="M6.69727 25.3401L8.71873 22.7787C8.71873 22.7787 9.1416 22.347 9.71171 22.3375L19.9506 22.3576L17.9823 24.8345C17.9823 24.8345 17.5484 25.3823 16.8942 25.36L6.69727 25.3401Z" fill="#E6E6DD"/>
<path d="M90.2926 17.6694C89.3597 17.6675 88.6051 16.9008 88.6068 15.9562C88.6087 15.0117 89.3664 14.2477 90.2994 14.2494C91.2323 14.2513 91.9869 15.0183 91.9848 15.9628C91.983 16.9074 91.2255 17.6713 90.2926 17.6694ZM90.2999 13.9911C89.21 13.9889 88.3244 14.8685 88.3223 15.9558C88.3201 17.0432 89.2022 17.926 90.2921 17.9282C91.3819 17.9304 92.2675 17.0511 92.2697 15.9635C92.2718 14.8764 91.3898 13.9933 90.2999 13.9911Z" fill="#E6E6DD"/>
<path d="M90.3643 15.8463L90.0271 15.8456L90.0282 15.2756L90.3445 15.2763C90.6296 15.2767 90.6189 15.5618 90.6189 15.5618C90.6182 15.8469 90.3643 15.8463 90.3643 15.8463ZM90.6912 16.1111C90.6912 16.1111 91.1138 16.0271 91.1148 15.5206C91.1148 15.5206 91.1475 14.8873 90.3557 14.8965L89.5323 14.8948L89.5281 16.9955L90.0248 16.9963L90.0262 16.1941L90.2374 16.1945L90.6997 16.9977L91.2173 16.9988L90.6912 16.1111Z" fill="#E6E6DD"/>
<path d="M51.1865 13.929L44.4632 13.9156L44.4407 25.3991L47.9003 25.4059L47.9074 21.7499L49.1982 21.7524L50.8362 25.3852L54.7621 25.3928L52.7131 21.3889C52.7131 21.3889 52.7556 21.3697 52.8283 21.3295L52.7946 21.2652C53.7776 20.7623 54.745 19.7456 54.7613 17.6903C54.7613 17.6903 54.719 14.3527 51.1865 13.929ZM50.2692 18.791L47.9383 18.7989L47.9418 16.9584L50.4199 16.9498C51.1311 16.9966 51.2036 17.7569 51.2036 17.7569C51.2502 18.763 50.2692 18.791 50.2692 18.791Z" fill="#E6E6DD"/>
</svg>
