<svg width="150" height="94" viewBox="0 0 150 94" fill="none" xmlns="http://www.w3.org/2000/svg">
<g clip-path="url(#clip0_198_158)">
<path d="M98.6357 10.8401C98.6403 15.3001 98.6635 19.76 98.6434 24.22C98.6218 28.9943 98.4053 33.7547 97.4837 38.4578C95.9498 46.2844 91.8954 52.5516 85.7598 57.5443C82.4399 60.2466 78.9685 62.7399 75.443 65.1603C75.3008 65.2579 75.1724 65.4096 74.9652 65.3663C74.9729 62.2861 74.9822 59.2044 74.99 56.1242C76.4837 54.6639 77.9325 53.1618 79.3505 51.6271C79.7278 51.2183 79.7355 51.0185 79.2453 50.715C77.9356 49.9051 76.5161 49.5303 74.9946 49.4838C74.99 48.5733 74.9853 47.6627 74.9822 46.7537C76.8671 46.636 78.5881 47.1795 80.2442 48.0266C80.7328 48.2775 81.189 48.9697 81.6591 48.756C82.1245 48.5438 82.3441 47.8284 82.7183 47.3716C83.1002 46.907 82.9657 46.6654 82.5018 46.3588C80.2226 44.8473 77.713 44.1241 74.9961 44.0715L74.9853 41.1834C77.8073 41.075 80.4143 41.8291 82.8899 43.1377C83.4017 43.4087 83.9321 44.0901 84.3867 43.898C84.8815 43.689 84.8691 42.8264 85.1475 42.2829C85.4598 41.6712 85.2712 41.3506 84.696 41.0161C81.6915 39.2662 78.4474 38.4423 74.993 38.3695C74.993 36.8875 74.9915 35.404 74.99 33.922C75.2946 33.8771 75.6007 33.843 75.9038 33.7872C79.1355 33.1926 81.3235 31.3358 82.2281 28.186C83.1435 24.9974 82.2312 22.2409 79.7664 20.0295C78.4119 18.8154 76.7558 18.3074 74.9807 18.1232C74.9776 15.8514 74.9729 13.578 74.9698 11.3062C74.9791 11.1498 74.9869 10.9919 74.9946 10.8354C82.876 10.8354 90.7558 10.8354 98.6372 10.837L98.6357 10.8401Z" fill="#388E3C"/>
<path d="M74.9823 46.7537C74.9869 47.6642 74.9915 48.5748 74.9946 49.4838C73.4221 49.5644 71.9624 49.9809 70.6542 50.89C70.2429 51.1749 70.079 51.384 70.5212 51.8207C71.8217 53.1029 73.0803 54.4285 74.3606 55.7293C74.5354 55.9059 74.69 56.1382 74.99 56.1242C74.9822 59.2044 74.973 62.2861 74.9652 65.3663C73.4592 64.5688 72.1402 63.494 70.764 62.5076C67.9374 60.4805 65.1386 58.4131 62.5532 56.0762C57.3469 51.37 54.1662 45.5179 52.7205 38.6746C51.7834 34.241 51.4741 29.7439 51.369 25.2312C51.2592 20.539 51.2639 15.8452 51.3319 11.1514C51.7509 11.2845 52.1808 11.3109 52.6199 11.3109C60.0699 11.3062 67.5199 11.3109 74.9699 11.3109C74.973 13.5827 74.9776 15.856 74.9807 18.1278C74.8276 18.1386 74.6745 18.1495 74.5199 18.1588C68.4322 18.484 64.899 24.8596 67.9745 30.0396C69.5393 32.6754 71.967 33.8709 74.9915 33.9266C74.9915 35.4086 74.9931 36.8922 74.9946 38.3742C71.8603 38.4547 68.8683 39.1253 66.1298 40.6801C63.8475 41.9762 64.1969 41.3103 65.0752 43.754C65.2701 44.2945 65.4556 44.3208 65.9334 43.9972C68.6626 42.1497 71.6608 41.1245 74.9869 41.188C74.99 42.1512 74.9946 43.1129 74.9977 44.0761C72.6164 44.1443 70.3511 44.6832 68.3286 45.9639C66.2968 47.2508 66.603 46.7258 67.7936 48.612C68.0967 49.0905 68.3255 49.1308 68.8049 48.7808C70.6372 47.4397 72.6829 46.6933 74.9838 46.7583L74.9823 46.7537Z" fill="#66BA6A"/>
<path d="M51.3272 8.97568C51.3272 7.27377 51.3999 5.56567 51.3071 3.8684C51.2035 1.97911 52.6447 0.586919 54.3054 0.184283C54.876 0.046458 55.4635 0 56.0604 0C68.5296 0.0108402 80.9988 0 93.468 0.015486C95.4024 0.0185832 97.1049 0.610148 98.2615 2.30586C98.4563 2.59236 98.6156 2.90208 98.6202 3.22883C98.6465 5.146 98.6419 7.06316 98.6465 8.98033C91.7362 8.97878 84.8274 8.97568 77.9171 8.97723C76.9414 8.97723 75.9672 8.99736 74.9915 9.0082C74.6838 8.99891 74.3761 8.98033 74.0684 8.98033C66.4885 8.97723 58.9071 8.97723 51.3272 8.97723V8.97568ZM62.1218 3.09875C61.3379 3.07862 60.659 3.68567 60.6173 4.44603C60.5802 5.12277 61.3162 5.86455 62.0414 5.88158C62.697 5.89707 63.3681 5.24975 63.3913 4.57921C63.4238 3.66399 62.9584 3.12043 62.1218 3.09875ZM58.2886 4.45532C58.2994 3.75071 57.6438 3.10494 56.9109 3.09875C56.1826 3.09255 55.53 3.73058 55.5146 4.46306C55.5007 5.17542 56.2166 5.87848 56.9588 5.88158C57.6438 5.88468 58.2762 5.20484 58.2871 4.45532H58.2886Z" fill="#DFDFDF"/>
<path d="M9.56844 82.4101C10.3416 82.4101 11.1163 82.4458 11.8848 82.3978C12.4693 82.3621 12.6316 82.5929 12.6625 83.1442C12.91 87.6862 8.7551 90.7354 4.39768 89.1357C1.89425 88.2159 0.34952 86.3823 0.0495415 83.7079C-0.248891 81.0551 0.847422 78.9475 3.09107 77.546C5.38575 76.1135 7.75929 76.1058 10.0926 77.546C10.289 77.6668 10.4606 77.8278 10.6508 77.9595C10.9895 78.1902 11.0142 78.421 10.6787 78.6796C10.5581 78.774 10.4375 78.8824 10.3524 79.0079C9.99831 79.5282 9.68287 79.4864 9.18342 79.1132C7.716 78.0214 5.57131 78.0415 4.02503 79.0745C2.40453 80.1569 1.62211 82.1577 2.06125 84.0888C2.49421 85.9874 4.00957 87.409 5.87593 87.6661C8.13968 87.9774 10.0911 86.8964 10.657 85.0428C10.8318 84.4682 10.8379 84.1477 10.0648 84.2003C9.09064 84.2669 8.10875 84.1957 7.12996 84.2251C6.68463 84.2375 6.56402 84.0795 6.55474 83.649C6.52691 82.4117 6.50835 82.4117 7.71445 82.4117C8.33296 82.4117 8.94993 82.4117 9.56844 82.4117V82.4101Z" fill="#7A7A7A"/>
<path d="M37.8113 88.6666C36.2526 89.8466 34.7233 89.7863 33.2745 88.6976C31.9029 87.6662 31.3385 86.2384 31.6818 84.5349C32.0297 82.8129 33.0812 81.6995 34.7852 81.2411C35.6774 81.001 36.5201 81.159 37.3056 81.6406C37.5298 81.7784 37.6535 82.0882 37.9535 81.5678C38.187 81.1621 38.9076 81.3774 39.3916 81.4532C39.7534 81.5105 39.5879 81.9287 39.5879 82.1826C39.5972 84.5814 39.6374 86.9817 39.5725 89.379C39.4936 92.2919 37.0211 93.9845 34.3074 93.0584C33.4183 92.7549 32.7503 92.1804 32.2323 91.4045C31.9663 91.0065 31.9338 90.7789 32.4673 90.5466C33.1183 90.2632 33.5559 90.1393 34.0569 90.8687C34.5811 91.6337 35.4563 91.7654 36.3578 91.516C37.2036 91.2822 37.6149 90.6798 37.7834 89.859C37.8561 89.5029 37.8978 89.1482 37.8128 88.6651L37.8113 88.6666ZM35.7794 82.8114C34.4682 82.7974 33.4322 83.9062 33.4214 85.3371C33.4105 86.7371 34.4806 87.8877 35.781 87.8753C36.9979 87.8629 37.9875 86.7463 37.9968 85.3727C38.0061 83.9294 37.0489 82.8237 35.7794 82.8114Z" fill="#7A7A7A"/>
<path d="M95.0035 83.3891C96.3302 84.0782 97.0539 85.0275 96.8374 86.4817C96.6039 88.0519 95.3004 89.201 93.6103 89.2691C92.2743 89.3233 90.9353 89.2722 89.5977 89.2939C89.1725 89.3017 89.0828 89.1158 89.0828 88.738C89.0921 85.3125 89.0936 81.887 89.0797 78.4615C89.0782 78.0217 89.2235 77.8807 89.658 77.8885C90.892 77.9133 92.1274 77.8668 93.3614 77.9086C95.237 77.9721 96.5807 79.4324 96.4756 81.2242C96.4184 82.1905 95.8648 82.8316 95.002 83.3891H95.0035ZM90.5781 85.9892C90.5781 86.4786 90.5781 86.9679 90.5781 87.4573C90.5781 87.6803 90.609 87.8893 90.8935 87.8816C91.945 87.8537 93.0073 88.0148 94.0464 87.7778C94.8118 87.6029 95.3855 86.7836 95.3793 85.9892C95.3731 85.17 94.7437 84.3647 93.9289 84.2192C93.4526 84.134 92.9578 84.1278 92.4707 84.1262C90.5781 84.117 90.5781 84.1231 90.5796 85.9892H90.5781ZM90.5796 81.0368C90.5796 81.4735 90.5796 81.9102 90.5796 82.3469C90.5796 82.5591 90.5873 82.7898 90.878 82.7821C91.8491 82.7573 92.8325 82.923 93.7881 82.6783C94.5133 82.4925 95.0515 81.7213 95.0344 81.0058C95.0159 80.2393 94.4329 79.513 93.6536 79.372C93.2299 79.2946 92.7877 79.3039 92.3532 79.3008C91.1708 79.2956 90.5796 79.8748 90.5796 81.0383V81.0368Z" fill="#7C7C7C"/>
<path d="M148.562 88.2624C146.81 90.0929 144.557 89.6701 143.379 88.4204C141.843 86.7928 141.788 84.0595 143.306 82.4288C144.761 80.8648 146.641 80.8508 148.54 82.4226C148.667 82.0262 148.37 81.3789 149.224 81.447C149.814 81.4935 150.011 81.6127 150 82.2322C149.96 84.6046 150.011 86.9786 149.96 89.3511C149.923 91.0452 148.905 92.281 147.305 92.7611C145.582 93.2768 143.934 92.7843 142.968 91.4169C142.81 91.1924 142.266 90.861 142.822 90.5729C143.201 90.3778 143.659 89.8095 144.154 90.6132C144.757 91.5934 145.765 91.7344 146.824 91.4959C147.763 91.2853 148.426 90.4986 148.556 89.4471C148.599 89.0971 148.562 88.7378 148.562 88.2609V88.2624ZM148.585 85.3836C148.585 83.5748 147.314 82.3282 145.757 82.6116C144.368 82.864 143.479 84.2082 143.671 85.7599C143.855 87.2465 144.973 88.2841 146.284 88.185C147.659 88.0828 148.584 86.9554 148.585 85.382V85.3836Z" fill="#7A7A7A"/>
<path d="M74.9915 9.00827C75.9672 8.99743 76.9414 8.97729 77.9171 8.97729C84.8274 8.97729 91.7362 8.97884 98.6465 8.98039C98.6434 9.59983 98.6388 10.2208 98.6357 10.8403C90.7543 10.8403 82.8745 10.8403 74.9931 10.8387C74.9853 10.6854 74.9792 10.5321 74.9714 10.3788C74.9776 9.92194 74.9854 9.4651 74.9915 9.00827Z" fill="#357D3C"/>
<path d="M114.652 87.1475C115.204 85.4626 115.756 83.8552 116.249 82.2307C116.415 81.684 116.63 81.4409 117.248 81.4502C117.836 81.458 118.102 81.6268 118.273 82.1966C118.767 83.8412 119.328 85.4642 119.936 87.3225C120.347 85.9334 120.697 84.758 121.044 83.5826C121.198 83.0638 121.374 82.5497 121.485 82.0216C121.579 81.5772 121.813 81.4595 122.243 81.4641C123.166 81.475 123.174 81.4595 122.886 82.353C122.207 84.4622 121.513 86.5652 120.857 88.6806C120.707 89.1638 120.475 89.3248 119.982 89.3001C119.501 89.2768 119.116 89.3047 118.934 88.6853C118.434 86.9834 117.859 85.3047 117.287 83.5362C116.908 84.0271 116.848 84.5459 116.69 85.0197C116.283 86.2416 115.864 87.4603 115.509 88.6977C115.362 89.2102 115.088 89.3171 114.617 89.297C114.167 89.2784 113.806 89.3063 113.63 88.7193C112.974 86.5497 112.248 84.4018 111.577 82.2369C111.509 82.0185 111.105 81.5741 111.626 81.5152C112.067 81.4672 112.75 81.1095 112.99 81.9163C113.415 83.3488 113.826 84.7843 114.256 86.2152C114.343 86.5033 114.361 86.8254 114.651 87.146L114.652 87.1475Z" fill="#7C7C7C"/>
<path d="M59.4035 89.5044C57.6516 89.4982 56.0744 88.4498 55.5038 87.0235C55.3384 86.6085 55.343 86.3375 55.8363 86.2275C56.2012 86.1455 56.5383 85.6824 56.8661 86.3948C57.5588 87.9062 58.9814 88.4839 60.3638 87.914C60.9916 87.6538 61.4616 87.2372 61.5467 86.5109C61.6364 85.7537 61.3905 85.1435 60.7488 84.7068C60.2092 84.3398 59.6015 84.1292 58.9907 83.9248C58.3552 83.7111 57.7227 83.4912 57.1537 83.1272C55.2348 81.9023 55.2301 79.4509 57.1429 78.2105C58.8453 77.1063 61.4555 77.6746 62.4544 79.3812C62.5765 79.5887 62.9105 79.9309 62.4513 80.0502C62.0693 80.1493 61.6982 80.8245 61.2127 80.1431C60.4241 79.0374 59.1005 78.7447 58.0227 79.3889C56.9975 80.0022 56.9465 81.159 57.9191 81.8559C58.3428 82.1594 58.8268 82.3344 59.3092 82.5171C59.9107 82.7447 60.5246 82.9507 61.0967 83.2419C62.6894 84.0518 63.3357 85.3123 63.0234 86.8965C62.7466 88.2996 61.4709 89.3356 59.8319 89.4858C59.6525 89.5028 59.4716 89.5028 59.4051 89.5059L59.4035 89.5044Z" fill="#7A7A7A"/>
<path d="M26.6486 89.5029C24.2782 89.5122 22.452 87.7328 22.4288 85.3913C22.4056 83.0003 24.2179 81.1528 26.5976 81.1404C28.9835 81.1296 30.8344 82.9709 30.8189 85.3418C30.8035 87.7111 29.016 89.4936 26.6486 89.5029ZM28.9587 85.3604C28.9696 83.8892 27.9908 82.8145 26.6378 82.8114C25.2863 82.8067 24.2689 83.8923 24.2735 85.334C24.2782 86.751 25.2539 87.818 26.5713 87.8428C27.9413 87.8691 28.9479 86.8222 28.9587 85.3619V85.3604Z" fill="#7A7A7A"/>
<path d="M47.7244 89.5043C45.2967 89.4919 43.5494 87.6584 43.5989 85.1745C43.6453 82.8268 45.4189 81.0722 47.6749 81.1419C49.2413 81.1915 50.7582 82.4319 51.1896 83.9573C51.321 84.4218 50.9917 84.4172 50.7613 84.5132C49.3171 85.1218 47.8651 85.7165 46.4178 86.3204C45.7142 86.6131 45.6895 86.7773 46.2477 87.3038C47.0827 88.0936 48.479 88.0115 49.4562 87.121C49.6155 86.977 49.7361 86.6874 50.0206 86.8686C50.4072 87.1149 50.8633 87.2883 51.1216 87.6832C51.2159 87.8288 50.9855 87.9914 50.868 88.1183C50.0222 89.0351 48.9908 89.5369 47.7259 89.5043H47.7244ZM45.456 85.1837C46.5338 84.7378 47.5234 84.3336 48.5084 83.9139C48.7063 83.8287 49.0279 83.8179 49.0233 83.5345C49.0186 83.2619 48.7573 83.1055 48.5269 82.994C47.8574 82.6704 47.1832 82.6874 46.5477 83.0746C45.8225 83.5159 45.4127 84.1524 45.456 85.1822V85.1837Z" fill="#7A7A7A"/>
<path d="M17.4622 89.5028C15.0608 89.4997 13.2733 87.6893 13.2888 85.2782C13.3043 82.932 15.1242 81.1372 17.4823 81.1419C19.8651 81.1465 21.6712 82.9785 21.6573 85.3757C21.6433 87.7265 19.8342 89.5074 17.4622 89.5028ZM15.1304 85.3107C15.1242 86.7726 16.1154 87.8442 17.4746 87.8426C18.8044 87.8426 19.794 86.802 19.8141 85.385C19.8357 83.9216 18.857 82.8298 17.5086 82.8128C16.1494 82.7942 15.1366 83.8597 15.1304 85.3122V85.3107Z" fill="#7A7A7A"/>
<path d="M82.0178 85.67C81.1689 85.67 80.3185 85.6793 79.4696 85.6669C79.0814 85.6607 78.9701 85.8125 79.0583 86.1857C79.2871 87.1443 79.8407 87.8318 80.7947 88.0688C81.7426 88.3042 82.692 88.2097 83.2811 87.3084C83.7883 86.5341 84.263 87.1241 84.6249 87.3332C85.0733 87.5918 84.5908 87.9093 84.4254 88.1261C83.3894 89.4826 81.5601 89.9116 79.8901 89.224C78.2944 88.5659 77.3017 86.7803 77.529 84.9329C77.7207 83.3672 78.4305 82.102 79.9334 81.5089C81.2493 80.9886 82.573 81.1171 83.7249 82.037C84.7269 82.8361 85.0563 83.9541 85.1351 85.1791C85.1599 85.5507 85.0022 85.6824 84.6403 85.6762C83.7651 85.6622 82.8899 85.6715 82.0147 85.6731L82.0178 85.67ZM81.3236 84.4234C81.8864 84.4234 82.4492 84.4079 83.0121 84.428C83.5115 84.445 83.5842 84.2484 83.3956 83.8241C83.0461 83.0343 82.2374 82.5403 81.2849 82.5635C80.3973 82.5852 79.5531 83.1814 79.25 83.9619C79.1155 84.3088 79.199 84.4296 79.5593 84.4249C80.1468 84.4156 80.736 84.4218 81.3251 84.4234H81.3236Z" fill="#7B7B7B"/>
<path d="M69.4775 88.405C68.7322 89.3047 67.7426 89.6021 66.603 89.4937C65.3845 89.3775 64.3779 88.5351 64.1846 87.4526C63.9573 86.1812 64.5155 85.1096 65.7309 84.5676C66.8102 84.0859 67.9282 84.1107 69.0523 84.408C69.2131 84.4514 69.3909 84.6326 69.544 84.4653C69.7002 84.2981 69.6074 84.0689 69.5548 83.8769C69.2085 82.6148 67.1782 82.0867 66.2474 83.1165C65.7263 83.6926 65.3752 83.5656 64.8356 83.3194C64.4537 83.1459 64.4645 82.974 64.6671 82.686C65.5809 81.3914 66.8659 81.0786 68.3426 81.2985C69.6569 81.4936 70.7146 82.3825 70.9326 83.6167C71.2434 85.3759 71.0145 87.1615 71.0656 88.9362C71.0764 89.3341 70.7671 89.3171 70.5213 89.2784C70.212 89.2288 69.759 89.52 69.6399 88.9516C69.6043 88.7859 69.6956 88.5924 69.4775 88.405ZM67.2926 88.1851C68.2359 88.1773 69.2781 87.4247 69.5456 86.5699C69.6925 86.1022 69.609 85.7739 69.091 85.6144C68.358 85.3883 67.6174 85.3496 66.8813 85.5432C66.0664 85.7584 65.5886 86.4274 65.6922 87.1212C65.785 87.7329 66.4747 88.1928 67.2911 88.1851H67.2926Z" fill="#7C7C7C"/>
<path d="M74.9915 9.00827C74.9853 9.4651 74.9776 9.92194 74.9714 10.3788C67.0916 10.3788 59.2117 10.3772 51.3303 10.3757C51.3303 9.90955 51.3272 9.44342 51.3257 8.97729C58.9055 8.97729 66.487 8.97729 74.0668 8.98039C74.3745 8.98039 74.6822 8.99897 74.99 9.00827H74.9915Z" fill="#5A9F60"/>
<path d="M106.983 89.5058C104.68 89.5012 103.006 87.776 102.996 85.4005C102.987 82.9831 104.668 81.2502 107.015 81.2549C109.359 81.2595 111.008 82.9924 110.991 85.4346C110.974 87.8101 109.3 89.5089 106.981 89.5058H106.983ZM109.506 85.416C109.517 83.7745 108.453 82.5666 106.996 82.5635C105.597 82.5619 104.496 83.7807 104.485 85.3416C104.474 86.963 105.56 88.1911 107.001 88.1864C108.441 88.1818 109.497 87.0141 109.506 85.416Z" fill="#7B7B7B"/>
<path d="M135.675 82.3684C136.418 81.7644 137.016 81.3416 137.797 81.2518C139.451 81.0644 140.721 81.9177 140.995 83.5623C141.288 85.3246 141.084 87.1133 141.106 88.8895C141.114 89.5616 140.54 89.2147 140.223 89.2782C139.833 89.3556 139.606 89.2302 139.615 88.7501C139.64 87.3316 139.642 85.9131 139.612 84.4961C139.59 83.4539 139.108 82.8236 138.289 82.6517C137.254 82.4334 136.455 82.8128 135.977 83.7466C135.771 84.1461 135.705 84.5736 135.706 85.0196C135.709 86.2058 135.674 87.3936 135.72 88.5782C135.743 89.1806 135.533 89.32 134.97 89.3076C134.449 89.2968 134.183 89.241 134.196 88.603C134.237 86.5403 134.196 84.4775 134.226 82.4148C134.231 82.0881 133.908 81.5166 134.636 81.4764C135.174 81.4454 135.777 81.337 135.677 82.3699L135.675 82.3684Z" fill="#7D7D7D"/>
<path d="M127.002 89.4982C125.482 89.5447 124.462 88.9949 123.744 87.8923C123.594 87.6631 123.259 87.3348 123.775 87.1645C124.143 87.0437 124.516 86.4924 124.96 87.149C125.597 88.0921 126.441 88.3894 127.421 88.1246C127.933 87.9868 128.331 87.7328 128.351 87.1428C128.369 86.5776 127.993 86.3097 127.519 86.1703C126.852 85.9752 126.164 85.8513 125.507 85.6283C124.119 85.1591 123.464 84.2392 123.726 83.1288C123.969 82.1006 124.766 81.6375 125.7 81.3743C127.097 80.9809 128.646 81.4006 129.357 82.3824C129.498 82.5775 129.967 82.8687 129.5 83.118C129.155 83.3007 128.739 83.7963 128.284 83.245C127.677 82.5063 126.888 82.4413 126.039 82.6565C125.594 82.7696 125.209 82.9941 125.204 83.5315C125.198 84.041 125.574 84.2469 125.982 84.3662C126.549 84.5319 127.132 84.648 127.704 84.7998C129.257 85.2102 130.001 86.0991 129.858 87.3612C129.728 88.5195 128.606 89.4193 127.193 89.4951C127.064 89.5013 126.934 89.4951 127.004 89.4951L127.002 89.4982Z" fill="#7B7B7B"/>
<path d="M73.6215 86.0263C73.6215 85.2025 73.5859 84.3755 73.6339 83.5532C73.6679 82.974 73.487 82.7386 72.9056 82.8285C72.42 82.9028 72.1665 82.782 72.1649 82.1889C72.1649 81.5989 72.3458 81.3774 72.9133 81.4734C73.5086 81.5741 73.6354 81.3015 73.6354 80.7409C73.6354 78.7262 74.7549 77.7181 76.7682 77.8729C77.0419 77.8946 77.5491 77.828 77.4625 78.2198C77.379 78.5992 77.4331 79.31 76.6816 79.2233C75.5002 79.0855 75.0023 79.7731 75.1152 81.0971C75.1369 81.3495 75.2204 81.4765 75.4832 81.4703C75.7662 81.4641 76.0492 81.4703 76.3321 81.4734C77.0929 81.4781 77.3542 81.8528 77.1331 82.5776C77.0326 82.909 76.7852 82.8207 76.5734 82.83C75.6033 82.8754 75.1178 83.3849 75.1168 84.3585C75.1168 85.7754 75.0827 87.194 75.1322 88.6094C75.1554 89.2536 74.8694 89.2954 74.3544 89.3093C73.7901 89.3248 73.572 89.1793 73.6091 88.5784C73.6602 87.7313 73.6215 86.878 73.6215 86.0279V86.0263Z" fill="#7D7D7D"/>
<path d="M42.6945 83.2047C42.6945 84.9841 42.6744 86.7634 42.7068 88.5427C42.7161 89.0925 42.6079 89.3263 41.994 89.3C40.6271 89.2412 40.8559 89.4131 40.8513 88.137C40.8405 84.6558 40.876 81.1745 40.8265 77.6933C40.8142 76.8601 41.2533 76.9515 41.7821 76.9437C42.3326 76.9344 42.7455 76.8988 42.7161 77.7118C42.6481 79.5407 42.6945 81.3727 42.6945 83.2032V83.2047Z" fill="#7B7B7B"/>
<path d="M51.3319 10.3757C59.2118 10.3757 67.0916 10.3773 74.973 10.3788C74.9807 10.5321 74.9869 10.6855 74.9946 10.8388C74.9869 10.9952 74.9776 11.1531 74.9699 11.3095C67.5199 11.3095 60.0699 11.3049 52.62 11.3095C52.1808 11.3095 51.751 11.2848 51.3319 11.15C51.3319 10.8914 51.3319 10.6343 51.3319 10.3757Z" fill="#5FAD64"/>
<path d="M99.6392 82.5697C100.355 81.687 101.15 81.2147 102.187 81.3138C102.45 81.3386 102.958 81.2611 102.857 81.6885C102.761 82.0958 102.792 82.7431 102.129 82.7973C100.194 82.9553 99.6624 83.5097 99.6578 85.4315C99.6562 86.4629 99.6222 87.4958 99.6702 88.5241C99.6995 89.1481 99.4831 89.3077 98.8831 89.3092C98.2909 89.3123 98.1502 89.1249 98.1579 88.5566C98.1904 86.4443 98.1795 84.3304 98.1641 82.2166C98.161 81.752 98.1749 81.4454 98.795 81.4547C99.3733 81.4624 99.6856 81.5755 99.5743 82.2166C99.5635 82.2832 99.5975 82.3575 99.6361 82.5712L99.6392 82.5697Z" fill="#7C7C7C"/>
<path d="M132.492 85.4114C132.492 86.5171 132.467 87.6228 132.502 88.7269C132.519 89.2612 132.255 89.3231 131.844 89.2875C131.466 89.255 130.993 89.4455 130.999 88.744C131.021 86.5078 131.023 84.2716 130.999 82.0354C130.993 81.4237 131.352 81.4671 131.752 81.4748C132.133 81.481 132.527 81.385 132.505 82.0199C132.467 83.1489 132.495 84.2809 132.495 85.4129L132.492 85.4114Z" fill="#7A7A7A"/>
<path d="M131.743 79.8536C131.186 79.8412 130.715 79.3565 130.721 78.8006C130.727 78.2462 131.22 77.763 131.769 77.7754C132.323 77.7878 132.796 78.2787 132.787 78.8315C132.778 79.4014 132.304 79.8644 131.743 79.8536Z" fill="#7C7C7C"/>
</g>
<defs>
<clipPath id="clip0_198_158">
<rect width="150" height="93.314" fill="white"/>
</clipPath>
</defs>
</svg>
