<?xml version="1.0" encoding="UTF-8"?>
<!DOCTYPE svg PUBLIC "-//W3C//DTD SVG 1.1//EN" "http://www.w3.org/Graphics/SVG/1.1/DTD/svg11.dtd">
<!-- Creator: CorelDRAW 2021 (64 Bit) -->
<svg xmlns="http://www.w3.org/2000/svg" xml:space="preserve" width="22.0458mm" height="22.0458mm" version="1.1" style="shape-rendering:geometricPrecision; text-rendering:geometricPrecision; image-rendering:optimizeQuality; fill-rule:evenodd; clip-rule:evenodd"
viewBox="0 0 2437.4 2437.4"
 xmlns:xlink="http://www.w3.org/1999/xlink"
 xmlns:xodm="http://www.corel.com/coreldraw/odm/2003">
 <defs>
  <style type="text/css">
   <![CDATA[
    .fil1 {fill:#FEFEFE}
    .fil0 {fill:#201E1E}
    .fil2 {fill:#FEFEFE;fill-rule:nonzero}
   ]]>
  </style>
 </defs>
 <g id="Logo_x0020__x002b__x0020_Linha_x0020__x0028_Fundo_x0020_Claro_x0029_">
  <metadata id="CorelCorpID_0Corel-Layer"/>
  <rect class="fil0" x="-0" y="0" width="2437.4" height="2437.4"/>
  <polygon class="fil1" points="249.47,196.88 323.6,196.88 446.15,495.27 567.57,196.88 641.02,196.88 446.15,675.77 "/>
  <rect class="fil1" x="1455.38" y="793.56" width="70.54" height="475.97"/>
  <polygon class="fil1" points="1009.29,672.85 1083.42,672.85 1205.96,374.46 1327.39,672.85 1400.84,672.85 1205.96,193.97 "/>
  <polygon class="fil1" points="1624.77,1269.54 1698.9,1269.54 1821.45,971.14 1942.87,1269.54 2016.32,1269.54 1821.45,790.65 "/>
  <rect class="fil1" x="787.05" y="793.56" width="70.54" height="475.97"/>
  <polygon class="fil1" points="603.75,793.56 602.2,793.56 446.47,1121.84 291.21,793.56 291.01,794.63 290.5,793.56 201.97,1269.54 272.51,1269.54 321.59,1007.76 446.36,1270.72 572.73,1004.37 622.43,1269.54 692.97,1269.54 "/>
  <path class="fil1" d="M960.53 793.56l40.24 0 0.09 0 0.09 0 0.09 0 0.1 0 0.08 0 0.1 0 0.08 0 0.1 0 29.57 0 92.71 0c126.7,0 230.36,103.66 230.36,230.36l0 15.26c0,126.69 -103.66,230.35 -230.36,230.35l-92.71 0 -29.57 0 -0.1 0 -0.08 0 -0.1 0 -0.08 0 -0.1 0 -0.09 0 -0.09 0 -0.09 0 -40.24 0 0 -475.97zm70.54 67.76l0 340.45 92.72 0c87.92,0 159.86,-74.67 159.86,-162.59l0 -15.26c0,-87.93 -71.94,-162.6 -159.86,-162.6l-92.72 0z"/>
  <rect class="fil1" x="787.05" y="191.99" width="70.54" height="475.97"/>
  <path class="fil2" d="M295.79 2202.52c-19.47,0 -35.76,-6.55 -48.86,-19.66 -12.98,-13.09 -19.46,-29.44 -19.46,-49.02 0,-19.6 6.48,-35.88 19.46,-48.85 12.99,-13.22 29.28,-19.83 48.86,-19.83 19.82,0 35.93,7.15 48.3,21.48l-12.12 11.75c-9.44,-11.39 -21.5,-17.08 -36.19,-17.08 -14.57,0 -26.76,4.9 -36.55,14.69 -9.67,9.66 -14.51,22.28 -14.51,37.83 0,15.53 4.83,28.16 14.51,37.83 9.8,9.8 21.98,14.68 36.55,14.68 15.3,0 28.59,-6.42 39.86,-19.28l12.29 11.93c-6.25,7.48 -13.89,13.27 -22.94,17.37 -9.08,4.1 -18.81,6.15 -29.21,6.15zm198.9 -68.68c0,19.47 -6.49,35.74 -19.47,48.85 -13.1,13.22 -29.13,19.83 -48.1,19.83 -19.12,0 -35.14,-6.61 -48.13,-19.83 -12.98,-13.1 -19.47,-29.38 -19.47,-48.85 0,-19.47 6.49,-35.76 19.47,-48.85 12.99,-13.22 29.01,-19.83 48.13,-19.83 19.08,0 35.14,6.67 48.1,20.01 12.98,13.09 19.47,29.32 19.47,48.67zm-117.91 0c0,15.18 4.79,27.73 14.33,37.65 9.67,9.92 21.68,14.87 36.01,14.87 14.32,0 26.26,-4.95 35.8,-14.87 9.67,-9.8 14.51,-22.34 14.51,-37.65 0,-15.31 -4.83,-27.86 -14.51,-37.66 -9.54,-9.91 -21.48,-14.87 -35.8,-14.87 -14.33,0 -26.34,4.96 -36.01,14.87 -9.54,9.93 -14.33,22.48 -14.33,37.66zm154.82 65.74l-16.89 0 0 -131.49 16.89 0 45.74 80.07 0.72 0 45.74 -80.07 16.89 0 0 131.49 -16.89 0 0 -78.06 0.74 -22.02 -0.74 0 -41.14 72.17 -9.92 0 -41.14 -72.17 -0.74 0 0.74 22.02 0 78.06zm181.26 2.94c-14.56,0 -26.31,-4.77 -35.26,-14.33 -8.93,-9.42 -13.41,-21.91 -13.41,-37.46l0 -82.64 16.9 0 0 83.37c0,10.77 2.81,19.28 8.44,25.53 5.64,6.25 13.4,9.36 23.33,9.36 9.93,0 17.69,-3.12 23.33,-9.36 5.63,-6.25 8.44,-14.76 8.44,-25.53l0 -83.37 16.9 0 0 82.64c0,15.92 -4.4,28.52 -13.22,37.83 -8.82,9.3 -20.63,13.95 -35.45,13.95zm89.07 -2.94l-16.89 0 0 -131.49 20.58 0 63.9 102.29 0.74 0 -0.74 -25.35 0 -76.94 16.89 0 0 131.49 -17.62 0 -66.86 -107.25 -0.74 0 0.74 25.35 0 81.9zm127.82 0l-16.89 0 0 -131.49 16.89 0 0 131.49zm86.5 2.94c-19.47,0 -35.76,-6.55 -48.85,-19.66 -12.99,-13.09 -19.47,-29.44 -19.47,-49.02 0,-19.6 6.48,-35.88 19.47,-48.85 12.98,-13.22 29.27,-19.83 48.85,-19.83 19.83,0 35.93,7.15 48.3,21.48l-12.12 11.75c-9.44,-11.39 -21.5,-17.08 -36.19,-17.08 -14.56,0 -26.76,4.9 -36.55,14.69 -9.67,9.66 -14.51,22.28 -14.51,37.83 0,15.53 4.83,28.16 14.51,37.83 9.8,9.8 21.99,14.68 36.55,14.68 15.3,0 28.59,-6.42 39.86,-19.28l12.31 11.93c-6.25,7.48 -13.9,13.27 -22.95,17.37 -9.08,4.1 -18.8,6.15 -29.21,6.15zm119.74 -113.68l-21.48 59.32 43.7 0 -21.48 -59.32 -0.74 0zm-40.03 110.74l-18.73 0 49.58 -131.49 19.1 0 49.59 131.49 -18.73 0 -12.67 -35.62 -55.28 0 -12.86 35.62zm192.65 25.9c0,4.89 -1.77,9.05 -5.32,12.48 -3.56,3.44 -7.96,5.14 -13.22,5.14 -3.8,0 -7.29,-1.14 -10.47,-3.39 -3.18,-2.27 -5.45,-5.23 -6.8,-8.91l9.55 -4.21c1.23,4.15 3.8,6.22 7.72,6.22 2.2,0 4,-0.7 5.42,-2.1 1.4,-1.42 2.11,-3.15 2.11,-5.23 0,-2.21 -0.71,-4.05 -2.11,-5.51 -1.42,-1.48 -3.22,-2.21 -5.42,-2.21 -2.45,0 -4.48,0.97 -6.07,2.93l-8.62 -4.04 5.51 -14.69c-17.62,-2.08 -32.02,-9.43 -43.16,-22.03 -11.26,-12.74 -16.89,-28.09 -16.89,-46.09 0,-19.6 6.49,-35.88 19.47,-48.85 12.98,-13.22 29.27,-19.83 48.85,-19.83 19.83,0 35.93,7.15 48.3,21.48l-12.12 11.75c-9.43,-11.39 -21.49,-17.08 -36.19,-17.08 -14.56,0 -26.74,4.9 -36.55,14.69 -9.66,9.66 -14.51,22.28 -14.51,37.83 0,15.53 4.84,28.16 14.51,37.83 9.81,9.8 21.99,14.68 36.55,14.68 15.3,0 28.6,-6.42 39.87,-19.28l12.29 11.93c-5.99,7.11 -13.4,12.74 -22.22,16.9 -8.82,4.17 -18.24,6.37 -28.27,6.61l-2.58 5.88 3.66 -0.38c4.65,0 8.61,1.66 11.85,4.96 3.25,3.31 4.86,7.47 4.86,12.49zm100.27 -136.64l-21.48 59.32 43.7 0 -21.48 -59.32 -0.74 0zm-40.02 110.74l-18.73 0 49.58 -131.49 19.1 0 49.59 131.49 -18.73 0 -12.68 -35.62 -55.27 0 -12.86 35.62zm51.41 -142.88c-2.93,0 -7,-1.37 -12.21,-4.13 -5.21,-2.75 -8.24,-4.12 -9.09,-4.12 -3.8,0 -5.82,2.13 -6.07,6.42l-13.94 0c0,-6.56 1.98,-11.82 5.96,-15.83 3.97,-4 8.78,-6.03 14.42,-6.03 3.55,0 8.51,1.84 14.88,5.51 3.66,1.85 5.82,2.75 6.41,2.75 3.8,0 5.83,-2.13 6.07,-6.42l13.96 0c0,6.56 -2,11.82 -5.97,15.83 -3.98,4.01 -8.79,6.03 -14.43,6.03zm188.62 77.14c0,19.47 -6.49,35.74 -19.47,48.85 -13.09,13.22 -29.12,19.83 -48.1,19.83 -19.1,0 -35.14,-6.61 -48.13,-19.83 -12.98,-13.1 -19.46,-29.38 -19.46,-48.85 0,-19.47 6.48,-35.76 19.46,-48.85 12.99,-13.22 29.02,-19.83 48.13,-19.83 19.09,0 35.14,6.67 48.1,20.01 12.98,13.09 19.47,29.32 19.47,48.67zm-117.9 0c0,15.18 4.78,27.73 14.32,37.65 9.67,9.92 21.68,14.87 36.01,14.87 14.33,0 26.26,-4.95 35.81,-14.87 9.66,-9.8 14.51,-22.34 14.51,-37.65 0,-15.31 -4.84,-27.86 -14.51,-37.66 -9.55,-9.91 -21.48,-14.87 -35.81,-14.87 -14.33,0 -26.34,4.96 -36.01,14.87 -9.54,9.93 -14.32,22.48 -14.32,37.66zm223.86 65.74l-17.63 0 -46.27 -131.49 18.73 0 35.99 106.7 0.74 0 37.47 -106.7 18.73 0 -47.75 131.49zm80.07 0l-16.9 0 0 -131.49 16.9 0 0 131.49zm107.62 -35.16c0,11.53 -4.22,20.81 -12.68,27.78 -8.57,6.89 -18.96,10.32 -31.21,10.32 -10.9,0 -20.51,-3.18 -28.83,-9.55 -8.33,-6.37 -14.09,-15.06 -17.27,-26.08l16.18 -6.61c1.09,3.91 2.62,7.47 4.58,10.66 1.96,3.18 4.27,5.9 6.89,8.17 2.63,2.27 5.54,4.05 8.72,5.33 3.18,1.28 6.56,1.92 10.11,1.92 7.72,0 14.02,-1.98 18.92,-5.96 4.9,-3.99 7.35,-9.29 7.35,-15.9 0,-5.51 -2.03,-10.22 -6.07,-14.14 -3.79,-3.79 -10.89,-7.46 -21.31,-11.01 -10.53,-3.79 -17.07,-6.36 -19.65,-7.72 -13.96,-7.1 -20.94,-17.57 -20.94,-31.41 0,-9.66 3.86,-17.92 11.58,-24.79 7.83,-6.85 17.45,-10.27 28.83,-10.27 10.04,0 18.73,2.55 26.08,7.7 7.33,5.03 12.24,11.33 14.68,18.93l-15.79 6.61c-1.47,-4.91 -4.38,-8.98 -8.72,-12.22 -4.35,-3.24 -9.64,-4.86 -15.89,-4.86 -6.61,0 -12.19,1.84 -16.72,5.48 -4.53,3.42 -6.8,7.86 -6.8,13.34 0,4.52 1.78,8.41 5.33,11.71 3.92,3.28 12.43,7.2 25.54,11.7 13.34,4.53 22.86,10.11 28.55,16.65 5.69,6.58 8.55,14.63 8.55,24.22zm66.1 38.1c-14.56,0 -26.31,-4.77 -35.26,-14.33 -8.93,-9.42 -13.41,-21.91 -13.41,-37.46l0 -82.64 16.9 0 0 83.37c0,10.77 2.81,19.28 8.44,25.53 5.64,6.25 13.41,9.36 23.33,9.36 9.93,0 17.7,-3.12 23.33,-9.36 5.63,-6.25 8.45,-14.76 8.45,-25.53l0 -83.37 16.89 0 0 82.64c0,15.92 -4.4,28.52 -13.22,37.83 -8.82,9.3 -20.63,13.95 -35.45,13.95zm119.91 -113.68l-21.48 59.32 43.7 0 -21.48 -59.32 -0.74 0zm-40.02 110.74l-18.73 0 49.58 -131.49 19.1 0 49.59 131.49 -18.73 0 -12.67 -35.62 -55.28 0 -12.86 35.62zm188.79 0l-73.82 0 0 -131.49 16.89 0 0 115.34 56.93 0 0 16.15z"/>
 </g>
</svg>
