<svg width="67" height="14" viewBox="0 0 67 14" fill="none" xmlns="http://www.w3.org/2000/svg">
<g clip-path="url(#clip0_206_839)">
<path d="M63.9199 5.8787L58.0838 0L55.7996 2.28424L57.057 3.54164L58.0808 2.51785L60.9094 5.34649C59.0487 5.70401 57.6095 7.27017 57.4053 9.21924H57.3576C57.1372 6.98578 55.2806 5.26727 53.0227 5.26727C51.8953 5.26727 50.8685 5.69588 50.0945 6.39771L43.6968 0L41.4126 2.28424L42.67 3.54164L43.6938 2.51785L49.0372 7.86129C48.7986 8.40061 48.6645 8.99579 48.6645 9.62348C48.6645 10.3405 48.8392 11.017 49.1459 11.6142L49.4933 12.1799C50.2855 13.2708 51.5703 13.9817 53.0217 13.9817C55.3598 13.9817 57.2672 12.1403 57.3739 9.82864H57.383C57.4094 10.4777 57.579 11.0678 57.8604 11.6152L58.2077 12.1809C58.9999 13.2718 60.2848 13.9827 61.7362 13.9827C64.1423 13.9827 66.0934 12.0316 66.0934 9.62551C66.0934 8.03294 65.2382 6.64045 63.9199 5.88073V5.8787ZM52.9923 12.4602C51.4413 12.4602 50.1849 11.2039 50.1849 9.65293C50.1849 8.102 51.4413 6.84562 52.9923 6.84562C54.5432 6.84562 55.7996 8.102 55.7996 9.65293C55.7996 11.2039 54.5432 12.4602 52.9923 12.4602ZM61.7646 12.4013C60.2137 12.4013 58.9573 11.145 58.9573 9.59402C58.9573 8.04309 60.2137 6.78671 61.7646 6.78671C63.3155 6.78671 64.5719 8.04309 64.5719 9.59402C64.5719 11.145 63.3155 12.4013 61.7646 12.4013Z" fill="black"/>
<path d="M5.76965 7.96393C5.47104 7.80041 5.16735 7.66533 4.85757 7.55868C4.54779 7.45204 4.25833 7.39821 3.98816 7.39821C3.654 7.39821 3.39095 7.46626 3.19898 7.60134C3.00702 7.73642 2.91155 7.93956 2.91155 8.20973C2.91155 8.39458 2.98468 8.56013 3.12992 8.70537C3.27516 8.85163 3.46407 8.98062 3.69463 9.09438C3.92519 9.20813 4.1659 9.31173 4.41474 9.40314C4.64225 9.48846 4.86773 9.59002 5.09219 9.70683C5.31666 9.82464 5.51674 9.96988 5.69449 10.1446C5.87223 10.3193 6.01442 10.5356 6.12107 10.7946C6.22771 11.0546 6.28154 11.3725 6.28154 11.7493C6.28154 12.1475 6.17795 12.5172 5.97278 12.8585C5.7666 13.1997 5.46393 13.475 5.06579 13.6852C4.66764 13.8955 4.17707 14.0001 3.59408 14.0001C3.29547 14.0001 2.99179 13.9696 2.68201 13.9097C2.37223 13.8497 2.06854 13.7573 1.76994 13.6324C1.47133 13.5085 1.18288 13.35 0.906616 13.1581L1.58915 11.9525C1.774 12.0876 1.9751 12.2064 2.19144 12.31C2.40778 12.4136 2.62716 12.4928 2.84756 12.5497C3.06796 12.6066 3.27008 12.635 3.45595 12.635C3.64182 12.635 3.82768 12.6086 4.01558 12.5548C4.20348 12.502 4.3599 12.4105 4.48482 12.2826C4.60873 12.1546 4.67171 11.9768 4.67171 11.7493C4.67171 11.5929 4.61991 11.4507 4.51732 11.3228C4.41373 11.1948 4.27559 11.077 4.10191 10.9703C3.92722 10.8637 3.73729 10.7712 3.53111 10.693C3.28938 10.6006 3.04054 10.494 2.78459 10.3731C2.52864 10.2522 2.28894 10.105 2.06448 9.93027C1.84002 9.75659 1.65923 9.53924 1.52008 9.28024C1.38093 9.02125 1.31187 8.70233 1.31187 8.32551C1.31187 7.87049 1.41344 7.47641 1.61555 7.14124C1.81869 6.80709 2.10409 6.542 2.4738 6.34699C2.8435 6.15198 3.27008 6.0433 3.75354 6.02197C4.3863 6.02197 4.90023 6.09713 5.29431 6.24644C5.68839 6.39574 6.04286 6.57348 6.35569 6.77966L5.76965 7.96393Z" fill="black"/>
<path d="M7.2627 6.06543H12.5523V7.55846H10.6439V13.9145H9.09801V7.55846H7.26371V6.06543H7.2627Z" fill="black"/>
<path d="M15.4317 11.0138C15.4317 11.2626 15.5069 11.5003 15.6562 11.7278C15.8055 11.9553 16.0025 12.1402 16.2483 12.2823C16.4941 12.4245 16.7622 12.4956 17.0537 12.4956C17.3737 12.4956 17.6581 12.4245 17.9069 12.2823C18.1557 12.1402 18.3528 11.9553 18.499 11.7278C18.6443 11.5003 18.7174 11.2626 18.7174 11.0138V6.06543H20.2429V11.0463C20.2429 11.6222 20.1007 12.132 19.8164 12.5769C19.532 13.0218 19.1481 13.3701 18.6646 13.622C18.1811 13.8749 17.6438 14.0009 17.0537 14.0009C16.4636 14.0009 15.9395 13.8749 15.4591 13.622C14.9787 13.3701 14.5968 13.0218 14.3124 12.5769C14.0281 12.133 13.8859 11.6222 13.8859 11.0463V6.06543H15.4317V11.0138Z" fill="black"/>
<path d="M22.1077 13.9145V6.06543H24.4539C25.243 6.06543 25.9144 6.18325 26.469 6.41685C27.0235 6.65147 27.4694 6.9643 27.8076 7.35533C28.1448 7.74636 28.3926 8.18412 28.549 8.66758C28.7055 9.15104 28.7837 9.63754 28.7837 10.1281C28.7837 10.7111 28.6791 11.2352 28.4688 11.7014C28.2586 12.1666 27.9732 12.5647 27.6106 12.8958C27.248 13.2259 26.8285 13.4788 26.3522 13.6535C25.8758 13.8282 25.371 13.9145 24.8378 13.9145H22.1077ZM23.6545 12.4215H24.5717C24.9627 12.4215 25.3182 12.3697 25.6381 12.2671C25.9581 12.1645 26.2333 12.0132 26.4649 11.8141C26.6954 11.6151 26.8732 11.3642 26.9981 11.0625C27.122 10.7609 27.185 10.4135 27.185 10.0225C27.185 9.51058 27.1017 9.09314 26.9341 8.76914C26.7665 8.44616 26.5614 8.19529 26.3156 8.01755C26.0698 7.83981 25.8199 7.71691 25.564 7.64988C25.308 7.58284 25.0907 7.54831 24.9129 7.54831H23.6545V12.4215Z" fill="black"/>
<path d="M30.3296 6.06543H31.8765V13.9145H30.3296V6.06543Z" fill="black"/>
<path d="M33.4222 10.0002C33.4222 9.45991 33.5248 8.94801 33.731 8.46455C33.9372 7.98109 34.2236 7.55248 34.5892 7.17973C34.9549 6.80698 35.3805 6.51345 35.8639 6.30016C36.3474 6.08687 36.8664 5.98022 37.4209 5.98022C37.9755 5.98022 38.4833 6.08687 38.9668 6.30016C39.4502 6.51345 39.8789 6.80698 40.2516 7.17973C40.6244 7.55248 40.9159 7.98109 41.1261 8.46455C41.3353 8.94801 41.441 9.45991 41.441 10.0002C41.441 10.5406 41.3363 11.0738 41.1261 11.5573C40.9159 12.0407 40.6254 12.4653 40.2516 12.8319C39.8778 13.1986 39.4502 13.484 38.9668 13.6902C38.4833 13.8964 37.9684 13.9989 37.4209 13.9989C36.8735 13.9989 36.3474 13.8964 35.8639 13.6902C35.3805 13.484 34.9559 13.1976 34.5892 12.8319C34.2226 12.4663 33.9372 12.0407 33.731 11.5573C33.5248 11.0738 33.4222 10.5548 33.4222 10.0002ZM35.0219 10.0002C35.0219 10.3486 35.0839 10.6736 35.2088 10.9763C35.3327 11.279 35.5074 11.5451 35.7309 11.7767C35.9553 12.0082 36.2143 12.187 36.5099 12.315C36.8044 12.4429 37.1264 12.5069 37.4748 12.5069C37.8231 12.5069 38.1197 12.4429 38.4082 12.315C38.6966 12.187 38.9465 12.0072 39.1598 11.7767C39.3731 11.5461 39.5396 11.279 39.6605 10.9763C39.7814 10.6747 39.8423 10.3486 39.8423 10.0002C39.8423 9.65187 39.7803 9.31467 39.6554 9.00895C39.5305 8.70324 39.3598 8.4351 39.1435 8.20353C38.9262 7.97297 38.6722 7.7932 38.3807 7.66522C38.0892 7.53725 37.7724 7.47326 37.4321 7.47326C37.0919 7.47326 36.774 7.53725 36.4825 7.66522C36.191 7.7932 35.935 7.97297 35.7146 8.20353C35.4942 8.4351 35.3236 8.70324 35.2027 9.00895C35.0818 9.31467 35.0209 9.64578 35.0209 10.0002H35.0219Z" fill="black"/>
</g>
<defs>
<clipPath id="clip0_206_839">
<rect width="65.1867" height="14" fill="white" transform="translate(0.906616)"/>
</clipPath>
</defs>
</svg>
