<svg width="143" height="48" viewBox="0 0 143 48" fill="none" xmlns="http://www.w3.org/2000/svg">
<path d="M57.8861 7.3305V10.6306H59.8956C60.4163 10.6306 60.7628 10.5592 60.9371 10.4165C61.171 10.2276 61.2995 9.89593 61.327 9.42143H61.5748V12.3311H61.327C61.2652 11.9238 61.2009 11.6614 61.1389 11.5459C61.0587 11.4032 60.9256 11.2899 60.7421 11.208C60.5586 11.1261 60.2764 11.0841 59.8956 11.0841H57.8861V13.8384C57.8861 14.2078 57.9045 14.4325 57.9388 14.5123C57.9756 14.592 58.0375 14.6571 58.127 14.7033C58.2164 14.7516 58.3885 14.7747 58.6385 14.7747H60.1823C60.6962 14.7747 61.0701 14.7411 61.3041 14.6761C61.5358 14.611 61.7606 14.4808 61.9739 14.2877C62.2515 14.0337 62.536 13.6495 62.8273 13.1372H63.1026L62.3157 15.2281H55.2848V15.0014H55.6082C55.8239 15.0014 56.028 14.9531 56.2207 14.8587C56.3652 14.7936 56.4639 14.6949 56.5143 14.5626C56.567 14.4304 56.5923 14.1617 56.5923 13.7544V8.32561C56.5923 7.79657 56.535 7.4712 56.418 7.34942C56.2551 7.18566 55.9867 7.10378 55.6082 7.10378H55.2848V6.87707H62.3181L62.4144 8.71608H62.1529C62.0588 8.27314 61.9556 7.96868 61.8409 7.80286C61.7262 7.63703 61.5564 7.51103 61.3339 7.42287C61.155 7.36198 60.8384 7.3305 60.3865 7.3305H57.8861ZM71.3173 12.9231L71.5375 12.9672L70.753 15.2281H63.6922V15.0014H64.0339C64.4194 15.0014 64.6946 14.8881 64.8598 14.6592C64.9538 14.5291 64.9997 14.2268 64.9997 13.7544V8.35081C64.9997 7.83012 64.9377 7.50475 64.8116 7.37462C64.6373 7.19409 64.3781 7.10378 64.0339 7.10378H63.6922V6.87707H67.8213V7.10378C67.3373 7.09957 66.9977 7.13948 66.8005 7.22557C66.6055 7.30951 66.4725 7.41866 66.4013 7.54672C66.3302 7.67693 66.2935 7.9876 66.2935 8.47672V13.7419C66.2935 14.084 66.3302 14.3171 66.4013 14.4451C66.4541 14.5333 66.5389 14.5963 66.6514 14.6382C66.7614 14.6781 67.1125 14.6991 67.702 14.6991H68.3672C69.0692 14.6991 69.5601 14.6529 69.8423 14.5585C70.1244 14.464 70.3836 14.2961 70.6176 14.0567C70.8493 13.8174 71.0833 13.4395 71.3173 12.9231ZM74.7009 7.3305V10.6306H76.7104C77.2311 10.6306 77.5775 10.5592 77.7519 10.4165C77.9859 10.2276 78.1143 9.89593 78.1418 9.42143H78.3896V12.3311H78.1418C78.0799 11.9238 78.0157 11.6614 77.9537 11.5459C77.8734 11.4032 77.7404 11.2899 77.5569 11.208C77.3733 11.1261 77.0912 11.0841 76.7104 11.0841H74.7009V13.8384C74.7009 14.2078 74.7192 14.4325 74.7537 14.5123C74.7904 14.592 74.8523 14.6571 74.9417 14.7033C75.0312 14.7516 75.2033 14.7747 75.4533 14.7747H76.9972C77.511 14.7747 77.8849 14.7411 78.1189 14.6761C78.3506 14.611 78.5754 14.4808 78.7887 14.2877C79.0663 14.0337 79.3508 13.6495 79.642 13.1372H79.9173L79.1306 15.2281H72.0996V15.0014H72.4229C72.6386 15.0014 72.8428 14.9531 73.0355 14.8587C73.18 14.7936 73.2786 14.6949 73.3291 14.5626C73.3819 14.4304 73.4071 14.1617 73.4071 13.7544V8.32561C73.4071 7.79657 73.3497 7.4712 73.2328 7.34942C73.0699 7.18566 72.8015 7.10378 72.4229 7.10378H72.0996V6.87707H79.1329L79.2291 8.71608H78.9676C78.8736 8.27314 78.7703 7.96868 78.6557 7.80286C78.5409 7.63703 78.3712 7.51103 78.1487 7.42287C77.9698 7.36198 77.6532 7.3305 77.2013 7.3305H74.7009ZM89.9971 6.87707V7.10378C89.6759 7.15839 89.4304 7.25283 89.2653 7.38932C89.029 7.59084 88.818 7.90151 88.6345 8.31932L85.4665 15.4171H85.2187L81.8076 8.22481C81.6333 7.85325 81.5094 7.62654 81.4382 7.54466C81.3259 7.41659 81.1882 7.31579 81.023 7.24234C80.8602 7.17095 80.64 7.12477 80.3624 7.10378V6.87707H84.0832V7.10378C83.6612 7.14162 83.3882 7.20665 83.2619 7.30117C83.1381 7.39561 83.0738 7.51525 83.0738 7.6643C83.0738 7.86796 83.1771 8.18912 83.3836 8.62371L85.7028 13.513L87.8568 8.6846C88.0678 8.20804 88.1734 7.87845 88.1734 7.69371C88.1734 7.57614 88.1068 7.46071 87.9784 7.35363C87.8476 7.24441 87.6274 7.16682 87.32 7.1227C87.2971 7.11848 87.2581 7.11221 87.2053 7.10378V6.87707H89.9971ZM94.7043 12.4444H91.1692L90.5591 13.7523C90.4077 14.0756 90.3297 14.3191 90.3297 14.4787C90.3297 14.6047 90.3962 14.718 90.5292 14.8145C90.66 14.9091 90.9467 14.972 91.3849 15.0014V15.2281H88.5083V15.0014C88.889 14.9405 89.1345 14.8607 89.2469 14.7621C89.4763 14.5648 89.7287 14.1638 90.0062 13.5612L93.2155 6.68811H93.4425L96.6151 13.6348C96.8697 14.1932 97.1014 14.5543 97.3102 14.7222C97.5189 14.8881 97.808 14.9804 98.1819 15.0014V15.2281H94.585V15.0014C94.9474 14.9846 95.1929 14.93 95.3213 14.8356C95.4498 14.7411 95.5117 14.6257 95.5117 14.4892C95.5117 14.3086 95.4223 14.0232 95.2433 13.6327L94.7043 12.4444ZM94.4978 11.991L92.9608 8.62156L91.3826 11.991H94.4978ZM98.5719 15.2281V15.0014H98.9137C99.2991 15.0014 99.572 14.8881 99.7327 14.6634C99.8312 14.5291 99.8794 14.2247 99.8794 13.7544V8.35081C99.8794 7.83012 99.8175 7.50475 99.6913 7.37462C99.517 7.19409 99.2578 7.10378 98.9137 7.10378H98.5719V6.87707H102.281C103.644 6.87707 104.681 7.01769 105.39 7.30117C106.101 7.58456 106.672 8.05692 107.103 8.71815C107.537 9.37946 107.752 10.1436 107.752 11.0085C107.752 12.1715 107.367 13.1414 106.596 13.9224C105.731 14.7936 104.415 15.2281 102.644 15.2281H98.5719ZM101.173 14.6152C101.742 14.7306 102.217 14.7873 102.602 14.7873C103.639 14.7873 104.499 14.4535 105.185 13.7838C105.869 13.1162 106.211 12.2094 106.211 11.0652C106.211 9.9127 105.869 9.00369 105.185 8.34031C104.499 7.67479 103.621 7.34314 102.547 7.34314C102.146 7.34314 101.687 7.40188 101.173 7.5216V14.6152ZM113.306 6.68811C114.487 6.68811 115.513 7.09957 116.378 7.9225C117.245 8.74542 117.678 9.772 117.678 11.0043C117.678 12.2723 117.242 13.324 116.368 14.1617C115.497 14.9993 114.439 15.4171 113.198 15.4171C111.946 15.4171 110.893 15.0077 110.039 14.1911C109.186 13.3744 108.759 12.3185 108.759 11.0211C108.759 9.69648 109.253 8.61528 110.237 7.77766C111.092 7.05132 112.115 6.68811 113.306 6.68811ZM113.178 7.12898C112.365 7.12898 111.712 7.4061 111.221 7.96033C110.608 8.65097 110.301 9.66079 110.301 10.9918C110.301 12.3542 110.617 13.4038 111.253 14.1386C111.742 14.697 112.384 14.9762 113.184 14.9762C114.04 14.9762 114.744 14.6697 115.302 14.0589C115.859 13.4458 116.137 12.4823 116.137 11.1639C116.137 9.73424 115.829 8.66783 115.217 7.96661C114.726 7.40817 114.047 7.12898 113.178 7.12898ZM127.526 15.2281H125.083L121.984 11.3234C121.762 11.3318 121.58 11.336 121.44 11.336C121.383 11.336 121.321 11.3339 121.257 11.3318C121.19 11.3297 121.124 11.3276 121.053 11.3234V13.7544C121.053 14.2792 121.115 14.6047 121.241 14.7306C121.411 14.9111 121.665 15.0014 122.005 15.0014H122.36V15.2281H118.451V15.0014H118.793C119.179 15.0014 119.454 14.8859 119.619 14.6571C119.713 14.5311 119.759 14.2289 119.759 13.7544V8.35081C119.759 7.82599 119.697 7.50054 119.571 7.37462C119.396 7.19409 119.137 7.10378 118.793 7.10378H118.451V6.87707H121.773C122.743 6.87707 123.457 6.94217 123.916 7.07023C124.377 7.20037 124.767 7.43964 125.085 7.78608C125.407 8.13243 125.567 8.54604 125.567 9.02675C125.567 9.54107 125.384 9.98616 125.019 10.364C124.652 10.7419 124.088 11.0085 123.319 11.166L125.207 13.5571C125.638 14.1071 126.008 14.4745 126.317 14.655C126.625 14.8377 127.029 14.951 127.526 15.0014V15.2281ZM121.053 10.9329C121.138 10.9329 121.211 10.9329 121.273 10.9351C121.335 10.9371 121.385 10.9393 121.424 10.9393C122.285 10.9393 122.934 10.7671 123.37 10.4228C123.808 10.0764 124.026 9.63765 124.026 9.10441C124.026 8.5838 123.849 8.15978 123.498 7.83227C123.145 7.5069 122.677 7.34314 122.096 7.34314C121.84 7.34314 121.491 7.3809 121.053 7.45649V10.9329ZM130.274 7.3305V10.6306H132.284C132.805 10.6306 133.151 10.5592 133.325 10.4165C133.559 10.2276 133.688 9.89593 133.715 9.42143H133.963V12.3311H133.715C133.653 11.9238 133.589 11.6614 133.527 11.5459C133.447 11.4032 133.314 11.2899 133.13 11.208C132.947 11.1261 132.665 11.0841 132.284 11.0841H130.274V13.8384C130.274 14.2078 130.293 14.4325 130.327 14.5123C130.364 14.592 130.426 14.6571 130.515 14.7033C130.605 14.7516 130.777 14.7747 131.027 14.7747H132.571C133.085 14.7747 133.458 14.7411 133.692 14.6761C133.924 14.611 134.149 14.4808 134.362 14.2877C134.64 14.0337 134.924 13.6495 135.216 13.1372H135.491L134.704 15.2281H127.673V15.0014H127.997C128.212 15.0014 128.416 14.9531 128.609 14.8587C128.754 14.7936 128.852 14.6949 128.903 14.5626C128.955 14.4304 128.981 14.1617 128.981 13.7544V8.32561C128.981 7.79657 128.923 7.4712 128.806 7.34942C128.643 7.18566 128.375 7.10378 127.997 7.10378H127.673V6.87707H134.706L134.803 8.71608H134.541C134.447 8.27314 134.344 7.96868 134.229 7.80286C134.115 7.63703 133.945 7.51103 133.722 7.42287C133.543 7.36198 133.227 7.3305 132.775 7.3305H130.274ZM142.123 6.68811V9.57263H141.875C141.795 9.01839 141.65 8.57752 141.441 8.25001C141.233 7.92249 140.935 7.66223 140.547 7.46906C140.161 7.27597 139.762 7.17938 139.349 7.17938C138.881 7.17938 138.496 7.30952 138.191 7.56986C137.886 7.83012 137.732 8.12823 137.732 8.45995C137.732 8.71394 137.828 8.94701 138.021 9.15696C138.301 9.46341 138.962 9.87486 140.008 10.3871C140.861 10.807 141.444 11.1282 141.756 11.3507C142.068 11.5753 142.309 11.8377 142.476 12.1422C142.644 12.4466 142.728 12.7635 142.728 13.0973C142.728 13.7292 142.46 14.273 141.926 14.7306C141.389 15.1882 140.698 15.4171 139.856 15.4171C139.59 15.4171 139.342 15.3982 139.108 15.3604C138.969 15.3394 138.682 15.2638 138.244 15.1337C137.808 15.0035 137.53 14.9385 137.413 14.9385C137.301 14.9385 137.211 14.97 137.147 15.0308C137.083 15.0938 137.035 15.2219 137.003 15.4171H136.755V12.5578H137.003C137.12 13.1561 137.276 13.6054 137.473 13.9014C137.67 14.1995 137.973 14.4472 138.379 14.6424C138.785 14.8397 139.23 14.9385 139.714 14.9385C140.274 14.9385 140.719 14.802 141.042 14.5311C141.368 14.2582 141.531 13.9371 141.531 13.5676C141.531 13.3619 141.469 13.154 141.347 12.944C141.224 12.7342 141.033 12.5389 140.774 12.3563C140.6 12.2324 140.12 11.9721 139.338 11.5733C138.556 11.1765 137.998 10.8573 137.668 10.6201C137.338 10.3829 137.085 10.1184 136.915 9.83289C136.743 9.54529 136.659 9.22827 136.659 8.88405C136.659 8.2857 136.911 7.76931 137.413 7.33686C137.916 6.90434 138.558 6.68811 139.333 6.68811C139.82 6.68811 140.334 6.79725 140.877 7.01355C141.129 7.11642 141.306 7.16682 141.409 7.16682C141.526 7.16682 141.623 7.13527 141.696 7.07231C141.77 7.0072 141.829 6.88128 141.875 6.68811H142.123Z" fill="#E6E6DD"/>
<path d="M72.1568 26.2798C73.1877 26.4948 73.96 26.8338 74.4735 27.3075C75.182 27.9634 75.5381 28.7651 75.5381 29.7125C75.5381 30.4341 75.3057 31.1265 74.8371 31.786C74.3685 32.4456 73.7275 32.9266 72.9103 33.229C72.0968 33.5315 70.8523 33.6845 69.1767 33.6845H62.1555V33.291H62.7103C63.3288 33.291 63.7711 33.0979 64.041 32.7152C64.2098 32.4675 64.2922 31.9354 64.2922 31.1265V21.7466C64.2922 20.8502 64.1872 20.2854 63.9773 20.0522C63.6924 19.7388 63.2726 19.5821 62.7103 19.5821H62.1555V19.1886H68.5807C69.7802 19.1886 70.7399 19.2724 71.4633 19.4436C72.5617 19.7024 73.3976 20.1542 73.9749 20.8065C74.5522 21.4588 74.8409 22.2058 74.8409 23.0549C74.8409 23.7801 74.6159 24.4287 74.1623 25.0045C73.7088 25.5766 73.0415 26.0029 72.1568 26.2798ZM66.4065 25.6859C66.6763 25.7369 66.9875 25.7733 67.3323 25.7988C67.681 25.8243 68.0633 25.8353 68.4795 25.8353C69.5478 25.8353 70.3537 25.7223 70.8898 25.5C71.4259 25.2778 71.8382 24.9352 72.1231 24.4724C72.4042 24.0133 72.5467 23.5104 72.5467 22.9638C72.5467 22.1184 72.1906 21.4005 71.4821 20.8029C70.7736 20.2089 69.739 19.9101 68.382 19.9101C67.651 19.9101 66.9913 19.9866 66.4065 20.1433V25.6859ZM66.4065 32.6315C67.2574 32.8245 68.1008 32.9193 68.9293 32.9193C70.26 32.9193 71.2759 32.6278 71.9731 32.0484C72.6704 31.469 73.019 30.7511 73.019 29.8984C73.019 29.3372 72.8579 28.7943 72.5317 28.2768C72.2094 27.7557 71.692 27.3476 70.9835 27.0488C70.2751 26.7499 69.3941 26.6005 68.3482 26.6005C67.8947 26.6005 67.5086 26.6078 67.1862 26.6224C66.8637 26.637 66.6052 26.6625 66.4065 26.6953V32.6315ZM81.476 19.9756V25.7041H84.7598C85.6107 25.7041 86.1768 25.5802 86.4617 25.3324C86.844 25.0045 87.0539 24.4287 87.0989 23.6051H87.5038V28.6558H87.0989C86.9977 27.9488 86.8927 27.4933 86.7915 27.2929C86.6603 27.0451 86.4429 26.8483 86.143 26.7062C85.8431 26.5641 85.382 26.4912 84.7598 26.4912H81.476V31.2722C81.476 31.9135 81.5059 32.3035 81.5622 32.442C81.6222 32.5804 81.7234 32.6934 81.8696 32.7735C82.0158 32.8574 82.2969 32.8975 82.7055 32.8975H85.2284C86.0681 32.8975 86.6791 32.8392 87.0614 32.7262C87.44 32.6132 87.8074 32.3873 88.156 32.052C88.6096 31.6111 89.0744 30.9442 89.5506 30.0551H90.0004L88.7146 33.6845H77.225V33.291H77.7536C78.1059 33.291 78.4396 33.2072 78.7544 33.0432C78.9907 32.9302 79.1518 32.759 79.2343 32.5294C79.3205 32.2998 79.3618 31.8333 79.3618 31.1265V21.7029C79.3618 20.7846 79.268 20.2198 79.0768 20.0084C78.8107 19.7243 78.3721 19.5821 77.7536 19.5821H77.225V19.1886H88.7184L88.8758 22.3807H88.4484C88.2947 21.6118 88.1261 21.0835 87.9386 20.7956C87.7512 20.5077 87.4738 20.2891 87.1102 20.136C86.8178 20.0303 86.3005 19.9756 85.562 19.9756H81.476ZM103.424 29.6834L103.784 29.76L102.502 33.6845H90.9638V33.291H91.5223C92.1521 33.291 92.6019 33.0942 92.8718 32.697C93.0255 32.4711 93.1005 31.9463 93.1005 31.1265V21.7466C93.1005 20.8429 92.9993 20.2781 92.7931 20.0522C92.5082 19.7388 92.0846 19.5821 91.5223 19.5821H90.9638V19.1886H97.7113V19.5821C96.9203 19.5748 96.3656 19.6441 96.0432 19.7934C95.7245 19.9392 95.5071 20.1287 95.3909 20.351C95.2747 20.5769 95.2147 21.1163 95.2147 21.9653V31.1046C95.2147 31.6985 95.2747 32.103 95.3909 32.3253C95.4771 32.4783 95.6158 32.5877 95.7995 32.6606C95.9794 32.7298 96.553 32.7663 97.5164 32.7663H98.6035C99.7506 32.7663 100.553 32.6861 101.014 32.5222C101.475 32.3582 101.899 32.0666 102.281 31.6512C102.659 31.2358 103.042 30.5798 103.424 29.6834ZM118.04 18.8606L118.423 23.4302H118.018C117.632 22.2969 117.129 21.4442 116.518 20.8684C115.634 20.0413 114.498 19.6258 113.111 19.6258C111.221 19.6258 109.782 20.3546 108.796 21.8159C107.971 23.044 107.559 24.5125 107.559 26.2143C107.559 27.5953 107.833 28.8525 108.384 29.9932C108.931 31.1301 109.651 31.9645 110.539 32.4966C111.428 33.025 112.342 33.291 113.279 33.291C113.827 33.291 114.359 33.2218 114.873 33.087C115.382 32.9521 115.877 32.7517 116.353 32.4857V28.2841C116.353 27.5553 116.297 27.0779 116.185 26.8556C116.068 26.6297 115.892 26.4584 115.656 26.3418C115.416 26.2216 114.996 26.1633 114.396 26.1633V25.7697H120.154V26.1633H119.881C119.311 26.1633 118.921 26.3491 118.707 26.7208C118.561 26.9832 118.49 27.5043 118.49 28.2841V32.7262C117.65 33.1707 116.818 33.495 116.001 33.7028C115.18 33.9105 114.269 34.0125 113.268 34.0125C110.393 34.0125 108.211 33.1161 106.719 31.3196C105.598 29.975 105.04 28.4189 105.04 26.6625C105.04 25.3871 105.355 24.1626 105.985 22.9966C106.731 21.6082 107.754 20.5369 109.055 19.7898C110.146 19.1703 111.431 18.8606 112.92 18.8606C113.459 18.8606 113.95 18.9043 114.393 18.9881C114.835 19.0756 115.461 19.2614 116.275 19.5529C116.683 19.7024 116.961 19.7789 117.099 19.7789C117.238 19.7789 117.354 19.7169 117.455 19.5931C117.553 19.4691 117.613 19.225 117.635 18.8606H118.04ZM128.713 18.8606C130.643 18.8606 132.319 19.5748 133.732 21.0033C135.149 22.4318 135.857 24.2137 135.857 26.3528C135.857 28.5538 135.145 30.3794 133.717 31.8333C132.292 33.2874 130.564 34.0125 128.536 34.0125C126.49 34.0125 124.769 33.302 123.374 31.8844C121.98 30.4668 121.283 28.6339 121.283 26.3819C121.283 24.0825 122.089 22.2058 123.697 20.7518C125.095 19.491 126.767 18.8606 128.713 18.8606ZM128.503 19.6258C127.176 19.6258 126.107 20.1069 125.305 21.0689C124.304 22.2678 123.802 24.0206 123.802 26.3309C123.802 28.6958 124.319 30.5179 125.357 31.7933C126.156 32.7626 127.206 33.2473 128.514 33.2473C129.912 33.2473 131.063 32.7152 131.974 31.6548C132.885 30.5908 133.338 28.9182 133.338 26.6297C133.338 24.1481 132.836 22.2969 131.835 21.0798C131.033 20.1105 129.923 19.6258 128.503 19.6258Z" fill="#E6E6DD"/>
<path d="M62.3811 43.4641V39.0896H63.3446V42.7186H65.7299V43.4641H62.3811ZM68.1065 43.4641V39.0527H69.07V43.4641H68.1065ZM67.9536 38.6522L68.4055 37.7527H69.4221L68.5251 38.6522H67.9536ZM71.8318 39.0527H73.5839C73.9792 39.0527 74.2803 39.0804 74.4875 39.1369C74.7655 39.2129 75.0047 39.3484 75.2029 39.5435C75.4023 39.7376 75.5528 39.9758 75.6569 40.2583C75.76 40.5396 75.812 40.8877 75.812 41.3005C75.812 41.664 75.7632 41.9762 75.6658 42.2391C75.5473 42.5605 75.3778 42.8204 75.1575 43.0185C74.9913 43.1695 74.7665 43.2865 74.4842 43.3707C74.2727 43.4333 73.9903 43.4641 73.6359 43.4641H71.8318V39.0527ZM72.7953 39.7982V42.7186H73.5096C73.7765 42.7186 73.9692 42.7043 74.0878 42.6765C74.2439 42.6406 74.3723 42.579 74.4742 42.4928C74.5772 42.4064 74.6603 42.2647 74.7245 42.0676C74.7898 41.8704 74.8219 41.6004 74.8219 41.2595C74.8219 40.9185 74.7898 40.6577 74.7245 40.4749C74.6603 40.2922 74.5695 40.1505 74.4531 40.0477C74.3368 39.9461 74.1896 39.8762 74.0102 39.8403C73.8773 39.8126 73.6148 39.7982 73.225 39.7982H72.7953ZM78.4764 43.4641V39.0527H81.9981V39.7982H79.4399V40.7778H81.8186V41.5234H79.4399V42.7186H82.0911V43.4641H78.4764ZM84.7544 43.4641V39.0527H86.7777C87.286 39.0527 87.6559 39.0928 87.8863 39.1718C88.1177 39.2509 88.3015 39.3916 88.44 39.5939C88.5784 39.7972 88.6481 40.0282 88.6481 40.2891C88.6481 40.6207 88.5441 40.8939 88.3347 41.1096C88.1254 41.3252 87.8131 41.4607 87.3968 41.5172C87.6038 41.6292 87.7744 41.7523 87.9084 41.8869C88.0434 42.0214 88.2251 42.2606 88.4532 42.6036L89.0336 43.4641H87.8851L87.1962 42.501C86.9494 42.159 86.7799 41.9434 86.688 41.854C86.5972 41.7657 86.5008 41.7041 86.399 41.6712C86.296 41.6384 86.1343 41.622 85.9128 41.622H85.7179V43.4641H84.7544ZM85.7179 40.9195H86.4289C86.8895 40.9195 87.1764 40.9011 87.2915 40.8651C87.4056 40.8292 87.4964 40.7666 87.5607 40.6783C87.626 40.5899 87.6581 40.479 87.6581 40.3465C87.6581 40.1976 87.6149 40.0785 87.5296 39.9861C87.4443 39.8947 87.3237 39.8373 87.1686 39.8136C87.09 39.8033 86.8563 39.7982 86.4676 39.7982H85.7179V40.9195ZM95.0779 43.4641V39.0527H96.5208L97.3736 42.0614L98.2163 39.0527H99.6626V43.4641H98.7722L98.7689 39.9913L97.831 43.4641H96.9052L95.9716 39.9913L95.9682 43.4641H95.0779ZM102.472 39.0527H103.436V41.4433C103.436 41.8232 103.448 42.0686 103.471 42.1806C103.512 42.3613 103.608 42.5071 103.761 42.616C103.915 42.7258 104.124 42.7803 104.39 42.7803C104.659 42.7803 104.863 42.7289 105 42.6252C105.138 42.5215 105.22 42.3952 105.247 42.2442C105.275 42.0933 105.289 41.8438 105.289 41.4946V39.0527H106.253V41.3724C106.253 41.9023 106.227 42.2771 106.175 42.4958C106.123 42.7145 106.028 42.8994 105.889 43.0503C105.75 43.2013 105.564 43.3204 105.332 43.4097C105.098 43.4991 104.794 43.5442 104.419 43.5442C103.966 43.5442 103.623 43.496 103.389 43.3985C103.155 43.3009 102.971 43.1746 102.834 43.0185C102.698 42.8624 102.609 42.7002 102.566 42.5287C102.503 42.2761 102.472 41.9023 102.472 41.4084V39.0527ZM109.117 43.4641V39.0527H110.049L112.007 42.0091V39.0527H112.897V43.4641H111.935L110.007 40.5643V43.4641H109.117ZM115.761 39.0527H117.513C117.909 39.0527 118.21 39.0804 118.417 39.1369C118.695 39.2129 118.934 39.3484 119.132 39.5435C119.332 39.7376 119.482 39.9758 119.586 40.2583C119.689 40.5396 119.741 40.8877 119.741 41.3005C119.741 41.664 119.693 41.9762 119.595 42.2391C119.477 42.5605 119.307 42.8204 119.087 43.0185C118.921 43.1695 118.696 43.2865 118.414 43.3707C118.202 43.4333 117.92 43.4641 117.565 43.4641H115.761V39.0527ZM116.725 39.7982V42.7186H117.439C117.706 42.7186 117.899 42.7043 118.017 42.6765C118.173 42.6406 118.302 42.579 118.404 42.4928C118.507 42.4064 118.59 42.2647 118.654 42.0676C118.719 41.8704 118.751 41.6004 118.751 41.2595C118.751 40.9185 118.719 40.6577 118.654 40.4749C118.59 40.2922 118.499 40.1505 118.383 40.0477C118.266 39.9461 118.119 39.8762 117.94 39.8403C117.807 39.8126 117.544 39.7982 117.154 39.7982H116.725ZM122.373 43.4641V39.0527H123.336V43.4641H122.373ZM130.137 43.4641H129.099L128.688 42.4599H126.78L126.385 43.4641H125.366L127.213 39.0527H128.231L130.137 43.4641ZM128.376 41.7143L127.715 40.0817L127.073 41.7143H128.376ZM132.275 43.4641V39.0896H133.239V42.7186H135.624V43.4641H132.275Z" fill="#E6E6DD"/>
<path fill-rule="evenodd" clip-rule="evenodd" d="M6.44397 31.3233L16.0101 5.07703L42.2563 14.6431L34.6459 18.1878C34.472 18.4762 34.2752 18.7505 34.0607 19.0111C35.0677 18.8676 36.1051 18.858 37.0805 19.1049L43.1831 16.2625L40.2573 24.2899C40.1339 24.898 39.9202 25.468 39.6334 26.0016L33.5412 42.7165L7.0872 33.0747L16.5004 28.6903L15.7154 27.005L6.44397 31.3233ZM12.6152 19.3835L22.8062 14.6369C24.8291 13.6947 26.3556 13.0514 27.3981 12.7012C28.4483 12.3524 29.4414 12.1751 30.3891 12.164C31.3387 12.157 32.2113 12.3259 33.0091 12.6749C33.8068 13.0238 34.3788 13.5698 34.7212 14.3049C35.0914 15.0996 35.1134 15.9839 34.7819 16.946C34.4521 17.9118 33.8116 18.8147 32.8696 19.6595C34.5603 19.2445 35.9873 19.2085 37.1642 19.55C38.3352 19.8944 39.1502 20.5594 39.611 21.5488C39.9737 22.3275 40.0585 23.2068 39.861 24.1934C39.6637 25.18 39.2021 26.1106 38.4702 26.9881C37.7425 27.8591 36.7176 28.6653 35.3954 29.4067C34.569 29.8643 32.5173 30.8682 29.2444 32.4119L20.566 36.454L12.6152 19.3835ZM19.0975 19.8169L20.9297 23.7507L24.299 22.1815C26.2979 21.2504 27.5344 20.6504 28.0024 20.384C28.8488 19.9076 29.4484 19.3817 29.7954 18.8091C30.1422 18.2365 30.1858 17.6795 29.9304 17.1311C29.6843 16.6026 29.2668 16.2796 28.6802 16.1516C28.0936 16.0233 27.3545 16.1258 26.4689 16.4562C25.9402 16.654 24.4657 17.3166 22.0515 18.4411L19.0975 19.8169ZM22.2511 26.5879L24.3832 31.1655L29.1524 28.9441C31.0031 28.0821 32.1669 27.4965 32.6337 27.197C33.3545 26.7452 33.8719 26.2286 34.184 25.6432C34.4942 25.0538 34.5134 24.4597 34.2302 23.8518C33.9897 23.3353 33.6041 22.9878 33.0637 22.8043C32.5294 22.6178 31.8674 22.607 31.0915 22.7702C30.3158 22.9332 28.7523 23.5599 26.4093 24.6512L22.2511 26.5879Z" fill="#E6E6DD"/>
<path d="M57.8861 7.3305V10.6306H59.8956C60.4163 10.6306 60.7628 10.5592 60.9371 10.4165C61.171 10.2276 61.2995 9.89593 61.327 9.42143H61.5748V12.3311H61.327C61.2652 11.9238 61.2009 11.6614 61.1389 11.5459C61.0587 11.4032 60.9256 11.2899 60.7421 11.208C60.5586 11.1261 60.2764 11.0841 59.8956 11.0841H57.8861V13.8384C57.8861 14.2078 57.9045 14.4325 57.9388 14.5123C57.9756 14.592 58.0375 14.6571 58.127 14.7033C58.2164 14.7516 58.3885 14.7747 58.6385 14.7747H60.1823C60.6962 14.7747 61.0701 14.7411 61.3041 14.6761C61.5358 14.611 61.7606 14.4808 61.9739 14.2877C62.2515 14.0337 62.536 13.6495 62.8273 13.1372H63.1026L62.3157 15.2281H55.2848V15.0014H55.6082C55.8239 15.0014 56.028 14.9531 56.2207 14.8587C56.3652 14.7936 56.4639 14.6949 56.5143 14.5626C56.567 14.4304 56.5923 14.1617 56.5923 13.7544V8.32561C56.5923 7.79657 56.535 7.4712 56.418 7.34942C56.2551 7.18566 55.9867 7.10378 55.6082 7.10378H55.2848V6.87707H62.3181L62.4144 8.71608H62.1529C62.0588 8.27314 61.9556 7.96868 61.8409 7.80286C61.7262 7.63703 61.5564 7.51103 61.3339 7.42287C61.155 7.36198 60.8384 7.3305 60.3865 7.3305H57.8861ZM71.3173 12.9231L71.5375 12.9672L70.753 15.2281H63.6922V15.0014H64.0339C64.4194 15.0014 64.6946 14.8881 64.8598 14.6592C64.9538 14.5291 64.9997 14.2268 64.9997 13.7544V8.35081C64.9997 7.83012 64.9377 7.50475 64.8116 7.37462C64.6373 7.19409 64.3781 7.10378 64.0339 7.10378H63.6922V6.87707H67.8213V7.10378C67.3373 7.09957 66.9977 7.13948 66.8005 7.22557C66.6055 7.30951 66.4725 7.41866 66.4013 7.54672C66.3302 7.67693 66.2935 7.9876 66.2935 8.47672V13.7419C66.2935 14.084 66.3302 14.3171 66.4013 14.4451C66.4541 14.5333 66.5389 14.5963 66.6514 14.6382C66.7614 14.6781 67.1125 14.6991 67.702 14.6991H68.3672C69.0692 14.6991 69.5601 14.6529 69.8423 14.5585C70.1244 14.464 70.3836 14.2961 70.6176 14.0567C70.8493 13.8174 71.0833 13.4395 71.3173 12.9231ZM74.7009 7.3305V10.6306H76.7104C77.2311 10.6306 77.5775 10.5592 77.7519 10.4165C77.9859 10.2276 78.1143 9.89593 78.1418 9.42143H78.3896V12.3311H78.1418C78.0799 11.9238 78.0157 11.6614 77.9537 11.5459C77.8734 11.4032 77.7404 11.2899 77.5569 11.208C77.3733 11.1261 77.0912 11.0841 76.7104 11.0841H74.7009V13.8384C74.7009 14.2078 74.7192 14.4325 74.7537 14.5123C74.7904 14.592 74.8523 14.6571 74.9417 14.7033C75.0312 14.7516 75.2033 14.7747 75.4533 14.7747H76.9972C77.511 14.7747 77.8849 14.7411 78.1189 14.6761C78.3506 14.611 78.5754 14.4808 78.7887 14.2877C79.0663 14.0337 79.3508 13.6495 79.642 13.1372H79.9173L79.1306 15.2281H72.0996V15.0014H72.4229C72.6386 15.0014 72.8428 14.9531 73.0355 14.8587C73.18 14.7936 73.2786 14.6949 73.3291 14.5626C73.3819 14.4304 73.4071 14.1617 73.4071 13.7544V8.32561C73.4071 7.79657 73.3497 7.4712 73.2328 7.34942C73.0699 7.18566 72.8015 7.10378 72.4229 7.10378H72.0996V6.87707H79.1329L79.2291 8.71608H78.9676C78.8736 8.27314 78.7703 7.96868 78.6557 7.80286C78.5409 7.63703 78.3712 7.51103 78.1487 7.42287C77.9698 7.36198 77.6532 7.3305 77.2013 7.3305H74.7009ZM89.9971 6.87707V7.10378C89.6759 7.15839 89.4304 7.25283 89.2653 7.38932C89.029 7.59084 88.818 7.90151 88.6345 8.31932L85.4665 15.4171H85.2187L81.8076 8.22481C81.6333 7.85325 81.5094 7.62654 81.4382 7.54466C81.3259 7.41659 81.1882 7.31579 81.023 7.24234C80.8602 7.17095 80.64 7.12477 80.3624 7.10378V6.87707H84.0832V7.10378C83.6612 7.14162 83.3882 7.20665 83.2619 7.30117C83.1381 7.39561 83.0738 7.51525 83.0738 7.6643C83.0738 7.86796 83.1771 8.18912 83.3836 8.62371L85.7028 13.513L87.8568 8.6846C88.0678 8.20804 88.1734 7.87845 88.1734 7.69371C88.1734 7.57614 88.1068 7.46071 87.9784 7.35363C87.8476 7.24441 87.6274 7.16682 87.32 7.1227C87.2971 7.11848 87.2581 7.11221 87.2053 7.10378V6.87707H89.9971ZM94.7043 12.4444H91.1692L90.5591 13.7523C90.4077 14.0756 90.3297 14.3191 90.3297 14.4787C90.3297 14.6047 90.3962 14.718 90.5292 14.8145C90.66 14.9091 90.9467 14.972 91.3849 15.0014V15.2281H88.5083V15.0014C88.889 14.9405 89.1345 14.8607 89.2469 14.7621C89.4763 14.5648 89.7287 14.1638 90.0062 13.5612L93.2155 6.68811H93.4425L96.6151 13.6348C96.8697 14.1932 97.1014 14.5543 97.3102 14.7222C97.5189 14.8881 97.808 14.9804 98.1819 15.0014V15.2281H94.585V15.0014C94.9474 14.9846 95.1929 14.93 95.3213 14.8356C95.4498 14.7411 95.5117 14.6257 95.5117 14.4892C95.5117 14.3086 95.4223 14.0232 95.2433 13.6327L94.7043 12.4444ZM94.4978 11.991L92.9608 8.62156L91.3826 11.991H94.4978ZM98.5719 15.2281V15.0014H98.9137C99.2991 15.0014 99.572 14.8881 99.7327 14.6634C99.8312 14.5291 99.8794 14.2247 99.8794 13.7544V8.35081C99.8794 7.83012 99.8175 7.50475 99.6913 7.37462C99.517 7.19409 99.2578 7.10378 98.9137 7.10378H98.5719V6.87707H102.281C103.644 6.87707 104.681 7.01769 105.39 7.30117C106.101 7.58456 106.672 8.05692 107.103 8.71815C107.537 9.37946 107.752 10.1436 107.752 11.0085C107.752 12.1715 107.367 13.1414 106.596 13.9224C105.731 14.7936 104.415 15.2281 102.644 15.2281H98.5719ZM101.173 14.6152C101.742 14.7306 102.217 14.7873 102.602 14.7873C103.639 14.7873 104.499 14.4535 105.185 13.7838C105.869 13.1162 106.211 12.2094 106.211 11.0652C106.211 9.9127 105.869 9.00369 105.185 8.34031C104.499 7.67479 103.621 7.34314 102.547 7.34314C102.146 7.34314 101.687 7.40188 101.173 7.5216V14.6152ZM113.306 6.68811C114.487 6.68811 115.513 7.09957 116.378 7.9225C117.245 8.74542 117.678 9.772 117.678 11.0043C117.678 12.2723 117.242 13.324 116.368 14.1617C115.497 14.9993 114.439 15.4171 113.198 15.4171C111.946 15.4171 110.893 15.0077 110.039 14.1911C109.186 13.3744 108.759 12.3185 108.759 11.0211C108.759 9.69648 109.253 8.61528 110.237 7.77766C111.092 7.05132 112.115 6.68811 113.306 6.68811ZM113.178 7.12898C112.365 7.12898 111.712 7.4061 111.221 7.96033C110.608 8.65097 110.301 9.66079 110.301 10.9918C110.301 12.3542 110.617 13.4038 111.253 14.1386C111.742 14.697 112.384 14.9762 113.184 14.9762C114.04 14.9762 114.744 14.6697 115.302 14.0589C115.859 13.4458 116.137 12.4823 116.137 11.1639C116.137 9.73424 115.829 8.66783 115.217 7.96661C114.726 7.40817 114.047 7.12898 113.178 7.12898ZM127.526 15.2281H125.083L121.984 11.3234C121.762 11.3318 121.58 11.336 121.44 11.336C121.383 11.336 121.321 11.3339 121.257 11.3318C121.19 11.3297 121.124 11.3276 121.053 11.3234V13.7544C121.053 14.2792 121.115 14.6047 121.241 14.7306C121.411 14.9111 121.665 15.0014 122.005 15.0014H122.36V15.2281H118.451V15.0014H118.793C119.179 15.0014 119.454 14.8859 119.619 14.6571C119.713 14.5311 119.759 14.2289 119.759 13.7544V8.35081C119.759 7.82599 119.697 7.50054 119.571 7.37462C119.396 7.19409 119.137 7.10378 118.793 7.10378H118.451V6.87707H121.773C122.743 6.87707 123.457 6.94217 123.916 7.07023C124.377 7.20037 124.767 7.43964 125.085 7.78608C125.407 8.13243 125.567 8.54604 125.567 9.02675C125.567 9.54107 125.384 9.98616 125.019 10.364C124.652 10.7419 124.088 11.0085 123.319 11.166L125.207 13.5571C125.638 14.1071 126.008 14.4745 126.317 14.655C126.625 14.8377 127.029 14.951 127.526 15.0014V15.2281ZM121.053 10.9329C121.138 10.9329 121.211 10.9329 121.273 10.9351C121.335 10.9371 121.385 10.9393 121.424 10.9393C122.285 10.9393 122.934 10.7671 123.37 10.4228C123.808 10.0764 124.026 9.63765 124.026 9.10441C124.026 8.5838 123.849 8.15978 123.498 7.83227C123.145 7.5069 122.677 7.34314 122.096 7.34314C121.84 7.34314 121.491 7.3809 121.053 7.45649V10.9329ZM130.274 7.3305V10.6306H132.284C132.805 10.6306 133.151 10.5592 133.325 10.4165C133.559 10.2276 133.688 9.89593 133.715 9.42143H133.963V12.3311H133.715C133.653 11.9238 133.589 11.6614 133.527 11.5459C133.447 11.4032 133.314 11.2899 133.13 11.208C132.947 11.1261 132.665 11.0841 132.284 11.0841H130.274V13.8384C130.274 14.2078 130.293 14.4325 130.327 14.5123C130.364 14.592 130.426 14.6571 130.515 14.7033C130.605 14.7516 130.777 14.7747 131.027 14.7747H132.571C133.085 14.7747 133.458 14.7411 133.692 14.6761C133.924 14.611 134.149 14.4808 134.362 14.2877C134.64 14.0337 134.924 13.6495 135.216 13.1372H135.491L134.704 15.2281H127.673V15.0014H127.997C128.212 15.0014 128.416 14.9531 128.609 14.8587C128.754 14.7936 128.852 14.6949 128.903 14.5626C128.955 14.4304 128.981 14.1617 128.981 13.7544V8.32561C128.981 7.79657 128.923 7.4712 128.806 7.34942C128.643 7.18566 128.375 7.10378 127.997 7.10378H127.673V6.87707H134.706L134.803 8.71608H134.541C134.447 8.27314 134.344 7.96868 134.229 7.80286C134.115 7.63703 133.945 7.51103 133.722 7.42287C133.543 7.36198 133.227 7.3305 132.775 7.3305H130.274ZM142.123 6.68811V9.57263H141.875C141.795 9.01839 141.65 8.57752 141.441 8.25001C141.233 7.92249 140.935 7.66223 140.547 7.46906C140.161 7.27597 139.762 7.17938 139.349 7.17938C138.881 7.17938 138.496 7.30952 138.191 7.56986C137.886 7.83012 137.732 8.12823 137.732 8.45995C137.732 8.71394 137.828 8.94701 138.021 9.15696C138.301 9.46341 138.962 9.87486 140.008 10.3871C140.861 10.807 141.444 11.1282 141.756 11.3507C142.068 11.5753 142.309 11.8377 142.476 12.1422C142.644 12.4466 142.728 12.7635 142.728 13.0973C142.728 13.7292 142.46 14.273 141.926 14.7306C141.389 15.1882 140.698 15.4171 139.856 15.4171C139.59 15.4171 139.342 15.3982 139.108 15.3604C138.969 15.3394 138.682 15.2638 138.244 15.1337C137.808 15.0035 137.53 14.9385 137.413 14.9385C137.301 14.9385 137.211 14.97 137.147 15.0308C137.083 15.0938 137.035 15.2219 137.003 15.4171H136.755V12.5578H137.003C137.12 13.1561 137.276 13.6054 137.473 13.9014C137.67 14.1995 137.973 14.4472 138.379 14.6424C138.785 14.8397 139.23 14.9385 139.714 14.9385C140.274 14.9385 140.719 14.802 141.042 14.5311C141.368 14.2582 141.531 13.9371 141.531 13.5676C141.531 13.3619 141.469 13.154 141.347 12.944C141.224 12.7342 141.033 12.5389 140.774 12.3563C140.6 12.2324 140.12 11.9721 139.338 11.5733C138.556 11.1765 137.998 10.8573 137.668 10.6201C137.338 10.3829 137.085 10.1184 136.915 9.83289C136.743 9.54529 136.659 9.22827 136.659 8.88405C136.659 8.2857 136.911 7.76931 137.413 7.33686C137.916 6.90434 138.558 6.68811 139.333 6.68811C139.82 6.68811 140.334 6.79725 140.877 7.01355C141.129 7.11642 141.306 7.16682 141.409 7.16682C141.526 7.16682 141.623 7.13527 141.696 7.07231C141.77 7.0072 141.829 6.88128 141.875 6.68811H142.123Z" fill="#E6E6DD"/>
<path d="M72.1568 26.2798C73.1877 26.4948 73.96 26.8338 74.4735 27.3075C75.182 27.9634 75.5381 28.7651 75.5381 29.7125C75.5381 30.4341 75.3057 31.1265 74.8371 31.786C74.3685 32.4456 73.7275 32.9266 72.9103 33.229C72.0968 33.5315 70.8523 33.6845 69.1767 33.6845H62.1555V33.291H62.7103C63.3288 33.291 63.7711 33.0979 64.041 32.7152C64.2098 32.4675 64.2922 31.9354 64.2922 31.1265V21.7466C64.2922 20.8502 64.1872 20.2854 63.9773 20.0522C63.6924 19.7388 63.2726 19.5821 62.7103 19.5821H62.1555V19.1886H68.5807C69.7802 19.1886 70.7399 19.2724 71.4633 19.4436C72.5617 19.7024 73.3976 20.1542 73.9749 20.8065C74.5522 21.4588 74.8409 22.2058 74.8409 23.0549C74.8409 23.7801 74.6159 24.4287 74.1623 25.0045C73.7088 25.5766 73.0415 26.0029 72.1568 26.2798ZM66.4065 25.6859C66.6763 25.7369 66.9875 25.7733 67.3323 25.7988C67.681 25.8243 68.0633 25.8353 68.4795 25.8353C69.5478 25.8353 70.3537 25.7223 70.8898 25.5C71.4259 25.2778 71.8382 24.9352 72.1231 24.4724C72.4042 24.0133 72.5467 23.5104 72.5467 22.9638C72.5467 22.1184 72.1906 21.4005 71.4821 20.8029C70.7736 20.2089 69.739 19.9101 68.382 19.9101C67.651 19.9101 66.9913 19.9866 66.4065 20.1433V25.6859ZM66.4065 32.6315C67.2574 32.8245 68.1008 32.9193 68.9293 32.9193C70.26 32.9193 71.2759 32.6278 71.9731 32.0484C72.6704 31.469 73.019 30.7511 73.019 29.8984C73.019 29.3372 72.8579 28.7943 72.5317 28.2768C72.2094 27.7557 71.692 27.3476 70.9835 27.0488C70.2751 26.7499 69.3941 26.6005 68.3482 26.6005C67.8947 26.6005 67.5086 26.6078 67.1862 26.6224C66.8637 26.637 66.6052 26.6625 66.4065 26.6953V32.6315ZM81.476 19.9756V25.7041H84.7598C85.6107 25.7041 86.1768 25.5802 86.4617 25.3324C86.844 25.0045 87.0539 24.4287 87.0989 23.6051H87.5038V28.6558H87.0989C86.9977 27.9488 86.8927 27.4933 86.7915 27.2929C86.6603 27.0451 86.4429 26.8483 86.143 26.7062C85.8431 26.5641 85.382 26.4912 84.7598 26.4912H81.476V31.2722C81.476 31.9135 81.5059 32.3035 81.5622 32.442C81.6222 32.5804 81.7234 32.6934 81.8696 32.7735C82.0158 32.8574 82.2969 32.8975 82.7055 32.8975H85.2284C86.0681 32.8975 86.6791 32.8392 87.0614 32.7262C87.44 32.6132 87.8074 32.3873 88.156 32.052C88.6096 31.6111 89.0744 30.9442 89.5506 30.0551H90.0004L88.7146 33.6845H77.225V33.291H77.7536C78.1059 33.291 78.4396 33.2072 78.7544 33.0432C78.9907 32.9302 79.1518 32.759 79.2343 32.5294C79.3205 32.2998 79.3618 31.8333 79.3618 31.1265V21.7029C79.3618 20.7846 79.268 20.2198 79.0768 20.0084C78.8107 19.7243 78.3721 19.5821 77.7536 19.5821H77.225V19.1886H88.7184L88.8758 22.3807H88.4484C88.2947 21.6118 88.1261 21.0835 87.9386 20.7956C87.7512 20.5077 87.4738 20.2891 87.1102 20.136C86.8178 20.0303 86.3005 19.9756 85.562 19.9756H81.476ZM103.424 29.6834L103.784 29.76L102.502 33.6845H90.9638V33.291H91.5223C92.1521 33.291 92.6019 33.0942 92.8718 32.697C93.0255 32.4711 93.1005 31.9463 93.1005 31.1265V21.7466C93.1005 20.8429 92.9993 20.2781 92.7931 20.0522C92.5082 19.7388 92.0846 19.5821 91.5223 19.5821H90.9638V19.1886H97.7113V19.5821C96.9203 19.5748 96.3656 19.6441 96.0432 19.7934C95.7245 19.9392 95.5071 20.1287 95.3909 20.351C95.2747 20.5769 95.2147 21.1163 95.2147 21.9653V31.1046C95.2147 31.6985 95.2747 32.103 95.3909 32.3253C95.4771 32.4783 95.6158 32.5877 95.7995 32.6606C95.9794 32.7298 96.553 32.7663 97.5164 32.7663H98.6035C99.7506 32.7663 100.553 32.6861 101.014 32.5222C101.475 32.3582 101.899 32.0666 102.281 31.6512C102.659 31.2358 103.042 30.5798 103.424 29.6834ZM118.04 18.8606L118.423 23.4302H118.018C117.632 22.2969 117.129 21.4442 116.518 20.8684C115.634 20.0413 114.498 19.6258 113.111 19.6258C111.221 19.6258 109.782 20.3546 108.796 21.8159C107.971 23.044 107.559 24.5125 107.559 26.2143C107.559 27.5953 107.833 28.8525 108.384 29.9932C108.931 31.1301 109.651 31.9645 110.539 32.4966C111.428 33.025 112.342 33.291 113.279 33.291C113.827 33.291 114.359 33.2218 114.873 33.087C115.382 32.9521 115.877 32.7517 116.353 32.4857V28.2841C116.353 27.5553 116.297 27.0779 116.185 26.8556C116.068 26.6297 115.892 26.4584 115.656 26.3418C115.416 26.2216 114.996 26.1633 114.396 26.1633V25.7697H120.154V26.1633H119.881C119.311 26.1633 118.921 26.3491 118.707 26.7208C118.561 26.9832 118.49 27.5043 118.49 28.2841V32.7262C117.65 33.1707 116.818 33.495 116.001 33.7028C115.18 33.9105 114.269 34.0125 113.268 34.0125C110.393 34.0125 108.211 33.1161 106.719 31.3196C105.598 29.975 105.04 28.4189 105.04 26.6625C105.04 25.3871 105.355 24.1626 105.985 22.9966C106.731 21.6082 107.754 20.5369 109.055 19.7898C110.146 19.1703 111.431 18.8606 112.92 18.8606C113.459 18.8606 113.95 18.9043 114.393 18.9881C114.835 19.0756 115.461 19.2614 116.275 19.5529C116.683 19.7024 116.961 19.7789 117.099 19.7789C117.238 19.7789 117.354 19.7169 117.455 19.5931C117.553 19.4691 117.613 19.225 117.635 18.8606H118.04ZM128.713 18.8606C130.643 18.8606 132.319 19.5748 133.732 21.0033C135.149 22.4318 135.857 24.2137 135.857 26.3528C135.857 28.5538 135.145 30.3794 133.717 31.8333C132.292 33.2874 130.564 34.0125 128.536 34.0125C126.49 34.0125 124.769 33.302 123.374 31.8844C121.98 30.4668 121.283 28.6339 121.283 26.3819C121.283 24.0825 122.089 22.2058 123.697 20.7518C125.095 19.491 126.767 18.8606 128.713 18.8606ZM128.503 19.6258C127.176 19.6258 126.107 20.1069 125.305 21.0689C124.304 22.2678 123.802 24.0206 123.802 26.3309C123.802 28.6958 124.319 30.5179 125.357 31.7933C126.156 32.7626 127.206 33.2473 128.514 33.2473C129.912 33.2473 131.063 32.7152 131.974 31.6548C132.885 30.5908 133.338 28.9182 133.338 26.6297C133.338 24.1481 132.836 22.2969 131.835 21.0798C131.033 20.1105 129.923 19.6258 128.503 19.6258Z" fill="#E6E6DD"/>
<path d="M62.3811 43.4641V39.0896H63.3446V42.7186H65.7299V43.4641H62.3811ZM68.1065 43.4641V39.0527H69.07V43.4641H68.1065ZM67.9536 38.6522L68.4055 37.7527H69.4221L68.5251 38.6522H67.9536ZM71.8318 39.0527H73.5839C73.9792 39.0527 74.2803 39.0804 74.4875 39.1369C74.7655 39.2129 75.0047 39.3484 75.2029 39.5435C75.4023 39.7376 75.5528 39.9758 75.6569 40.2583C75.76 40.5396 75.812 40.8877 75.812 41.3005C75.812 41.664 75.7632 41.9762 75.6658 42.2391C75.5473 42.5605 75.3778 42.8204 75.1575 43.0185C74.9913 43.1695 74.7665 43.2865 74.4842 43.3707C74.2727 43.4333 73.9903 43.4641 73.6359 43.4641H71.8318V39.0527ZM72.7953 39.7982V42.7186H73.5096C73.7765 42.7186 73.9692 42.7043 74.0878 42.6765C74.2439 42.6406 74.3723 42.579 74.4742 42.4928C74.5772 42.4064 74.6603 42.2647 74.7245 42.0676C74.7898 41.8704 74.8219 41.6004 74.8219 41.2595C74.8219 40.9185 74.7898 40.6577 74.7245 40.4749C74.6603 40.2922 74.5695 40.1505 74.4531 40.0477C74.3368 39.9461 74.1896 39.8762 74.0102 39.8403C73.8773 39.8126 73.6148 39.7982 73.225 39.7982H72.7953ZM78.4764 43.4641V39.0527H81.9981V39.7982H79.4399V40.7778H81.8186V41.5234H79.4399V42.7186H82.0911V43.4641H78.4764ZM84.7544 43.4641V39.0527H86.7777C87.286 39.0527 87.6559 39.0928 87.8863 39.1718C88.1177 39.2509 88.3015 39.3916 88.44 39.5939C88.5784 39.7972 88.6481 40.0282 88.6481 40.2891C88.6481 40.6207 88.5441 40.8939 88.3347 41.1096C88.1254 41.3252 87.8131 41.4607 87.3968 41.5172C87.6038 41.6292 87.7744 41.7523 87.9084 41.8869C88.0434 42.0214 88.2251 42.2606 88.4532 42.6036L89.0336 43.4641H87.8851L87.1962 42.501C86.9494 42.159 86.7799 41.9434 86.688 41.854C86.5972 41.7657 86.5008 41.7041 86.399 41.6712C86.296 41.6384 86.1343 41.622 85.9128 41.622H85.7179V43.4641H84.7544ZM85.7179 40.9195H86.4289C86.8895 40.9195 87.1764 40.9011 87.2915 40.8651C87.4056 40.8292 87.4964 40.7666 87.5607 40.6783C87.626 40.5899 87.6581 40.479 87.6581 40.3465C87.6581 40.1976 87.6149 40.0785 87.5296 39.9861C87.4443 39.8947 87.3237 39.8373 87.1686 39.8136C87.09 39.8033 86.8563 39.7982 86.4676 39.7982H85.7179V40.9195ZM95.0779 43.4641V39.0527H96.5208L97.3736 42.0614L98.2163 39.0527H99.6626V43.4641H98.7722L98.7689 39.9913L97.831 43.4641H96.9052L95.9716 39.9913L95.9682 43.4641H95.0779ZM102.472 39.0527H103.436V41.4433C103.436 41.8232 103.448 42.0686 103.471 42.1806C103.512 42.3613 103.608 42.5071 103.761 42.616C103.915 42.7258 104.124 42.7803 104.39 42.7803C104.659 42.7803 104.863 42.7289 105 42.6252C105.138 42.5215 105.22 42.3952 105.247 42.2442C105.275 42.0933 105.289 41.8438 105.289 41.4946V39.0527H106.253V41.3724C106.253 41.9023 106.227 42.2771 106.175 42.4958C106.123 42.7145 106.028 42.8994 105.889 43.0503C105.75 43.2013 105.564 43.3204 105.332 43.4097C105.098 43.4991 104.794 43.5442 104.419 43.5442C103.966 43.5442 103.623 43.496 103.389 43.3985C103.155 43.3009 102.971 43.1746 102.834 43.0185C102.698 42.8624 102.609 42.7002 102.566 42.5287C102.503 42.2761 102.472 41.9023 102.472 41.4084V39.0527ZM109.117 43.4641V39.0527H110.049L112.007 42.0091V39.0527H112.897V43.4641H111.935L110.007 40.5643V43.4641H109.117ZM115.761 39.0527H117.513C117.909 39.0527 118.21 39.0804 118.417 39.1369C118.695 39.2129 118.934 39.3484 119.132 39.5435C119.332 39.7376 119.482 39.9758 119.586 40.2583C119.689 40.5396 119.741 40.8877 119.741 41.3005C119.741 41.664 119.693 41.9762 119.595 42.2391C119.477 42.5605 119.307 42.8204 119.087 43.0185C118.921 43.1695 118.696 43.2865 118.414 43.3707C118.202 43.4333 117.92 43.4641 117.565 43.4641H115.761V39.0527ZM116.725 39.7982V42.7186H117.439C117.706 42.7186 117.899 42.7043 118.017 42.6765C118.173 42.6406 118.302 42.579 118.404 42.4928C118.507 42.4064 118.59 42.2647 118.654 42.0676C118.719 41.8704 118.751 41.6004 118.751 41.2595C118.751 40.9185 118.719 40.6577 118.654 40.4749C118.59 40.2922 118.499 40.1505 118.383 40.0477C118.266 39.9461 118.119 39.8762 117.94 39.8403C117.807 39.8126 117.544 39.7982 117.154 39.7982H116.725ZM122.373 43.4641V39.0527H123.336V43.4641H122.373ZM130.137 43.4641H129.099L128.688 42.4599H126.78L126.385 43.4641H125.366L127.213 39.0527H128.231L130.137 43.4641ZM128.376 41.7143L127.715 40.0817L127.073 41.7143H128.376ZM132.275 43.4641V39.0896H133.239V42.7186H135.624V43.4641H132.275Z" fill="#E6E6DD"/>
<path fill-rule="evenodd" clip-rule="evenodd" d="M39.3726 4.80518C45.9847 9.13172 50.5611 16.1901 51.0681 24.1646C51.9053 37.3285 41.3396 48 27.4691 48C25.8598 48 24.2773 47.8547 22.7348 47.5802C23.5701 47.6428 24.418 47.6626 25.2772 47.6345C38.2467 47.2109 48.7606 36.3537 48.7606 23.3841C48.7606 15.7039 45.073 9.00634 39.3726 4.90804V4.80518Z" fill="#E6E6DD"/>
<path fill-rule="evenodd" clip-rule="evenodd" d="M7.38586 39.7771C2.50164 34.7312 -0.336314 27.9107 0.14163 20.7876C1.02476 7.62662 12.8894 -1.5791 26.642 0.225988C27.9376 0.396026 29.2033 0.658897 30.4333 1.00495C28.807 0.701713 27.1182 0.567372 25.385 0.624051C12.4155 1.04761 1.9016 11.9049 1.9016 24.8745C1.9016 30.6165 3.9635 35.8087 7.38586 39.7771Z" fill="#E6E6DD"/>
</svg>
