<svg width="190" height="48" viewBox="0 0 190 48" fill="none" xmlns="http://www.w3.org/2000/svg">
<path fill-rule="evenodd" clip-rule="evenodd" d="M24.8749 0C38.1703 0 48.9482 10.7452 48.9482 23.9999C48.9482 37.2548 38.1703 48 24.8749 48C11.5796 48 0.801575 37.2548 0.801575 23.9999C0.801575 10.7452 11.5796 0 24.8749 0Z" fill="#E6E6DD"/>
<path fill-rule="evenodd" clip-rule="evenodd" d="M24.8749 0C26.2226 0 27.5438 0.112197 28.8311 0.324408C30.0254 1.05464 29.8206 2.33095 28.9833 3.98756C27.0538 7.80546 23.2994 11.6442 20.296 14.6338C17.6613 17.2565 7.37989 27.0843 4.1274 28.0915C2.69203 28.5361 1.56312 27.4076 0.833091 25.2373C0.812185 24.8275 0.801575 24.415 0.801575 23.9999C0.801575 10.7452 11.5796 0 24.8749 0Z" fill="url(#paint0_linear_515_391)"/>
<path d="M116.454 28.7804C116.417 26.5032 115.428 25.2764 113.207 24.7039C111.22 24.1917 109.201 24.1405 107.235 24.721C106.222 25.0201 105.294 25.6059 104.344 26.0542C100.993 23.5535 97.453 23.9719 93.8274 25.6924C93.7954 25.3227 93.7671 24.9929 93.7358 24.635H91.7863V25.5322C91.7863 28.7765 91.776 32.0207 91.7908 35.2642C91.7971 36.6578 91.5061 36.5313 93.0996 36.5622C93.6281 36.5724 93.8047 36.3981 93.7966 35.8586C93.7675 33.9533 93.7795 32.0475 93.7876 30.1416C93.7954 28.352 94.5714 27.1943 96.2341 26.5174C97.6648 25.9346 99.1513 25.897 100.639 26.215C102.481 26.6085 103.101 27.4176 103.101 29.2928C103.102 31.2891 103.087 33.2855 103.107 35.2819C103.121 36.6744 102.797 36.5217 104.422 36.5644C105.003 36.5805 105.209 36.418 105.198 35.8027C105.161 33.7157 105.183 31.6288 105.185 29.5416C105.187 27.9875 105.742 27.1317 107.183 26.5772C108.765 25.9688 110.402 25.8537 112.054 26.2343C113.776 26.6315 114.392 27.4434 114.393 29.2101C114.394 31.2071 114.394 33.2029 114.394 35.1993C114.394 36.6082 114.393 36.5913 115.837 36.5638C116.307 36.5548 116.474 36.3952 116.471 35.9263C116.456 33.5449 116.493 31.162 116.454 28.7804Z" fill="#E6E6DD"/>
<path d="M189.005 26.029C188.997 24.5112 189.323 24.6833 187.573 24.6503C187.068 24.641 186.913 24.8069 186.92 25.3163C186.948 27.2672 186.934 29.2185 186.93 31.1699C186.927 33.1733 186.007 34.4648 184.088 35.0677C182.298 35.6305 180.472 35.6425 178.655 35.2163C176.725 34.7634 176.102 33.9349 176.101 31.963C176.101 29.8982 176.11 27.8334 176.097 25.7692C176.09 24.6104 176.34 24.6941 174.957 24.6451C174.284 24.6212 174.049 24.8126 174.062 25.5179C174.105 27.7863 174.069 30.0556 174.082 32.3242C174.094 34.4414 174.938 35.7924 176.946 36.4658C180.221 37.5649 183.477 37.6093 186.578 35.7991C186.661 35.7507 186.77 35.7438 186.958 35.6926C186.912 36.0772 186.91 36.3951 186.834 36.6942C186.514 37.9426 185.558 38.5278 184.428 38.8564C182.48 39.4239 180.488 39.4284 178.504 39.1014C177.025 38.8576 175.766 38.2627 175.386 36.5946C175.354 36.4561 175.113 36.2835 174.958 36.2709C174.444 36.2305 173.926 36.2556 173.364 36.2556C173.363 38.2679 174.568 39.7875 176.681 40.4193C179.298 41.201 181.959 41.1822 184.607 40.6072C187.692 39.9372 189.109 38.3596 189.027 35.0813C188.951 32.0657 189.023 29.0464 189.005 26.029Z" fill="#E6E6DD"/>
<path d="M131.077 34.7926C129.957 35.22 128.789 35.6137 127.452 35.6137C126.116 35.6137 124.94 35.1972 123.74 34.7795C121.983 34.1671 121.097 32.7861 121.006 30.9382C120.918 29.1459 121.748 27.8205 123.318 27.0297C125.858 25.7507 128.505 25.6504 131.127 26.7231C132.915 27.4543 133.901 28.8279 133.862 30.8488C133.825 32.8093 132.828 34.1249 131.077 34.7926ZM132.032 25.1832C128.403 23.8488 124.762 23.834 121.367 26.0675C121.285 26.1222 121.172 26.1307 121.026 26.1752C121.002 25.6338 120.98 25.1467 120.956 24.5963C120.511 24.5963 120.126 24.6317 119.75 24.5884C119.157 24.519 118.975 24.7246 118.978 25.3347C119.002 30.2106 118.991 35.0866 118.994 39.9625C118.994 40.2007 119.025 40.4394 119.042 40.6668H121.004V35.294C121.869 35.7379 122.577 36.2089 123.354 36.4803C126.164 37.4619 129.006 37.434 131.803 36.4438C133.531 35.8325 134.932 34.7515 135.54 32.9393C136.566 29.8859 135.688 26.5272 132.032 25.1832Z" fill="#E6E6DD"/>
<path d="M149.526 34.1381C146.911 35.452 144.203 35.5067 141.508 34.4322C139.858 33.7741 138.872 32.5087 138.85 30.6746C138.831 28.8776 139.776 27.6503 141.337 26.8528C142.579 26.2181 145.2 25.9902 145.898 26.0146C146.596 26.0391 147.992 26.3644 149.25 26.8242C150.858 27.4128 151.728 28.6869 151.799 30.4228C151.87 32.1533 151.024 33.3855 149.526 34.1381ZM153.799 24.8923C153.793 24.6996 153.577 24.3732 153.425 24.352C152.92 24.2837 152.4 24.3264 151.823 24.3264V26.3166C150.022 24.9259 148.116 24.4541 146.095 24.3669C143.75 24.2666 141.508 24.6011 139.441 25.8397C135.961 27.9262 135.835 33.4146 139.544 35.3836C143.462 37.4632 147.422 37.4616 151.299 35.1648C151.427 35.089 151.564 35.027 151.771 34.9198C151.8 35.5239 151.825 36.0479 151.853 36.6137C152.16 36.6137 152.384 36.6173 152.608 36.6132C153.951 36.5893 153.812 36.8262 153.816 35.4384C153.823 33.0112 153.818 30.5847 153.818 28.1574C153.817 27.0687 153.836 25.9794 153.799 24.8923Z" fill="#E6E6DD"/>
<path d="M69.7631 32.3988C69.3059 33.5748 68.4281 34.3446 67.2164 34.6517C66.3226 34.8778 65.4019 35.0647 64.4842 35.1155C62.681 35.2158 60.9074 35.0157 59.2888 34.1116C57.9417 33.3594 57.267 32.2103 57.2978 30.656C57.3365 28.7501 58.5367 27.2836 60.7088 26.5675C62.5061 25.975 64.3527 25.8918 66.2127 26.1879C67.837 26.4467 69.0896 27.2374 69.7694 28.7992C69.8025 28.8755 69.8833 28.9302 69.9567 29.0111C70.5397 28.8019 71.1084 28.5975 71.7569 28.3644C71.076 26.6967 69.9755 25.5909 68.3767 25.0109C66.3048 24.2588 64.1682 24.2104 62.0109 24.5056C60.538 24.7072 59.1653 25.1863 57.878 25.9509C54.5182 27.9452 54.1938 33.425 58.0443 35.4755C58.5618 35.7513 59.0981 36.0076 59.6503 36.2003C61.6625 36.9005 63.7587 36.9933 65.8262 36.6959C67.0985 36.5125 68.3711 36.0567 69.5395 35.5029C70.7555 34.9268 71.4859 33.8135 71.9421 32.4763C71.4347 32.3214 70.9947 32.2183 70.5796 32.0512C70.1622 31.8838 69.9401 31.9442 69.7631 32.3988Z" fill="#E6E6DD"/>
<path d="M171.478 29.1029C171.477 26.9737 170.761 25.8781 168.779 25.1061C166.382 24.1722 163.91 24.113 161.436 24.6885C160.489 24.9082 159.597 25.3584 158.646 25.7167C158.601 25.3703 158.554 25.0047 158.504 24.6235H156.572V25.498C156.572 28.7668 156.562 32.0348 156.577 35.3029C156.583 36.6476 156.288 36.5272 157.852 36.5637C158.415 36.5768 158.6 36.3877 158.591 35.8237C158.562 33.9856 158.606 32.1464 158.574 30.309C158.544 28.5793 159.337 27.3863 160.887 26.735C163.082 25.8132 165.34 25.7658 167.583 26.5595C168.973 27.0506 169.464 27.826 169.468 29.292C169.473 31.2663 169.459 33.241 169.473 35.2152C169.484 36.6732 169.223 36.5279 170.815 36.5637C171.368 36.5763 171.494 36.3586 171.488 35.8436C171.464 33.5966 171.478 31.35 171.478 29.1029Z" fill="#E6E6DD"/>
<path d="M85.7352 34.2596C85.5665 34.3445 85.3964 34.4208 85.2243 34.4903C84.0225 34.977 82.75 35.1068 81.4582 35.1591C80.3161 35.1206 79.187 35.0196 78.1098 34.6716C77.7505 34.556 77.3969 34.4118 77.0507 34.2339C75.566 33.4705 74.6562 32.323 74.6623 30.5887C74.6686 28.8294 75.5619 27.6095 77.1175 26.9258C79.9493 25.6808 82.8382 25.6855 85.6781 26.8767C87.2654 27.5434 88.1766 28.7969 88.1811 30.5824C88.1856 32.343 87.2536 33.4955 85.7352 34.2596ZM87.2699 25.6967C85.6798 24.7778 83.9331 24.4307 82.1306 24.3601C79.7906 24.2684 77.5199 24.5779 75.4578 25.8004C73.5174 26.9509 72.512 28.6377 72.619 30.9196C72.7192 33.0671 73.834 34.5621 75.6867 35.561C77.4693 36.5221 79.3932 36.8377 80.8672 36.8206C83.6427 36.82 85.4527 36.4457 86.9797 35.6402C88.3666 34.9086 89.4701 33.9116 89.9631 32.3606C90.8074 29.7073 89.7717 27.1429 87.2699 25.6967Z" fill="#E6E6DD"/>
<path d="M67.3254 19.8977C61.9474 19.8977 58.2141 17.9165 58.2141 13.9067C58.2141 9.89736 61.9474 7.91634 67.3254 7.91634C72.7029 7.91634 76.4362 9.89736 76.4362 13.9067C76.4362 17.9165 72.7029 19.8977 67.3254 19.8977ZM67.3254 5.69434C59.9455 5.69434 55.3132 8.85868 55.3132 13.9067C55.3132 18.9553 59.9455 22.119 67.3254 22.119C74.7053 22.119 79.3374 18.9553 79.3374 13.9067C79.3374 8.85868 74.7053 5.69434 67.3254 5.69434Z" fill="#E6E6DD"/>
<path d="M88.6399 19.656H82.7085V8.15787H88.6399C94.5674 8.15787 98.4573 10.0419 98.4573 13.9066C98.4573 17.7717 94.5674 19.656 88.6399 19.656ZM88.3257 5.93628H79.9642V21.8775H88.3257C96.4514 21.8775 101.358 19.0276 101.358 13.9066C101.358 8.7862 96.4514 5.93628 88.3257 5.93628Z" fill="#E6E6DD"/>
<path d="M113.998 19.8977C108.62 19.8977 104.887 17.9165 104.887 13.9067C104.887 9.89736 108.62 7.91634 113.998 7.91634C119.376 7.91634 123.109 9.89736 123.109 13.9067C123.109 17.9165 119.376 19.8977 113.998 19.8977ZM113.998 5.69434C106.618 5.69434 101.986 8.85868 101.986 13.9067C101.986 18.9553 106.618 22.119 113.998 22.119C121.378 22.119 126.01 18.9553 126.01 13.9067C126.01 8.85868 121.378 5.69434 113.998 5.69434Z" fill="#E6E6DD"/>
<path d="M165.798 5.93579H146.971H146.186H143.988V17.1133H143.983V18.8107L130.523 5.93579H126.638V21.8776H129.621V10.6215L129.616 10.5377V8.9933L143.085 21.8776H146.971V8.56814H154.818V21.8776H157.562V8.56814H165.798V5.93579Z" fill="#E6E6DD"/>
<path d="M176.961 19.8977C171.583 19.8977 167.85 17.9165 167.85 13.9067C167.85 9.89736 171.583 7.91634 176.961 7.91634C182.339 7.91634 186.072 9.89736 186.072 13.9067C186.072 17.9165 182.339 19.8977 176.961 19.8977ZM176.961 5.69434C169.581 5.69434 164.949 8.85868 164.949 13.9067C164.949 18.9553 169.581 22.119 176.961 22.119C184.341 22.119 188.973 18.9553 188.973 13.9067C188.973 8.85868 184.341 5.69434 176.961 5.69434Z" fill="#E6E6DD"/>
<path d="M38.603 12.5598C38.4252 14.6915 38.2234 16.8294 37.8671 18.9363C37.0969 23.4883 35.8497 27.9125 33.9043 32.1149C32.8726 34.3426 31.6623 36.4638 29.9665 38.2651C28.7507 39.5556 27.3775 40.5867 25.5672 40.9081C24.5277 41.094 23.5774 40.8279 22.6583 40.4145C20.8527 39.6044 19.4954 38.2474 18.304 36.713C15.8915 33.5997 14.3259 30.0586 13.1424 26.3318C11.7058 21.8162 10.9527 17.1918 11.0311 12.4445C11.04 11.9087 11.0966 11.3577 11.2373 10.8436C11.5886 9.5667 12.4575 8.89225 13.7637 9.02C15.8113 9.22044 17.8485 9.5375 19.8889 9.80139C21.6516 10.0301 23.4086 10.3088 25.1774 10.4651C26.7354 10.6022 28.2375 10.219 29.7007 9.69424C29.8836 9.62868 30.0687 9.56544 30.2526 9.50115C29.8493 10.5041 29.1434 11.1744 28.2165 11.6219C26.7759 12.3169 25.2204 12.5372 23.6621 12.5416C21.4426 12.547 19.2169 12.454 17.0021 12.2889C14.7586 12.1209 13.6659 13.0441 13.6007 15.3176C13.5205 18.152 14.0633 20.8946 14.8032 23.6052C15.8263 27.3488 17.2125 30.9484 19.2571 34.2606C19.8652 35.2452 20.5959 36.1583 21.3207 37.0644C21.6664 37.4984 22.1112 37.8598 22.5384 38.2207C23.8356 39.3154 25.2029 39.5126 26.7463 38.6633C28.2601 37.8291 29.4621 36.6878 30.4511 35.3009C32.0866 33.0067 33.1215 30.429 33.9222 27.7497C35.1068 23.783 35.7428 19.7162 36.0245 15.5946C36.1241 14.1329 35.4155 13.5642 33.9813 13.9972C32.6445 14.4006 31.3497 14.9408 30.039 15.4268C28.2228 16.1001 26.4467 16.9167 24.5873 17.4224C22.0862 18.1012 19.9066 16.4778 19.706 13.9381C20.243 14.0269 20.7652 14.1226 21.291 14.1961C23.6726 14.5296 25.9603 14.0732 28.1812 13.2703C30.0037 12.6118 31.7842 11.8343 33.5959 11.1405C34.643 10.7396 35.7087 10.3972 36.8655 10.575C37.9993 10.7485 38.6966 11.4244 38.603 12.5598Z" fill="#121212"/>
<defs>
<linearGradient id="paint0_linear_515_391" x1="7.08113" y1="7.22689" x2="16.5317" y2="18.2062" gradientUnits="userSpaceOnUse">
<stop stop-color="#232323" stop-opacity="0.5"/>
<stop offset="1" stop-color="#E6E6DD"/>
</linearGradient>
</defs>
</svg>
