<svg width="160" height="50" viewBox="0 0 160 50" fill="none" xmlns="http://www.w3.org/2000/svg">
<path d="M23.8036 35.595C23.8036 35.595 24.0043 35.9196 23.5795 35.9307C22.8505 35.9504 20.2936 35.1912 18.2023 34.3612C19.0868 33.737 20.0882 33.0003 21.1242 32.1348C21.5428 32.2262 22.4443 32.5448 22.9148 33.64C23.5152 35.0368 23.8238 35.5194 23.8036 35.595ZM17.0928 34.7504C16.7635 34.9787 16.4709 35.1833 16.2015 35.376C16.0183 35.2402 15.6497 35.2824 15.2974 35.5086C14.9287 35.7452 14.7335 36.0829 14.8073 36.3065C13.7024 36.9459 12.9073 37.1329 12.3571 37.1329C11.6228 37.1329 11.3241 36.8018 11.3028 36.777C10.6743 35.8935 10.7567 34.7449 11.3081 33.4594C11.4871 33.3875 11.6796 33.2328 11.8329 33.002C12.0476 32.6781 12.1054 32.3365 12.0075 32.1392C14.7191 27.723 21.5186 22.3186 24.1755 20.3034C28.6325 16.9224 27.8963 12.2158 27.5003 9.68764L27.4481 9.35132C27.0082 6.99167 25.059 6.94017 24.2241 6.94017C24.7384 6.59303 25.2373 6.48946 25.4962 6.43564C25.6809 6.39738 25.8034 6.37168 25.8207 6.23642C25.8322 6.14995 25.7841 6.07981 25.666 6.02097C25.0802 5.78658 24.6998 4.95394 24.2965 4.0727C24.1082 3.65967 23.9149 3.23756 23.6886 2.8424C27.1562 4.73356 29.0535 7.5931 29.4126 10.8288C30.8973 25.0995 21.6378 31.5973 17.0928 34.7504ZM13.8891 24.4759C14.0472 24.2192 14.1533 24.2819 14.2842 24.3378C14.5399 24.4471 15.554 24.9486 15.8146 26.8343C15.4186 27.2395 15.0333 27.6479 14.6614 28.058C14.283 27.5228 14.0883 26.2067 14.0465 25.1897C13.9055 26.6802 14.2806 27.8604 14.4464 28.2962C14.2356 28.5331 14.0312 28.7698 13.8314 29.0062C13.5727 28.5405 12.7989 26.8241 13.8891 24.4759ZM21.1824 32.0864C25.7929 28.219 31.0712 21.7492 29.9253 10.7328C29.5357 7.22509 27.1859 4.22623 23.3078 2.28705L22.7346 2L23.1091 2.52115C23.4679 3.01901 23.7432 3.62141 24.0093 4.204C24.3782 5.01075 24.7293 5.77904 25.2687 6.16164C24.9088 6.24366 24.3309 6.41535 23.7722 6.88548C23.6547 6.97698 23.6543 7.06548 23.675 7.12326C23.7239 7.26229 23.8532 7.26036 24.1385 7.25717C24.9114 7.25089 26.7301 7.22383 27.1365 9.40387L27.1881 9.73624C27.5737 12.1998 28.1889 16.5283 23.8825 19.7953C21.808 21.3691 18.6414 23.9583 15.9138 26.7337C15.8887 26.063 15.6725 24.8184 14.4618 24.0021L14.1063 23.7059C14.1063 23.7059 13.909 23.4095 13.652 23.9824C13.3983 24.5487 12.3761 26.6798 13.8046 29.0378C12.9583 30.0425 12.222 31.0416 11.664 31.9983C11.4638 32.0444 11.2307 32.2144 11.0521 32.4838C10.7942 32.8723 10.7541 33.2952 10.9519 33.4489C10.7599 33.9397 10.6336 34.4112 10.5803 34.8588C10.0739 35.5467 9.3938 35.3642 8.94946 35.1471C9.77485 35.8018 10.2963 35.5814 10.5532 35.3617C10.561 35.951 10.7113 36.4924 11.0482 36.9644L11.0511 36.9677C11.0874 37.016 11.732 37.8052 13.4683 37.26C13.3742 37.5182 13.306 38.0854 14.2957 38.4569C13.9348 38.2232 13.5003 37.8027 13.8219 37.1384C14.1976 36.9923 14.6228 36.7807 15.093 36.4998C15.2914 36.5216 15.5507 36.4593 15.8038 36.2968C16.0734 36.1237 16.2463 35.8958 16.2965 35.6969C16.5855 35.4883 16.9091 35.2624 17.2734 35.0096C17.5575 34.8128 17.8611 34.6019 18.1795 34.3775C18.8925 34.8026 23.4793 37.3239 24.5803 35.9833C24.0537 35.0883 23.685 33.5081 22.7372 32.7182C22.1119 32.1971 21.518 32.0959 21.1824 32.0864Z" fill="#E6E6DD" stroke="#E6E6DD" stroke-width="0.755906" stroke-miterlimit="22.9256"/>
<path d="M19.9722 33.1332C19.6561 33.2387 19.6035 33.3967 19.6035 33.3967C19.6035 33.3967 20.92 34.8711 22.8161 34.9767C21.7627 34.661 20.3934 33.9759 19.9722 33.1332Z" fill="#E6E6DD" stroke="#E6E6DD" stroke-width="0.755906" stroke-miterlimit="22.9256"/>
<path d="M28.2669 17.0309C27.6349 18.8478 27.082 21.0596 23.8826 23.3905C20.771 25.6565 16.367 28.8148 16.8892 30.3674C16.8376 30.0611 16.9387 29.2105 18.9056 27.7351C21.4335 25.8394 27.4771 22.6398 28.2669 17.0309Z" fill="#E6E6DD" stroke="#E6E6DD" stroke-width="0.755906" stroke-miterlimit="22.9256"/>
<path d="M16.8889 30.3676C16.9036 30.4551 16.9301 30.5004 16.9301 30.5004C16.9075 30.459 16.9036 30.4116 16.8889 30.3676Z" fill="#E6E6DD" stroke="#E6E6DD" stroke-width="0.755906" stroke-miterlimit="22.9256"/>
<path d="M8.62897 5.48096C9.68237 5.79699 11.0518 6.4817 11.4729 7.32439C11.789 7.21888 11.8415 7.06091 11.8415 7.06091C11.8415 7.06091 10.5251 5.58636 8.62897 5.48096Z" fill="#E6E6DD" stroke="#E6E6DD" stroke-width="0.755906" stroke-miterlimit="22.9256"/>
<path d="M20.1363 6.99755C19.9574 7.06895 19.7649 7.22413 19.6117 7.45494C19.3968 7.77889 19.3391 8.12043 19.437 8.31724C16.7254 12.7339 9.92588 18.1382 7.26904 20.1535C2.81186 23.5345 3.54845 28.2411 3.94419 30.7689L3.99646 31.1052C4.43626 33.4648 6.38549 33.5168 7.22073 33.5168C6.70615 33.8638 6.20723 33.9674 5.9483 34.0209C5.76357 34.0591 5.64116 34.0852 5.62377 34.2201C5.61237 34.3066 5.66038 34.3772 5.77854 34.4359C6.36433 34.67 6.7447 35.5029 7.14788 36.3842C7.33628 36.7972 7.52961 37.2194 7.75589 37.6141C4.28834 35.7233 2.391 32.8638 2.03188 29.6278C0.547275 15.3571 9.80666 8.85963 14.3517 5.70648C14.6811 5.47827 14.9737 5.27316 15.243 5.0806C15.4262 5.21645 15.7951 5.17461 16.1475 4.94833C16.5158 4.71162 16.7109 4.37367 16.6372 4.15029C17.7421 3.51108 18.5372 3.32403 19.0874 3.32403C19.8217 3.32403 20.1204 3.65503 20.1417 3.67948C20.7701 4.56341 20.6879 5.71208 20.1363 6.99755ZM17.5553 15.9807C17.3974 16.2373 17.2912 16.1749 17.1603 16.1192C16.9045 16.0094 15.8909 15.5083 15.63 13.6223C16.026 13.2171 16.4113 12.8087 16.7832 12.3986C17.1616 12.9337 17.3561 14.2499 17.398 15.2673C17.539 13.7768 17.1639 12.5965 16.998 12.1605C17.2089 11.9239 17.4136 11.6871 17.6132 11.4508C17.8721 11.9164 18.6456 13.6328 17.5553 15.9807ZM8.52968 6.81698C7.92921 5.41972 7.62033 4.93761 7.64091 4.86147C7.64091 4.86147 7.44043 4.53724 7.86487 4.52584C8.59403 4.50651 11.1506 5.26562 13.2421 6.09565C12.3577 6.71998 11.3563 7.45658 10.3203 8.32178C9.90202 8.23067 9.0002 7.91164 8.52968 6.81698ZM20.8913 5.0949C20.8835 4.50593 20.7336 3.96431 20.3962 3.49243L20.3933 3.48886C20.3575 3.44084 19.7126 2.65167 17.9763 3.19688C18.0703 2.93872 18.1385 2.3712 17.1488 2C17.5096 2.23371 17.9442 2.65428 17.6226 3.31842C17.2469 3.46441 16.8216 3.67629 16.3519 3.95667C16.153 3.93522 15.8937 3.99753 15.6407 4.15985C15.371 4.33318 15.1983 4.5611 15.148 4.75993C14.8591 4.96853 14.5355 5.19451 14.1714 5.44687C13.887 5.64416 13.5834 5.85469 13.265 6.07942C12.552 5.65421 7.96516 3.13292 6.86422 4.47318C7.39087 5.36862 7.75946 6.94858 8.70736 7.7387C9.33285 8.25975 9.92656 8.36062 10.2621 8.37047C5.65159 12.238 0.373269 18.7077 1.51923 29.7241C1.90879 33.2318 4.25868 36.2307 8.13655 38.1695L8.70987 38.4569L8.33548 37.9357C7.97665 37.4378 7.70139 36.8355 7.43522 36.2527C7.06624 35.4461 6.71533 34.6778 6.17622 34.2952C6.53572 34.2129 7.11368 34.0414 7.67231 33.571C7.7898 33.4799 7.79019 33.3915 7.76961 33.3336C7.72062 33.1945 7.59135 33.1965 7.30595 33.1998C6.53312 33.2056 4.71451 33.2327 4.30757 31.053L4.25636 30.7205C3.87077 28.257 3.25561 23.9282 7.56198 20.6616C9.63652 19.0878 12.803 16.4982 15.531 13.7229C15.5558 14.3938 15.772 15.6382 16.9827 16.4548L17.3382 16.7509C17.3382 16.7509 17.5358 17.0471 17.7924 16.4743C18.0464 15.9082 19.0684 13.7771 17.6399 11.4187C18.4862 10.4141 19.2228 9.41527 19.7805 8.45829C19.981 8.41259 20.2137 8.24217 20.3924 7.97309C20.6503 7.58421 20.6904 7.1617 20.4926 7.00799C20.6846 6.51718 20.811 6.04569 20.8643 5.59778C21.3706 4.91017 22.0507 5.09268 22.4951 5.30977C21.6697 4.65511 21.1483 4.87558 20.8913 5.0949Z" fill="#E6E6DD" stroke="#E6E6DD" stroke-width="0.755906" stroke-miterlimit="22.9256"/>
<path d="M12.5393 12.7224C10.0112 14.6185 3.96787 17.8179 3.17804 23.4267C3.80991 21.6099 4.36294 19.3979 7.56237 17.0672C10.674 14.801 15.0776 11.6429 14.5555 10.0901C14.6071 10.3964 14.5063 11.2472 12.5393 12.7224Z" fill="#E6E6DD" stroke="#E6E6DD" stroke-width="0.755906" stroke-miterlimit="22.9256"/>
<path d="M14.5552 10.09C14.5405 10.0027 14.5141 9.9574 14.5141 9.9574C14.5365 9.99846 14.5405 10.0462 14.5552 10.09Z" fill="#E6E6DD" stroke="#E6E6DD" stroke-width="0.755906" stroke-miterlimit="22.9256"/>
<path fill-rule="evenodd" clip-rule="evenodd" d="M64.5815 33.5561H57.5236L56.7902 36.5448H48.4442L41.7597 18.8832V36.5448H36.8604V5.77387H41.5251L48.1201 23.4668V5.77387H53.0193V31.6465L59.0182 5.77387H63.0871L70.2217 36.5448H65.315L64.5815 33.5561ZM58.9885 29.0838H63.072L61.0271 15.6326L58.9885 29.0838ZM90.2806 24.6214C90.0873 24.3279 89.8308 24.0953 89.5265 23.9172C89.1056 23.6707 88.65 23.4726 88.1997 23.2892L84.9639 22.0087C83.3771 21.3807 81.7568 20.4172 80.9438 18.8687C80.1684 17.3916 79.9252 15.6695 79.9252 14.0223C79.9252 12.9024 80.0817 11.791 80.4212 10.7217C80.4728 10.5591 80.5293 10.3978 80.5907 10.2385H76.4909V36.5375H71.5916V10.2385H66.3608V5.76653H81.722V8.01912C81.7419 8.00164 81.7618 7.98425 81.7817 7.96696C82.0584 7.72619 82.3472 7.49673 82.6412 7.27693C82.9367 7.05606 83.2402 6.84292 83.5513 6.64399C83.8073 6.48032 84.0794 6.31656 84.356 6.18951C85.4507 5.68643 86.6726 5.5105 87.871 5.5105C88.9579 5.5105 90.0268 5.69493 91.0273 6.12342C91.9437 6.51597 92.781 7.04969 93.4983 7.73952L93.5035 7.74474C94.8333 9.08162 95.5959 10.6779 95.5959 12.5709V14.8921H90.697V13.7234C90.697 12.837 90.4966 11.9882 89.9967 11.244C89.4734 10.4649 88.5933 10.2385 87.6942 10.2385C87.2184 10.2385 86.6986 10.3076 86.2838 10.5535C85.9384 10.7582 85.6424 11.0216 85.4134 11.3502C85.1815 11.7151 85.0335 12.1183 84.9534 12.5412C84.8636 13.0153 84.8238 13.4978 84.8238 13.9798C84.8238 14.4708 84.8351 14.9651 84.8893 15.4535C84.928 15.8032 85.0246 16.1422 85.1987 16.45C85.3723 16.757 85.6231 17.0015 85.916 17.1976C86.329 17.4743 86.8104 17.6836 87.2744 17.8612L90.7314 19.1843C91.6073 19.5073 92.49 19.9295 93.2209 20.5158C93.8382 21.0111 94.3523 21.6044 94.7292 22.2982L94.7334 22.3061L94.7373 22.3142C95.0931 23.064 95.3056 23.8727 95.4169 24.692C95.5515 25.6825 95.5959 26.6852 95.5959 27.684C95.5959 28.8962 95.478 30.1125 95.1919 31.2925C94.9419 32.3234 94.527 33.3132 93.8726 34.1589C93.2108 35.0144 92.3491 35.6469 91.3631 36.0935C90.1971 36.6215 88.8777 36.7934 87.6052 36.7934C86.5323 36.7934 85.4771 36.6163 84.4775 36.2254C83.5453 35.8607 82.6965 35.3424 81.977 34.6491C81.277 33.9747 80.7227 33.1884 80.3185 32.3084C79.8953 31.3867 79.7031 30.4022 79.7031 29.3918V27.5825H84.6025V29.136C84.6025 29.8942 84.8348 30.5737 85.2956 31.1789C85.8363 31.889 86.7566 32.0653 87.6052 32.0653C88.1549 32.0653 88.8184 32.0124 89.3157 31.7648C89.7053 31.5708 90.0138 31.2922 90.2352 30.9195C90.4788 30.5094 90.593 30.0401 90.6305 29.5692C90.6792 28.9564 90.697 28.3412 90.697 27.7266C90.697 27.0796 90.6834 26.4273 90.6092 25.784C90.5642 25.3944 90.4758 24.9665 90.2806 24.6214ZM102.343 5.77387V29.0998C102.343 29.889 102.487 30.7826 103.084 31.3574C103.601 31.8557 104.232 32.0725 104.948 32.0725C105.664 32.0725 106.293 31.8549 106.811 31.3574C107.408 30.7824 107.552 29.8895 107.552 29.0998V5.77387H112.451V29.5271C112.451 30.503 112.275 31.4588 111.881 32.3556C111.498 33.2255 110.952 33.9951 110.266 34.6563C109.566 35.33 108.757 35.8559 107.858 36.2311C106.932 36.6174 105.952 36.801 104.948 36.801C103.951 36.801 102.976 36.6201 102.058 36.2307C101.169 35.8533 100.368 35.3243 99.6739 34.6563C98.9855 33.9935 98.4346 33.2243 98.0381 32.3581C97.6285 31.4633 97.4447 30.5072 97.4447 29.5271V5.77387H102.343ZM124.715 21.6216L130.39 5.77378H135.1V36.5448H130.201V18.7696L125.959 31.1229H123.427L119.231 18.7512V36.5448H114.331V5.77378H118.997L124.715 21.6216ZM137.151 36.552V5.78102H142.05V36.552H137.151Z" fill="#E6E6DD"/>
<path d="M37.0419 40.2676H38.2436V47.6464C38.2436 48.3976 38.1423 48.9394 37.939 49.2718C37.6401 49.7576 37.1529 50.0003 36.4782 50.0003C36.0794 50.0003 35.7401 49.9176 35.46 49.7506V48.4561C35.8016 48.6762 36.0661 48.7862 36.2536 48.7862C36.7793 48.7862 37.0419 48.3852 37.0419 47.5838V47.1981V40.2676Z" fill="#E6E6DD"/>
<path d="M47.211 47.0048L46.9462 45.4737C46.77 44.431 46.6263 43.3183 46.515 42.1355C46.4613 42.7125 46.3926 43.2971 46.3081 43.8882C46.224 44.4799 46.1241 45.108 46.0091 45.7722L45.7906 47.0048H47.211ZM46.0666 40.2676H46.9983L48.9014 49.8816H47.717L47.3834 48.0074H45.6237L45.2844 49.8816H44.1342L46.0666 40.2676Z" fill="#E6E6DD"/>
<path d="M55.9355 44.5082C56.4302 44.5082 56.7711 44.4001 56.9591 44.1842C57.1508 43.9641 57.2468 43.5741 57.2468 43.014C57.2468 42.441 57.1546 42.0215 56.9705 41.756C56.7868 41.4902 56.4973 41.3573 56.1024 41.3573H55.9355V44.5082ZM54.7396 40.2676H56.3152C57.0742 40.2676 57.6261 40.4755 57.9713 40.8902C58.3162 41.3096 58.4889 41.9739 58.4889 42.8831C58.4889 44.1613 58.1417 44.9881 57.4481 45.3614C57.0992 45.5312 56.595 45.6164 55.9355 45.6164V49.8816H54.7396V40.2676Z" fill="#E6E6DD"/>
<path d="M66.9698 47.0048L66.705 45.4737C66.5285 44.431 66.3851 43.3183 66.2738 42.1355C66.2201 42.7125 66.151 43.2971 66.0668 43.8882C65.9825 44.4799 65.8827 45.108 65.7675 45.7722L65.5491 47.0048H66.9698ZM65.8254 40.2676H66.7571L68.6603 49.8816H67.4755L67.1423 48.0074H65.3825L65.0428 49.8816H63.8931L65.8254 40.2676Z" fill="#E6E6DD"/>
<path d="M74.5658 40.2676H75.6813L76.8719 44.1035C77.2169 45.1869 77.5215 46.3431 77.7861 47.5721C77.6904 46.829 77.6197 46.1564 77.5734 45.5542C77.5276 44.9522 77.5047 44.3855 77.5047 43.8542V40.2676H78.7064V49.8816H77.5848L76.2448 45.5542C76.1224 45.1512 76.0063 44.7385 75.8973 44.3152C75.7879 43.8914 75.687 43.4475 75.5951 42.9826C75.5872 42.9244 75.5751 42.8541 75.5579 42.7711C75.5405 42.6882 75.5201 42.5927 75.4976 42.4846C75.509 42.5927 75.5185 42.6846 75.5264 42.7616C75.5338 42.8385 75.5395 42.904 75.5434 42.9575L75.6066 43.9353L75.6699 45.1243C75.6734 45.191 75.6766 45.2721 75.6788 45.3672C75.6804 45.4629 75.6813 45.5709 75.6813 45.6912L75.7449 49.8816H74.5658V40.2676Z" fill="#E6E6DD"/>
<path d="M85.3171 40.2676H88.4966V41.3634H86.513V44.4084H88.2724V45.5043H86.513V48.7862H88.4966V49.8816H85.3171V40.2676Z" fill="#E6E6DD"/>
<path d="M98.2738 40.4669V41.7308C97.9094 41.4485 97.5812 41.3072 97.2902 41.3072C96.9761 41.3072 96.7185 41.4278 96.5197 41.6682C96.32 41.8969 96.2205 42.2021 96.2205 42.5837C96.2205 42.9198 96.2914 43.2081 96.4333 43.4492C96.5057 43.578 96.6259 43.7441 96.7926 43.9475C96.9598 44.1507 97.1751 44.3953 97.4393 44.6821C97.9262 45.2176 98.2582 45.6805 98.435 46.0707C98.6112 46.4488 98.6992 46.9115 98.6992 47.4591C98.6992 48.2026 98.5055 48.8147 98.1183 49.2961C97.731 49.7655 97.2342 49.9998 96.6285 49.9998C96.1191 49.9998 95.6834 49.8484 95.3237 49.5454V48.263C95.7493 48.5987 96.1363 48.7673 96.4848 48.7673C96.8106 48.7673 97.066 48.6496 97.2498 48.4147C97.4339 48.1806 97.5258 47.8619 97.5258 47.4591C97.5258 47.1105 97.4553 46.7973 97.3131 46.5191C97.2406 46.3862 97.1389 46.2336 97.0085 46.0619C96.8778 45.8891 96.7153 45.6974 96.5197 45.485C96.2167 45.1619 95.9655 44.8751 95.7657 44.6262C95.567 44.3768 95.4192 44.1589 95.3237 43.972C95.1393 43.6067 95.0471 43.1465 95.0471 42.5897C95.0471 41.8383 95.2275 41.2427 95.588 40.803C95.9521 40.3584 96.4409 40.1367 97.0539 40.1367C97.4797 40.1367 97.8858 40.2468 98.2738 40.4669Z" fill="#E6E6DD"/>
<path d="M105.332 40.2676H108.512V41.3634H106.528V44.4084H108.288V45.5043H106.528V48.7862H108.512V49.8816H105.332V40.2676Z" fill="#E6E6DD"/>
<path d="M123.037 40.2676H126.234V41.3634H124.233V44.4024H126.038V45.4982H124.233V49.8816H123.037V40.2676Z" fill="#E6E6DD"/>
<path d="M135.791 45.4477C135.791 43.7833 135.722 42.6793 135.584 42.1351C135.446 41.5869 135.164 41.3135 134.739 41.3135C134.313 41.3135 134.03 41.5647 133.888 42.0665C133.749 42.5734 133.68 43.5903 133.68 45.1179C133.68 46.525 133.753 47.5003 133.899 48.0444C134.049 48.5588 134.328 48.8168 134.739 48.8168C135.141 48.8168 135.417 48.5757 135.566 48.0942C135.716 47.6169 135.791 46.7345 135.791 45.4477ZM137.044 45.3106C137.044 47.0086 136.87 48.2145 136.521 48.9284C136.172 49.6425 135.587 49.9997 134.767 49.9997C133.904 49.9997 133.297 49.6154 132.945 48.8472C132.595 48.0962 132.421 46.7619 132.421 44.8439C132.421 43.1337 132.594 41.9237 132.939 41.214C133.287 40.4994 133.878 40.1423 134.71 40.1423C135.453 40.1423 136.006 40.4187 136.366 40.971C136.604 41.3406 136.777 41.8652 136.883 42.5463C136.991 43.1771 137.044 44.099 137.044 45.3106Z" fill="#E6E6DD"/>
<path d="M146.948 45.4477C146.948 43.7833 146.879 42.6793 146.741 42.1351C146.603 41.5869 146.322 41.3135 145.896 41.3135C145.471 41.3135 145.187 41.5647 145.045 42.0665C144.907 42.5734 144.837 43.5903 144.837 45.1179C144.837 46.525 144.91 47.5003 145.056 48.0444C145.206 48.5588 145.485 48.8168 145.896 48.8168C146.298 48.8168 146.575 48.5757 146.724 48.0942C146.873 47.6169 146.948 46.7345 146.948 45.4477ZM148.202 45.3106C148.202 47.0086 148.028 48.2145 147.678 48.9284C147.329 49.6425 146.745 49.9997 145.924 49.9997C145.062 49.9997 144.454 49.6154 144.102 48.8472C143.752 48.0962 143.578 46.7619 143.578 44.8439C143.578 43.1337 143.751 41.9237 144.096 41.214C144.444 40.4994 145.035 40.1423 145.867 40.1423C146.611 40.1423 147.163 40.4187 147.523 40.971C147.761 41.3406 147.934 41.8652 148.041 42.5463C148.148 43.1771 148.202 44.099 148.202 45.3106Z" fill="#E6E6DD"/>
<path d="M156.037 48.749C156.765 48.749 157.251 48.5102 157.497 48.0323C157.75 47.5552 157.876 46.6277 157.876 45.2495C157.876 43.7671 157.755 42.7483 157.514 42.1918C157.273 41.6359 156.83 41.3574 156.186 41.3574H156.037V48.749ZM154.84 40.2676H156.312C156.761 40.2676 157.139 40.3217 157.446 40.4301C157.729 40.5335 157.982 40.7186 158.204 40.9841C158.538 41.3828 158.776 41.9014 158.918 42.5406C159.06 43.1588 159.13 44.0454 159.13 45.1996C159.13 46.2581 159.052 47.1212 158.895 47.7893C158.741 48.429 158.488 48.9166 158.136 49.2532C157.702 49.6722 156.926 49.882 155.806 49.882H154.84V40.2676Z" fill="#E6E6DD"/>
<path fill-rule="evenodd" clip-rule="evenodd" d="M159.011 6.17139H145.63V7.89134H159.011V6.17139Z" fill="#E6E6DD"/>
<path fill-rule="evenodd" clip-rule="evenodd" d="M159.011 13.4162H152.923V10.6352H159.011V8.91492H145.63V10.6352H151.488V13.4162H145.63V15.1365H159.011V13.4162Z" fill="#E6E6DD"/>
<path fill-rule="evenodd" clip-rule="evenodd" d="M155.443 20.6026V22.3222H156.026C156.448 22.3222 156.858 22.2442 157.243 22.0692C157.613 21.9008 157.942 21.6713 158.226 21.3799C158.517 21.081 158.733 20.7296 158.886 20.3424C159.051 19.9239 159.125 19.4835 159.125 19.0343C159.125 18.5023 159.054 17.9441 158.831 17.4564C158.646 17.0515 158.385 16.6978 158.031 16.4262C157.676 16.1546 157.26 15.9839 156.827 15.8802C156.314 15.757 155.785 15.7062 155.258 15.7062C154.82 15.7062 154.377 15.7255 153.943 15.784C153.598 15.8303 153.258 15.918 152.942 16.0659C152.658 16.219 152.416 16.4275 152.213 16.6783C151.966 16.9829 151.786 17.3574 151.65 17.7228L151.054 19.2647C150.969 19.4858 150.865 19.7194 150.732 19.9161C150.623 20.0765 150.487 20.212 150.317 20.3071C150.151 20.4002 149.969 20.4525 149.781 20.4734C149.554 20.4984 149.321 20.5036 149.093 20.5036C148.862 20.5036 148.631 20.4842 148.403 20.4418C148.183 20.4008 147.974 20.3245 147.785 20.2045L147.783 20.2032L147.781 20.2017C147.604 20.0812 147.463 19.9244 147.353 19.7414C147.22 19.5188 147.179 19.2506 147.179 18.9947C147.179 18.5119 147.316 18.0541 147.734 17.7765C148.107 17.5285 148.532 17.4264 148.978 17.4264H149.272V15.7062H148.459C147.67 15.7062 147.01 16.0208 146.451 16.571C146.16 16.8705 145.936 17.2189 145.771 17.6016C145.59 18.0185 145.513 18.4627 145.513 18.9156C145.513 19.4147 145.586 19.9276 145.798 20.3836C145.978 20.7717 146.225 21.1147 146.555 21.3887L146.557 21.3899L146.558 21.391C146.89 21.6802 147.277 21.8814 147.697 22.013C148.156 22.1572 148.631 22.2236 149.112 22.2236C149.814 22.2236 150.556 22.1233 151.186 21.796C151.829 21.4616 152.23 20.7751 152.49 20.1245L153.067 18.6833C153.152 18.4712 153.249 18.2575 153.365 18.0608C153.463 17.8942 153.594 17.7545 153.755 17.648L153.76 17.6449L153.765 17.6423C153.949 17.5394 154.169 17.4905 154.377 17.4666C154.673 17.4326 154.98 17.4264 155.278 17.4264C155.56 17.4264 155.843 17.4338 156.124 17.4562C156.372 17.476 156.615 17.5373 156.83 17.6637C157.037 17.7848 157.193 17.9549 157.3 18.1686C157.429 18.4256 157.46 18.7506 157.46 19.0343C157.46 19.4905 157.351 19.9593 156.969 20.2471C156.657 20.4829 156.303 20.6026 155.911 20.6026H155.443Z" fill="#E6E6DD"/>
<path fill-rule="evenodd" clip-rule="evenodd" d="M145.63 22.8921V24.6123H155.892C156.314 24.6123 156.768 24.6972 157.074 25.012C157.339 25.2856 157.461 25.6229 157.461 26.0029C157.461 26.3827 157.339 26.7199 157.074 26.9933C156.768 27.3084 156.315 27.3934 155.892 27.3934H145.63V29.114H156.085C156.493 29.114 156.89 29.0384 157.263 28.8698C157.627 28.7053 157.948 28.4769 158.227 28.1906C158.508 27.9013 158.729 27.5695 158.888 27.1985C159.051 26.8184 159.126 26.4161 159.126 26.0029C159.126 25.5859 159.05 25.1807 158.888 24.7965C158.73 24.4221 158.51 24.0867 158.227 23.7954C157.95 23.5104 157.629 23.2856 157.265 23.1269C156.89 22.9637 156.492 22.8921 156.085 22.8921H145.63Z" fill="#E6E6DD"/>
<path fill-rule="evenodd" clip-rule="evenodd" d="M152.943 30.0434C152.658 30.1971 152.416 30.4052 152.213 30.6562C151.966 30.9608 151.787 31.3353 151.65 31.7008L151.054 33.243C150.969 33.4639 150.865 33.697 150.732 33.8938C150.623 34.0543 150.487 34.19 150.317 34.2851C150.151 34.3779 149.969 34.4306 149.781 34.4513C149.554 34.4762 149.321 34.4816 149.093 34.4816C148.862 34.4816 148.631 34.4621 148.403 34.4197C148.183 34.3787 147.974 34.3025 147.784 34.1819L147.783 34.1806L147.781 34.1793C147.604 34.0588 147.463 33.9024 147.354 33.7194C147.22 33.4969 147.179 33.2285 147.179 32.9726C147.179 32.4897 147.317 32.0328 147.734 31.7548C148.107 31.5063 148.532 31.4043 148.978 31.4043H149.272V29.6837H148.459C147.67 29.6837 147.01 29.9991 146.451 30.5493C146.159 30.8486 145.936 31.197 145.771 31.5798C145.59 31.9967 145.513 32.4408 145.513 32.8938C145.513 33.3927 145.586 33.9057 145.798 34.3615C145.978 34.7497 146.225 35.0928 146.555 35.3671L146.557 35.3681L146.558 35.3692C146.89 35.658 147.277 35.8596 147.697 35.9913C148.156 36.1354 148.631 36.2012 149.112 36.2012C149.814 36.2012 150.557 36.1011 151.186 35.7739C151.829 35.4393 152.23 34.7534 152.491 34.1024L153.067 32.6611C153.152 32.4492 153.249 32.2352 153.365 32.0384C153.463 31.8719 153.594 31.7318 153.756 31.6256L153.76 31.6228L153.765 31.6202C153.949 31.5171 154.169 31.4686 154.377 31.4445C154.673 31.4104 154.98 31.4043 155.278 31.4043C155.56 31.4043 155.843 31.4117 156.124 31.4341C156.372 31.4539 156.615 31.5151 156.831 31.6416C157.037 31.763 157.193 31.9327 157.3 32.1466C157.429 32.4036 157.46 32.7282 157.46 33.0118C157.46 33.4682 157.351 33.937 156.969 34.2251C156.657 34.4608 156.302 34.5801 155.911 34.5801H155.443V36.3001H156.026C156.448 36.3001 156.858 36.2218 157.243 36.0466C157.613 35.878 157.943 35.6489 158.226 35.3575C158.517 35.0587 158.733 34.7076 158.886 34.3203C159.051 33.9015 159.126 33.4614 159.126 33.0118C159.126 32.4799 159.054 31.922 158.831 31.4343C158.646 31.0293 158.385 30.6757 158.031 30.404C157.676 30.1324 157.26 29.9618 156.828 29.8581C156.314 29.735 155.785 29.6837 155.258 29.6837C154.82 29.6837 154.377 29.7035 153.943 29.7622C153.599 29.8086 153.258 29.8958 152.943 30.0434Z" fill="#E6E6DD"/>
</svg>
